<svg id="svg" version="1.1" width="673" height="500" xmlns="http://www.w3.org/2000/svg" xmlns:xlink="http://www.w3.org/1999/xlink" style="display: block;"><g id="svgg"><path id="path0" d="M277.301 20.151 C 277.080 20.509,276.000 20.802,274.902 20.802 C 273.003 20.802,269.170 22.376,268.747 23.328 C 268.638 23.574,268.135 23.774,267.628 23.774 C 267.122 23.774,265.825 24.710,264.746 25.854 C 263.667 26.999,262.499 27.935,262.150 27.935 C 261.801 27.935,261.516 28.220,261.516 28.569 C 261.516 28.918,260.643 30.054,259.576 31.095 C 258.508 32.135,257.238 33.789,256.753 34.770 C 256.268 35.750,255.716 36.686,255.526 36.850 C 254.662 37.595,253.195 41.351,253.195 42.817 C 253.195 43.710,252.795 45.207,252.307 46.143 C 251.128 48.403,251.128 55.608,252.307 57.869 C 252.795 58.805,253.195 60.168,253.195 60.898 C 253.195 62.466,254.772 65.798,256.283 67.423 C 256.873 68.056,257.355 68.747,257.355 68.957 C 257.355 69.167,258.024 69.696,258.841 70.134 C 259.658 70.571,260.327 71.285,260.327 71.720 C 260.327 72.155,260.728 72.511,261.218 72.511 C 261.709 72.511,262.110 72.779,262.110 73.105 C 262.110 73.432,262.645 73.700,263.299 73.700 C 263.959 73.700,264.487 74.096,264.487 74.591 C 264.487 75.082,264.889 75.483,265.379 75.483 C 265.869 75.483,266.270 75.750,266.270 76.077 C 266.270 76.404,266.556 76.672,266.904 76.672 C 267.253 76.672,268.415 77.340,269.487 78.158 C 270.558 78.975,271.877 79.643,272.419 79.643 C 272.960 79.643,273.403 79.911,273.403 80.238 C 273.403 80.565,273.804 80.832,274.294 80.832 C 276.537 80.832,270.912 87.215,261.651 95.177 C 260.269 96.366,259.138 97.636,259.138 98.000 C 259.138 98.365,258.847 98.663,258.491 98.663 C 258.135 98.663,256.674 99.866,255.244 101.337 C 253.814 102.808,252.522 104.012,252.371 104.012 C 252.221 104.012,251.337 104.747,250.407 105.646 C 247.979 107.995,244.058 111.128,243.536 111.137 C 243.291 111.141,243.091 111.545,243.091 112.036 C 243.091 112.526,242.689 112.927,242.199 112.927 C 241.709 112.927,241.308 113.195,241.308 113.522 C 241.308 113.848,240.898 114.116,240.397 114.116 C 239.897 114.116,239.333 114.517,239.145 115.007 C 238.957 115.498,238.529 115.899,238.193 115.899 C 237.858 115.899,237.151 116.386,236.622 116.981 C 236.094 117.577,234.792 118.570,233.730 119.190 C 232.667 119.809,231.798 120.526,231.798 120.782 C 231.798 121.038,231.397 121.248,230.906 121.248 C 230.416 121.248,230.015 121.649,230.015 122.140 C 230.015 122.635,229.487 123.031,228.826 123.031 C 228.172 123.031,227.637 123.299,227.637 123.626 C 227.637 123.952,227.259 124.220,226.795 124.220 C 226.332 124.220,225.864 124.421,225.755 124.666 C 225.510 125.218,221.177 128.028,219.762 128.552 C 219.190 128.764,218.722 129.213,218.722 129.550 C 218.722 129.888,218.347 130.163,217.888 130.163 C 217.429 130.163,215.397 131.100,213.373 132.244 C 211.349 133.388,209.541 134.324,209.355 134.324 C 208.512 134.324,204.458 136.387,204.458 136.816 C 204.458 137.080,203.789 137.296,202.972 137.296 C 202.155 137.296,201.486 137.563,201.486 137.890 C 201.486 138.217,200.846 138.484,200.064 138.484 C 199.281 138.484,198.487 138.886,198.299 139.376 C 198.111 139.866,197.296 140.267,196.488 140.267 C 195.679 140.267,194.853 140.535,194.651 140.862 C 194.449 141.189,193.646 141.456,192.868 141.456 C 192.089 141.456,191.287 141.724,191.085 142.051 C 190.883 142.377,190.217 142.645,189.606 142.645 C 188.995 142.645,188.094 143.046,187.603 143.536 C 187.113 144.027,186.040 144.428,185.219 144.428 C 184.397 144.428,183.560 144.695,183.358 145.022 C 183.156 145.349,182.367 145.617,181.604 145.617 C 180.841 145.617,180.062 146.018,179.874 146.508 C 179.648 147.097,178.718 147.400,177.136 147.400 C 175.818 147.400,174.740 147.667,174.740 147.994 C 174.740 148.321,173.953 148.588,172.992 148.588 C 172.031 148.588,171.100 148.821,170.925 149.105 C 170.749 149.389,169.530 149.793,168.215 150.003 C 166.900 150.213,165.825 150.650,165.825 150.973 C 165.825 151.296,164.771 151.560,163.482 151.560 C 162.194 151.560,160.975 151.828,160.773 152.155 C 160.571 152.481,159.670 152.749,158.771 152.749 C 157.872 152.749,156.617 153.142,155.983 153.622 C 155.348 154.101,153.708 154.503,152.338 154.513 C 150.968 154.523,149.682 154.799,149.480 155.126 C 149.278 155.453,148.125 155.729,146.919 155.740 C 145.712 155.750,144.206 156.151,143.571 156.631 C 142.928 157.117,141.152 157.504,139.560 157.504 C 137.988 157.504,136.701 157.771,136.701 158.098 C 136.701 158.437,134.930 158.692,132.576 158.692 C 130.307 158.692,128.285 158.960,128.083 159.287 C 127.858 159.652,123.025 159.881,115.567 159.881 C 107.863 159.881,103.418 159.664,103.418 159.287 C 103.418 158.960,101.962 158.692,100.184 158.692 C 98.405 158.692,96.784 158.425,96.582 158.098 C 96.380 157.771,95.314 157.504,94.212 157.504 C 93.111 157.504,91.809 157.103,91.318 156.612 C 90.828 156.122,89.755 155.721,88.933 155.721 C 88.112 155.721,87.275 155.453,87.073 155.126 C 86.871 154.799,85.814 154.532,84.724 154.532 C 83.511 154.532,82.610 154.186,82.400 153.640 C 82.212 153.150,81.397 152.749,80.589 152.749 C 79.780 152.749,78.954 152.481,78.752 152.155 C 78.550 151.828,77.887 151.560,77.279 151.560 C 76.085 151.560,72.340 149.763,72.016 149.034 C 71.907 148.789,71.038 148.588,70.084 148.588 C 69.131 148.588,68.351 148.321,68.351 147.994 C 68.351 147.667,67.711 147.400,66.928 147.400 C 66.146 147.400,65.352 146.999,65.164 146.508 C 64.976 146.018,64.279 145.617,63.614 145.617 C 62.950 145.617,62.407 145.349,62.407 145.022 C 62.407 144.695,61.905 144.428,61.291 144.428 C 60.677 144.428,59.842 144.027,59.435 143.536 C 59.028 143.046,58.193 142.645,57.580 142.645 C 56.966 142.645,56.464 142.377,56.464 142.051 C 56.464 141.724,55.795 141.456,54.978 141.456 C 54.160 141.456,53.492 141.189,53.492 140.862 C 53.492 140.535,53.091 140.267,52.600 140.267 C 52.110 140.267,51.709 139.992,51.709 139.654 C 51.709 139.317,51.241 138.865,50.669 138.649 C 50.097 138.433,48.692 137.374,47.548 136.295 C 46.404 135.217,45.263 134.332,45.012 134.329 C 44.761 134.326,43.646 133.388,42.535 132.244 C 41.424 131.100,40.254 130.163,39.935 130.163 C 39.616 130.163,39.201 129.762,39.012 129.272 C 38.420 127.729,33.856 128.114,31.966 129.866 C 31.085 130.684,29.833 131.352,29.184 131.352 C 28.536 131.352,27.852 131.599,27.666 131.901 C 27.479 132.203,26.527 132.625,25.550 132.840 C 24.573 133.054,23.774 133.476,23.774 133.777 C 23.774 134.078,23.306 134.332,22.734 134.343 C 21.449 134.366,19.614 135.705,19.614 136.618 C 19.614 136.991,19.098 137.296,18.468 137.296 C 17.838 137.296,16.797 137.964,16.154 138.782 C 15.511 139.599,14.804 140.267,14.582 140.267 C 14.060 140.267,12.481 141.846,12.481 142.368 C 12.481 142.590,11.813 143.297,10.996 143.940 C 10.178 144.583,9.510 145.453,9.510 145.874 C 9.510 146.295,8.841 147.141,8.024 147.755 C 7.207 148.368,6.538 149.208,6.538 149.621 C 6.538 150.034,6.299 150.371,6.008 150.371 C 5.717 150.371,5.310 151.040,5.105 151.857 C 4.900 152.675,4.470 153.343,4.149 153.343 C 3.828 153.343,3.566 154.264,3.566 155.388 C 3.566 156.513,3.299 157.599,2.972 157.801 C 2.200 158.278,2.200 161.484,2.972 161.961 C 3.299 162.163,3.566 163.173,3.566 164.205 C 3.566 166.366,5.262 171.174,6.024 171.174 C 6.307 171.174,6.538 171.842,6.538 172.660 C 6.538 173.477,6.805 174.146,7.132 174.146 C 7.459 174.146,7.727 174.689,7.727 175.353 C 7.727 176.017,8.128 176.714,8.618 176.902 C 9.108 177.091,9.510 177.587,9.510 178.005 C 9.510 178.946,10.577 181.008,12.333 183.458 C 13.068 184.485,13.670 185.751,13.670 186.273 C 13.670 186.795,13.938 187.221,14.264 187.221 C 14.591 187.221,14.859 187.590,14.859 188.040 C 14.859 188.490,15.235 189.171,15.696 189.553 C 16.156 189.935,16.971 191.172,17.507 192.301 C 18.042 193.430,18.736 194.354,19.047 194.354 C 19.359 194.354,19.614 194.755,19.614 195.245 C 19.614 195.736,19.881 196.137,20.208 196.137 C 20.535 196.137,20.802 196.482,20.802 196.904 C 20.802 197.327,21.738 198.665,22.883 199.878 C 24.027 201.091,24.963 202.240,24.963 202.432 C 24.963 203.794,49.562 227.939,51.752 228.727 C 52.055 228.836,52.303 229.304,52.303 229.767 C 52.303 230.230,52.575 230.609,52.906 230.609 C 53.238 230.609,54.748 231.813,56.262 233.284 C 57.775 234.755,59.275 235.958,59.596 235.958 C 59.916 235.958,61.474 237.296,63.057 238.930 C 64.641 240.565,66.212 241.902,66.549 241.902 C 66.886 241.902,67.162 242.169,67.162 242.496 C 67.162 242.823,67.572 243.091,68.072 243.091 C 68.573 243.091,69.136 243.492,69.324 243.982 C 69.513 244.473,69.908 244.874,70.203 244.874 C 70.498 244.874,71.570 245.668,72.586 246.639 C 73.602 247.609,74.936 248.564,75.552 248.759 C 76.168 248.954,76.672 249.364,76.672 249.669 C 76.672 249.973,77.044 250.223,77.500 250.223 C 77.955 250.223,78.481 250.624,78.670 251.114 C 78.858 251.605,79.421 252.006,79.922 252.006 C 80.423 252.006,80.832 252.273,80.832 252.600 C 80.832 252.927,81.233 253.195,81.724 253.195 C 82.214 253.195,82.615 253.450,82.615 253.761 C 82.615 254.073,83.551 254.772,84.695 255.315 C 85.840 255.858,86.776 256.539,86.776 256.828 C 86.776 257.118,87.135 257.355,87.575 257.355 C 88.014 257.355,89.151 258.023,90.101 258.840 C 91.051 259.657,92.296 260.326,92.868 260.326 C 93.440 260.327,93.908 260.599,93.908 260.931 C 93.908 261.263,94.911 261.999,96.137 262.565 C 97.363 263.132,98.499 263.736,98.663 263.907 C 99.493 264.776,102.299 266.270,103.099 266.270 C 103.601 266.270,104.012 266.538,104.012 266.865 C 104.012 267.192,104.681 267.459,105.498 267.459 C 106.422 267.459,106.984 267.796,106.984 268.351 C 106.984 268.905,107.545 269.242,108.470 269.242 C 109.287 269.242,109.955 269.510,109.955 269.837 C 109.955 270.163,110.595 270.431,111.378 270.431 C 112.160 270.431,112.954 270.832,113.142 271.322 C 113.330 271.813,114.012 272.214,114.657 272.214 C 115.301 272.214,115.994 272.481,116.196 272.808 C 116.398 273.135,117.235 273.403,118.057 273.403 C 118.878 273.403,119.897 273.749,120.320 274.173 C 120.744 274.597,122.263 275.292,123.696 275.717 C 125.128 276.142,126.765 276.732,127.332 277.027 C 127.900 277.322,129.004 277.563,129.785 277.563 C 130.567 277.563,131.540 277.964,131.947 278.455 C 132.353 278.945,133.574 279.346,134.659 279.346 C 135.744 279.346,136.796 279.614,136.999 279.941 C 137.201 280.267,138.286 280.535,139.411 280.535 C 140.536 280.535,141.456 280.790,141.456 281.102 C 141.456 281.414,142.459 281.830,143.685 282.026 C 144.911 282.222,146.378 282.636,146.946 282.945 C 147.514 283.254,149.036 283.507,150.328 283.507 C 151.621 283.507,152.844 283.774,153.046 284.101 C 153.248 284.428,154.702 284.695,156.277 284.695 C 158.098 284.695,159.411 285.020,159.881 285.587 C 160.396 286.207,161.763 286.478,164.376 286.478 C 166.442 286.478,168.297 286.746,168.499 287.073 C 168.701 287.400,171.102 287.667,173.834 287.667 C 177.280 287.667,178.877 287.895,179.049 288.410 C 179.460 289.647,217.573 289.814,220.028 288.589 C 221.110 288.050,223.427 287.667,225.613 287.667 C 227.669 287.667,229.516 287.400,229.718 287.073 C 229.920 286.746,231.147 286.478,232.446 286.478 C 233.996 286.478,234.924 286.172,235.149 285.587 C 235.371 285.009,236.293 284.695,237.770 284.695 C 239.023 284.695,240.214 284.428,240.416 284.101 C 240.618 283.774,241.570 283.507,242.531 283.507 C 243.493 283.507,244.279 283.239,244.279 282.912 C 244.279 282.585,244.706 282.318,245.228 282.318 C 245.749 282.318,246.886 281.941,247.754 281.480 C 248.621 281.019,250.360 280.149,251.618 279.548 C 255.523 277.680,256.166 277.296,256.166 276.828 C 256.166 276.578,256.701 276.374,257.355 276.374 C 258.009 276.374,258.548 276.174,258.553 275.929 C 258.558 275.684,260.158 274.547,262.110 273.403 C 264.062 272.259,265.662 271.122,265.667 270.877 C 265.672 270.632,265.963 270.431,266.313 270.431 C 267.136 270.431,268.648 268.919,268.648 268.096 C 268.648 267.746,269.049 267.459,269.539 267.459 C 270.030 267.459,270.431 267.192,270.431 266.865 C 270.431 266.538,270.804 266.270,271.260 266.270 C 272.246 266.270,281.896 256.885,284.398 253.492 C 285.363 252.184,286.827 250.404,287.652 249.536 C 290.811 246.214,291.828 244.986,291.828 244.493 C 291.828 244.212,292.764 242.931,293.908 241.645 C 295.052 240.360,295.988 239.077,295.988 238.794 C 295.988 238.511,296.611 237.690,297.373 236.970 C 298.135 236.250,299.137 234.792,299.599 233.730 C 300.061 232.667,300.634 231.798,300.873 231.798 C 301.111 231.798,301.752 230.929,302.296 229.866 C 302.841 228.804,303.449 227.801,303.649 227.637 C 304.236 227.157,305.504 225.047,305.882 223.923 C 306.074 223.351,306.467 222.883,306.756 222.883 C 307.045 222.883,307.281 222.348,307.281 221.694 C 307.281 221.040,307.536 220.505,307.847 220.505 C 308.159 220.505,308.884 219.502,309.459 218.276 C 310.034 217.051,310.849 215.694,311.270 215.262 C 311.691 214.830,312.036 214.225,312.036 213.918 C 312.036 213.298,314.200 208.229,315.059 206.835 C 315.362 206.345,315.761 205.542,315.946 205.052 C 316.131 204.562,316.531 203.696,316.834 203.128 C 317.137 202.561,317.385 201.539,317.385 200.857 C 317.385 200.176,317.786 199.217,318.276 198.726 C 318.767 198.236,319.168 197.201,319.168 196.427 C 319.168 195.652,319.435 194.853,319.762 194.651 C 320.089 194.449,320.357 193.646,320.357 192.868 C 320.357 192.089,320.609 191.296,320.917 191.106 C 321.225 190.916,321.657 189.559,321.877 188.092 C 322.097 186.624,322.513 185.277,322.803 185.099 C 323.092 184.920,323.328 183.736,323.328 182.467 C 323.328 181.198,323.596 179.994,323.923 179.792 C 324.250 179.590,324.517 178.136,324.517 176.561 C 324.517 174.740,324.842 173.427,325.409 172.957 C 325.999 172.467,326.300 171.137,326.300 169.021 C 326.300 167.263,326.568 165.825,326.895 165.825 C 327.228 165.825,327.489 164.180,327.489 162.080 C 327.489 160.021,327.790 158.035,328.158 157.667 C 329.286 156.539,329.990 146.727,330.248 128.529 C 330.458 113.737,330.626 111.144,331.369 111.144 C 331.850 111.144,332.244 111.360,332.244 111.624 C 332.244 111.888,333.380 112.573,334.770 113.145 C 336.159 113.718,337.760 114.438,338.328 114.745 C 338.895 115.053,339.870 115.305,340.493 115.305 C 341.116 115.305,341.780 115.706,341.968 116.196 C 342.156 116.686,342.838 117.088,343.483 117.088 C 344.127 117.088,344.820 117.355,345.022 117.682 C 345.224 118.009,346.010 118.276,346.768 118.276 C 347.526 118.276,348.479 118.678,348.886 119.168 C 349.293 119.658,350.246 120.059,351.004 120.059 C 351.761 120.059,352.547 120.327,352.749 120.654 C 352.951 120.981,354.148 121.248,355.409 121.248 C 356.715 121.248,357.808 121.568,357.949 121.991 C 358.356 123.216,370.945 123.381,373.328 122.192 C 374.369 121.673,375.714 121.248,376.317 121.248 C 376.921 121.248,377.415 121.010,377.415 120.718 C 377.415 120.427,378.083 120.020,378.900 119.815 C 379.718 119.610,380.386 119.180,380.386 118.859 C 380.386 118.539,380.665 118.276,381.007 118.276 C 381.348 118.276,382.348 117.608,383.229 116.790 C 384.111 115.973,385.053 115.305,385.322 115.305 C 386.148 115.305,392.239 108.620,393.019 106.857 C 393.422 105.946,393.918 105.201,394.121 105.201 C 396.292 105.201,397.358 91.737,395.424 88.726 C 393.738 86.100,393.336 85.621,390.193 82.499 C 384.803 77.145,382.862 75.483,381.999 75.483 C 381.531 75.483,380.645 74.814,380.031 73.997 C 379.418 73.180,378.578 72.511,378.165 72.511 C 377.752 72.511,377.415 72.244,377.415 71.917 C 377.415 71.590,377.027 71.322,376.554 71.322 C 376.080 71.322,374.971 70.654,374.089 69.837 C 373.208 69.019,371.990 68.351,371.384 68.351 C 370.778 68.351,370.282 68.075,370.282 67.738 C 370.282 67.401,369.826 66.950,369.269 66.736 C 368.255 66.347,366.829 65.289,365.009 63.578 C 364.477 63.077,363.239 62.275,362.259 61.796 C 361.278 61.316,360.342 60.783,360.178 60.611 C 359.351 59.743,356.543 58.247,355.742 58.247 C 355.240 58.247,354.829 57.984,354.829 57.664 C 354.829 57.343,354.160 56.913,353.343 56.708 C 352.526 56.503,351.857 56.096,351.857 55.805 C 351.857 55.513,351.456 55.275,350.966 55.275 C 350.475 55.275,350.074 55.007,350.074 54.681 C 350.074 54.354,349.539 54.086,348.886 54.086 C 348.232 54.086,347.697 53.824,347.697 53.503 C 347.697 53.182,347.028 52.752,346.211 52.547 C 345.394 52.342,344.725 51.936,344.725 51.644 C 344.725 51.353,344.085 51.114,343.303 51.114 C 342.521 51.114,341.752 50.780,341.595 50.371 C 341.270 49.529,336.694 46.954,335.520 46.954 C 335.096 46.954,334.594 46.553,334.406 46.062 C 334.218 45.572,333.521 45.171,332.857 45.171 C 332.193 45.171,331.649 44.903,331.649 44.577 C 331.649 44.250,331.128 43.982,330.490 43.982 C 329.853 43.982,329.117 43.648,328.856 43.239 C 328.594 42.831,327.311 41.942,326.003 41.265 C 324.695 40.587,322.346 39.317,320.781 38.442 C 319.217 37.566,317.545 36.850,317.067 36.850 C 316.588 36.850,316.196 36.602,316.196 36.299 C 316.196 35.603,312.788 33.878,311.414 33.878 C 310.845 33.878,310.226 33.477,310.038 32.987 C 309.850 32.496,309.152 32.095,308.488 32.095 C 307.824 32.095,307.279 31.895,307.276 31.649 C 307.271 31.111,304.388 29.718,303.280 29.718 C 302.845 29.718,302.335 29.316,302.147 28.826 C 301.958 28.336,301.164 27.935,300.382 27.935 C 299.600 27.935,298.960 27.667,298.960 27.340 C 298.960 27.013,298.417 26.746,297.753 26.746 C 297.088 26.746,296.391 26.345,296.203 25.854 C 296.015 25.364,295.370 24.963,294.771 24.963 C 294.171 24.963,293.516 24.695,293.314 24.368 C 293.111 24.042,292.293 23.774,291.495 23.774 C 290.697 23.774,290.045 23.565,290.045 23.310 C 290.045 21.874,278.071 18.906,277.301 20.151 M282.615 30.906 C 282.817 31.233,283.425 31.501,283.966 31.501 C 285.012 31.501,304.969 41.222,311.819 45.067 C 314.063 46.327,318.172 48.567,320.951 50.044 C 326.399 52.941,342.661 62.004,350.371 66.441 C 352.987 67.946,356.196 70.023,357.504 71.057 C 358.811 72.091,363.143 74.991,367.131 77.502 C 380.448 85.887,386.924 91.875,386.924 95.803 C 386.924 103.752,371.392 115.041,363.328 112.954 C 359.829 112.049,349.998 108.742,349.183 108.197 C 348.856 107.978,346.716 107.027,344.428 106.083 C 342.140 105.140,337.115 102.817,333.263 100.921 C 319.582 94.188,319.800 93.821,319.902 123.380 C 319.980 145.923,319.632 151.199,317.394 161.367 C 317.107 162.675,316.561 165.483,316.182 167.608 C 315.803 169.733,314.956 173.611,314.300 176.226 C 313.644 178.841,312.901 181.917,312.648 183.061 C 311.223 189.522,305.865 203.240,301.738 210.996 C 299.573 215.063,289.764 230.500,288.897 231.204 C 288.696 231.367,288.052 232.254,287.465 233.174 C 286.879 234.095,286.036 235.299,285.592 235.849 C 285.148 236.400,283.100 238.969,281.043 241.559 C 261.392 266.292,241.600 276.810,209.809 279.416 C 197.927 280.390,185.750 279.534,165.527 276.303 C 153.365 274.360,131.060 267.963,120.357 263.348 C 106.725 257.470,88.321 246.323,76.970 237.069 C 51.199 216.057,24.368 188.937,24.368 183.899 C 24.368 183.703,23.815 182.765,23.139 181.815 C 22.463 180.866,21.995 180.068,22.099 180.041 C 22.203 180.015,25.839 179.905,30.178 179.796 L 38.068 179.599 46.820 185.064 C 51.634 188.070,57.177 191.431,59.138 192.533 C 61.100 193.635,63.640 195.065,64.785 195.712 C 111.056 221.867,168.200 230.436,208.321 217.236 C 238.923 207.168,256.812 193.917,273.717 168.796 C 278.965 160.996,285.290 151.052,285.290 150.598 C 285.290 150.430,285.958 149.416,286.776 148.344 C 287.593 147.273,288.262 146.253,288.262 146.078 C 288.262 145.904,290.535 141.982,293.314 137.364 C 296.092 132.747,298.366 128.810,298.366 128.617 C 298.366 128.425,298.865 127.557,299.475 126.689 C 300.524 125.196,302.840 121.071,306.362 114.419 C 308.045 111.242,308.006 109.073,306.243 107.727 C 303.561 105.678,301.071 107.509,297.556 114.117 C 296.375 116.338,293.766 120.924,291.758 124.308 C 289.750 127.692,287.432 131.664,286.606 133.135 C 282.386 140.655,271.169 158.573,266.330 165.527 C 264.965 167.489,263.400 169.762,262.851 170.579 C 253.002 185.262,232.629 200.572,215.156 206.421 C 213.685 206.914,211.679 207.643,210.698 208.041 C 207.232 209.450,206.526 209.711,205.349 210.014 C 204.695 210.183,202.689 210.751,200.892 211.276 C 182.960 216.513,152.571 216.588,128.380 211.457 C 120.288 209.740,118.956 209.422,115.305 208.327 C 113.507 207.788,111.233 207.130,110.253 206.864 C 99.406 203.925,82.152 196.402,68.351 188.594 C 67.207 187.947,65.039 186.731,63.533 185.893 C 62.027 185.055,58.596 183.005,55.908 181.337 C 53.220 179.670,50.866 178.306,50.678 178.306 C 50.489 178.306,49.507 177.685,48.496 176.925 C 47.484 176.165,46.189 175.371,45.617 175.161 C 44.260 174.661,44.304 173.359,45.815 169.382 C 46.774 166.859,47.128 164.207,47.383 157.652 C 47.564 152.994,47.875 149.183,48.074 149.183 C 48.273 149.183,51.646 150.761,55.570 152.689 C 63.949 156.808,69.386 159.287,70.038 159.287 C 70.295 159.287,71.558 159.794,72.845 160.414 C 75.059 161.480,87.267 165.541,92.422 166.926 C 102.284 169.575,113.064 170.699,121.192 169.924 C 128.830 169.196,138.713 167.741,141.201 166.979 C 142.205 166.671,143.466 166.419,144.004 166.419 C 145.221 166.419,158.452 163.236,163.875 161.638 C 166.092 160.985,168.975 160.154,170.282 159.792 C 173.993 158.763,177.909 157.451,179.041 156.857 C 179.609 156.559,180.405 156.315,180.811 156.315 C 181.442 156.315,187.148 154.347,191.085 152.772 C 191.738 152.511,193.477 151.832,194.948 151.263 C 199.545 149.486,199.947 149.326,202.080 148.428 C 203.224 147.946,205.358 147.049,206.823 146.436 C 210.816 144.761,222.694 138.647,226.349 136.385 C 230.027 134.108,236.973 129.306,240.948 126.292 C 243.529 124.335,246.203 122.333,246.891 121.842 C 252.665 117.725,285.478 86.862,286.828 84.279 C 288.081 81.883,287.857 79.366,286.218 77.418 C 284.698 75.611,283.912 75.043,274.294 68.794 C 264.586 62.486,262.686 60.020,262.240 53.147 C 261.675 44.446,266.250 36.060,273.997 31.595 C 276.227 30.310,281.963 29.852,282.615 30.906 " stroke="none" fill="#000000" fill-rule="evenodd"></path><path id="path1" d="M273.997 31.595 C 266.250 36.060,261.675 44.446,262.240 53.147 C 262.686 60.020,264.586 62.486,274.294 68.794 C 283.912 75.043,284.698 75.611,286.218 77.418 C 288.943 80.656,288.159 83.427,283.027 88.692 C 278.818 93.010,279.252 93.754,283.552 89.591 C 288.394 84.904,289.594 81.611,289.618 72.946 C 289.633 67.665,282.477 58.903,271.620 50.907 C 269.822 49.583,268.003 48.158,267.579 47.740 C 267.154 47.322,266.230 46.577,265.525 46.083 C 262.212 43.762,270.068 33.960,277.161 31.565 C 279.580 30.748,280.056 30.849,285.884 33.412 C 287.355 34.059,289.495 34.986,290.639 35.471 C 291.783 35.957,293.120 36.583,293.611 36.863 C 294.101 37.143,298.113 39.194,302.526 41.420 C 306.939 43.647,310.684 45.612,310.847 45.788 C 311.010 45.963,312.749 46.899,314.710 47.868 C 316.672 48.836,318.410 49.765,318.574 49.931 C 318.737 50.098,319.941 50.767,321.248 51.417 C 322.556 52.068,323.759 52.734,323.923 52.897 C 324.086 53.061,324.755 53.487,325.409 53.843 C 326.062 54.200,328.068 55.300,329.866 56.288 C 331.664 57.276,335.273 59.258,337.885 60.692 C 340.498 62.126,343.172 63.622,343.829 64.017 C 344.485 64.412,345.958 65.215,347.103 65.800 C 348.247 66.386,349.316 66.999,349.480 67.162 C 349.993 67.675,352.101 68.925,353.426 69.501 C 354.125 69.805,355.596 70.816,356.695 71.748 C 358.777 73.514,363.486 76.672,364.037 76.672 C 364.538 76.672,373.529 82.861,373.749 83.358 C 373.858 83.603,374.326 83.804,374.789 83.804 C 375.253 83.804,375.633 84.004,375.636 84.250 C 375.638 84.495,376.555 85.319,377.674 86.081 C 387.343 92.664,387.911 97.053,380.131 105.041 C 376.097 109.181,374.114 109.626,371.471 106.984 C 371.308 106.820,370.639 106.395,369.985 106.038 C 367.532 104.700,361.590 101.398,359.584 100.259 C 346.919 93.069,335.761 87.851,329.272 86.085 C 315.481 82.330,313.338 82.662,308.138 89.353 C 306.343 91.665,304.618 94.615,304.282 95.950 C 303.948 97.279,303.416 98.980,303.100 99.731 C 302.784 100.482,302.526 101.826,302.526 102.719 C 302.526 104.145,301.253 106.720,300.123 107.578 C 299.908 107.741,298.846 109.480,297.763 111.441 C 296.680 113.403,295.337 115.810,294.778 116.790 C 294.219 117.771,293.260 119.509,292.646 120.653 C 292.033 121.797,291.383 122.867,291.202 123.031 C 291.022 123.194,290.413 124.264,289.849 125.409 C 288.753 127.632,287.558 129.679,287.073 130.163 C 286.806 130.431,285.636 132.477,283.848 135.810 C 283.497 136.464,283.049 137.132,282.854 137.296 C 282.658 137.459,281.822 138.813,280.997 140.304 C 278.429 144.939,266.351 164.071,265.636 164.636 C 265.429 164.799,264.511 166.137,263.596 167.608 C 262.681 169.079,261.752 170.416,261.531 170.579 C 261.310 170.743,260.639 171.719,260.041 172.749 C 257.219 177.602,241.969 191.173,233.273 196.570 C 229.069 199.179,215.052 205.559,210.104 207.116 C 208.470 207.630,206.597 208.282,205.944 208.564 C 205.290 208.846,203.685 209.354,202.377 209.692 C 201.070 210.030,198.796 210.642,197.325 211.051 C 189.022 213.359,171.391 214.376,155.041 213.490 C 139.471 212.646,134.954 212.067,125.934 209.762 C 124.752 209.460,123.134 209.212,122.338 209.212 C 121.543 209.212,120.637 208.987,120.327 208.712 C 120.016 208.437,117.890 207.740,115.602 207.164 C 110.583 205.901,107.684 205.055,106.092 204.391 C 103.519 203.318,99.501 202.097,98.514 202.089 C 97.942 202.084,97.474 201.842,97.474 201.550 C 97.474 201.259,96.776 200.845,95.923 200.631 C 93.302 199.973,77.221 192.303,70.134 188.330 C 68.336 187.322,65.795 185.897,64.487 185.163 C 58.741 181.936,47.745 175.193,46.504 174.134 C 45.751 173.492,46.040 170.903,47.002 169.668 C 47.828 168.608,48.728 161.585,48.733 156.166 C 48.735 153.306,48.884 150.966,49.063 150.966 C 49.242 150.966,52.090 152.303,55.391 153.938 C 61.956 157.189,61.813 157.134,61.813 156.393 C 61.813 155.936,48.931 149.183,48.059 149.183 C 47.868 149.183,47.564 152.994,47.383 157.652 C 47.128 164.207,46.774 166.859,45.815 169.382 C 44.304 173.359,44.260 174.661,45.617 175.161 C 46.189 175.371,47.484 176.165,48.496 176.925 C 49.507 177.685,50.489 178.306,50.678 178.306 C 50.866 178.306,53.220 179.670,55.908 181.337 C 58.596 183.005,62.027 185.055,63.533 185.893 C 65.039 186.731,67.207 187.947,68.351 188.594 C 82.152 196.402,99.406 203.925,110.253 206.864 C 111.233 207.130,113.507 207.788,115.305 208.327 C 118.956 209.422,120.288 209.740,128.380 211.457 C 152.571 216.588,182.960 216.513,200.892 211.276 C 202.689 210.751,204.695 210.183,205.349 210.014 C 206.526 209.711,207.232 209.450,210.698 208.041 C 211.679 207.643,213.685 206.914,215.156 206.421 C 232.629 200.572,253.002 185.262,262.851 170.579 C 263.400 169.762,264.965 167.489,266.330 165.527 C 271.169 158.573,282.386 140.655,286.606 133.135 C 287.432 131.664,289.750 127.692,291.758 124.308 C 293.766 120.924,296.375 116.338,297.556 114.117 C 301.071 107.509,303.561 105.678,306.243 107.727 C 308.006 109.073,308.045 111.242,306.362 114.419 C 302.840 121.071,300.524 125.196,299.475 126.689 C 298.865 127.557,298.366 128.425,298.366 128.617 C 298.366 128.810,296.092 132.747,293.314 137.364 C 290.535 141.982,288.262 145.904,288.262 146.078 C 288.262 146.253,287.593 147.273,286.776 148.344 C 285.958 149.416,285.290 150.430,285.290 150.598 C 285.290 151.930,270.021 174.515,264.574 181.241 C 247.129 202.779,217.221 218.223,185.037 222.311 C 178.268 223.171,147.378 222.779,140.565 221.747 C 113.059 217.579,88.609 209.179,64.785 195.712 C 63.640 195.065,61.100 193.635,59.138 192.533 C 57.177 191.431,51.634 188.070,46.820 185.064 L 38.068 179.599 30.178 179.796 C 25.839 179.905,22.203 180.015,22.099 180.041 C 21.995 180.068,22.463 180.866,23.139 181.815 C 23.815 182.765,24.368 183.703,24.368 183.899 C 24.368 188.937,51.199 216.057,76.970 237.069 C 88.321 246.323,106.725 257.470,120.357 263.348 C 131.060 267.963,153.365 274.360,165.527 276.303 C 185.750 279.534,197.927 280.390,209.809 279.416 C 241.600 276.810,261.392 266.292,281.043 241.559 C 283.100 238.969,285.148 236.400,285.592 235.849 C 286.036 235.299,286.879 234.095,287.465 233.174 C 288.052 232.254,288.696 231.367,288.897 231.204 C 289.764 230.500,299.573 215.063,301.738 210.996 C 305.865 203.240,311.223 189.522,312.648 183.061 C 312.901 181.917,313.644 178.841,314.300 176.226 C 314.956 173.611,315.803 169.733,316.182 167.608 C 316.561 165.483,317.107 162.675,317.394 161.367 C 319.632 151.199,319.980 145.923,319.902 123.380 C 319.800 93.821,319.582 94.188,333.263 100.921 C 337.115 102.817,342.140 105.140,344.428 106.083 C 346.716 107.027,348.856 107.978,349.183 108.197 C 349.998 108.742,359.829 112.049,363.328 112.954 C 371.392 115.041,386.924 103.752,386.924 95.803 C 386.924 91.875,380.448 85.887,367.131 77.502 C 363.143 74.991,358.811 72.091,357.504 71.057 C 356.196 70.023,352.987 67.946,350.371 66.441 C 342.661 62.004,326.399 52.941,320.951 50.044 C 318.172 48.567,314.063 46.327,311.819 45.067 C 304.969 41.222,285.012 31.501,283.966 31.501 C 283.425 31.501,282.817 31.233,282.615 30.906 C 281.963 29.852,276.227 30.310,273.997 31.595 M252.303 117.263 C 250.342 118.991,248.044 120.929,247.196 121.570 C 246.349 122.210,243.607 124.282,241.104 126.175 C 238.601 128.067,236.553 129.875,236.553 130.192 C 236.553 130.803,238.319 129.924,240.372 128.291 C 255.423 116.319,257.968 114.118,256.761 114.120 C 256.270 114.121,254.264 115.535,252.303 117.263 " stroke="none" fill="#c47e00" fill-rule="evenodd"></path><path id="path2" d="M276.638 31.720 C 269.746 34.271,262.335 43.848,265.525 46.083 C 266.230 46.577,267.154 47.322,267.579 47.740 C 268.003 48.158,269.822 49.583,271.620 50.907 C 282.477 58.903,289.633 67.665,289.618 72.946 C 289.594 81.776,288.419 84.891,283.225 89.894 C 281.273 91.775,279.977 93.314,280.346 93.314 C 281.221 93.314,291.074 99.113,291.574 99.922 C 291.982 100.582,269.413 123.631,268.371 123.618 C 268.033 123.614,266.146 122.076,264.179 120.201 C 262.211 118.325,259.929 116.197,259.109 115.472 L 257.616 114.154 255.554 115.975 C 254.420 116.976,250.817 119.936,247.548 122.553 C 244.279 125.169,241.001 127.819,240.263 128.440 C 239.525 129.061,238.688 129.569,238.404 129.569 C 234.944 129.569,238.788 133.625,246.805 138.433 C 250.179 140.456,250.216 140.400,241.163 146.891 C 228.109 156.251,210.581 166.042,200.000 169.884 C 196.011 171.333,182.624 174.472,174.146 175.946 C 172.021 176.316,168.945 176.883,167.311 177.206 C 164.001 177.860,157.408 178.713,149.777 179.476 C 122.817 182.169,109.222 181.644,95.611 177.385 C 94.096 176.911,92.307 176.523,91.634 176.523 C 90.962 176.523,90.247 176.256,90.045 175.929 C 89.843 175.602,88.958 175.326,88.078 175.315 C 87.198 175.305,85.959 174.904,85.325 174.424 C 84.690 173.944,83.569 173.551,82.834 173.551 C 82.098 173.551,81.331 173.284,81.129 172.957 C 80.927 172.630,80.293 172.363,79.720 172.363 C 78.777 172.363,75.956 171.169,70.161 168.320 C 66.794 166.664,63.291 162.794,62.387 159.731 C 61.659 157.268,52.072 150.966,49.051 150.966 C 48.878 150.966,48.735 153.306,48.733 156.166 C 48.728 161.585,47.828 168.608,47.002 169.668 C 46.040 170.903,45.751 173.492,46.504 174.134 C 47.745 175.193,58.741 181.936,64.487 185.163 C 65.795 185.897,68.336 187.322,70.134 188.330 C 77.221 192.303,93.302 199.973,95.923 200.631 C 96.776 200.845,97.474 201.259,97.474 201.550 C 97.474 201.842,97.942 202.084,98.514 202.089 C 99.501 202.097,103.519 203.318,106.092 204.391 C 107.684 205.055,110.583 205.901,115.602 207.164 C 117.890 207.740,120.016 208.437,120.327 208.712 C 120.637 208.987,121.543 209.212,122.338 209.212 C 123.134 209.212,124.752 209.460,125.934 209.762 C 144.891 214.607,182.115 215.280,197.325 211.051 C 198.796 210.642,201.070 210.030,202.377 209.692 C 203.685 209.354,205.290 208.846,205.944 208.564 C 206.597 208.282,208.470 207.630,210.104 207.116 C 211.738 206.602,213.678 205.927,214.413 205.616 C 215.149 205.306,216.352 204.804,217.088 204.501 C 233.640 197.686,254.514 182.255,260.041 172.749 C 260.639 171.719,261.310 170.743,261.531 170.579 C 261.752 170.416,262.681 169.079,263.596 167.608 C 264.511 166.137,265.429 164.799,265.636 164.636 C 266.351 164.071,278.429 144.939,280.997 140.304 C 281.822 138.813,282.658 137.459,282.854 137.296 C 283.049 137.132,283.497 136.464,283.848 135.810 C 285.636 132.477,286.806 130.431,287.073 130.163 C 287.558 129.679,288.753 127.632,289.849 125.409 C 290.413 124.264,291.022 123.194,291.202 123.031 C 291.383 122.867,292.033 121.797,292.646 120.653 C 293.260 119.509,294.219 117.771,294.778 116.790 C 295.337 115.810,296.680 113.403,297.763 111.441 C 298.846 109.480,299.908 107.741,300.123 107.578 C 301.253 106.720,302.526 104.145,302.526 102.719 C 302.526 101.826,302.784 100.482,303.100 99.731 C 303.416 98.980,303.948 97.279,304.282 95.950 C 304.618 94.615,306.343 91.665,308.138 89.353 C 313.338 82.662,315.481 82.330,329.272 86.085 C 335.761 87.851,346.919 93.069,359.584 100.259 C 361.590 101.398,367.532 104.700,369.985 106.038 C 370.639 106.395,371.308 106.820,371.471 106.984 C 374.114 109.626,376.097 109.181,380.131 105.041 C 387.911 97.053,387.343 92.664,377.674 86.081 C 376.555 85.319,375.638 84.495,375.636 84.250 C 375.633 84.004,375.253 83.804,374.789 83.804 C 374.326 83.804,373.858 83.603,373.749 83.358 C 373.529 82.861,364.538 76.672,364.037 76.672 C 363.486 76.672,358.777 73.514,356.695 71.748 C 355.596 70.816,354.125 69.805,353.426 69.501 C 352.101 68.925,349.993 67.675,349.480 67.162 C 349.316 66.999,348.247 66.386,347.103 65.800 C 345.958 65.215,344.485 64.412,343.829 64.017 C 343.172 63.622,340.498 62.126,337.885 60.692 C 335.273 59.258,331.664 57.276,329.866 56.288 C 328.068 55.300,326.062 54.200,325.409 53.843 C 324.755 53.487,324.086 53.061,323.923 52.897 C 323.759 52.734,322.556 52.068,321.248 51.417 C 319.941 50.767,318.737 50.098,318.574 49.931 C 318.410 49.765,316.672 48.836,314.710 47.868 C 312.749 46.899,311.010 45.963,310.847 45.788 C 310.684 45.612,306.939 43.647,302.526 41.420 C 298.113 39.194,294.101 37.143,293.611 36.862 C 292.774 36.383,289.047 34.718,284.993 33.012 C 279.253 30.598,279.549 30.643,276.638 31.720 " stroke="none" fill="#ffd101" fill-rule="evenodd"></path><path id="path3" d="M272.409 98.834 C 268.542 102.582,263.305 107.487,260.771 109.733 C 258.236 111.980,256.440 113.910,256.778 114.023 C 257.944 114.411,280.590 93.207,279.838 92.431 C 279.618 92.205,276.275 95.086,272.409 98.834 M231.410 133.033 C 229.120 134.611,226.865 136.084,226.401 136.306 C 225.937 136.528,224.487 137.364,223.180 138.165 C 219.112 140.656,208.325 145.886,201.783 148.541 C 201.129 148.807,199.926 149.295,199.108 149.626 C 198.291 149.958,196.419 150.694,194.948 151.263 C 193.477 151.832,191.738 152.511,191.085 152.772 C 187.148 154.347,181.442 156.315,180.811 156.315 C 180.405 156.315,179.609 156.559,179.041 156.857 C 177.909 157.451,173.993 158.763,170.282 159.792 C 168.975 160.154,166.092 160.985,163.875 161.638 C 158.452 163.236,145.221 166.419,144.004 166.419 C 143.466 166.419,142.205 166.671,141.201 166.979 C 138.713 167.741,128.830 169.196,121.192 169.924 C 113.064 170.699,102.284 169.575,92.422 166.926 C 87.267 165.541,75.059 161.480,72.845 160.414 C 71.558 159.794,70.295 159.287,70.038 159.287 C 69.782 159.287,68.105 158.592,66.312 157.743 C 64.518 156.894,62.726 156.308,62.329 156.440 C 61.465 156.728,66.459 159.144,73.700 161.942 C 75.171 162.510,76.839 163.215,77.406 163.508 C 77.974 163.802,78.924 164.042,79.516 164.042 C 80.109 164.042,80.848 164.275,81.159 164.560 C 81.470 164.844,83.262 165.513,85.141 166.045 C 94.310 168.642,96.612 169.181,104.345 170.541 C 108.833 171.330,122.145 171.366,126.562 170.602 C 128.379 170.287,133.076 169.472,136.999 168.790 C 140.921 168.108,144.933 167.412,145.914 167.242 C 148.188 166.850,154.883 165.304,157.207 164.635 C 158.187 164.353,160.193 163.805,161.664 163.418 C 165.082 162.518,169.940 161.042,171.471 160.439 C 172.125 160.181,173.328 159.849,174.146 159.701 C 174.963 159.552,177.370 158.823,179.495 158.081 C 181.620 157.339,185.230 156.077,187.519 155.277 C 189.807 154.477,192.481 153.487,193.462 153.078 C 194.443 152.668,196.181 151.982,197.325 151.554 C 198.470 151.126,199.660 150.551,199.970 150.276 C 200.281 150.002,200.875 149.777,201.291 149.777 C 202.959 149.777,219.901 141.569,225.260 138.165 C 227.385 136.815,229.391 135.599,229.718 135.463 C 231.086 134.893,236.532 131.019,236.542 130.609 C 236.563 129.715,235.493 130.221,231.410 133.033 " stroke="none" fill="#9c9c72" fill-rule="evenodd"></path><path id="path4" d="M273.700 99.128 C 270.431 102.314,265.491 106.985,262.722 109.508 L 257.689 114.095 262.722 118.833 C 265.491 121.440,268.033 123.584,268.371 123.599 C 269.394 123.643,291.987 100.590,291.574 99.922 C 291.063 99.094,281.206 93.311,280.330 93.324 C 279.953 93.330,276.969 95.941,273.700 99.128 M232.846 133.447 C 231.298 134.583,229.896 135.513,229.732 135.513 C 229.567 135.513,227.625 136.662,225.415 138.066 C 219.928 141.552,202.986 149.777,201.291 149.777 C 200.875 149.777,200.281 150.002,199.970 150.276 C 199.660 150.551,198.470 151.126,197.325 151.554 C 196.181 151.982,194.443 152.668,193.462 153.078 C 192.481 153.487,189.807 154.477,187.519 155.277 C 185.230 156.077,181.620 157.339,179.495 158.081 C 177.370 158.823,174.963 159.552,174.146 159.701 C 173.328 159.849,172.125 160.181,171.471 160.439 C 169.940 161.042,165.082 162.518,161.664 163.418 C 160.193 163.805,158.187 164.353,157.207 164.635 C 154.883 165.304,148.188 166.850,145.914 167.242 C 144.933 167.412,140.921 168.108,136.999 168.790 C 133.076 169.472,128.379 170.287,126.562 170.602 C 122.145 171.366,108.833 171.330,104.345 170.541 C 96.612 169.181,94.310 168.642,85.141 166.045 C 83.262 165.513,81.470 164.844,81.159 164.560 C 80.848 164.275,80.109 164.042,79.516 164.042 C 78.924 164.042,77.974 163.802,77.406 163.508 C 76.839 163.215,75.171 162.510,73.700 161.942 C 70.308 160.631,67.490 159.427,64.533 158.024 C 61.637 156.650,61.413 156.866,62.451 160.027 C 63.378 162.850,67.035 166.782,70.161 168.320 C 75.956 171.169,78.777 172.363,79.720 172.363 C 80.293 172.363,80.927 172.630,81.129 172.957 C 81.331 173.284,82.098 173.551,82.834 173.551 C 83.569 173.551,84.690 173.944,85.325 174.424 C 85.959 174.904,87.198 175.305,88.078 175.315 C 88.958 175.326,89.843 175.602,90.045 175.929 C 90.247 176.256,90.962 176.523,91.634 176.523 C 92.307 176.523,94.096 176.911,95.611 177.385 C 109.222 181.644,122.817 182.169,149.777 179.476 C 157.408 178.713,164.001 177.860,167.311 177.206 C 168.945 176.883,172.021 176.316,174.146 175.946 C 182.624 174.472,196.011 171.333,200.000 169.884 C 210.581 166.042,228.109 156.251,241.163 146.891 C 250.216 140.400,250.179 140.456,246.805 138.433 C 245.579 137.698,242.805 135.804,240.641 134.224 C 235.970 130.816,236.377 130.857,232.846 133.447 " stroke="none" fill="#ffffba" fill-rule="evenodd"></path></g></svg>