<svg id="svg" version="1.1" width="502" height="500" xmlns="http://www.w3.org/2000/svg" xmlns:xlink="http://www.w3.org/1999/xlink" style="display: block;"><g id="svgg"><path id="path0" d="M276.494 4.672 C 275.837 5.052,273.354 5.581,270.977 5.848 C 268.601 6.114,266.288 6.700,265.838 7.150 C 265.388 7.600,263.858 7.968,262.437 7.968 C 261.017 7.968,259.633 8.327,259.363 8.765 C 259.092 9.203,257.837 9.562,256.574 9.562 C 255.311 9.562,254.056 9.920,253.785 10.359 C 253.514 10.797,252.238 11.155,250.949 11.155 C 249.660 11.155,248.606 11.514,248.606 11.952 C 248.606 12.390,247.910 12.749,247.059 12.749 C 246.208 12.749,245.291 13.108,245.020 13.546 C 244.749 13.984,243.673 14.343,242.629 14.343 C 241.586 14.343,240.510 14.701,240.239 15.139 C 239.968 15.578,239.051 15.936,238.200 15.936 C 237.349 15.936,236.653 16.295,236.653 16.733 C 236.653 17.171,235.980 17.530,235.157 17.530 C 234.334 17.530,233.215 18.068,232.669 18.725 C 232.124 19.382,231.183 19.920,230.580 19.920 C 229.976 19.920,229.482 20.279,229.482 20.717 C 229.482 21.155,228.765 21.514,227.888 21.514 C 227.012 21.514,226.295 21.873,226.295 22.311 C 226.295 22.749,225.657 23.108,224.877 23.108 C 224.097 23.108,222.942 23.825,222.311 24.701 C 221.679 25.578,220.682 26.295,220.095 26.295 C 219.507 26.295,216.232 29.074,212.816 32.470 C 209.401 35.867,205.568 39.583,204.299 40.728 C 201.747 43.032,200.527 44.470,197.616 48.606 C 195.062 52.232,192.032 55.279,192.032 54.219 C 192.032 53.761,191.584 53.386,191.036 53.385 C 190.488 53.384,188.785 52.309,187.251 50.996 C 185.717 49.683,184.014 48.608,183.466 48.607 C 182.918 48.606,182.470 48.247,182.470 47.809 C 182.470 47.371,181.932 47.012,181.275 47.012 C 180.618 47.012,180.080 46.711,180.080 46.343 C 180.080 45.976,178.650 44.990,176.902 44.152 C 175.154 43.315,173.719 42.361,173.714 42.032 C 173.709 41.703,173.009 41.434,172.159 41.434 C 171.308 41.434,170.390 41.076,170.120 40.637 C 169.849 40.199,168.931 39.841,168.080 39.841 C 167.230 39.841,166.534 39.482,166.534 39.044 C 166.534 38.606,165.659 38.247,164.589 38.247 C 163.519 38.247,162.422 37.888,162.151 37.450 C 161.881 37.012,160.805 36.653,159.761 36.653 C 158.717 36.653,157.641 36.295,157.371 35.857 C 157.100 35.418,155.665 35.060,154.183 35.060 C 152.701 35.060,151.267 34.701,150.996 34.263 C 150.725 33.825,148.983 33.466,147.124 33.466 C 145.266 33.466,143.352 33.073,142.871 32.592 C 141.859 31.581,134.329 30.305,126.295 29.785 C 123.227 29.587,119.988 29.060,119.098 28.615 C 116.475 27.303,80.851 28.845,79.323 30.337 C 78.906 30.743,77.272 31.076,75.690 31.076 C 74.109 31.076,72.119 31.602,71.268 32.246 C 70.417 32.889,68.936 33.427,67.975 33.441 C 67.015 33.455,66.008 33.825,65.737 34.263 C 65.466 34.701,64.549 35.060,63.698 35.060 C 62.847 35.060,62.151 35.418,62.151 35.857 C 62.151 36.295,61.255 36.653,60.159 36.653 C 59.064 36.653,58.167 37.012,58.167 37.450 C 58.167 37.888,57.450 38.247,56.574 38.247 C 55.697 38.247,54.980 38.606,54.980 39.044 C 54.980 39.482,54.263 39.841,53.386 39.841 C 52.510 39.841,51.793 40.139,51.793 40.503 C 51.793 40.867,50.807 41.669,49.602 42.285 C 48.396 42.900,46.693 44.132,45.817 45.021 C 44.940 45.910,42.968 47.515,41.434 48.587 C 38.423 50.691,35.883 53.227,32.538 57.468 C 31.370 58.948,29.488 61.235,28.356 62.550 C 27.223 63.865,26.296 65.388,26.296 65.936 C 26.295 66.484,25.936 66.932,25.498 66.932 C 25.060 66.932,24.701 67.649,24.701 68.526 C 24.701 69.402,24.343 70.120,23.904 70.120 C 23.466 70.120,23.108 71.016,23.108 72.112 C 23.108 73.207,22.749 74.104,22.311 74.104 C 21.873 74.104,21.514 74.821,21.514 75.697 C 21.514 76.574,21.245 77.294,20.916 77.298 C 20.588 77.301,19.668 79.391,18.874 81.942 C 16.572 89.328,18.070 112.351,20.851 112.351 C 21.216 112.351,21.514 113.247,21.514 114.343 C 21.514 115.438,21.873 116.335,22.311 116.335 C 22.749 116.335,23.108 117.231,23.108 118.327 C 23.108 119.422,23.466 120.319,23.904 120.319 C 24.343 120.319,24.701 121.015,24.701 121.865 C 24.701 122.716,25.060 123.634,25.498 123.904 C 25.936 124.175,26.295 125.093,26.295 125.943 C 26.295 126.794,26.653 127.490,27.092 127.490 C 27.530 127.490,27.888 128.365,27.888 129.435 C 27.888 130.505,28.207 131.577,28.597 131.818 C 28.987 132.059,29.505 133.425,29.748 134.853 C 30.526 139.418,31.684 144.540,32.588 147.405 C 33.071 148.936,33.466 151.177,33.466 152.385 C 33.466 153.593,33.825 154.582,34.263 154.582 C 34.746 154.582,35.060 158.019,35.060 163.300 C 35.060 168.252,35.404 172.230,35.857 172.510 C 36.368 172.826,36.653 185.650,36.653 208.367 C 36.653 231.083,36.938 243.907,37.450 244.223 C 37.959 244.538,38.247 255.769,38.247 275.299 C 38.247 294.828,38.535 306.060,39.044 306.375 C 39.540 306.681,39.841 314.335,39.841 326.693 C 39.841 339.051,40.141 346.705,40.637 347.012 C 41.104 347.301,41.434 351.918,41.434 358.167 C 41.434 364.416,41.764 369.034,42.231 369.323 C 42.669 369.594,43.028 371.358,43.028 373.243 C 43.028 376.783,45.681 381.780,48.676 383.882 C 49.471 384.440,50.651 385.426,51.298 386.074 C 51.946 386.721,53.039 387.251,53.728 387.251 C 54.417 387.251,54.980 387.610,54.980 388.048 C 54.980 388.486,56.035 388.845,57.323 388.845 C 58.612 388.845,59.889 389.203,60.159 389.641 C 60.430 390.080,61.993 390.438,63.633 390.438 C 65.272 390.438,67.063 390.886,67.613 391.434 C 69.047 392.863,134.166 392.846,135.595 391.417 C 136.316 390.696,141.770 390.438,156.288 390.438 C 168.571 390.438,176.187 390.138,176.494 389.641 C 176.799 389.149,183.791 388.845,194.821 388.845 C 205.851 388.845,212.843 388.541,213.147 388.048 C 213.451 387.557,220.141 387.251,230.565 387.251 C 240.284 387.251,247.815 386.926,248.253 386.488 C 248.673 386.068,256.005 385.539,264.548 385.310 C 283.016 384.817,317.447 383.046,347.410 381.048 C 358.596 380.302,366.534 378.880,366.534 377.623 C 366.534 377.221,366.928 376.892,367.410 376.892 C 368.749 376.892,375.299 369.643,375.299 368.160 C 375.299 367.441,375.694 366.458,376.176 365.975 C 377.290 364.862,377.203 340.231,376.082 339.110 C 375.651 338.679,375.299 335.192,375.299 331.362 C 375.299 327.531,374.940 324.175,374.502 323.904 C 374.064 323.634,373.705 320.385,373.705 316.686 C 373.705 312.987,373.372 309.960,372.965 309.960 C 372.558 309.960,372.036 306.823,371.805 302.988 C 371.574 299.153,371.018 292.968,370.568 289.243 C 370.119 285.518,369.428 279.602,369.032 276.096 C 366.763 255.992,366.327 252.964,365.666 252.722 C 365.267 252.576,364.940 249.439,364.940 245.750 C 364.940 241.811,364.612 239.044,364.143 239.044 C 363.675 239.044,363.347 236.271,363.347 232.318 C 363.347 228.619,362.988 225.370,362.550 225.100 C 362.112 224.829,361.753 221.602,361.753 217.928 C 361.753 214.255,361.394 211.028,360.956 210.757 C 360.518 210.486,360.159 207.489,360.159 204.096 C 360.159 200.704,359.826 197.588,359.419 197.171 C 359.011 196.755,358.486 193.367,358.252 189.641 C 358.018 185.916,357.461 179.641,357.015 175.697 C 355.795 164.920,354.851 156.028,353.803 145.418 C 353.283 140.159,352.529 135.737,352.126 135.591 C 351.166 135.242,351.168 113.944,352.128 113.944 C 352.531 113.944,353.099 112.779,353.389 111.355 C 354.009 108.308,354.764 105.721,356.955 99.150 C 357.841 96.491,358.566 93.375,358.566 92.225 C 358.566 91.075,358.924 89.912,359.363 89.641 C 359.811 89.364,360.159 85.532,360.159 80.876 C 360.159 76.221,359.811 72.389,359.363 72.112 C 358.924 71.841,358.566 70.206,358.566 68.479 C 358.566 66.752,358.207 65.339,357.769 65.339 C 357.331 65.339,356.972 64.617,356.972 63.734 C 356.972 62.852,356.644 61.507,356.242 60.746 C 354.784 57.982,352.988 53.523,352.988 52.668 C 352.988 52.187,352.629 51.793,352.191 51.793 C 351.753 51.793,351.394 51.076,351.394 50.199 C 351.394 49.323,351.103 48.606,350.746 48.606 C 350.390 48.606,349.606 47.351,349.004 45.817 C 348.402 44.283,347.618 43.028,347.262 43.028 C 346.905 43.028,346.614 42.576,346.614 42.024 C 346.614 39.903,330.421 23.108,328.376 23.108 C 327.962 23.108,327.503 22.839,327.357 22.510 C 327.211 22.181,325.299 20.576,323.108 18.943 C 320.916 17.310,318.690 15.606,318.161 15.158 C 317.632 14.710,316.825 14.343,316.368 14.343 C 315.912 14.343,315.538 13.984,315.538 13.546 C 315.538 13.108,314.821 12.749,313.944 12.749 C 313.068 12.749,312.351 12.390,312.351 11.952 C 312.351 11.514,311.633 11.155,310.757 11.155 C 309.880 11.155,309.163 10.797,309.163 10.359 C 309.163 9.920,308.446 9.562,307.570 9.562 C 306.693 9.562,305.976 9.203,305.976 8.765 C 305.976 8.327,305.080 7.968,303.984 7.968 C 302.888 7.968,301.992 7.670,301.992 7.306 C 301.992 5.262,279.491 2.938,276.494 4.672 M292.069 16.230 C 301.664 18.290,314.143 25.641,324.701 35.450 C 327.769 38.300,330.504 40.634,330.780 40.635 C 331.866 40.640,337.976 49.429,341.058 55.421 C 349.619 72.060,350.717 83.938,345.031 98.406 C 344.444 99.900,343.690 102.607,341.869 109.761 C 339.606 118.647,340.735 138.850,345.730 178.884 C 346.540 185.382,348.464 201.349,349.905 213.546 C 350.345 217.271,351.050 223.187,351.471 226.693 C 351.892 230.199,352.592 236.116,353.026 239.841 C 353.461 243.566,354.168 249.572,354.597 253.187 C 355.329 259.346,356.294 267.624,357.360 276.892 C 357.612 279.084,358.168 283.386,358.596 286.454 C 359.363 291.952,362.507 318.305,364.157 333.068 C 364.622 337.231,365.350 343.327,365.774 346.614 C 367.676 361.366,365.318 367.218,356.972 368.454 C 339.633 371.022,160.585 379.992,98.957 381.381 C 70.693 382.017,60.178 380.200,55.319 373.837 C 52.486 370.128,50.519 325.897,47.817 205.179 C 47.346 184.143,46.751 165.139,46.495 162.948 C 45.323 152.901,44.483 147.841,42.328 137.849 C 40.626 129.959,39.207 125.933,34.462 115.538 C 33.161 112.689,31.642 108.924,31.086 107.171 C 30.530 105.418,29.762 103.160,29.380 102.154 C 25.261 91.303,33.283 72.298,47.660 58.850 C 61.445 45.954,74.478 41.196,98.805 40.179 C 116.858 39.424,134.172 41.492,154.582 46.840 C 161.946 48.770,171.798 54.078,183.279 62.301 C 194.433 70.291,195.696 70.106,203.984 59.269 C 214.223 45.880,227.912 33.631,237.450 29.321 C 246.662 25.158,249.604 23.954,254.980 22.145 C 264.871 18.817,269.308 17.717,278.486 16.320 C 286.896 15.039,286.532 15.041,292.069 16.230 M288.048 43.942 C 276.185 46.101,273.701 46.655,266.135 48.824 C 255.788 51.790,243.851 58.970,230.223 70.424 C 217.241 81.335,209.522 88.743,202.996 96.551 C 196.305 104.557,191.670 105.388,182.072 100.300 C 180.757 99.603,178.247 98.280,176.494 97.359 C 169.672 93.777,134.112 76.710,131.474 75.752 C 129.940 75.195,127.968 74.444,127.092 74.083 C 113.729 68.579,82.744 71.039,70.821 78.550 C 63.153 83.381,59.465 93.106,62.052 101.674 C 63.033 104.923,64.421 111.390,68.621 132.271 C 69.987 139.064,71.430 146.056,71.828 147.809 C 74.884 161.266,74.981 168.001,73.418 258.167 C 71.906 345.387,72.337 350.955,80.939 355.369 L 84.840 357.371 110.348 357.284 C 151.695 357.145,264.990 352.439,309.163 349.026 C 342.430 346.456,341.853 347.072,338.715 317.530 C 335.097 283.468,333.615 269.838,332.347 258.964 C 331.629 252.802,330.302 241.317,328.207 223.108 C 327.778 219.382,327.063 212.928,326.618 208.765 C 326.172 204.602,325.489 198.327,325.100 194.821 C 323.256 178.231,322.078 166.994,320.339 149.402 C 319.863 144.582,319.128 137.590,318.707 133.865 C 317.054 119.244,317.626 110.100,320.802 100.355 C 325.625 85.556,323.642 76.062,312.740 61.753 C 310.737 59.124,307.645 54.633,305.871 51.773 C 300.754 43.529,297.696 42.185,288.048 43.942 M297.864 54.582 C 298.600 55.896,299.418 57.151,299.682 57.371 C 299.945 57.590,300.572 58.552,301.076 59.509 C 301.579 60.466,303.896 63.781,306.224 66.875 C 311.084 73.336,313.944 78.385,313.944 80.506 C 313.944 81.316,314.303 82.199,314.741 82.470 C 315.179 82.741,315.538 84.892,315.538 87.251 C 315.538 89.610,315.179 91.761,314.741 92.032 C 314.303 92.303,313.944 93.558,313.944 94.821 C 313.944 96.084,313.586 97.339,313.147 97.610 C 312.709 97.880,312.351 98.803,312.351 99.659 C 312.351 100.516,312.022 101.839,311.620 102.600 C 310.083 105.510,308.928 115.484,309.504 120.872 C 309.823 123.854,310.443 130.598,310.882 135.857 C 312.676 157.331,315.627 185.772,319.109 215.139 C 320.736 228.859,321.834 238.477,322.750 247.012 C 323.150 250.737,323.853 257.191,324.313 261.355 C 325.819 274.998,327.825 293.630,329.032 305.179 C 329.467 309.343,330.197 315.976,330.656 319.920 C 332.950 339.673,333.279 338.896,322.286 339.736 C 263.311 344.241,187.867 347.695,109.562 349.474 C 85.053 350.031,83.575 349.739,81.992 344.026 C 80.821 339.799,80.862 255.530,82.049 225.896 C 83.117 199.260,83.084 164.414,81.984 157.861 C 81.187 153.109,79.085 142.770,77.186 134.263 C 76.494 131.161,75.466 125.649,74.066 117.530 C 73.688 115.339,73.159 112.291,72.890 110.757 C 72.621 109.223,72.092 107.251,71.713 106.375 C 71.335 105.498,70.818 103.526,70.566 101.992 C 69.259 94.052,69.181 92.612,70.028 92.089 C 70.516 91.787,70.916 90.965,70.916 90.263 C 70.916 84.630,87.758 79.349,105.578 79.395 C 120.530 79.433,122.658 80.115,150.598 93.817 C 159.143 98.008,167.570 102.140,169.323 102.999 C 171.076 103.858,174.661 105.690,177.291 107.071 C 189.047 113.244,194.974 113.263,204.295 107.155 C 205.287 106.506,208.043 103.561,210.419 100.611 C 216.534 93.022,229.808 80.689,240.239 72.905 C 241.992 71.597,243.606 70.324,243.825 70.076 C 247.582 65.822,263.414 57.671,271.713 55.718 C 291.444 51.074,295.792 50.885,297.864 54.582 " stroke="none" fill="#000000" fill-rule="evenodd"></path><path id="path1" d="M278.486 16.320 C 269.308 17.717,264.871 18.817,254.980 22.145 C 249.604 23.954,246.662 25.158,237.450 29.321 C 227.912 33.631,214.223 45.880,203.984 59.269 C 195.696 70.106,194.433 70.291,183.279 62.301 C 171.798 54.078,161.946 48.770,154.582 46.840 C 114.211 36.261,77.863 37.813,57.481 50.987 C 37.962 63.603,24.234 88.599,29.380 102.154 C 29.762 103.160,30.530 105.418,31.086 107.171 C 31.642 108.924,33.161 112.689,34.462 115.538 C 39.207 125.933,40.626 129.959,42.328 137.849 C 44.483 147.841,45.323 152.901,46.495 162.948 C 46.751 165.139,47.346 184.143,47.817 205.179 C 50.519 325.897,52.486 370.128,55.319 373.837 C 60.178 380.200,70.693 382.017,98.957 381.381 C 160.585 379.992,339.633 371.022,356.972 368.454 C 365.318 367.218,367.676 361.366,365.774 346.614 C 365.350 343.327,364.622 337.231,364.157 333.068 C 362.507 318.305,359.363 291.952,358.596 286.454 C 358.168 283.386,357.612 279.084,357.360 276.892 C 356.294 267.624,355.329 259.346,354.597 253.187 C 354.168 249.572,353.461 243.566,353.026 239.841 C 352.592 236.116,351.892 230.199,351.471 226.693 C 351.050 223.187,350.345 217.271,349.905 213.546 C 348.464 201.349,346.540 185.382,345.730 178.884 C 340.735 138.850,339.606 118.647,341.869 109.761 C 343.690 102.607,344.444 99.900,345.031 98.406 C 350.717 83.938,349.619 72.060,341.058 55.421 C 337.976 49.429,331.866 40.640,330.780 40.635 C 330.504 40.634,327.769 38.300,324.701 35.450 C 314.143 25.641,301.664 18.290,292.069 16.230 C 286.532 15.041,286.896 15.039,278.486 16.320 M296.178 18.427 C 304.083 21.611,314.921 28.167,319.556 32.569 C 320.768 33.720,324.065 36.633,326.884 39.044 C 343.325 53.104,350.642 75.286,345.019 94.024 C 341.257 106.562,340.987 107.571,340.013 112.749 C 338.215 122.306,339.074 134.015,345.473 187.159 C 347.887 207.205,348.328 210.864,349.080 217.131 C 350.492 228.885,352.403 245.232,353.366 253.785 C 353.926 258.754,355.164 268.979,356.190 277.089 C 360.792 313.502,362.573 328.696,364.061 344.223 C 364.459 348.386,365.050 353.157,365.373 354.824 C 365.752 356.785,365.601 358.615,364.945 360.004 C 364.387 361.185,363.572 362.935,363.133 363.892 C 361.614 367.210,357.467 367.760,316.335 370.101 C 304.721 370.762,292.530 371.509,289.243 371.761 C 278.580 372.579,210.630 375.845,166.932 377.641 C 83.141 381.084,80.980 381.143,75.189 380.113 C 60.562 377.512,57.488 376.215,55.870 371.959 C 53.609 366.012,51.394 313.814,49.385 219.124 C 48.343 169.974,47.520 156.518,44.756 143.426 C 44.340 141.454,43.628 138.048,43.173 135.857 C 41.845 129.449,37.024 116.910,33.449 110.569 C 33.020 109.808,32.669 108.535,32.669 107.740 C 32.669 106.945,32.372 105.954,32.008 105.538 C 28.636 101.676,29.454 88.359,33.559 80.290 C 33.946 79.529,34.263 78.523,34.263 78.055 C 34.263 72.527,53.766 53.499,64.659 48.400 C 78.454 41.942,104.579 39.233,124.701 42.173 C 139.076 44.274,141.936 44.871,155.378 48.584 C 162.927 50.668,173.667 56.611,184.121 64.489 C 193.410 71.488,196.297 71.285,202.461 63.201 C 219.369 41.031,229.738 32.960,251.963 24.671 C 255.595 23.317,259.389 21.873,260.396 21.463 C 261.403 21.053,263.085 20.717,264.134 20.717 C 265.183 20.717,266.263 20.359,266.534 19.920 C 266.805 19.482,268.170 19.098,269.569 19.068 C 270.967 19.037,272.829 18.703,273.705 18.327 C 276.076 17.308,293.593 17.387,296.178 18.427 M287.436 42.710 C 287.172 42.974,284.872 43.495,282.323 43.868 C 275.181 44.914,269.486 46.230,262.550 48.437 C 254.002 51.157,240.392 59.997,226.740 71.697 C 212.533 83.872,207.800 88.494,202.693 95.182 C 194.743 105.595,196.202 105.951,147.410 81.690 C 141.056 78.531,134.602 75.495,133.068 74.944 C 131.534 74.393,129.562 73.661,128.685 73.317 C 117.481 68.919,99.968 68.452,83.267 72.107 C 78.877 73.067,72.216 75.995,68.251 78.705 C 61.750 83.150,58.134 96.544,61.277 104.544 C 62.168 106.813,64.057 115.246,65.791 124.701 C 67.121 131.957,67.848 135.566,69.359 142.430 C 73.180 159.781,73.364 164.427,72.418 219.522 C 70.005 359.979,69.505 354.876,86.015 358.489 C 89.523 359.256,149.491 358.394,165.670 357.344 C 169.796 357.076,182.705 356.502,194.355 356.068 C 264.938 353.441,315.579 350.548,329.482 348.348 C 339.912 346.697,342.740 341.573,340.996 327.490 C 340.534 323.765,339.817 317.131,339.402 312.749 C 337.874 296.626,336.640 285.228,333.450 257.769 C 330.510 232.460,329.860 226.749,329.008 218.725 C 328.589 214.781,327.901 208.506,327.479 204.781 C 325.630 188.452,323.844 171.651,322.779 160.558 C 322.358 156.175,321.623 148.825,321.145 144.223 C 318.297 116.799,318.446 111.430,322.373 100.000 C 325.338 91.370,325.396 82.139,322.526 75.697 C 319.863 69.720,304.835 47.128,301.723 44.424 C 299.283 42.304,289.067 41.079,287.436 42.710 M299.939 44.801 C 301.427 45.777,304.096 48.914,305.871 51.773 C 307.645 54.633,310.737 59.124,312.740 61.753 C 323.642 76.062,325.625 85.556,320.802 100.355 C 317.626 110.100,317.054 119.244,318.707 133.865 C 319.128 137.590,319.863 144.582,320.339 149.402 C 322.078 166.994,323.256 178.231,325.100 194.821 C 325.489 198.327,326.172 204.602,326.618 208.765 C 327.063 212.928,327.778 219.382,328.207 223.108 C 330.302 241.317,331.629 252.802,332.347 258.964 C 333.615 269.838,335.097 283.468,338.715 317.530 C 341.853 347.072,342.430 346.456,309.163 349.026 C 264.990 352.439,151.695 357.145,110.348 357.284 L 84.840 357.371 80.939 355.369 C 72.337 350.955,71.906 345.387,73.418 258.167 C 74.981 168.001,74.884 161.266,71.828 147.809 C 71.430 146.056,69.987 139.064,68.621 132.271 C 64.421 111.390,63.033 104.923,62.052 101.674 C 59.465 93.106,63.153 83.381,70.821 78.550 C 82.744 71.039,113.729 68.579,127.092 74.083 C 127.968 74.444,129.940 75.195,131.474 75.752 C 134.112 76.710,169.672 93.777,176.494 97.359 C 178.247 98.280,180.757 99.603,182.072 100.300 C 191.670 105.388,196.305 104.557,202.996 96.551 C 209.522 88.743,217.241 81.335,230.223 70.424 C 241.374 61.052,253.944 52.987,261.753 50.193 C 265.826 48.736,274.220 46.539,279.681 45.500 C 295.195 42.550,296.439 42.507,299.939 44.801 M284.462 52.851 C 280.998 53.538,280.550 53.781,282.327 54.010 C 283.563 54.169,285.678 53.915,287.028 53.445 C 291.495 51.888,295.424 52.350,296.902 54.607 C 297.629 55.716,298.383 56.464,298.578 56.269 C 298.773 56.075,298.324 54.988,297.582 53.854 C 296.049 51.516,292.548 51.248,284.462 52.851 M274.900 54.980 C 273.332 55.994,276.128 55.994,278.486 54.980 C 279.946 54.353,279.912 54.292,278.088 54.251 C 276.992 54.227,275.558 54.555,274.900 54.980 M268.127 56.561 C 267.251 56.933,265.855 57.455,265.025 57.721 C 264.196 57.987,263.673 58.361,263.864 58.552 C 264.055 58.743,266.347 58.229,268.958 57.411 C 271.768 56.530,272.892 55.915,271.713 55.904 C 270.618 55.893,269.004 56.189,268.127 56.561 M300.162 59.562 C 300.929 60.767,303.807 65.032,306.558 69.039 C 309.309 73.046,312.082 77.528,312.721 78.999 C 313.359 80.470,313.896 81.080,313.913 80.354 C 313.959 78.394,311.002 73.227,306.120 66.737 C 303.735 63.567,301.415 60.162,300.963 59.172 C 300.512 58.181,299.833 57.371,299.455 57.371 C 299.077 57.371,299.395 58.357,300.162 59.562 M256.677 61.427 C 252.986 63.431,245.032 68.798,243.825 70.098 C 243.606 70.334,241.992 71.597,240.239 72.905 C 229.808 80.689,216.534 93.022,210.419 100.611 C 208.043 103.561,205.287 106.506,204.295 107.155 C 194.974 113.263,189.047 113.244,177.291 107.071 C 174.661 105.690,171.076 103.858,169.323 102.999 C 167.570 102.140,159.143 98.008,150.598 93.817 C 122.658 80.115,120.530 79.433,105.578 79.395 C 88.140 79.350,70.916 84.630,70.916 90.019 C 70.916 90.587,71.642 90.129,72.530 89.001 C 77.332 82.895,98.137 78.488,112.889 80.452 C 121.932 81.655,131.250 85.190,150.132 94.581 C 158.496 98.741,169.757 104.345,175.157 107.035 C 193.163 116.006,200.300 114.584,212.391 99.620 C 214.860 96.564,221.598 90.009,227.365 85.054 C 245.050 69.855,249.585 66.444,258.566 61.586 C 261.195 60.164,262.809 59.023,262.151 59.052 C 261.494 59.080,259.030 60.148,256.677 61.427 M314.243 87.251 C 314.243 90.050,314.534 92.160,314.890 91.940 C 315.247 91.719,315.538 89.610,315.538 87.251 C 315.538 84.892,315.247 82.783,314.890 82.562 C 314.534 82.342,314.243 84.452,314.243 87.251 M69.854 92.165 C 69.122 92.896,69.287 97.266,70.120 99.203 C 70.612 100.350,70.820 99.512,70.860 96.215 C 70.917 91.593,70.819 91.199,69.854 92.165 M311.827 98.441 C 307.575 112.151,307.539 119.376,311.551 152.590 L 312.224 158.167 311.918 151.394 C 311.584 144.035,310.437 129.499,309.508 120.872 C 308.928 115.482,310.080 105.516,311.620 102.600 C 312.022 101.839,312.351 100.567,312.351 99.772 C 312.351 98.977,312.740 97.938,313.215 97.462 C 313.690 96.987,313.959 95.766,313.812 94.748 C 313.630 93.479,313.006 94.639,311.827 98.441 M70.996 103.339 C 70.952 104.738,71.275 106.104,71.713 106.375 C 72.629 106.941,72.629 105.650,71.713 102.789 C 71.104 100.886,71.072 100.911,70.996 103.339 M72.834 110.359 C 74.083 118.081,76.332 130.435,77.186 134.263 C 79.014 142.455,81.199 152.996,81.894 156.972 C 82.406 159.903,82.694 160.563,82.764 158.964 C 82.879 156.338,81.329 148.044,78.000 133.466 C 77.600 131.713,76.916 128.012,76.480 125.242 C 75.335 117.966,73.235 108.034,72.742 107.570 C 72.509 107.351,72.551 108.606,72.834 110.359 M312.485 161.753 C 312.498 163.287,312.781 166.514,313.114 168.924 L 313.720 173.307 313.776 167.729 C 313.807 164.661,313.524 161.434,313.147 160.558 C 312.595 159.272,312.467 159.503,312.485 161.753 M83.211 181.673 C 83.211 191.972,83.325 196.185,83.464 191.036 C 83.602 185.886,83.602 177.460,83.464 172.311 C 83.325 167.161,83.211 171.375,83.211 181.673 M314.083 176.892 C 314.072 178.426,314.349 181.295,314.700 183.267 L 315.338 186.853 315.359 182.470 C 315.370 180.060,315.092 177.191,314.741 176.096 C 314.161 174.286,314.101 174.359,314.083 176.892 M315.678 191.633 C 315.651 193.386,315.926 196.255,316.289 198.008 L 316.948 201.195 316.946 197.211 C 316.944 195.020,316.669 192.151,316.335 190.837 C 315.752 188.548,315.724 188.582,315.678 191.633 M317.506 207.570 C 317.866 212.755,318.377 217.633,320.387 235.060 C 320.816 238.785,321.503 244.880,321.912 248.606 C 322.782 256.524,324.133 268.198,325.095 276.096 L 325.773 281.673 325.475 275.299 C 325.311 271.793,324.810 265.697,324.360 261.753 C 323.911 257.809,323.178 251.175,322.732 247.012 C 322.285 242.849,321.596 236.574,321.200 233.068 C 320.804 229.562,319.894 221.494,319.176 215.139 C 317.762 202.604,316.886 198.638,317.506 207.570 M81.874 230.677 C 81.547 240.319,81.335 258.247,81.404 270.518 L 81.529 292.829 82.196 262.151 C 82.563 245.279,82.775 227.351,82.667 222.311 C 82.512 215.100,82.343 216.882,81.874 230.677 M326.022 284.064 C 326.030 285.378,326.315 288.247,326.657 290.438 L 327.277 294.422 327.328 289.641 C 327.355 287.012,327.070 284.143,326.693 283.267 C 326.111 281.912,326.010 282.031,326.022 284.064 M327.629 298.805 C 327.617 300.339,327.895 303.207,328.246 305.179 L 328.884 308.765 328.905 304.382 C 328.916 301.972,328.638 299.104,328.287 298.008 C 327.707 296.198,327.647 296.271,327.629 298.805 M80.779 306.773 C 80.779 311.813,80.909 313.875,81.067 311.355 C 81.225 308.835,81.225 304.711,81.067 302.191 C 80.909 299.671,80.779 301.733,80.779 306.773 M329.221 314.343 C 329.196 316.534,329.472 319.761,329.835 321.514 L 330.494 324.701 330.540 320.717 C 330.565 318.526,330.289 315.299,329.926 313.546 L 329.267 310.359 329.221 314.343 M81.404 330.279 C 81.184 350.697,80.364 350.137,109.562 349.474 C 164.865 348.217,270.665 344.018,272.908 342.991 C 273.834 342.567,257.271 343.072,232.271 344.230 C 175.246 346.870,90.932 349.122,87.243 348.103 C 83.008 346.934,82.735 346.082,82.106 332.080 L 81.523 319.124 81.404 330.279 M331.110 329.919 C 331.594 336.646,330.837 337.665,324.701 338.555 L 319.920 339.248 324.132 339.345 C 331.692 339.520,333.875 335.844,331.409 327.092 C 330.938 325.421,330.848 326.272,331.110 329.919 M305.179 340.239 C 301.004 340.751,301.098 340.778,307.171 340.812 C 310.677 340.831,314.622 340.574,315.936 340.239 C 319.040 339.449,311.624 339.449,305.179 340.239 M280.478 341.833 C 275.308 342.354,275.311 342.355,282.470 342.422 C 286.414 342.459,291.434 342.211,293.625 341.869 C 298.895 341.049,288.547 341.020,280.478 341.833 " stroke="none" fill="#614c39" fill-rule="evenodd"></path><path id="path2" d="M273.705 18.327 C 272.829 18.703,270.967 19.037,269.569 19.068 C 268.170 19.098,266.805 19.482,266.534 19.920 C 266.263 20.359,265.183 20.717,264.134 20.717 C 263.085 20.717,261.403 21.053,260.396 21.463 C 259.389 21.873,255.595 23.317,251.963 24.671 C 229.738 32.960,219.369 41.031,202.461 63.201 C 196.297 71.285,193.410 71.488,184.121 64.489 C 173.667 56.611,162.927 50.668,155.378 48.584 C 145.035 45.727,141.240 44.819,135.857 43.911 C 106.627 38.982,81.377 40.574,64.659 48.400 C 53.766 53.499,34.263 72.527,34.263 78.055 C 34.263 78.523,33.946 79.529,33.559 80.290 C 29.454 88.359,28.636 101.676,32.008 105.538 C 32.372 105.954,32.669 106.945,32.669 107.740 C 32.669 108.535,33.020 109.808,33.449 110.569 C 37.024 116.910,41.845 129.449,43.173 135.857 C 43.628 138.048,44.340 141.454,44.756 143.426 C 47.520 156.518,48.343 169.974,49.385 219.124 C 51.394 313.814,53.609 366.012,55.870 371.959 C 57.488 376.215,60.562 377.512,75.189 380.113 C 80.980 381.143,83.141 381.084,166.932 377.641 C 210.630 375.845,278.580 372.579,289.243 371.761 C 292.530 371.509,304.721 370.762,316.335 370.101 C 357.467 367.760,361.614 367.210,363.133 363.892 C 363.572 362.935,364.387 361.185,364.945 360.004 C 365.601 358.615,365.752 356.785,365.373 354.824 C 365.050 353.157,364.459 348.386,364.061 344.223 C 362.573 328.696,360.792 313.502,356.190 277.089 C 355.164 268.979,353.926 258.754,353.366 253.785 C 352.403 245.232,350.492 228.885,349.080 217.131 C 348.328 210.864,347.887 207.205,345.473 187.159 C 339.074 134.015,338.215 122.306,340.013 112.749 C 340.987 107.571,341.257 106.562,345.019 94.024 C 350.642 75.286,343.325 53.104,326.884 39.044 C 324.065 36.633,320.768 33.720,319.556 32.569 C 314.921 28.167,304.083 21.611,296.178 18.427 C 293.593 17.387,276.076 17.308,273.705 18.327 M301.723 44.424 C 304.835 47.128,319.863 69.720,322.526 75.697 C 325.396 82.139,325.338 91.370,322.373 100.000 C 318.446 111.430,318.297 116.799,321.145 144.223 C 321.623 148.825,322.358 156.175,322.779 160.558 C 323.844 171.651,325.630 188.452,327.479 204.781 C 327.901 208.506,328.589 214.781,329.008 218.725 C 329.860 226.749,330.510 232.460,333.450 257.769 C 336.640 285.228,337.874 296.626,339.402 312.749 C 339.817 317.131,340.534 323.765,340.996 327.490 C 342.740 341.573,339.912 346.697,329.482 348.348 C 315.579 350.548,264.938 353.441,194.355 356.068 C 182.705 356.502,169.796 357.076,165.670 357.344 C 149.491 358.394,89.523 359.256,86.015 358.489 C 74.850 356.045,73.145 353.217,71.657 334.661 C 70.705 322.798,70.744 316.929,72.418 219.522 C 73.364 164.427,73.180 159.781,69.359 142.430 C 67.848 135.566,67.121 131.957,65.791 124.701 C 64.057 115.246,62.168 106.813,61.277 104.544 C 58.134 96.544,61.750 83.150,68.251 78.705 C 72.216 75.995,78.877 73.067,83.267 72.107 C 99.968 68.452,117.481 68.919,128.685 73.317 C 129.562 73.661,131.534 74.393,133.068 74.944 C 134.602 75.495,141.056 78.531,147.410 81.690 C 196.202 105.951,194.743 105.595,202.693 95.182 C 207.800 88.494,212.533 83.872,226.740 71.697 C 240.392 59.997,254.002 51.157,262.550 48.437 C 269.486 46.230,275.181 44.914,282.323 43.868 C 284.872 43.495,287.172 42.974,287.436 42.710 C 289.067 41.079,299.283 42.304,301.723 44.424 M286.056 53.447 C 275.188 56.005,273.286 56.527,276.096 56.179 C 277.849 55.961,281.076 55.428,283.267 54.992 C 295.677 52.526,295.270 52.394,299.666 60.308 C 301.335 63.311,307.504 71.713,308.041 71.713 C 308.194 71.713,305.442 67.410,301.927 62.151 L 295.536 52.590 292.190 52.690 C 290.350 52.746,287.590 53.086,286.056 53.447 M269.323 57.371 C 267.682 57.896,267.611 58.020,268.924 58.076 C 269.801 58.113,271.056 57.795,271.713 57.371 C 273.109 56.468,272.140 56.468,269.323 57.371 M260.777 60.515 C 255.256 63.127,247.866 67.925,241.833 72.815 C 228.741 83.425,216.383 94.732,211.958 100.148 C 209.160 103.572,206.311 106.794,205.627 107.306 C 201.924 110.077,201.282 110.709,202.144 110.732 C 203.307 110.763,208.848 105.354,213.147 99.992 C 216.791 95.446,218.818 93.422,225.198 87.959 C 227.699 85.817,230.499 83.347,231.419 82.470 C 232.340 81.594,234.880 79.443,237.064 77.691 C 239.249 75.938,241.574 74.057,242.231 73.510 C 249.390 67.555,262.258 59.761,264.932 59.761 C 265.542 59.761,266.263 59.402,266.534 58.964 C 267.329 57.677,266.043 58.024,260.777 60.515 M310.451 76.526 C 311.606 78.735,312.729 80.365,312.946 80.148 C 313.361 79.733,309.368 72.510,308.724 72.510 C 308.519 72.510,309.296 74.317,310.451 76.526 M94.821 80.683 C 91.096 81.166,88.765 81.721,89.641 81.917 C 90.518 82.112,94.641 81.843,98.805 81.318 C 104.347 80.620,107.762 80.591,111.554 81.212 C 117.920 82.254,122.184 82.266,117.928 81.230 C 113.045 80.041,101.818 79.775,94.821 80.683 M313.313 87.251 C 313.318 92.943,313.396 93.279,314.048 90.385 C 314.490 88.418,314.488 85.914,314.042 84.011 C 313.395 81.248,313.308 81.632,313.313 87.251 M81.320 83.689 C 78.934 84.547,76.621 85.610,76.180 86.051 C 75.155 87.076,76.066 87.079,78.098 86.056 C 78.969 85.618,80.394 84.900,81.264 84.462 C 82.135 84.024,83.479 83.660,84.252 83.653 C 85.025 83.646,86.195 83.293,86.853 82.869 C 88.913 81.537,86.176 81.943,81.320 83.689 M121.514 82.869 C 121.785 83.307,122.792 83.640,123.752 83.609 C 125.435 83.555,125.441 83.529,123.904 82.869 C 121.711 81.926,120.931 81.926,121.514 82.869 M72.601 88.910 C 71.228 90.656,70.942 92.026,71.057 96.323 L 71.198 101.594 71.655 96.232 C 71.954 92.721,72.613 90.288,73.563 89.184 C 74.361 88.257,74.850 87.334,74.650 87.133 C 74.449 86.933,73.527 87.732,72.601 88.910 M137.118 88.743 C 138.233 89.740,156.478 98.767,156.776 98.469 C 157.136 98.110,138.386 88.446,137.330 88.446 C 137.031 88.446,136.936 88.580,137.118 88.743 M311.906 95.304 C 311.641 96.134,311.095 97.636,310.692 98.643 C 310.290 99.650,309.986 101.084,310.018 101.830 C 310.050 102.577,310.766 101.244,311.609 98.869 C 312.453 96.493,312.973 94.380,312.765 94.173 C 312.558 93.966,312.171 94.475,311.906 95.304 M160.956 100.786 C 160.956 101.370,166.723 103.662,167.141 103.244 C 167.340 103.045,166.165 102.323,164.531 101.640 C 161.291 100.287,160.956 100.207,160.956 100.786 M71.805 102.789 C 71.842 103.446,72.159 104.880,72.510 105.976 L 73.148 107.968 73.215 105.976 C 73.252 104.880,72.935 103.446,72.510 102.789 C 71.823 101.726,71.745 101.726,71.805 102.789 M168.526 104.173 C 169.848 105.477,180.271 110.826,181.010 110.580 C 181.389 110.453,178.920 108.918,175.523 107.167 C 168.352 103.471,167.403 103.065,168.526 104.173 M308.911 104.687 C 308.612 105.468,308.399 107.063,308.438 108.232 C 308.505 110.214,308.562 110.178,309.277 107.695 C 310.106 104.818,309.806 102.355,308.911 104.687 M73.398 109.163 C 73.435 109.821,73.753 111.255,74.104 112.351 L 74.742 114.343 74.809 112.351 C 74.846 111.255,74.528 109.821,74.104 109.163 C 73.417 108.101,73.339 108.101,73.398 109.163 M182.869 111.554 C 183.139 111.992,184.147 112.325,185.107 112.295 C 186.790 112.241,186.795 112.214,185.259 111.554 C 183.066 110.611,182.286 110.611,182.869 111.554 M307.848 117.131 C 307.848 120.857,307.985 122.380,308.153 120.518 C 308.321 118.655,308.321 115.608,308.153 113.745 C 307.985 111.882,307.848 113.406,307.848 117.131 M190.248 113.347 C 192.078 113.933,193.374 113.925,194.630 113.319 C 196.135 112.593,195.729 112.463,192.032 112.486 C 187.842 112.512,187.764 112.550,190.248 113.347 M75.074 116.335 C 75.082 117.430,75.363 119.402,75.697 120.717 L 76.305 123.108 76.320 120.717 C 76.328 119.402,76.048 117.430,75.697 116.335 L 75.059 114.343 75.074 116.335 M76.864 126.693 C 77.070 128.665,77.573 131.713,77.981 133.466 C 78.390 135.219,79.158 138.625,79.689 141.036 C 80.219 143.446,80.955 146.673,81.322 148.207 L 81.991 150.996 81.689 147.809 C 81.362 144.356,80.563 140.383,78.086 129.880 C 77.130 125.829,76.639 124.548,76.864 126.693 M308.538 129.084 C 308.509 131.494,308.772 135.080,309.123 137.052 L 309.761 140.637 309.782 137.052 C 309.793 135.080,309.530 131.494,309.197 129.084 L 308.591 124.701 308.538 129.084 M310.146 146.614 C 310.131 149.024,310.406 151.892,310.757 152.988 C 311.650 155.775,311.671 151.847,310.794 146.215 L 310.173 142.231 310.146 146.614 M82.652 156.972 C 82.892 160.259,83.219 163.098,83.377 163.280 C 83.977 163.972,83.523 154.110,82.884 152.590 C 82.489 151.648,82.394 153.441,82.652 156.972 M311.610 162.616 C 311.641 165.428,311.986 168.446,312.377 169.323 C 312.824 170.323,312.912 168.544,312.612 164.542 C 312.026 156.703,311.535 155.758,311.610 162.616 M84.004 180.876 C 84.004 190.299,84.119 194.153,84.260 189.442 C 84.401 184.731,84.401 177.022,84.260 172.311 C 84.119 167.600,84.004 171.454,84.004 180.876 M313.557 178.486 C 313.721 181.773,314.222 187.689,314.669 191.633 C 316.419 207.042,317.208 214.224,317.907 221.116 C 318.980 231.682,321.093 249.562,321.485 251.394 C 322.012 253.858,321.202 241.801,320.362 234.661 C 319.495 227.305,318.153 215.325,317.103 205.578 C 315.109 187.056,314.678 183.245,313.997 178.088 L 313.260 172.510 313.557 178.486 M82.610 242.504 C 82.249 266.100,82.118 285.570,82.318 285.771 C 82.882 286.335,83.808 231.702,83.522 214.741 C 83.368 205.591,83.007 216.574,82.610 242.504 M322.063 255.777 C 322.045 257.311,322.318 260.179,322.668 262.151 L 323.307 265.737 323.360 262.550 C 323.390 260.797,323.117 257.928,322.755 256.175 L 322.096 252.988 322.063 255.777 M323.685 270.518 C 323.674 272.709,323.952 275.398,324.303 276.494 C 325.211 279.329,325.237 275.143,324.343 270.120 L 323.705 266.534 323.685 270.518 M325.179 284.927 C 325.223 287.082,325.565 289.741,325.939 290.837 C 326.369 292.095,326.451 290.773,326.160 287.251 C 325.617 280.669,325.066 279.363,325.179 284.927 M81.603 305.976 C 81.603 313.645,81.722 316.783,81.868 312.948 C 82.014 309.114,82.014 302.839,81.868 299.004 C 81.722 295.169,81.603 298.307,81.603 305.976 M326.773 298.871 C 326.816 301.683,327.147 304.880,327.508 305.976 C 327.893 307.146,327.979 305.171,327.717 301.195 C 327.181 293.057,326.663 291.781,326.773 298.871 M328.698 315.139 C 328.847 319.084,329.353 324.987,329.823 328.258 C 330.958 336.166,330.705 336.737,325.781 337.390 C 323.551 337.686,321.931 338.133,322.181 338.383 C 322.431 338.633,324.265 338.593,326.256 338.294 C 331.247 337.546,331.743 336.332,330.586 327.698 C 330.072 323.858,329.376 317.849,329.039 314.343 L 328.427 307.968 328.698 315.139 M82.459 334.172 C 82.694 343.270,82.984 345.466,84.091 346.523 C 85.340 347.716,85.372 347.694,84.541 346.215 C 84.048 345.339,83.314 339.781,82.909 333.865 L 82.174 323.108 82.459 334.172 M304.382 339.470 C 302.849 339.808,305.717 339.892,310.757 339.657 C 315.797 339.422,320.070 339.099,320.252 338.938 C 320.872 338.393,307.189 338.851,304.382 339.470 M282.730 340.643 C 282.507 340.866,274.111 341.442,264.071 341.923 C 254.031 342.405,240.259 343.086,233.466 343.436 L 221.116 344.072 235.458 343.785 C 248.860 343.516,269.641 342.530,292.032 341.102 L 301.594 340.492 292.364 340.365 C 287.288 340.296,282.952 340.421,282.730 340.643 M194.422 345.020 L 184.462 345.494 195.618 345.571 C 201.753 345.613,210.000 345.384,213.944 345.062 L 221.116 344.476 212.749 344.511 C 208.147 344.530,199.900 344.759,194.422 345.020 M151.793 346.614 L 143.825 347.102 154.183 347.162 C 159.880 347.196,168.127 346.966,172.510 346.651 L 180.478 346.079 170.120 346.102 C 164.422 346.115,156.175 346.345,151.793 346.614 M87.649 348.153 C 88.745 348.486,99.323 348.515,111.155 348.219 L 132.669 347.679 109.163 347.613 C 96.235 347.577,86.554 347.820,87.649 348.153 " stroke="none" fill="#ba926e" fill-rule="evenodd"></path><path id="path3" d="M286.454 54.289 C 284.701 54.695,281.295 55.402,278.884 55.860 C 264.792 58.538,253.957 63.755,242.231 73.510 C 241.574 74.057,239.249 75.938,237.064 77.691 C 234.880 79.443,232.340 81.594,231.419 82.470 C 230.499 83.347,227.699 85.817,225.198 87.959 C 218.844 93.400,216.797 95.441,213.182 99.936 C 208.183 106.154,204.452 109.673,201.522 110.935 C 191.420 115.287,188.301 114.750,170.518 105.600 C 163.821 102.154,131.883 86.633,129.880 85.851 C 128.785 85.423,127.266 84.756,126.505 84.369 C 125.744 83.982,124.574 83.665,123.904 83.665 C 123.235 83.665,122.065 83.333,121.304 82.926 C 111.865 77.881,80.018 82.083,73.471 89.238 C 71.469 91.427,71.331 98.668,73.160 105.578 C 73.624 107.331,74.585 111.633,75.295 115.139 C 77.072 123.915,79.694 136.721,80.597 141.036 C 82.346 149.387,82.931 152.998,83.699 160.159 C 84.585 168.424,84.234 209.662,82.733 273.705 C 81.798 313.594,82.588 343.956,84.623 346.409 C 85.666 347.665,129.479 347.811,153.386 346.639 C 162.151 346.209,179.721 345.468,192.430 344.992 C 254.687 342.660,315.702 339.201,326.865 337.369 C 330.568 336.762,330.895 335.761,329.841 328.258 C 329.382 324.987,328.671 318.725,328.261 314.343 C 326.596 296.540,324.526 277.709,320.728 245.817 C 319.580 236.175,318.312 225.060,317.910 221.116 C 317.225 214.391,316.658 209.219,314.675 191.633 C 313.774 183.636,312.813 174.259,311.612 161.753 C 311.171 157.151,310.474 150.159,310.065 146.215 C 307.397 120.511,307.144 109.240,309.118 104.139 C 309.490 103.177,310.252 100.777,310.813 98.805 C 311.373 96.833,312.127 94.878,312.489 94.462 C 316.093 90.318,312.211 77.512,304.154 66.971 C 301.993 64.143,300.020 61.275,299.770 60.596 C 297.290 53.875,294.320 52.468,286.454 54.289 " stroke="none" fill="#f3e3d6" fill-rule="evenodd"></path></g></svg>