<svg id="svg" version="1.1" width="500" height="501" xmlns="http://www.w3.org/2000/svg" xmlns:xlink="http://www.w3.org/1999/xlink" style="display: block;"><g id="svgg"><path id="path0" d="M250.000 28.000 C 249.728 28.440,248.177 28.816,246.553 28.835 C 244.929 28.854,242.160 29.389,240.400 30.023 C 238.640 30.657,236.570 31.181,235.800 31.188 C 235.030 31.195,234.400 31.560,234.400 32.000 C 234.400 32.440,233.826 32.800,233.123 32.800 C 231.711 32.800,226.953 35.255,226.533 36.200 C 226.387 36.530,225.744 36.800,225.105 36.800 C 223.950 36.800,220.957 38.511,218.107 40.800 C 207.966 48.946,200.865 56.263,193.647 66.005 C 191.693 68.642,189.803 70.920,189.447 71.067 C 189.091 71.213,188.800 71.843,188.800 72.467 C 188.800 73.090,188.464 73.600,188.054 73.600 C 187.644 73.600,187.060 74.380,186.758 75.332 C 186.456 76.285,185.351 77.921,184.304 78.969 C 183.257 80.016,182.400 81.396,182.400 82.036 C 182.400 82.676,182.040 83.200,181.600 83.200 C 181.160 83.200,180.800 83.740,180.800 84.400 C 180.800 85.060,180.447 85.600,180.015 85.600 C 179.584 85.600,179.005 86.500,178.729 87.600 C 178.452 88.700,177.962 89.600,177.639 89.600 C 177.316 89.600,176.373 90.860,175.544 92.400 C 174.715 93.940,173.758 95.200,173.418 95.200 C 173.078 95.200,172.800 95.710,172.800 96.333 C 172.800 96.957,172.530 97.587,172.200 97.733 C 171.870 97.880,170.881 99.440,170.002 101.200 C 169.123 102.960,167.953 104.876,167.402 105.457 C 166.851 106.039,166.400 107.209,166.400 108.057 C 166.400 108.906,166.125 109.600,165.789 109.600 C 165.146 109.600,162.400 115.439,162.400 116.805 C 162.400 117.242,162.040 117.600,161.600 117.600 C 161.160 117.600,160.800 118.320,160.800 119.200 C 160.800 120.080,160.480 120.800,160.089 120.800 C 159.698 120.800,159.133 122.104,158.834 123.698 C 158.535 125.293,157.955 127.273,157.545 128.098 C 157.135 128.924,156.447 130.304,156.015 131.165 C 155.583 132.026,154.997 134.186,154.713 135.965 C 154.428 137.744,153.882 139.200,153.498 139.200 C 153.114 139.200,152.800 140.079,152.800 141.153 C 152.800 142.227,152.465 143.312,152.056 143.565 C 151.647 143.818,151.065 146.000,150.764 148.413 C 150.462 150.826,149.897 152.800,149.508 152.800 C 149.119 152.800,148.800 153.679,148.800 154.753 C 148.800 155.827,148.487 156.899,148.105 157.135 C 147.723 157.371,147.167 159.404,146.869 161.652 C 146.570 163.900,146.025 166.338,145.657 167.070 C 144.191 169.981,143.270 172.520,142.787 174.982 C 142.508 176.403,141.409 179.283,140.344 181.382 C 139.278 183.482,138.405 185.650,138.403 186.200 C 138.402 186.750,138.040 187.200,137.600 187.200 C 137.160 187.200,136.800 187.586,136.800 188.057 C 136.800 188.529,136.350 189.416,135.800 190.029 C 133.643 192.435,132.800 193.552,132.800 194.006 C 132.800 194.266,131.540 195.777,130.000 197.362 C 128.460 198.948,127.200 200.518,127.200 200.852 C 127.200 201.185,125.310 203.452,123.000 205.890 C 116.383 212.872,114.400 215.318,114.400 216.501 C 114.400 217.105,114.040 217.600,113.600 217.600 C 113.160 217.600,112.800 218.320,112.800 219.200 C 112.800 220.080,112.440 220.800,112.000 220.800 C 110.038 220.800,111.508 234.254,113.661 236.000 C 113.932 236.220,114.377 237.314,114.650 238.432 C 114.923 239.549,115.815 241.168,116.633 242.030 C 118.094 243.568,118.022 243.692,112.707 248.798 C 104.472 256.709,97.422 263.053,95.200 264.552 C 94.100 265.293,92.457 266.643,91.548 267.550 C 89.569 269.527,87.500 270.907,84.800 272.051 C 83.700 272.517,81.720 273.434,80.400 274.089 C 74.728 276.903,51.117 279.012,48.534 276.935 C 48.020 276.523,46.340 275.922,44.800 275.600 C 43.260 275.278,41.640 274.756,41.200 274.439 C 36.678 271.181,25.060 270.485,21.650 273.267 C 18.239 276.051,14.400 280.745,14.400 282.133 C 14.400 282.732,14.040 283.937,13.600 284.811 C 13.160 285.685,12.440 287.115,12.000 287.989 C 10.497 290.975,11.067 297.865,13.158 301.997 C 14.898 305.433,16.012 306.875,19.809 310.608 C 24.990 315.703,27.095 317.600,27.567 317.600 C 27.873 317.600,29.203 318.680,30.523 320.000 C 31.843 321.320,33.165 322.401,33.462 322.402 C 33.758 322.403,35.260 323.482,36.800 324.800 C 38.340 326.118,39.814 327.197,40.076 327.198 C 40.337 327.199,41.597 328.109,42.876 329.221 C 44.154 330.332,46.010 331.451,47.000 331.707 C 47.990 331.964,48.800 332.494,48.800 332.887 C 48.800 333.279,49.679 333.600,50.753 333.600 C 51.827 333.600,52.903 333.919,53.144 334.309 C 53.385 334.699,54.756 335.247,56.191 335.527 C 62.281 336.713,62.726 337.722,62.765 350.461 C 62.791 358.848,63.065 361.955,63.800 362.200 C 64.350 362.383,64.800 363.044,64.800 363.669 C 64.800 365.251,74.543 374.886,76.881 375.616 C 77.937 375.946,78.980 376.455,79.200 376.747 C 81.614 379.956,99.318 381.079,105.205 378.398 C 112.734 374.968,113.518 372.515,114.529 349.200 C 115.560 325.460,113.572 328.879,142.325 301.400 C 152.992 291.206,153.087 291.147,154.505 293.796 C 159.649 303.408,174.345 307.051,181.268 300.430 C 181.746 299.974,183.695 298.340,185.600 296.800 C 187.505 295.260,189.454 293.626,189.932 293.170 C 190.409 292.713,192.600 291.693,194.800 290.903 C 197.000 290.113,199.340 289.250,200.000 288.987 C 201.319 288.460,209.413 286.574,213.200 285.911 C 214.520 285.680,216.320 285.173,217.200 284.785 C 218.634 284.153,224.962 283.069,234.000 281.909 C 235.760 281.683,237.740 281.264,238.400 280.977 C 239.060 280.690,245.900 279.983,253.600 279.406 C 277.164 277.638,277.950 277.560,279.600 276.820 C 280.480 276.425,283.988 275.868,287.395 275.583 C 290.802 275.298,293.793 274.735,294.042 274.332 C 294.291 273.930,295.553 273.600,296.847 273.600 C 298.141 273.600,299.200 273.240,299.200 272.800 C 299.200 272.360,299.913 272.000,300.784 272.000 C 302.335 272.000,306.699 270.529,311.721 268.312 C 313.107 267.701,314.576 267.200,314.985 267.200 C 315.394 267.200,317.500 266.302,319.664 265.203 C 321.829 264.105,324.050 263.205,324.600 263.203 C 325.150 263.202,325.600 262.840,325.600 262.400 C 325.600 261.960,326.320 261.600,327.200 261.600 C 328.080 261.600,328.800 261.247,328.800 260.815 C 328.800 260.384,329.700 259.805,330.800 259.529 C 331.900 259.252,332.800 258.706,332.800 258.313 C 332.800 257.921,333.340 257.600,334.000 257.600 C 334.660 257.600,335.200 257.264,335.200 256.854 C 335.200 256.444,335.830 255.906,336.600 255.659 C 337.370 255.412,338.952 254.397,340.116 253.405 C 351.270 243.892,351.777 243.423,356.000 238.719 C 360.751 233.427,368.790 222.040,370.910 217.600 C 371.225 216.940,371.690 216.220,371.942 215.999 C 372.845 215.210,375.200 210.248,375.200 209.135 C 375.200 208.511,375.493 208.000,375.852 208.000 C 376.631 208.000,379.200 202.813,379.200 201.240 C 379.200 200.631,379.470 200.013,379.800 199.867 C 380.375 199.611,381.830 196.734,383.981 191.600 C 384.534 190.280,385.298 188.586,385.678 187.835 C 386.059 187.084,386.603 185.014,386.887 183.235 C 387.172 181.456,387.673 180.000,388.000 180.000 C 389.050 180.000,391.061 161.095,391.148 150.400 C 391.205 143.447,389.515 130.702,388.018 126.800 C 387.681 125.920,386.779 122.320,386.014 118.800 C 385.250 115.280,384.354 111.680,384.024 110.800 C 383.694 109.920,382.768 107.040,381.966 104.400 C 381.164 101.760,380.263 99.240,379.964 98.800 C 379.665 98.360,379.167 96.920,378.856 95.600 C 378.066 92.237,368.941 73.684,367.111 71.720 C 366.280 70.828,365.600 69.784,365.600 69.401 C 365.600 68.504,353.878 56.800,352.980 56.800 C 352.607 56.800,351.604 56.164,350.751 55.387 C 348.528 53.363,341.218 48.800,340.197 48.800 C 339.722 48.800,339.213 48.519,339.067 48.175 C 338.714 47.350,325.136 40.800,323.776 40.800 C 323.195 40.800,322.378 40.487,321.960 40.105 C 321.542 39.723,319.400 38.785,317.200 38.021 C 315.000 37.256,312.480 36.348,311.600 36.003 C 307.921 34.558,301.283 32.800,299.508 32.800 C 298.459 32.800,297.600 32.487,297.600 32.104 C 297.600 31.721,296.070 31.193,294.200 30.930 C 292.330 30.667,289.180 30.096,287.200 29.661 C 285.220 29.226,281.911 28.854,279.847 28.835 C 277.783 28.816,275.872 28.440,275.600 28.000 C 275.305 27.523,270.141 27.200,262.800 27.200 C 255.459 27.200,250.295 27.523,250.000 28.000 M279.600 37.649 C 286.088 38.762,295.863 40.808,298.800 41.668 C 303.443 43.026,314.018 46.480,315.600 47.153 C 316.480 47.528,319.180 48.625,321.600 49.591 C 335.697 55.217,350.620 65.181,356.619 72.975 C 362.442 80.538,371.147 98.615,373.679 108.400 C 374.021 109.720,375.234 114.220,376.374 118.400 C 381.271 136.345,381.778 139.675,381.674 153.200 C 381.517 173.528,379.504 181.188,368.637 202.800 C 354.167 231.579,336.873 248.379,310.800 258.984 C 293.673 265.951,281.478 268.573,259.600 269.995 C 233.374 271.699,197.569 278.733,187.600 284.140 C 186.280 284.856,182.680 287.455,179.600 289.916 C 172.507 295.584,169.655 295.891,164.801 291.506 C 157.931 285.299,152.013 273.968,151.988 266.972 C 151.954 257.552,148.226 252.358,138.102 247.627 C 129.713 243.707,125.067 239.323,121.848 232.293 C 118.591 225.178,118.816 224.699,133.480 207.455 C 145.714 193.068,150.254 184.606,154.433 168.400 C 164.934 127.678,173.767 109.070,199.243 74.000 C 215.163 52.084,230.415 40.809,248.400 37.659 C 251.040 37.197,254.100 36.659,255.200 36.464 C 258.188 35.934,274.112 36.708,279.600 37.649 M129.600 250.800 C 131.343 251.900,133.177 252.800,133.676 252.800 C 139.545 252.800,144.868 259.498,145.432 267.594 C 145.668 270.980,146.570 274.903,147.711 277.500 C 148.750 279.864,149.600 281.897,149.600 282.018 C 149.600 282.218,142.922 288.742,121.203 309.764 C 107.474 323.052,107.161 323.957,105.734 354.400 C 104.920 371.775,102.430 374.279,89.349 370.872 C 75.515 367.269,69.642 359.742,71.191 347.600 C 72.554 336.918,69.605 331.303,60.890 327.989 C 52.440 324.775,49.988 323.370,40.400 316.248 C 20.603 301.544,17.184 295.877,22.165 286.028 C 25.475 279.484,27.594 279.072,38.817 282.787 C 68.856 292.732,86.092 286.750,118.800 255.031 C 126.131 247.921,125.458 248.185,129.600 250.800 " stroke="none" fill="#000000" fill-rule="evenodd"></path><path id="path1" d="M253.600 36.735 C 251.620 37.006,256.120 37.237,263.600 37.246 C 272.787 37.258,275.513 37.089,272.000 36.726 C 265.662 36.069,258.422 36.073,253.600 36.735 M241.600 39.200 C 240.010 40.228,242.008 40.228,244.400 39.200 L 246.000 38.512 244.400 38.468 C 243.520 38.444,242.260 38.773,241.600 39.200 M283.267 38.694 C 283.450 38.856,285.040 39.207,286.800 39.475 C 289.030 39.815,289.515 39.743,288.400 39.237 C 286.864 38.542,282.579 38.088,283.267 38.694 M233.177 42.693 C 221.637 48.264,211.269 57.608,200.437 72.200 C 199.212 73.850,198.399 75.200,198.629 75.200 C 198.860 75.200,200.853 72.770,203.059 69.800 C 211.556 58.358,223.875 47.812,234.651 42.755 C 237.813 41.272,240.030 40.045,239.577 40.029 C 239.125 40.013,236.245 41.212,233.177 42.693 M294.467 41.087 C 294.650 41.246,295.880 41.616,297.200 41.912 C 298.953 42.304,299.276 42.230,298.400 41.637 C 297.320 40.906,293.664 40.395,294.467 41.087 M301.200 43.200 C 303.592 44.228,305.590 44.228,304.000 43.200 C 303.340 42.773,302.080 42.444,301.200 42.468 L 299.600 42.512 301.200 43.200 M308.000 45.200 C 311.653 46.607,313.090 46.586,310.000 45.171 C 308.680 44.567,307.060 44.083,306.400 44.097 C 305.740 44.111,306.460 44.607,308.000 45.200 M316.867 48.305 C 317.050 48.472,320.281 49.925,324.046 51.534 C 327.812 53.142,333.932 56.241,337.646 58.420 C 341.361 60.599,343.320 61.483,342.000 60.386 C 338.008 57.066,313.634 45.350,316.867 48.305 M347.600 64.909 C 352.904 69.269,357.275 74.309,360.426 79.696 C 363.711 85.314,364.913 86.526,362.492 81.779 C 358.956 74.849,350.434 65.316,345.600 62.883 C 344.940 62.551,345.840 63.463,347.600 64.909 M194.183 81.000 C 191.297 85.057,186.166 92.738,182.160 99.000 C 181.808 99.550,181.693 100.000,181.904 100.000 C 182.115 100.000,185.903 94.600,190.321 88.000 C 198.513 75.765,200.603 71.976,194.183 81.000 M370.059 100.000 C 370.353 101.100,370.927 102.540,371.335 103.200 C 371.850 104.034,371.913 103.790,371.541 102.400 C 371.247 101.300,370.673 99.860,370.265 99.200 C 369.750 98.366,369.687 98.610,370.059 100.000 M179.015 103.818 C 176.548 107.546,173.426 113.600,173.970 113.600 C 174.192 113.600,175.265 111.890,176.356 109.800 C 177.446 107.710,179.107 104.830,180.048 103.400 C 180.988 101.970,181.590 100.800,181.385 100.800 C 181.180 100.800,180.114 102.158,179.015 103.818 M372.068 105.600 C 372.093 106.260,372.422 107.520,372.800 108.400 L 373.488 110.000 373.532 108.400 C 373.556 107.520,373.227 106.260,372.800 105.600 C 372.111 104.533,372.029 104.533,372.068 105.600 M374.108 112.400 C 374.948 116.206,376.095 118.493,375.512 115.200 C 375.239 113.660,374.693 111.860,374.297 111.200 C 373.827 110.416,373.762 110.831,374.108 112.400 M171.743 117.237 C 169.864 121.178,170.128 121.849,172.093 118.125 C 172.986 116.433,173.574 114.908,173.401 114.735 C 173.228 114.562,172.482 115.688,171.743 117.237 M376.136 119.200 C 376.177 121.279,377.436 124.693,377.464 122.800 C 377.477 121.920,377.178 120.480,376.800 119.600 C 376.379 118.620,376.122 118.465,376.136 119.200 M164.891 133.999 C 163.521 137.786,162.418 141.315,162.440 141.842 C 162.462 142.369,163.714 139.402,165.221 135.248 C 166.729 131.094,167.832 127.565,167.672 127.406 C 167.513 127.246,166.261 130.213,164.891 133.999 M378.456 128.867 C 378.487 129.930,378.839 131.520,379.237 132.400 C 379.743 133.515,379.815 133.030,379.475 130.800 C 378.909 127.086,378.375 126.071,378.456 128.867 M380.174 136.800 C 380.183 137.900,380.464 139.880,380.800 141.200 L 381.411 143.600 381.426 141.200 C 381.434 139.880,381.152 137.900,380.800 136.800 L 380.159 134.800 380.174 136.800 M160.800 146.000 C 160.272 147.599,160.030 149.097,160.262 149.329 C 160.494 149.560,161.060 148.387,161.520 146.720 C 162.607 142.785,162.046 142.224,160.800 146.000 M380.970 156.888 C 380.876 161.117,380.626 166.337,380.412 168.488 L 380.024 172.400 380.837 169.218 C 381.285 167.469,381.536 162.249,381.395 157.618 L 381.140 149.200 380.970 156.888 M158.545 153.745 C 158.070 155.617,157.820 157.286,157.988 157.455 C 158.157 157.624,158.702 156.249,159.200 154.400 C 159.698 152.551,159.949 150.882,159.757 150.691 C 159.566 150.499,159.021 151.874,158.545 153.745 M156.500 160.900 C 155.833 164.235,156.479 164.881,157.200 161.600 C 157.504 160.217,157.585 158.919,157.382 158.715 C 157.178 158.511,156.781 159.494,156.500 160.900 M154.899 166.031 C 154.624 166.746,154.431 167.931,154.469 168.665 C 154.507 169.399,154.855 168.938,155.242 167.640 C 155.996 165.115,155.730 163.866,154.899 166.031 M152.880 173.280 C 152.420 174.947,152.187 176.454,152.363 176.630 C 152.539 176.806,153.060 175.587,153.520 173.920 C 153.980 172.253,154.213 170.746,154.037 170.570 C 153.861 170.394,153.340 171.613,152.880 173.280 M378.804 176.200 C 378.516 177.630,378.110 179.520,377.902 180.400 C 377.609 181.639,377.689 181.730,378.259 180.800 C 379.098 179.432,380.265 173.600,379.700 173.600 C 379.495 173.600,379.092 174.770,378.804 176.200 M150.733 179.706 C 149.055 186.766,143.544 195.631,133.483 207.455 C 119.975 223.331,118.879 225.238,120.765 229.600 C 121.532 231.375,121.578 231.262,121.178 228.598 C 120.539 224.344,122.009 221.806,131.257 211.200 C 143.422 197.249,153.967 180.100,151.746 177.880 C 151.489 177.622,151.032 178.444,150.733 179.706 M374.534 188.759 C 374.066 190.102,373.853 191.200,374.061 191.200 C 374.601 191.200,376.111 187.044,375.715 186.648 C 375.533 186.467,375.002 187.417,374.534 188.759 M369.644 199.296 C 368.699 201.109,368.092 202.758,368.294 202.961 C 368.497 203.164,369.295 201.951,370.066 200.265 C 370.838 198.579,371.610 196.930,371.782 196.600 C 371.954 196.270,371.930 196.000,371.728 196.000 C 371.526 196.000,370.588 197.483,369.644 199.296 M365.513 207.400 C 358.302 221.660,344.262 238.474,333.000 246.340 C 328.035 249.807,325.987 251.878,330.200 249.170 C 340.396 242.618,350.511 232.188,358.633 219.853 C 364.453 211.013,368.435 204.000,367.633 204.000 C 367.413 204.000,366.459 205.530,365.513 207.400 M123.269 235.151 C 124.243 236.884,126.682 239.854,128.691 241.751 L 132.342 245.200 128.656 241.126 C 126.630 238.885,124.383 235.915,123.665 234.526 C 122.947 233.137,122.165 232.000,121.928 232.000 C 121.691 232.000,122.295 233.418,123.269 235.151 M136.800 246.778 C 136.800 246.986,138.616 247.937,140.835 248.891 C 143.121 249.875,146.111 252.052,147.733 253.913 C 149.308 255.721,150.223 256.480,149.767 255.600 C 147.893 251.984,136.800 244.437,136.800 246.778 M118.800 255.031 C 102.261 271.070,92.331 278.787,84.050 282.036 C 80.937 283.257,78.532 284.398,78.705 284.571 C 81.286 287.153,98.787 274.973,116.202 258.476 L 125.603 249.569 128.802 251.201 C 132.767 253.224,132.999 252.748,129.154 250.479 C 125.403 248.266,126.084 247.967,118.800 255.031 M141.625 257.028 C 141.611 257.374,142.122 258.454,142.760 259.428 C 143.398 260.403,144.254 263.540,144.661 266.400 C 145.258 270.586,145.421 270.976,145.497 268.400 C 145.609 264.592,144.469 260.127,142.833 257.963 C 142.183 257.103,141.639 256.683,141.625 257.028 M150.468 258.400 C 150.493 259.060,150.822 260.320,151.200 261.200 L 151.888 262.800 151.932 261.200 C 151.956 260.320,151.627 259.060,151.200 258.400 C 150.511 257.333,150.429 257.333,150.468 258.400 M306.002 260.108 C 301.643 261.875,300.012 262.965,303.197 261.983 C 306.138 261.076,311.729 258.515,310.800 258.500 C 310.360 258.493,308.201 259.217,306.002 260.108 M296.800 263.301 C 295.700 263.740,293.065 264.472,290.945 264.928 C 288.824 265.384,287.289 265.956,287.533 266.200 C 288.014 266.681,298.040 264.199,300.000 263.113 C 301.793 262.120,299.403 262.260,296.800 263.301 M152.080 267.267 C 152.124 269.210,152.450 271.700,152.804 272.800 C 153.191 274.000,153.274 272.720,153.012 269.600 C 152.502 263.523,151.965 262.178,152.080 267.267 M279.200 267.200 L 275.600 267.760 278.800 267.800 C 280.560 267.822,282.900 267.552,284.000 267.200 C 286.527 266.391,284.404 266.391,279.200 267.200 M271.400 268.551 C 272.170 268.753,273.430 268.753,274.200 268.551 C 274.970 268.350,274.340 268.186,272.800 268.186 C 271.260 268.186,270.630 268.350,271.400 268.551 M255.600 269.600 L 251.600 270.149 255.600 270.181 C 257.800 270.199,261.940 269.950,264.800 269.628 L 270.000 269.044 264.800 269.048 C 261.940 269.050,257.800 269.298,255.600 269.600 M238.800 271.200 C 234.960 271.727,234.928 271.751,238.000 271.815 C 239.760 271.852,242.820 271.593,244.800 271.241 C 249.540 270.397,244.882 270.366,238.800 271.200 M224.400 273.600 L 222.800 274.288 224.400 274.249 C 225.280 274.228,227.080 273.936,228.400 273.600 L 230.800 272.989 228.400 272.951 C 227.080 272.930,225.280 273.222,224.400 273.600 M145.646 274.232 C 145.621 274.799,146.367 276.768,147.305 278.606 L 149.010 281.948 130.531 299.974 C 113.753 316.340,108.000 322.739,108.000 325.036 C 108.000 325.482,109.391 323.722,111.091 321.124 C 112.792 318.526,117.742 312.991,122.091 308.823 C 135.802 295.689,149.600 282.244,149.600 282.021 C 149.600 281.145,145.682 273.427,145.646 274.232 M216.400 275.200 C 214.244 275.749,214.204 275.812,216.000 275.826 C 217.100 275.834,218.900 275.552,220.000 275.200 C 222.689 274.339,219.784 274.339,216.400 275.200 M154.147 276.600 C 156.055 281.973,166.431 294.405,169.002 294.397 C 169.551 294.395,168.854 293.695,167.454 292.841 C 164.362 290.956,158.974 284.280,156.323 279.047 C 154.398 275.248,153.182 273.881,154.147 276.600 M205.200 277.600 L 203.600 278.288 205.200 278.264 C 206.080 278.251,207.700 277.952,208.800 277.600 L 210.800 276.959 208.800 276.936 C 207.700 276.923,206.080 277.222,205.200 277.600 M199.200 279.200 C 197.552 279.728,197.482 279.852,198.800 279.908 C 199.680 279.945,200.940 279.627,201.600 279.200 C 203.002 278.294,202.029 278.294,199.200 279.200 M192.800 280.976 C 191.260 281.433,190.411 281.957,190.913 282.141 C 191.415 282.325,193.035 281.948,194.513 281.303 C 197.638 279.939,196.818 279.783,192.800 280.976 M24.646 282.200 C 23.984 282.970,23.182 284.140,22.862 284.800 C 22.543 285.460,22.856 285.280,23.558 284.400 C 24.260 283.520,25.436 282.350,26.170 281.800 C 26.905 281.250,27.133 280.800,26.677 280.800 C 26.221 280.800,25.307 281.430,24.646 282.200 M186.400 284.006 C 184.860 284.850,181.800 287.203,179.600 289.235 L 175.600 292.930 180.332 289.217 C 182.934 287.175,186.084 284.977,187.332 284.332 C 188.579 283.687,189.600 282.988,189.600 282.779 C 189.600 282.258,189.560 282.273,186.400 284.006 M45.200 285.600 C 46.080 285.978,47.520 286.277,48.400 286.264 C 49.686 286.245,49.608 286.115,48.000 285.600 C 45.265 284.724,43.161 284.724,45.200 285.600 M72.000 285.600 C 69.266 286.175,69.256 286.191,71.600 286.238 C 72.920 286.265,74.720 285.978,75.600 285.600 C 77.524 284.773,75.927 284.773,72.000 285.600 M65.000 286.951 C 65.770 287.153,67.030 287.153,67.800 286.951 C 68.570 286.750,67.940 286.586,66.400 286.586 C 64.860 286.586,64.230 286.750,65.000 286.951 M20.202 294.000 C 20.211 295.760,20.374 296.386,20.566 295.391 C 20.757 294.396,20.750 292.956,20.550 292.191 C 20.349 291.426,20.193 292.240,20.202 294.000 M20.800 297.966 C 20.800 298.286,21.520 299.463,22.400 300.582 C 23.280 301.700,24.000 302.354,24.000 302.034 C 24.000 301.714,23.280 300.537,22.400 299.418 C 21.520 298.300,20.800 297.646,20.800 297.966 M28.400 306.846 C 38.721 315.609,54.399 326.389,56.800 326.372 C 57.460 326.368,56.018 325.382,53.595 324.182 C 48.818 321.816,32.801 310.234,29.661 306.874 C 28.594 305.733,27.334 304.802,26.861 304.804 C 26.387 304.806,27.080 305.725,28.400 306.846 M62.000 328.342 C 67.030 330.668,70.118 333.929,71.162 338.017 L 71.975 341.200 71.648 338.265 C 71.088 333.229,63.791 326.306,59.200 326.454 C 58.540 326.475,59.800 327.325,62.000 328.342 M106.097 336.255 C 105.737 340.575,105.625 344.291,105.847 344.514 C 106.415 345.082,107.412 333.713,107.049 330.800 C 106.885 329.480,106.456 331.935,106.097 336.255 M71.197 347.600 C 70.512 356.153,71.345 359.012,75.908 363.781 C 78.389 366.374,85.457 370.432,87.373 370.363 C 87.938 370.343,86.240 369.323,83.600 368.096 C 74.820 364.015,72.179 359.888,71.761 349.600 C 71.552 344.433,71.473 344.155,71.197 347.600 M104.687 363.432 C 104.413 365.540,103.551 367.970,102.771 368.832 C 101.990 369.695,101.727 370.400,102.185 370.400 C 103.556 370.400,105.717 364.942,105.441 362.176 C 105.220 359.960,105.114 360.136,104.687 363.432 M90.844 371.279 C 92.870 372.071,98.542 372.141,99.716 371.388 C 100.220 371.064,98.080 370.771,94.960 370.735 C 91.601 370.696,89.922 370.918,90.844 371.279 " stroke="none" fill="#444444" fill-rule="evenodd"></path><path id="path2" d="M118.400 256.400 C 115.122 259.700,112.620 262.400,112.840 262.400 C 113.060 262.400,115.922 259.700,119.200 256.400 C 122.478 253.100,124.980 250.400,124.760 250.400 C 124.540 250.400,121.678 253.100,118.400 256.400 M142.027 259.063 C 142.327 259.647,142.862 261.087,143.217 262.263 C 143.735 263.978,143.876 264.075,143.931 262.753 C 143.969 261.847,143.433 260.407,142.741 259.553 C 142.048 258.699,141.727 258.478,142.027 259.063 M108.350 265.800 L 106.000 268.400 108.600 266.050 C 111.024 263.860,111.568 263.200,110.950 263.200 C 110.812 263.200,109.642 264.370,108.350 265.800 M144.452 269.903 C 144.816 274.751,146.478 280.000,147.649 280.000 C 147.873 280.000,147.606 279.190,147.056 278.200 C 146.506 277.210,145.602 273.700,145.047 270.400 L 144.038 264.400 144.452 269.903 M28.609 281.366 C 29.604 281.557,31.044 281.550,31.809 281.350 C 32.574 281.149,31.760 280.993,30.000 281.002 C 28.240 281.011,27.614 281.174,28.609 281.366 M138.382 291.800 L 131.600 298.800 138.600 292.018 C 145.101 285.718,145.964 284.800,145.382 284.800 C 145.263 284.800,142.113 287.950,138.382 291.800 M55.429 287.792 C 57.975 287.951,61.935 287.950,64.229 287.789 C 66.523 287.628,64.440 287.497,59.600 287.499 C 54.760 287.501,52.883 287.633,55.429 287.792 M21.029 294.000 C 21.035 296.200,21.190 297.005,21.374 295.789 C 21.558 294.573,21.553 292.773,21.363 291.789 C 21.173 290.805,21.023 291.800,21.029 294.000 M119.184 310.200 L 111.600 318.000 119.400 310.416 C 126.645 303.372,127.564 302.400,126.984 302.400 C 126.866 302.400,123.356 305.910,119.184 310.200 M36.400 312.342 C 40.421 315.787,45.600 319.338,45.599 318.650 C 45.598 318.292,44.730 317.460,43.671 316.800 C 42.612 316.140,40.002 314.404,37.872 312.943 C 35.411 311.255,34.874 311.036,36.400 312.342 M46.804 320.006 C 47.414 320.993,54.374 325.094,54.766 324.697 C 54.928 324.534,53.095 323.237,50.692 321.816 C 48.290 320.394,46.540 319.580,46.804 320.006 M57.600 325.712 C 58.700 326.190,61.028 327.170,62.773 327.890 C 64.518 328.610,67.128 330.381,68.573 331.826 C 70.018 333.271,71.200 334.119,71.200 333.710 C 71.200 331.468,63.329 326.484,58.000 325.352 C 55.712 324.866,55.693 324.883,57.600 325.712 M105.802 334.000 C 105.811 335.760,105.974 336.386,106.166 335.391 C 106.357 334.396,106.350 332.956,106.150 332.191 C 105.949 331.426,105.793 332.240,105.802 334.000 M71.830 345.875 C 72.079 357.272,72.642 359.646,75.779 362.521 C 77.588 364.180,77.534 363.987,75.314 360.880 L 72.800 357.360 72.800 346.727 C 72.800 340.879,72.530 335.927,72.200 335.722 C 71.870 335.517,71.703 340.086,71.830 345.875 M105.099 351.600 C 105.101 356.440,105.233 358.317,105.392 355.771 C 105.551 353.225,105.550 349.265,105.389 346.971 C 105.228 344.677,105.097 346.760,105.099 351.600 M87.264 369.547 C 87.960 369.977,91.020 370.511,94.064 370.735 C 99.157 371.110,99.280 371.084,95.600 370.416 C 86.938 368.842,85.956 368.740,87.264 369.547 " stroke="none" fill="#8c8c8c" fill-rule="evenodd"></path><path id="path3" d="M122.357 253.400 L 119.600 256.400 122.600 253.643 C 125.392 251.077,125.968 250.400,125.357 250.400 C 125.223 250.400,123.873 251.750,122.357 253.400 M126.400 250.792 C 126.400 251.340,131.298 253.768,131.664 253.402 C 131.838 253.229,130.724 252.488,129.190 251.756 C 127.655 251.025,126.400 250.591,126.400 250.792 M139.400 257.086 C 141.635 258.827,141.189 259.494,133.800 265.450 C 129.950 268.553,125.720 272.044,124.400 273.206 C 123.080 274.368,118.581 278.263,114.402 281.860 C 110.223 285.457,102.979 292.000,98.305 296.400 C 82.753 311.040,71.984 316.678,56.712 318.177 C 50.572 318.780,39.454 314.042,32.365 307.802 C 30.404 306.076,28.814 304.965,28.830 305.332 C 28.861 306.003,31.820 308.391,40.000 314.347 C 42.420 316.109,45.120 318.122,46.000 318.820 C 49.132 321.304,55.668 324.620,60.120 325.984 C 70.328 329.111,72.800 333.230,72.800 347.106 C 72.800 359.226,74.604 363.075,81.974 366.680 C 87.813 369.535,100.015 371.518,101.085 369.785 C 101.294 369.447,100.146 369.296,98.533 369.450 C 95.643 369.726,95.597 369.685,95.422 366.665 C 95.324 364.979,95.023 360.180,94.754 356.000 C 93.750 340.396,105.466 312.756,116.966 303.600 C 136.064 288.395,146.572 278.617,145.658 276.902 C 145.277 276.186,144.582 272.460,144.114 268.621 C 143.201 261.134,141.718 257.293,139.430 256.495 C 138.074 256.022,138.072 256.052,139.400 257.086 M108.946 265.699 C 104.250 270.131,105.036 270.318,109.877 265.921 C 112.010 263.985,113.450 262.409,113.077 262.420 C 112.705 262.431,110.846 263.907,108.946 265.699 M146.916 280.602 C 147.173 281.584,144.506 284.746,138.036 291.130 C 132.949 296.149,128.893 300.360,129.022 300.488 C 129.476 300.942,147.603 282.489,147.844 281.327 C 147.979 280.679,147.742 279.935,147.319 279.673 C 146.896 279.412,146.714 279.830,146.916 280.602 M25.446 283.000 C 24.036 284.641,22.979 286.400,23.402 286.400 C 23.566 286.400,24.498 285.320,25.474 284.000 C 27.402 281.392,27.384 280.743,25.446 283.000 M46.800 287.200 C 47.680 287.578,49.120 287.888,50.000 287.888 L 51.600 287.888 50.000 287.200 C 49.120 286.822,47.680 286.512,46.800 286.512 L 45.200 286.512 46.800 287.200 M69.600 287.200 L 67.600 287.841 69.600 287.864 C 70.700 287.877,72.320 287.578,73.200 287.200 L 74.800 286.512 73.200 286.536 C 72.320 286.549,70.700 286.848,69.600 287.200 M21.600 297.436 C 21.600 297.853,22.950 299.616,24.600 301.355 C 27.740 304.662,27.398 303.851,23.751 299.339 C 22.568 297.875,21.600 297.019,21.600 297.436 M118.781 309.800 L 112.400 316.400 119.000 310.019 C 122.630 306.509,125.600 303.539,125.600 303.419 C 125.600 302.835,124.708 303.670,118.781 309.800 M108.866 320.925 C 105.471 326.846,105.761 327.768,109.214 322.033 C 110.761 319.463,111.868 317.201,111.672 317.006 C 111.477 316.811,110.214 318.574,108.866 320.925 M105.299 330.031 C 105.024 330.746,104.857 334.091,104.927 337.465 L 105.053 343.600 105.591 336.400 C 106.157 328.836,106.114 327.907,105.299 330.031 M104.284 355.600 C 104.282 359.560,104.417 361.281,104.585 359.424 C 104.752 357.567,104.754 354.327,104.589 352.224 C 104.424 350.121,104.286 351.640,104.284 355.600 " stroke="none" fill="#c2c2c2" fill-rule="evenodd"></path><path id="path4" d="M119.349 256.894 C 112.701 263.357,107.499 268.040,101.680 272.800 C 99.798 274.340,97.839 275.961,97.329 276.401 C 94.370 278.955,89.284 281.755,82.000 284.841 C 71.595 289.249,49.805 289.216,39.600 284.777 C 28.894 280.119,25.326 281.109,22.510 289.519 C 19.529 298.424,31.997 311.401,49.118 317.214 C 56.455 319.704,70.193 316.676,80.796 310.229 C 89.241 305.094,88.169 305.942,98.305 296.400 C 102.979 292.000,110.223 285.457,114.402 281.860 C 118.581 278.263,123.080 274.368,124.400 273.206 C 125.720 272.044,129.950 268.553,133.800 265.450 C 141.993 258.845,142.144 258.327,136.601 255.865 C 134.291 254.839,130.901 253.254,129.068 252.343 L 125.735 250.686 119.349 256.894 M143.986 280.449 C 141.857 282.753,126.496 295.932,117.380 303.274 C 108.346 310.552,104.401 317.768,96.647 341.200 C 94.452 347.836,94.303 348.995,94.754 356.000 C 95.023 360.180,95.324 364.950,95.422 366.600 C 95.581 369.273,95.833 369.600,97.735 369.600 C 103.251 369.600,103.726 368.028,104.377 347.600 C 105.168 322.778,104.490 324.107,128.296 300.686 C 145.579 283.682,147.443 281.596,146.747 280.036 L 145.972 278.301 143.986 280.449 " stroke="none" fill="#ffffff" fill-rule="evenodd"></path><path id="path5" d="M261.011 37.374 C 262.227 37.558,264.027 37.553,265.011 37.363 C 265.995 37.173,265.000 37.023,262.800 37.029 C 260.600 37.035,259.795 37.190,261.011 37.374 M329.600 93.483 C 316.350 97.630,308.307 104.645,305.162 114.800 C 304.344 117.440,303.210 120.500,302.642 121.600 C 302.074 122.700,301.608 124.055,301.605 124.611 C 301.602 125.167,301.262 126.247,300.850 127.011 C 299.853 128.856,296.638 137.980,294.017 146.400 C 289.268 161.655,280.989 177.693,272.657 187.780 C 267.358 194.196,245.982 214.155,237.125 220.959 C 235.846 221.941,234.620 222.983,234.400 223.275 C 234.180 223.567,227.700 227.036,220.000 230.984 C 212.300 234.932,203.480 239.711,200.400 241.602 C 197.320 243.494,193.180 245.931,191.200 247.017 C 180.576 252.847,164.646 267.239,163.613 271.941 C 161.604 281.089,177.709 285.968,187.600 279.209 C 188.040 278.909,190.560 278.028,193.200 277.252 C 195.840 276.477,199.980 275.182,202.400 274.374 C 211.842 271.225,220.659 268.867,226.400 267.956 C 229.700 267.433,234.020 266.662,236.000 266.244 C 237.980 265.825,244.205 265.173,249.833 264.794 C 260.026 264.108,268.795 263.038,276.400 261.553 C 280.499 260.752,287.407 259.575,295.200 258.348 C 317.073 254.905,328.912 245.818,352.851 214.097 C 358.597 206.484,359.621 204.714,361.932 198.400 C 363.140 195.100,364.421 191.680,364.780 190.800 C 365.138 189.920,366.037 187.400,366.778 185.200 C 367.518 183.000,368.438 180.480,368.822 179.600 C 369.206 178.720,370.053 175.840,370.704 173.200 C 371.356 170.560,372.364 166.600,372.945 164.400 C 374.925 156.894,374.384 128.751,372.130 122.000 C 365.427 101.928,345.440 88.526,329.600 93.483 " stroke="none" fill="#691600" fill-rule="evenodd"></path><path id="path6" d="M245.200 39.148 C 224.114 45.188,210.942 57.126,189.422 89.698 C 172.854 114.777,166.688 128.158,158.875 156.000 C 149.971 187.728,146.744 194.533,134.022 208.400 C 119.049 224.721,118.336 228.243,127.697 239.666 C 130.264 242.799,132.779 244.373,140.890 247.924 C 148.669 251.330,151.959 256.809,153.186 268.400 C 154.125 277.271,162.002 289.684,168.983 293.295 C 171.721 294.711,173.278 294.013,180.677 288.052 C 183.469 285.802,186.771 283.435,188.015 282.792 C 192.872 280.281,204.857 277.137,221.600 273.984 C 225.340 273.280,229.660 272.391,231.200 272.009 C 232.740 271.626,240.660 270.745,248.800 270.050 C 282.563 267.167,295.253 264.874,306.921 259.550 C 308.307 258.918,309.699 258.400,310.013 258.400 C 310.327 258.400,314.233 256.598,318.692 254.395 C 325.950 250.809,327.743 249.835,330.756 247.842 C 347.475 236.784,364.087 213.960,374.637 187.554 C 384.111 163.838,383.139 139.566,371.301 104.300 C 361.472 75.019,351.254 63.971,321.587 50.548 C 297.819 39.794,261.742 34.410,245.200 39.148 M256.800 65.881 C 263.382 69.239,266.153 77.515,262.841 83.921 C 255.343 98.421,228.470 93.856,229.823 78.312 C 230.836 66.665,245.284 60.008,256.800 65.881 M225.702 87.530 C 228.726 88.797,231.253 91.358,232.589 94.511 C 233.649 97.010,230.135 100.686,210.668 117.445 C 204.435 122.810,197.248 129.578,194.696 132.484 C 192.144 135.391,189.930 137.389,189.775 136.925 C 189.185 135.154,200.989 113.949,209.218 102.000 C 221.177 84.635,220.407 85.312,225.702 87.530 M350.902 96.752 C 362.796 103.939,368.275 110.457,372.130 122.000 C 374.384 128.751,374.925 156.894,372.945 164.400 C 372.364 166.600,371.356 170.560,370.704 173.200 C 370.053 175.840,369.206 178.720,368.822 179.600 C 368.438 180.480,367.518 183.000,366.778 185.200 C 366.037 187.400,365.138 189.920,364.780 190.800 C 364.421 191.680,363.140 195.100,361.932 198.400 C 359.621 204.714,358.597 206.484,352.851 214.097 C 328.912 245.818,317.073 254.905,295.200 258.348 C 287.407 259.575,280.499 260.752,276.400 261.553 C 268.795 263.038,260.026 264.108,249.833 264.794 C 244.205 265.173,237.980 265.825,236.000 266.244 C 234.020 266.662,229.700 267.433,226.400 267.956 C 220.659 268.867,211.842 271.225,202.400 274.374 C 199.980 275.182,195.840 276.477,193.200 277.252 C 190.560 278.028,188.040 278.909,187.600 279.209 C 177.709 285.968,161.604 281.089,163.613 271.941 C 164.646 267.239,180.576 252.847,191.200 247.017 C 193.180 245.931,197.320 243.494,200.400 241.602 C 203.480 239.711,212.300 234.932,220.000 230.984 C 227.700 227.036,234.180 223.567,234.400 223.275 C 234.620 222.983,235.846 221.941,237.125 220.959 C 245.982 214.155,267.358 194.196,272.657 187.780 C 280.989 177.693,289.268 161.655,294.017 146.400 C 296.638 137.980,299.853 128.856,300.850 127.011 C 301.262 126.247,301.602 125.167,301.605 124.611 C 301.608 124.055,302.074 122.700,302.642 121.600 C 303.210 120.500,304.344 117.440,305.162 114.800 C 310.957 96.094,334.463 86.819,350.902 96.752 " stroke="none" fill="#965b3d" fill-rule="evenodd"></path><path id="path7" d="M238.022 65.826 C 224.459 73.508,228.398 90.854,244.068 92.452 C 258.782 93.952,269.404 81.021,262.200 70.377 C 258.010 64.186,245.181 61.772,238.022 65.826 M216.578 91.400 C 208.018 103.619,205.046 108.131,200.299 116.119 C 189.137 134.903,186.941 141.317,194.696 132.484 C 197.248 129.578,204.435 122.810,210.668 117.445 C 230.135 100.686,233.649 97.010,232.589 94.511 C 231.253 91.358,228.726 88.797,225.702 87.530 C 221.252 85.666,220.317 86.062,216.578 91.400 " stroke="none" fill="#c78b6d" fill-rule="evenodd"></path></g></svg>