<svg id="svg" version="1.1" width="619" height="500" xmlns="http://www.w3.org/2000/svg" xmlns:xlink="http://www.w3.org/1999/xlink" style="display: block;"><g id="svgg"><path id="path0" d="M206.462 20.679 C 206.242 21.034,205.062 21.325,203.839 21.325 C 202.616 21.325,201.616 21.616,201.616 21.971 C 201.616 22.326,201.092 22.617,200.452 22.617 C 199.008 22.617,195.812 24.062,195.805 24.717 C 195.802 24.984,195.354 25.202,194.810 25.202 C 194.266 25.202,193.653 25.638,193.449 26.171 C 193.244 26.704,192.526 27.141,191.853 27.141 C 191.181 27.141,190.630 27.398,190.630 27.713 C 190.630 28.028,189.657 28.747,188.468 29.312 C 186.294 30.343,183.975 32.144,179.823 36.026 C 178.588 37.181,177.339 38.126,177.049 38.126 C 176.759 38.126,176.424 38.355,176.306 38.635 C 176.187 38.914,174.795 40.150,173.212 41.381 C 171.629 42.612,169.392 44.491,168.239 45.557 C 165.166 48.402,164.251 49.111,163.659 49.111 C 163.367 49.111,162.709 49.693,162.197 50.404 C 161.685 51.115,160.966 51.697,160.600 51.697 C 160.235 51.698,159.070 52.442,158.013 53.351 C 156.955 54.261,155.151 55.450,154.004 55.995 C 152.857 56.539,151.163 57.685,150.240 58.541 C 149.316 59.397,148.139 60.097,147.624 60.097 C 147.109 60.097,146.688 60.388,146.688 60.743 C 146.688 61.099,145.961 61.389,145.073 61.389 C 144.184 61.389,143.457 61.680,143.457 62.036 C 143.457 62.391,142.747 62.682,141.880 62.682 C 141.012 62.682,140.123 62.973,139.903 63.328 C 139.683 63.683,138.939 63.974,138.249 63.974 C 137.560 63.974,136.995 64.265,136.995 64.620 C 136.995 64.976,136.036 65.267,134.863 65.267 C 133.690 65.267,132.454 65.528,132.116 65.847 C 131.779 66.166,130.339 66.593,128.918 66.797 C 127.496 67.001,124.443 67.473,122.132 67.846 C 119.822 68.219,115.315 68.829,112.116 69.201 C 108.918 69.573,106.024 70.149,105.687 70.480 C 105.349 70.811,102.659 71.082,99.709 71.082 C 96.564 71.082,94.346 71.350,94.346 71.729 C 94.346 72.084,92.764 72.375,90.830 72.375 C 88.896 72.375,87.134 72.666,86.914 73.021 C 86.695 73.376,85.532 73.667,84.330 73.667 C 83.128 73.667,81.964 73.958,81.745 74.313 C 81.525 74.669,80.507 74.960,79.483 74.960 C 78.459 74.960,77.441 75.250,77.221 75.606 C 77.002 75.961,76.112 76.252,75.245 76.252 C 74.377 76.252,73.667 76.543,73.667 76.898 C 73.667 77.254,73.086 77.544,72.375 77.544 C 71.664 77.544,71.079 77.763,71.075 78.029 C 71.071 78.296,69.835 79.090,68.329 79.794 C 66.822 80.498,65.119 81.589,64.545 82.217 C 63.970 82.846,63.089 83.360,62.587 83.360 C 62.085 83.360,61.255 83.942,60.743 84.653 C 60.231 85.363,59.541 85.945,59.210 85.945 C 58.276 85.945,53.031 90.063,53.009 90.814 C 52.998 91.181,52.049 92.037,50.901 92.715 C 48.613 94.067,42.169 100.465,39.495 104.039 C 38.565 105.283,37.324 106.660,36.737 107.099 C 36.151 107.539,34.842 109.210,33.829 110.814 C 32.816 112.417,31.769 113.730,31.502 113.731 C 31.236 113.731,31.018 114.313,31.018 115.024 C 31.018 115.735,30.800 116.319,30.533 116.322 C 30.267 116.324,29.720 116.979,29.318 117.776 C 28.916 118.573,27.244 121.781,25.602 124.905 C 23.960 128.030,22.617 131.156,22.617 131.852 C 22.617 132.548,22.326 133.118,21.971 133.118 C 21.616 133.118,21.325 133.990,21.325 135.057 C 21.325 136.123,21.034 136.995,20.679 136.995 C 20.323 136.995,20.032 138.013,20.032 139.257 C 20.032 140.501,19.742 141.519,19.386 141.519 C 19.031 141.519,18.740 142.665,18.740 144.065 C 18.740 145.466,18.449 146.792,18.094 147.011 C 17.738 147.231,17.447 149.114,17.447 151.196 C 17.447 153.650,17.163 155.076,16.640 155.250 C 16.023 155.456,15.832 159.239,15.832 171.244 C 15.832 183.249,16.023 187.032,16.640 187.237 C 17.181 187.418,17.447 188.967,17.447 191.938 C 17.447 194.375,17.738 196.549,18.094 196.769 C 18.449 196.989,18.740 198.605,18.740 200.361 C 18.740 202.117,19.031 203.554,19.386 203.554 C 19.742 203.554,20.032 204.700,20.032 206.101 C 20.032 207.501,20.323 208.827,20.679 209.047 C 21.034 209.267,21.325 210.139,21.325 210.985 C 21.325 211.832,21.616 212.704,21.971 212.924 C 22.326 213.144,22.617 214.037,22.617 214.910 C 22.617 215.782,22.891 217.001,23.225 217.618 C 23.559 218.235,24.326 220.121,24.928 221.809 C 25.531 223.498,26.275 224.879,26.582 224.879 C 26.889 224.879,27.141 225.257,27.141 225.719 C 27.141 226.908,28.660 230.037,29.241 230.043 C 29.507 230.046,29.725 230.455,29.725 230.952 C 29.725 232.118,33.259 238.844,34.550 240.135 C 35.095 240.680,35.543 241.324,35.544 241.565 C 35.546 241.806,36.418 242.933,37.483 244.068 C 38.547 245.204,39.418 246.401,39.418 246.728 C 39.418 247.391,47.837 255.897,48.494 255.897 C 48.723 255.897,49.755 256.623,50.788 257.511 C 51.821 258.399,53.029 259.126,53.473 259.127 C 53.918 259.127,54.281 259.418,54.281 259.774 C 54.281 260.129,54.863 260.420,55.574 260.420 C 56.284 260.420,56.868 260.638,56.871 260.905 C 56.878 261.560,60.074 263.005,61.518 263.005 C 62.158 263.005,62.682 263.251,62.682 263.553 C 62.682 263.854,63.918 264.611,65.428 265.235 C 66.939 265.858,68.679 266.629,69.297 266.948 C 69.914 267.267,71.132 267.528,72.005 267.528 C 72.877 267.528,73.771 267.819,73.990 268.174 C 74.210 268.530,75.373 268.821,76.575 268.821 C 77.777 268.821,78.940 269.111,79.160 269.467 C 79.380 269.822,80.688 270.113,82.068 270.113 C 83.448 270.113,84.756 270.404,84.976 270.759 C 85.195 271.115,86.795 271.405,88.530 271.405 C 90.265 271.405,91.864 271.696,92.084 272.052 C 92.304 272.407,94.194 272.698,96.284 272.698 C 98.375 272.698,100.265 272.989,100.485 273.344 C 100.704 273.700,102.878 273.990,105.315 273.990 C 107.797 273.990,109.845 274.285,109.970 274.659 C 110.169 275.256,113.527 275.868,122.779 276.993 C 124.378 277.187,125.963 277.609,126.300 277.930 C 126.638 278.251,127.874 278.514,129.047 278.514 C 130.220 278.514,131.179 278.805,131.179 279.160 C 131.179 279.515,131.906 279.806,132.795 279.806 C 133.683 279.806,134.410 280.097,134.410 280.452 C 134.410 280.808,134.859 281.099,135.407 281.099 C 135.955 281.099,137.027 281.680,137.790 282.391 C 138.553 283.102,139.559 283.683,140.025 283.683 C 140.491 283.683,140.872 283.974,140.872 284.330 C 140.872 284.685,141.236 284.981,141.680 284.987 C 142.124 284.993,143.973 286.375,145.788 288.057 C 147.603 289.739,150.784 292.569,152.857 294.346 C 154.930 296.123,157.225 298.169,157.958 298.893 C 160.093 301.004,165.248 304.362,166.352 304.362 C 166.910 304.362,167.367 304.619,167.367 304.933 C 167.367 305.247,167.876 305.691,168.498 305.920 C 169.120 306.149,170.646 306.895,171.890 307.580 C 173.134 308.264,174.789 308.837,175.568 308.854 C 176.346 308.871,177.163 309.176,177.383 309.532 C 177.603 309.887,179.202 310.178,180.937 310.178 C 182.672 310.178,184.271 310.468,184.491 310.824 C 185.008 311.661,217.276 311.702,218.126 310.867 C 218.464 310.535,221.502 310.120,224.879 309.945 C 233.921 309.476,247.302 307.384,248.433 306.263 C 248.771 305.928,250.297 305.654,251.826 305.654 C 253.354 305.654,254.604 305.363,254.604 305.008 C 254.604 304.653,255.750 304.362,257.151 304.362 C 258.552 304.362,259.877 304.071,260.097 303.716 C 260.317 303.360,261.334 303.069,262.359 303.069 C 263.383 303.069,264.401 302.779,264.620 302.423 C 264.840 302.068,265.858 301.777,266.882 301.777 C 267.906 301.777,268.924 301.486,269.144 301.131 C 269.363 300.775,270.253 300.485,271.121 300.485 C 271.988 300.485,272.698 300.194,272.698 299.838 C 272.698 299.483,273.167 299.192,273.741 299.192 C 275.073 299.192,281.099 295.933,281.099 295.212 C 281.099 294.913,281.573 294.669,282.154 294.669 C 282.734 294.669,283.679 294.158,284.254 293.534 C 284.829 292.909,286.145 291.964,287.179 291.433 C 288.212 290.903,289.876 289.596,290.875 288.530 C 291.875 287.464,294.082 285.118,295.781 283.317 C 297.479 281.516,299.742 278.939,300.808 277.590 C 301.874 276.241,303.400 274.370,304.200 273.433 C 304.999 272.495,305.653 271.497,305.653 271.215 C 305.654 270.932,306.381 269.974,307.270 269.085 C 308.158 268.197,308.885 267.247,308.885 266.975 C 308.885 266.702,309.402 265.916,310.034 265.227 C 310.665 264.538,311.895 262.956,312.766 261.712 C 313.637 260.468,314.938 258.830,315.656 258.071 C 316.375 257.312,317.835 255.646,318.901 254.369 C 319.968 253.092,321.061 252.041,321.331 252.033 C 321.600 252.026,322.705 251.175,323.785 250.143 C 324.864 249.111,327.043 247.884,328.625 247.417 C 330.208 246.950,331.502 246.340,331.502 246.062 C 331.502 245.785,332.317 245.557,333.312 245.557 C 334.307 245.557,335.397 245.295,335.735 244.974 C 336.073 244.653,337.658 244.241,339.257 244.058 C 350.266 242.798,353.819 242.239,354.382 241.676 C 354.735 241.323,356.112 241.034,357.442 241.034 C 358.771 241.034,360.039 240.743,360.258 240.388 C 360.478 240.032,361.513 239.742,362.558 239.742 C 363.604 239.742,364.459 239.451,364.459 239.095 C 364.459 238.740,364.915 238.449,365.473 238.449 C 367.791 238.449,375.595 231.858,377.902 227.953 C 378.480 226.973,379.182 226.171,379.461 226.171 C 379.740 226.171,379.968 225.590,379.968 224.879 C 379.968 224.168,380.258 223.586,380.614 223.586 C 380.969 223.586,381.260 223.150,381.260 222.617 C 381.260 222.084,381.551 221.648,381.906 221.648 C 382.262 221.648,382.553 221.066,382.553 220.355 C 382.553 219.645,382.820 219.063,383.147 219.063 C 383.475 219.063,383.933 218.194,384.166 217.132 C 384.400 216.070,384.859 215.035,385.187 214.832 C 385.515 214.629,385.784 213.771,385.784 212.924 C 385.784 212.077,386.074 211.205,386.430 210.985 C 386.785 210.766,387.076 209.644,387.076 208.492 C 387.076 207.340,387.343 206.121,387.670 205.784 C 388.794 204.621,390.048 185.589,389.064 184.605 C 388.682 184.223,388.368 181.804,388.368 179.230 C 388.368 176.657,388.078 174.372,387.722 174.152 C 387.367 173.932,387.076 172.897,387.076 171.852 C 387.076 170.807,386.785 169.952,386.430 169.952 C 386.074 169.952,385.784 169.525,385.784 169.004 C 385.784 168.089,383.858 163.502,383.198 162.843 C 383.019 162.666,382.461 161.721,381.958 160.743 C 381.454 159.766,380.800 158.966,380.505 158.966 C 380.209 158.966,379.968 158.384,379.968 157.674 C 379.968 156.963,379.677 156.381,379.321 156.381 C 378.966 156.381,378.675 155.945,378.675 155.412 C 378.675 154.879,378.384 154.443,378.029 154.443 C 377.674 154.443,377.383 154.128,377.383 153.744 C 377.383 153.009,373.344 147.751,371.408 145.966 C 370.785 145.391,370.275 144.592,370.275 144.189 C 370.275 143.787,369.984 143.457,369.628 143.457 C 369.273 143.457,368.982 143.021,368.982 142.488 C 368.982 141.955,368.691 141.519,368.336 141.519 C 367.981 141.519,367.690 141.220,367.690 140.855 C 367.690 140.491,366.454 138.908,364.943 137.339 C 361.677 133.945,360.582 132.649,360.582 132.177 C 360.582 131.984,359.418 130.628,357.997 129.164 C 356.575 127.699,355.412 126.231,355.412 125.902 C 355.412 125.574,354.758 124.605,353.958 123.750 C 351.534 121.158,350.889 120.279,350.889 119.575 C 350.889 119.205,350.598 118.901,350.242 118.901 C 349.887 118.901,349.596 118.320,349.596 117.609 C 349.596 116.898,349.305 116.317,348.950 116.317 C 348.539 116.317,348.304 111.167,348.304 102.161 C 348.304 87.863,347.536 83.342,344.911 82.176 C 344.645 82.057,344.424 81.621,344.421 81.206 C 344.415 80.219,337.017 72.375,336.092 72.375 C 335.700 72.375,335.380 72.084,335.380 71.729 C 335.380 71.373,335.130 71.082,334.824 71.082 C 334.518 71.082,333.189 70.065,331.870 68.821 C 330.551 67.577,329.081 66.559,328.602 66.559 C 328.124 66.559,327.636 66.324,327.518 66.037 C 327.262 65.416,321.450 61.389,320.810 61.389 C 320.566 61.389,318.981 60.372,317.286 59.128 C 315.591 57.884,313.880 56.866,313.484 56.866 C 313.087 56.866,312.763 56.643,312.763 56.370 C 312.763 56.097,311.163 55.183,309.208 54.339 C 307.254 53.495,305.654 52.555,305.654 52.250 C 305.654 51.946,305.214 51.696,304.676 51.696 C 303.727 51.696,303.041 51.426,300.009 49.859 C 299.214 49.448,297.978 49.111,297.262 49.111 C 296.547 49.111,295.961 48.877,295.961 48.590 C 295.961 47.947,291.389 45.880,289.966 45.880 C 289.396 45.880,288.750 45.590,288.530 45.234 C 288.310 44.879,287.292 44.588,286.268 44.588 C 285.244 44.588,284.226 44.297,284.006 43.942 C 283.787 43.586,283.059 43.296,282.389 43.296 C 281.720 43.296,280.792 42.766,280.327 42.118 C 279.863 41.470,278.538 40.527,277.383 40.022 C 276.228 39.516,275.283 38.883,275.283 38.614 C 275.283 38.346,274.701 38.126,273.990 38.126 C 273.279 38.126,272.698 37.877,272.698 37.572 C 272.698 37.268,270.808 36.177,268.499 35.149 C 266.190 34.121,264.300 33.061,264.299 32.795 C 264.298 32.528,263.857 32.310,263.319 32.310 C 262.781 32.310,261.763 32.019,261.057 31.664 C 260.351 31.309,259.196 30.727,258.490 30.372 C 257.784 30.016,256.621 29.725,255.905 29.725 C 255.190 29.725,254.604 29.435,254.604 29.079 C 254.604 28.724,254.023 28.433,253.312 28.433 C 252.601 28.433,252.019 28.142,252.019 27.787 C 252.019 27.431,251.272 27.141,250.358 27.141 C 249.444 27.141,248.260 26.704,247.727 26.171 C 247.194 25.638,246.214 25.202,245.549 25.202 C 244.885 25.202,244.161 24.911,243.942 24.556 C 243.722 24.200,242.704 23.910,241.680 23.910 C 240.656 23.910,239.638 23.619,239.418 23.263 C 239.199 22.908,238.181 22.617,237.157 22.617 C 236.132 22.617,235.115 22.326,234.895 21.971 C 234.675 21.616,233.204 21.325,231.626 21.325 C 230.047 21.325,228.756 21.034,228.756 20.679 C 228.756 20.273,224.676 20.032,217.809 20.032 C 211.208 20.032,206.703 20.289,206.462 20.679 M225.400 29.119 C 233.113 30.864,234.550 31.244,239.095 32.739 C 241.761 33.616,244.669 34.644,245.557 35.024 C 246.446 35.403,247.827 35.966,248.627 36.274 C 259.737 40.551,268.892 45.254,270.056 47.281 C 271.180 49.241,272.232 49.853,276.575 51.075 C 280.645 52.220,289.892 55.409,292.669 56.626 C 293.946 57.186,295.719 57.944,296.607 58.311 C 297.496 58.677,298.950 59.300,299.838 59.694 C 301.756 60.544,313.589 67.309,314.055 67.821 C 314.233 68.017,315.105 68.552,315.994 69.011 C 322.638 72.441,336.222 84.044,337.958 87.772 C 338.400 88.722,339.018 90.004,339.332 90.621 C 340.155 92.240,340.034 102.357,339.140 106.688 C 338.186 111.306,339.051 116.093,342.008 122.562 C 342.599 123.855,350.666 134.973,351.544 135.703 C 353.558 137.379,371.567 160.583,371.567 161.502 C 371.567 161.884,371.785 162.199,372.052 162.202 C 372.318 162.205,372.851 162.859,373.236 163.656 C 373.621 164.453,374.700 166.449,375.634 168.093 C 383.154 181.318,381.217 206.792,371.615 220.931 C 365.793 229.504,360.444 232.296,346.688 233.939 C 325.925 236.419,314.706 242.607,304.993 256.934 C 297.439 268.078,282.771 284.945,280.614 284.967 C 280.170 284.972,279.806 285.267,279.806 285.622 C 279.806 285.977,279.394 286.268,278.891 286.268 C 278.387 286.268,277.878 286.523,277.760 286.834 C 277.189 288.333,266.492 292.721,257.189 295.271 C 238.562 300.377,207.171 303.772,191.276 302.400 C 176.739 301.145,171.834 298.908,159.266 287.800 C 155.699 284.647,151.483 281.054,149.896 279.815 C 148.309 278.577,146.627 277.195,146.157 276.746 C 145.688 276.297,145.054 275.929,144.750 275.929 C 144.445 275.929,143.811 275.554,143.342 275.095 C 142.367 274.142,136.699 271.405,135.701 271.405 C 135.337 271.405,134.534 271.128,133.917 270.789 C 131.789 269.621,119.081 267.039,107.916 265.508 C 105.250 265.142,101.325 264.564,99.192 264.223 C 97.060 263.882,94.006 263.453,92.407 263.270 C 90.808 263.087,88.918 262.680,88.207 262.365 C 87.496 262.050,85.897 261.650,84.653 261.476 C 81.527 261.037,78.753 260.417,77.221 259.813 C 76.511 259.533,74.330 258.780,72.375 258.139 C 68.872 256.990,60.726 253.377,60.097 252.692 C 59.919 252.499,58.901 251.905,57.835 251.373 C 51.472 248.199,35.541 227.642,35.541 222.605 C 35.541 222.138,35.323 221.659,35.057 221.540 C 34.790 221.422,34.027 219.871,33.361 218.094 C 32.694 216.317,31.714 213.700,31.181 212.278 C 24.061 193.268,22.806 162.935,28.308 142.811 C 33.425 124.090,48.409 104.092,66.412 91.958 C 78.658 83.704,85.349 81.454,103.393 79.526 C 121.915 77.547,134.564 75.290,139.903 73.012 C 140.614 72.708,142.359 72.081,143.780 71.618 C 148.871 69.958,164.682 60.950,165.320 59.346 C 165.439 59.048,165.924 58.805,166.397 58.805 C 166.871 58.805,167.356 58.586,167.474 58.320 C 167.593 58.053,170.162 55.805,173.183 53.324 C 176.204 50.843,178.821 48.662,178.998 48.477 C 181.705 45.669,194.764 35.541,195.678 35.541 C 196.100 35.541,196.446 35.293,196.446 34.991 C 196.446 34.347,204.122 30.717,208.183 29.441 C 211.606 28.366,221.271 28.185,225.400 29.119 M189.984 101.437 C 189.095 101.731,186.790 102.000,184.860 102.036 C 182.931 102.071,180.459 102.373,179.367 102.708 C 178.276 103.042,175.638 103.670,173.506 104.105 C 169.865 104.846,161.916 108.028,157.189 110.635 C 134.353 123.230,122.387 135.193,122.504 145.313 C 122.534 147.922,122.841 149.617,123.312 149.774 C 123.729 149.913,124.071 150.404,124.071 150.865 C 124.071 152.475,130.249 157.216,135.701 159.789 C 138.723 161.215,141.700 162.631,142.318 162.936 C 142.935 163.240,144.008 163.489,144.703 163.489 C 145.397 163.489,146.126 163.748,146.321 164.064 C 146.516 164.380,147.624 164.796,148.782 164.987 C 149.941 165.178,152.197 165.651,153.796 166.038 C 172.670 170.605,194.295 170.208,218.417 164.851 C 220.016 164.496,222.197 164.015,223.263 163.783 C 245.090 159.028,256.577 152.257,265.424 138.934 C 279.214 118.164,275.403 109.257,250.727 104.591 C 248.772 104.222,245.864 103.648,244.265 103.316 C 242.666 102.984,239.321 102.400,236.834 102.017 C 231.340 101.172,192.249 100.688,189.984 101.437 M235.864 108.507 C 240.133 109.152,244.073 109.901,249.596 111.117 C 251.284 111.489,253.901 112.058,255.412 112.381 C 263.715 114.157,268.180 117.853,266.290 121.385 C 265.905 122.105,265.590 123.152,265.590 123.713 C 265.590 126.971,259.768 136.283,253.808 142.557 C 248.599 148.041,245.237 149.902,234.212 153.405 C 221.157 157.554,215.670 158.754,197.092 161.522 C 183.555 163.539,169.327 162.870,155.735 159.577 C 154.136 159.190,151.879 158.716,150.721 158.525 C 149.563 158.334,148.455 157.918,148.260 157.602 C 148.064 157.286,147.212 157.027,146.365 157.027 C 145.519 157.027,144.646 156.737,144.426 156.381 C 144.207 156.026,143.605 155.735,143.089 155.735 C 139.922 155.735,131.197 150.128,129.521 147.016 C 124.744 138.145,156.810 113.818,178.998 109.481 C 189.542 107.419,224.688 106.818,235.864 108.507 " stroke="none" fill="#000000" fill-rule="evenodd"></path><path id="path1" d="M208.183 29.441 C 204.122 30.717,196.446 34.347,196.446 34.991 C 196.446 35.293,196.100 35.541,195.678 35.541 C 194.764 35.541,181.705 45.669,178.998 48.477 C 178.821 48.662,176.204 50.843,173.183 53.324 C 170.162 55.805,167.593 58.053,167.474 58.320 C 167.356 58.586,166.871 58.805,166.397 58.805 C 165.924 58.805,165.439 59.048,165.320 59.346 C 164.682 60.950,148.871 69.958,143.780 71.618 C 142.359 72.081,140.614 72.708,139.903 73.012 C 134.564 75.290,121.915 77.547,103.393 79.526 C 85.349 81.454,78.658 83.704,66.412 91.958 C 48.409 104.092,33.425 124.090,28.308 142.811 C 22.806 162.935,24.061 193.268,31.181 212.278 C 31.714 213.700,32.694 216.317,33.361 218.094 C 34.027 219.871,34.790 221.422,35.057 221.540 C 35.323 221.659,35.541 222.138,35.541 222.605 C 35.541 227.642,51.472 248.199,57.835 251.373 C 58.901 251.905,59.919 252.499,60.097 252.692 C 60.726 253.377,68.872 256.990,72.375 258.139 C 74.330 258.780,76.511 259.533,77.221 259.813 C 78.753 260.417,81.527 261.037,84.653 261.476 C 85.897 261.650,87.496 262.050,88.207 262.365 C 88.918 262.680,90.808 263.087,92.407 263.270 C 94.006 263.453,97.060 263.882,99.192 264.223 C 101.325 264.564,105.250 265.142,107.916 265.508 C 119.081 267.039,131.789 269.621,133.917 270.789 C 134.534 271.128,135.337 271.405,135.701 271.405 C 136.699 271.405,142.367 274.142,143.342 275.095 C 143.811 275.554,144.445 275.929,144.750 275.929 C 145.054 275.929,145.688 276.297,146.157 276.746 C 146.627 277.195,148.309 278.577,149.896 279.815 C 151.483 281.054,155.699 284.647,159.266 287.800 C 171.834 298.908,176.739 301.145,191.276 302.400 C 207.171 303.772,238.562 300.377,257.189 295.271 C 266.492 292.721,277.189 288.333,277.760 286.834 C 277.878 286.523,278.387 286.268,278.891 286.268 C 279.394 286.268,279.806 285.977,279.806 285.622 C 279.806 285.267,280.170 284.972,280.614 284.967 C 282.771 284.945,297.439 268.078,304.993 256.934 C 314.706 242.607,325.925 236.419,346.688 233.939 C 360.444 232.296,365.793 229.504,371.615 220.931 C 381.217 206.792,383.154 181.318,375.634 168.093 C 374.700 166.449,373.621 164.453,373.236 163.656 C 372.851 162.859,372.318 162.205,372.052 162.202 C 371.785 162.199,371.567 161.884,371.567 161.502 C 371.567 160.583,353.558 137.379,351.544 135.703 C 350.666 134.973,342.599 123.855,342.008 122.562 C 339.051 116.093,338.186 111.306,339.140 106.688 C 340.034 102.357,340.155 92.240,339.332 90.621 C 339.018 90.004,338.400 88.722,337.958 87.772 C 336.222 84.044,322.638 72.441,315.994 69.011 C 315.105 68.552,314.233 68.017,314.055 67.821 C 313.589 67.309,301.756 60.544,299.838 59.694 C 298.950 59.300,297.496 58.677,296.607 58.311 C 295.719 57.944,293.946 57.186,292.669 56.626 C 289.892 55.409,280.645 52.220,276.575 51.075 C 272.232 49.853,271.180 49.241,270.056 47.281 C 268.892 45.254,259.737 40.551,248.627 36.274 C 247.827 35.966,246.446 35.403,245.557 35.024 C 244.669 34.644,241.761 33.616,239.095 32.739 C 234.550 31.244,233.113 30.864,225.400 29.119 C 221.271 28.185,211.606 28.366,208.183 29.441 M222.940 30.030 C 238.486 32.333,265.127 42.818,269.285 48.270 C 270.594 49.987,272.025 50.729,277.123 52.338 C 297.154 58.658,313.035 66.933,327.605 78.640 C 337.621 86.688,340.032 91.420,338.725 100.464 C 336.964 112.639,338.057 118.824,343.351 126.656 C 345.184 129.368,354.317 140.921,356.190 142.897 C 356.651 143.383,357.823 144.846,358.795 146.148 C 359.767 147.450,360.930 148.904,361.380 149.379 C 361.829 149.854,363.054 151.405,364.102 152.827 C 365.149 154.249,366.190 155.557,366.415 155.735 C 367.458 156.558,373.508 166.189,375.354 169.964 C 381.701 182.947,379.956 206.186,371.664 219.091 C 365.756 228.286,361.466 230.773,348.304 232.637 C 333.704 234.703,325.850 236.679,322.362 239.162 C 321.415 239.836,320.334 240.388,319.960 240.388 C 318.692 240.388,306.507 252.960,302.737 258.158 C 291.474 273.688,287.236 278.622,281.099 283.352 C 275.254 287.855,265.875 292.179,257.835 294.076 C 243.956 297.351,240.671 297.928,221.460 300.466 C 213.871 301.468,186.577 301.283,182.229 300.199 C 173.665 298.064,169.136 295.453,161.237 288.098 C 143.777 271.839,137.042 268.746,110.824 264.948 C 85.025 261.211,76.059 259.051,64.863 253.877 C 49.789 246.911,36.774 229.302,31.011 208.078 C 30.577 206.478,29.996 204.443,29.720 203.554 C 29.443 202.666,28.909 200.339,28.532 198.384 C 28.155 196.430,27.471 192.940,27.014 190.630 C 26.482 187.946,26.180 181.065,26.176 171.567 C 26.171 155.788,26.358 154.230,29.713 142.165 C 31.483 135.797,35.211 127.392,38.220 122.985 C 39.235 121.500,40.065 120.122,40.065 119.923 C 40.065 119.258,46.046 111.688,49.698 107.732 C 52.834 104.334,56.048 101.510,66.616 92.865 C 69.165 90.780,82.112 84.322,84.976 83.707 C 86.042 83.478,88.223 83.012,89.822 82.672 C 93.907 81.802,100.826 80.803,107.270 80.153 C 127.895 78.072,142.632 74.449,152.181 69.111 C 158.023 65.845,164.647 61.527,168.659 58.369 C 171.056 56.483,182.683 46.759,183.845 45.669 C 184.556 45.002,186.155 43.688,187.399 42.749 C 188.643 41.810,189.806 40.859,189.984 40.636 C 192.361 37.650,204.997 31.272,210.985 30.034 C 216.087 28.980,215.858 28.980,222.940 30.030 M199.354 100.192 C 178.079 100.888,165.376 103.774,156.282 109.977 C 155.338 110.621,154.428 111.147,154.260 111.147 C 154.091 111.147,152.391 112.097,150.482 113.258 C 132.212 124.369,120.840 136.500,120.840 144.878 C 120.840 151.201,129.509 159.669,139.903 163.499 C 140.614 163.761,142.009 164.302,143.003 164.701 C 143.997 165.101,145.507 165.428,146.357 165.428 C 147.208 165.428,148.084 165.719,148.304 166.074 C 148.523 166.430,149.432 166.721,150.323 166.721 C 151.214 166.721,152.433 166.982,153.031 167.301 C 162.016 172.096,192.960 171.786,216.963 166.661 C 242.087 161.296,249.659 158.090,258.802 148.948 C 261.291 146.458,263.777 143.835,264.327 143.117 C 267.185 139.383,269.562 135.519,271.108 132.093 C 272.056 129.991,273.135 127.629,273.506 126.843 C 274.683 124.353,274.427 114.722,273.151 113.446 C 272.546 112.842,272.052 112.098,272.052 111.794 C 272.052 109.111,254.907 103.589,240.065 101.492 C 237.932 101.191,235.460 100.786,234.572 100.592 C 231.629 99.952,213.127 99.742,199.354 100.192 M236.834 102.017 C 239.321 102.400,242.666 102.984,244.265 103.316 C 245.864 103.648,248.772 104.222,250.727 104.591 C 275.403 109.257,279.214 118.164,265.424 138.934 C 256.577 152.257,245.090 159.028,223.263 163.783 C 222.197 164.015,220.016 164.496,218.417 164.851 C 194.295 170.208,172.670 170.605,153.796 166.038 C 152.197 165.651,149.941 165.178,148.782 164.987 C 147.624 164.796,146.516 164.380,146.321 164.064 C 146.126 163.748,145.397 163.489,144.703 163.489 C 144.008 163.489,142.935 163.240,142.318 162.936 C 141.700 162.631,138.723 161.215,135.701 159.789 C 130.249 157.216,124.071 152.475,124.071 150.865 C 124.071 150.404,123.729 149.913,123.312 149.774 C 121.812 149.274,122.294 141.421,124.032 138.042 C 126.313 133.605,132.303 127.363,139.126 122.311 C 146.858 116.586,149.526 114.861,157.189 110.635 C 161.916 108.028,169.865 104.846,173.506 104.105 C 175.638 103.670,178.276 103.042,179.367 102.708 C 180.459 102.373,182.931 102.071,184.860 102.036 C 186.790 102.000,189.095 101.731,189.984 101.437 C 192.249 100.688,231.340 101.172,236.834 102.017 M191.599 107.888 C 189.822 108.116,194.330 108.192,201.616 108.056 C 208.901 107.920,215.153 107.710,215.509 107.590 C 216.683 107.193,194.897 107.464,191.599 107.888 M218.471 107.509 C 218.619 107.641,221.939 107.905,225.848 108.096 C 230.627 108.329,231.897 108.270,229.725 107.913 C 226.446 107.375,217.978 107.071,218.471 107.509 M180.614 109.208 L 179.321 109.764 180.614 109.733 C 181.325 109.716,182.779 109.480,183.845 109.208 L 185.784 108.715 183.845 108.684 C 182.779 108.667,181.325 108.903,180.614 109.208 M237.803 109.208 C 240.294 110.006,241.622 110.006,240.388 109.208 C 239.855 108.864,238.691 108.607,237.803 108.637 L 236.187 108.691 237.803 109.208 M174.475 110.501 C 173.190 111.331,174.805 111.331,176.737 110.501 L 178.029 109.945 176.737 109.910 C 176.026 109.890,175.008 110.156,174.475 110.501 M244.588 110.501 C 246.520 111.331,248.134 111.331,246.850 110.501 C 246.317 110.156,245.299 109.890,244.588 109.910 L 243.296 109.945 244.588 110.501 M249.488 111.379 C 249.637 111.507,250.630 111.807,251.696 112.045 C 253.112 112.362,253.373 112.302,252.666 111.823 C 251.793 111.232,248.840 110.820,249.488 111.379 M255.304 112.672 C 255.452 112.799,256.446 113.099,257.512 113.337 C 258.928 113.654,259.189 113.594,258.481 113.115 C 257.609 112.525,254.656 112.112,255.304 112.672 M161.389 115.712 C 159.346 116.767,157.674 117.775,157.674 117.952 C 157.674 118.241,165.364 114.580,166.020 113.978 C 166.866 113.204,164.617 114.046,161.389 115.712 M261.388 114.750 C 264.631 116.441,265.588 117.662,265.609 120.132 C 265.626 122.084,265.739 122.267,266.314 121.277 C 267.642 118.993,263.415 113.720,260.268 113.736 C 259.818 113.738,260.322 114.194,261.388 114.750 M153.958 119.913 C 150.908 121.741,150.205 122.696,152.989 121.229 C 154.942 120.199,157.539 118.305,157.027 118.282 C 156.850 118.274,155.468 119.008,153.958 119.913 M145.004 125.869 C 140.997 128.786,136.995 132.278,136.995 132.857 C 136.995 133.091,138.231 132.145,139.742 130.755 C 141.252 129.364,143.869 127.278,145.557 126.118 C 147.246 124.958,148.627 123.878,148.627 123.717 C 148.627 123.251,148.477 123.340,145.004 125.869 M259.974 134.152 C 258.487 136.441,257.546 138.143,257.883 137.935 C 258.641 137.466,263.155 130.468,262.878 130.191 C 262.768 130.081,261.461 131.863,259.974 134.152 M130.551 139.742 C 128.790 142.940,129.133 142.809,131.446 139.402 C 132.344 138.078,132.851 136.995,132.571 136.995 C 132.292 136.995,131.383 138.231,130.551 139.742 M252.647 143.296 L 248.465 147.658 252.827 143.476 C 256.879 139.592,257.484 138.934,257.009 138.934 C 256.910 138.934,254.947 140.897,252.647 143.296 M132.995 150.703 C 133.892 151.824,142.103 156.012,142.542 155.573 C 142.684 155.431,141.276 154.637,139.413 153.808 C 137.550 152.979,135.153 151.704,134.087 150.974 C 132.733 150.047,132.404 149.965,132.995 150.703 M231.987 153.599 C 230.388 154.130,228.207 154.799,227.141 155.084 C 225.885 155.420,225.657 155.619,226.494 155.650 C 227.205 155.675,229.822 155.001,232.310 154.152 C 234.798 153.302,236.397 152.612,235.864 152.619 C 235.331 152.626,233.586 153.067,231.987 153.599 M221.971 156.381 C 220.182 156.836,220.157 156.880,221.648 156.941 C 222.536 156.978,223.700 156.726,224.233 156.381 C 225.332 155.671,224.764 155.671,221.971 156.381 M216.155 157.674 L 214.216 158.167 216.155 158.234 C 217.221 158.270,218.530 158.018,219.063 157.674 C 220.263 156.898,219.204 156.898,216.155 157.674 M209.693 158.966 L 207.754 159.459 209.693 159.490 C 210.759 159.507,212.213 159.272,212.924 158.966 L 214.216 158.411 212.924 158.442 C 212.213 158.459,210.759 158.695,209.693 158.966 M158.643 160.258 C 160.575 161.089,162.189 161.089,160.905 160.258 C 160.372 159.914,159.354 159.648,158.643 159.668 L 157.351 159.703 158.643 160.258 M201.939 160.258 L 200.000 160.752 201.939 160.764 C 203.005 160.770,204.604 160.543,205.493 160.258 L 207.108 159.741 205.493 159.753 C 204.604 159.760,203.005 159.987,201.939 160.258 M165.751 161.588 C 169.025 162.265,171.670 162.235,168.982 161.551 C 167.916 161.280,166.171 161.057,165.105 161.055 C 163.475 161.054,163.578 161.138,165.751 161.588 M191.276 161.551 L 189.015 162.027 191.276 162.075 C 192.520 162.101,194.701 161.882,196.123 161.588 L 198.708 161.053 196.123 161.064 C 194.701 161.070,192.520 161.289,191.276 161.551 M174.960 162.674 C 176.826 162.804,179.879 162.804,181.745 162.674 C 183.611 162.543,182.084 162.436,178.352 162.436 C 174.620 162.436,173.094 162.543,174.960 162.674 " stroke="none" fill="#4f4f4f" fill-rule="evenodd"></path><path id="path2" d="M210.985 30.034 C 204.997 31.272,192.361 37.650,189.984 40.636 C 189.806 40.859,188.643 41.810,187.399 42.749 C 186.155 43.688,184.556 45.002,183.845 45.669 C 182.683 46.759,171.056 56.483,168.659 58.369 C 164.647 61.527,158.023 65.845,152.181 69.111 C 142.632 74.449,127.895 78.072,107.270 80.153 C 100.826 80.803,93.907 81.802,89.822 82.672 C 88.223 83.012,86.042 83.478,84.976 83.707 C 82.112 84.322,69.165 90.780,66.616 92.865 C 56.048 101.510,52.834 104.334,49.698 107.732 C 46.046 111.688,40.065 119.258,40.065 119.923 C 40.065 120.122,39.235 121.500,38.220 122.985 C 35.211 127.392,31.483 135.797,29.713 142.165 C 26.358 154.230,26.171 155.788,26.176 171.567 C 26.180 181.065,26.482 187.946,27.014 190.630 C 27.471 192.940,28.155 196.430,28.532 198.384 C 28.909 200.339,29.443 202.666,29.720 203.554 C 29.996 204.443,30.577 206.478,31.011 208.078 C 38.651 236.216,54.467 252.684,80.231 259.325 C 89.704 261.767,92.827 262.341,110.824 264.948 C 137.042 268.746,143.777 271.839,161.237 288.098 C 169.136 295.453,173.665 298.064,182.229 300.199 C 186.577 301.283,213.871 301.468,221.460 300.466 C 240.671 297.928,243.956 297.351,257.835 294.076 C 265.875 292.179,275.254 287.855,281.099 283.352 C 287.236 278.622,291.474 273.688,302.737 258.158 C 306.507 252.960,318.692 240.388,319.960 240.388 C 320.334 240.388,321.415 239.836,322.362 239.162 C 325.850 236.679,333.704 234.703,348.304 232.637 C 361.466 230.773,365.756 228.286,371.664 219.091 C 379.956 206.186,381.701 182.947,375.354 169.964 C 373.508 166.189,367.458 156.558,366.415 155.735 C 366.190 155.557,365.149 154.249,364.102 152.827 C 363.054 151.405,361.829 149.854,361.380 149.379 C 360.930 148.904,359.767 147.450,358.795 146.148 C 357.823 144.846,356.651 143.383,356.190 142.897 C 340.453 126.292,336.410 116.470,338.725 100.464 C 340.032 91.420,337.621 86.688,327.605 78.640 C 313.035 66.933,297.154 58.658,277.123 52.338 C 272.025 50.729,270.594 49.987,269.285 48.270 C 265.127 42.818,238.486 32.333,222.940 30.030 C 215.858 28.980,216.087 28.980,210.985 30.034 M234.572 100.592 C 235.460 100.786,237.932 101.191,240.065 101.492 C 254.907 103.589,272.052 109.111,272.052 111.794 C 272.052 112.098,272.546 112.842,273.151 113.446 C 274.427 114.722,274.683 124.353,273.506 126.843 C 273.135 127.629,272.056 129.991,271.108 132.093 C 266.459 142.397,256.387 153.211,247.496 157.445 C 239.622 161.195,232.516 163.340,216.963 166.661 C 192.960 171.786,162.016 172.096,153.031 167.301 C 152.433 166.982,151.214 166.721,150.323 166.721 C 149.432 166.721,148.523 166.430,148.304 166.074 C 148.084 165.719,147.208 165.428,146.357 165.428 C 145.507 165.428,143.997 165.101,143.003 164.701 C 142.009 164.302,140.614 163.761,139.903 163.499 C 111.980 153.211,115.974 134.244,150.482 113.258 C 152.391 112.097,154.091 111.147,154.260 111.147 C 154.428 111.147,155.338 110.621,156.282 109.977 C 161.458 106.446,172.220 102.752,181.583 101.291 C 190.116 99.960,229.292 99.444,234.572 100.592 M173.506 116.107 C 163.977 118.765,162.338 130.882,170.860 135.669 C 177.155 139.204,189.224 136.163,189.317 131.018 C 189.328 130.396,189.628 129.887,189.984 129.887 C 191.952 129.887,189.842 122.695,187.056 119.909 C 183.860 116.714,177.614 114.961,173.506 116.107 M156.585 133.419 C 151.150 135.779,152.216 144.103,157.952 144.103 C 163.054 144.103,165.613 135.159,160.987 133.495 C 160.409 133.287,159.645 132.984,159.289 132.821 C 158.934 132.658,157.717 132.927,156.585 133.419 " stroke="none" fill="#ffffff" fill-rule="evenodd"></path><path id="path3" d="M201.941 107.955 C 182.553 108.665,174.804 110.075,165.045 114.666 C 146.409 123.434,129.241 137.822,129.241 144.672 C 129.241 149.439,140.834 155.844,155.089 158.955 C 157.044 159.381,159.661 159.968,160.905 160.259 C 169.198 162.198,183.189 162.800,191.798 161.588 C 194.177 161.253,198.595 160.640,201.616 160.226 C 207.544 159.413,220.621 156.810,225.848 155.403 C 231.284 153.940,236.121 152.475,237.480 151.879 C 238.191 151.567,240.650 150.635,242.945 149.808 C 252.441 146.384,265.590 129.385,265.590 120.531 C 265.590 115.680,262.291 114.108,244.588 110.523 C 236.229 108.831,234.647 108.620,227.464 108.241 C 223.376 108.025,219.160 107.756,218.094 107.642 C 217.027 107.528,209.759 107.669,201.941 107.955 M229.079 109.262 C 233.344 109.587,238.288 110.134,240.065 110.479 C 244.453 111.330,249.170 112.262,252.666 112.967 C 261.470 114.745,264.943 116.797,264.943 120.223 C 264.943 126.468,255.020 141.741,247.987 146.321 C 245.969 147.636,245.897 147.542,245.255 142.733 C 244.333 135.819,238.368 130.204,229.402 127.808 C 222.238 125.893,202.621 124.934,196.123 126.180 L 191.599 127.048 191.395 129.496 C 190.963 134.681,183.003 139.787,177.192 138.607 C 171.197 137.391,170.439 137.641,168.498 141.473 C 164.717 148.938,167.302 155.776,175.474 159.921 L 178.675 161.545 176.414 161.537 C 172.942 161.523,160.127 159.391,153.150 157.667 C 151.551 157.271,149.439 156.787,148.457 156.590 C 147.476 156.393,146.513 155.975,146.319 155.661 C 146.125 155.346,145.548 155.089,145.037 155.089 C 141.259 155.089,129.887 147.535,129.887 145.025 C 129.887 137.708,154.297 118.870,172.213 112.360 C 180.574 109.322,209.317 107.756,229.079 109.262 " stroke="none" fill="#b85600" fill-rule="evenodd"></path><path id="path4" d="M192.246 109.267 C 183.743 109.901,175.464 111.179,172.213 112.360 C 154.297 118.870,129.887 137.708,129.887 145.025 C 129.887 147.535,141.259 155.089,145.037 155.089 C 145.548 155.089,146.125 155.346,146.319 155.661 C 146.513 155.975,147.476 156.393,148.457 156.590 C 149.439 156.787,151.551 157.271,153.150 157.667 C 160.127 159.391,172.942 161.523,176.414 161.537 L 178.675 161.545 175.474 159.921 C 167.302 155.776,164.717 148.938,168.498 141.473 C 170.439 137.641,171.197 137.391,177.192 138.607 C 183.003 139.787,190.963 134.681,191.395 129.496 L 191.599 127.048 196.123 126.180 C 202.621 124.934,222.238 125.893,229.402 127.808 C 238.368 130.204,244.333 135.819,245.255 142.733 C 245.897 147.542,245.969 147.636,247.987 146.321 C 255.020 141.741,264.943 126.468,264.943 120.223 C 264.943 116.797,261.470 114.745,252.666 112.967 C 249.170 112.262,244.453 111.330,240.065 110.479 C 231.447 108.808,206.800 108.183,192.246 109.267 M183.423 117.235 C 188.275 119.744,193.535 129.887,189.984 129.887 C 189.628 129.887,189.328 130.396,189.317 131.018 C 189.224 136.163,177.155 139.204,170.860 135.669 C 157.681 128.266,169.947 110.266,183.423 117.235 M160.987 133.495 C 163.972 134.568,164.289 140.085,161.501 142.430 C 156.860 146.336,150.737 141.640,153.501 136.295 C 154.508 134.347,158.020 132.240,159.289 132.821 C 159.645 132.984,160.409 133.287,160.987 133.495 " stroke="none" fill="#ffb401" fill-rule="evenodd"></path></g></svg>