<svg id="svg" version="1.1" width="500" height="580" xmlns="http://www.w3.org/2000/svg" xmlns:xlink="http://www.w3.org/1999/xlink" style="display: block;"><g id="svgg"><path id="path0" d="M196.400 36.800 C 196.128 37.240,194.873 37.600,193.610 37.600 C 192.347 37.600,190.774 38.140,190.114 38.800 C 189.454 39.460,188.169 40.000,187.257 40.000 C 186.346 40.000,185.600 40.360,185.600 40.800 C 185.600 41.240,184.960 41.600,184.178 41.600 C 183.396 41.600,182.205 42.230,181.533 43.000 C 180.861 43.770,179.341 45.115,178.155 45.990 C 176.970 46.864,176.000 48.034,176.000 48.590 C 176.000 49.145,175.532 49.600,174.961 49.600 C 174.389 49.600,173.489 50.796,172.961 52.257 C 171.794 55.484,171.670 66.400,172.800 66.400 C 173.240 66.400,173.600 67.300,173.600 68.400 C 173.600 69.644,174.053 70.400,174.800 70.400 C 175.460 70.400,176.000 71.099,176.000 71.953 C 176.000 72.807,176.360 73.728,176.800 74.000 C 177.240 74.272,177.600 75.204,177.600 76.072 C 177.600 76.940,178.140 77.857,178.800 78.111 C 179.460 78.364,180.000 79.433,180.000 80.486 C 180.000 81.539,180.360 82.400,180.800 82.400 C 181.240 82.400,181.600 82.819,181.600 83.331 C 181.600 84.824,184.246 90.400,184.954 90.400 C 185.309 90.400,185.600 91.480,185.600 92.800 C 185.600 94.120,185.960 95.200,186.400 95.200 C 186.840 95.200,187.200 96.254,187.200 97.543 C 187.200 98.831,187.740 100.426,188.400 101.086 C 189.112 101.798,189.600 103.753,189.600 105.896 C 189.600 107.881,189.960 109.728,190.400 110.000 C 190.885 110.300,191.200 116.142,191.200 124.847 L 191.200 139.200 189.286 139.200 C 188.233 139.200,187.164 138.660,186.911 138.000 C 186.657 137.340,185.719 136.800,184.825 136.800 C 183.931 136.800,183.200 136.440,183.200 136.000 C 183.200 135.560,182.344 135.200,181.298 135.200 C 180.252 135.200,178.948 134.660,178.400 134.000 C 177.852 133.340,176.749 132.800,175.949 132.800 C 175.149 132.800,174.272 132.440,174.000 132.000 C 173.728 131.560,172.781 131.200,171.896 131.200 C 171.010 131.200,169.746 130.660,169.086 130.000 C 168.426 129.340,167.011 128.800,165.943 128.800 C 164.874 128.800,164.000 128.440,164.000 128.000 C 164.000 127.560,162.941 127.200,161.647 127.200 C 160.353 127.200,159.072 126.840,158.800 126.400 C 158.528 125.960,156.931 125.600,155.251 125.600 C 153.571 125.600,151.769 125.086,151.248 124.457 C 149.187 121.974,115.426 122.105,114.598 124.600 C 114.387 125.236,112.690 125.600,109.933 125.600 C 107.550 125.600,105.600 125.960,105.600 126.400 C 105.600 126.840,104.636 127.200,103.457 127.200 C 101.010 127.200,96.651 128.440,93.335 130.080 C 92.090 130.696,90.401 131.200,89.582 131.200 C 88.764 131.200,87.872 131.560,87.600 132.000 C 87.328 132.440,86.216 132.800,85.128 132.800 C 84.040 132.800,82.943 133.340,82.689 134.000 C 82.436 134.660,81.569 135.200,80.762 135.200 C 79.955 135.200,79.072 135.560,78.800 136.000 C 78.528 136.440,77.607 136.800,76.753 136.800 C 75.899 136.800,75.200 137.340,75.200 138.000 C 75.200 138.747,74.444 139.200,73.200 139.200 C 72.100 139.200,71.200 139.560,71.200 140.000 C 71.200 140.440,70.660 140.800,70.000 140.800 C 69.340 140.800,68.800 141.160,68.800 141.600 C 68.800 142.040,68.346 142.400,67.792 142.400 C 67.237 142.400,65.887 143.229,64.792 144.241 C 63.696 145.254,62.170 146.323,61.400 146.616 C 60.630 146.910,60.000 147.521,60.000 147.975 C 60.000 148.429,59.604 148.800,59.120 148.800 C 57.937 148.800,45.711 161.238,43.200 164.996 C 42.100 166.642,40.930 167.992,40.600 167.995 C 40.270 167.998,40.000 168.384,40.000 168.853 C 40.000 169.323,39.100 170.887,38.000 172.329 C 36.900 173.771,36.000 175.547,36.000 176.276 C 36.000 177.004,35.679 177.600,35.287 177.600 C 34.894 177.600,34.348 178.500,34.071 179.600 C 33.795 180.700,33.216 181.600,32.785 181.600 C 32.353 181.600,32.000 182.500,32.000 183.600 C 32.000 184.700,31.640 185.600,31.200 185.600 C 30.760 185.600,30.400 186.456,30.400 187.502 C 30.400 188.548,29.860 189.852,29.200 190.400 C 28.540 190.948,28.000 192.231,28.000 193.251 C 28.000 194.271,27.640 195.328,27.200 195.600 C 26.760 195.872,26.400 197.539,26.400 199.304 C 26.400 201.091,25.868 203.046,25.200 203.714 C 24.500 204.415,24.000 206.369,24.000 208.410 C 24.000 210.333,23.640 212.128,23.200 212.400 C 22.754 212.676,22.400 216.393,22.400 220.800 C 22.400 225.207,22.046 228.924,21.600 229.200 C 20.522 229.866,20.522 253.600,21.600 253.600 C 22.062 253.600,22.400 256.118,22.400 259.553 C 22.400 262.827,22.760 265.728,23.200 266.000 C 23.640 266.272,24.000 267.844,24.000 269.494 C 24.000 271.144,24.529 273.193,25.175 274.047 C 25.821 274.901,26.361 276.929,26.375 278.553 C 26.389 280.177,26.760 281.728,27.200 282.000 C 27.640 282.272,28.000 283.509,28.000 284.749 C 28.000 285.989,28.540 287.452,29.200 288.000 C 29.860 288.548,30.400 290.212,30.400 291.698 C 30.400 293.184,30.760 294.400,31.200 294.400 C 31.640 294.400,32.011 295.390,32.025 296.600 C 32.039 297.810,32.579 299.499,33.225 300.353 C 33.871 301.207,34.400 302.557,34.400 303.353 C 34.400 304.149,34.760 304.800,35.200 304.800 C 35.640 304.800,36.000 305.880,36.000 307.200 C 36.000 308.520,36.360 309.600,36.800 309.600 C 37.240 309.600,37.600 310.474,37.600 311.543 C 37.600 312.611,38.140 314.026,38.800 314.686 C 39.460 315.346,40.000 316.631,40.000 317.543 C 40.000 318.454,40.360 319.200,40.800 319.200 C 41.240 319.200,41.600 320.061,41.600 321.114 C 41.600 322.167,42.140 323.236,42.800 323.489 C 43.460 323.743,44.000 324.686,44.000 325.586 C 44.000 326.486,44.320 327.847,44.711 328.611 C 45.103 329.375,46.093 331.440,46.911 333.200 C 47.730 334.960,48.670 336.520,49.000 336.667 C 49.330 336.813,49.600 337.803,49.600 338.867 C 49.600 339.930,49.960 340.800,50.400 340.800 C 50.840 340.800,51.200 341.296,51.200 341.902 C 51.200 342.508,51.740 343.452,52.400 344.000 C 53.060 344.548,53.600 345.672,53.600 346.498 C 53.600 347.324,53.960 348.000,54.400 348.000 C 54.840 348.000,55.200 348.731,55.200 349.625 C 55.200 350.519,55.740 351.457,56.400 351.711 C 57.060 351.964,57.600 352.678,57.600 353.296 C 57.600 354.756,59.321 357.822,60.600 358.640 C 61.150 358.992,61.600 359.802,61.600 360.440 C 61.600 361.078,61.960 361.600,62.400 361.600 C 62.840 361.600,63.200 362.140,63.200 362.800 C 63.200 363.460,63.478 364.000,63.818 364.000 C 64.158 364.000,65.115 365.260,65.944 366.800 C 66.773 368.340,67.755 369.600,68.126 369.600 C 68.497 369.600,68.800 369.929,68.800 370.332 C 68.800 371.130,71.144 374.096,74.600 377.670 C 75.810 378.922,76.800 380.318,76.800 380.773 C 76.800 381.228,77.070 381.602,77.400 381.603 C 77.730 381.605,80.315 383.765,83.144 386.403 C 85.974 389.042,88.678 391.200,89.154 391.200 C 89.631 391.200,90.696 392.100,91.522 393.200 C 92.348 394.300,93.694 395.200,94.512 395.200 C 95.330 395.200,96.000 395.560,96.000 396.000 C 96.000 396.440,96.386 396.800,96.857 396.800 C 97.329 396.800,98.254 397.340,98.914 398.000 C 99.574 398.660,100.787 399.200,101.610 399.200 C 102.433 399.200,103.328 399.560,103.600 400.000 C 103.888 400.467,108.408 400.800,114.447 400.800 C 120.816 400.800,124.800 400.492,124.800 400.000 C 124.800 399.560,125.991 399.200,127.447 399.200 C 128.903 399.200,130.793 398.671,131.647 398.025 C 132.501 397.379,134.838 396.839,136.840 396.825 C 138.842 396.811,140.871 396.409,141.349 395.931 C 141.910 395.370,144.311 395.232,148.109 395.542 C 151.349 395.806,156.683 396.228,159.962 396.480 C 163.241 396.732,166.301 397.386,166.762 397.933 C 167.223 398.480,169.220 399.413,171.200 400.006 C 173.180 400.599,175.340 401.498,176.000 402.005 C 178.308 403.775,183.301 406.400,184.360 406.400 C 184.948 406.400,185.636 406.940,185.889 407.600 C 186.143 408.260,187.081 408.800,187.975 408.800 C 188.869 408.800,189.600 409.160,189.600 409.600 C 189.600 410.040,190.346 410.400,191.257 410.400 C 192.169 410.400,193.454 410.940,194.114 411.600 C 194.774 412.260,196.707 412.800,198.410 412.800 C 200.113 412.800,201.728 413.160,202.000 413.600 C 202.645 414.643,214.155 414.643,214.800 413.600 C 215.072 413.160,216.644 412.800,218.294 412.800 C 219.944 412.800,221.993 412.271,222.847 411.625 C 223.701 410.979,225.570 410.439,227.000 410.425 C 228.430 410.411,229.600 410.040,229.600 409.600 C 229.600 409.160,230.474 408.800,231.543 408.800 C 232.611 408.800,234.026 408.260,234.686 407.600 C 235.346 406.940,236.631 406.400,237.543 406.400 C 238.454 406.400,239.200 406.040,239.200 405.600 C 239.200 405.160,240.100 404.800,241.200 404.800 C 242.300 404.800,243.200 404.479,243.200 404.087 C 243.200 403.694,244.100 403.148,245.200 402.871 C 246.300 402.595,247.200 402.016,247.200 401.585 C 247.200 401.153,248.100 400.800,249.200 400.800 C 250.300 400.800,251.200 400.440,251.200 400.000 C 251.200 399.560,251.931 399.200,252.825 399.200 C 253.719 399.200,254.657 398.660,254.911 398.000 C 255.164 397.340,255.843 396.800,256.421 396.800 C 257.783 396.800,262.388 394.179,262.395 393.400 C 262.398 393.070,262.940 392.800,263.600 392.800 C 264.260 392.800,264.800 392.440,264.800 392.000 C 264.800 391.560,265.467 391.200,266.283 391.200 C 267.099 391.200,268.737 390.300,269.924 389.200 C 271.111 388.100,272.604 387.200,273.241 387.200 C 273.879 387.200,274.400 386.840,274.400 386.400 C 274.400 385.960,274.901 385.600,275.514 385.600 C 276.127 385.600,276.836 385.060,277.089 384.400 C 277.343 383.740,278.101 383.200,278.775 383.200 C 279.449 383.200,280.000 382.840,280.000 382.400 C 280.000 381.960,280.540 381.600,281.200 381.600 C 281.860 381.600,282.400 381.060,282.400 380.400 C 282.400 379.740,282.670 379.195,283.000 379.190 C 283.946 379.174,289.707 374.305,292.792 370.913 C 294.336 369.215,296.950 366.366,298.600 364.583 C 300.250 362.799,301.600 361.038,301.600 360.670 C 301.600 360.301,302.050 359.986,302.600 359.970 C 303.571 359.940,308.000 354.196,308.000 352.966 C 308.000 352.629,308.720 351.834,309.600 351.200 C 310.480 350.566,311.200 349.642,311.200 349.148 C 311.200 348.653,312.100 347.203,313.199 345.924 C 314.298 344.646,315.198 343.139,315.199 342.575 C 315.200 342.011,315.740 341.343,316.400 341.089 C 317.060 340.836,317.600 340.127,317.600 339.514 C 317.600 338.901,317.960 338.400,318.400 338.400 C 318.840 338.400,319.200 337.698,319.200 336.840 C 319.200 335.982,319.651 334.992,320.201 334.640 C 320.752 334.288,321.694 332.920,322.294 331.600 C 322.894 330.280,323.703 328.660,324.090 328.000 C 326.426 324.022,328.800 318.692,328.800 317.425 C 328.800 316.614,329.340 315.743,330.000 315.489 C 330.660 315.236,331.200 314.167,331.200 313.114 C 331.200 312.061,331.560 311.200,332.000 311.200 C 332.440 311.200,332.800 310.344,332.800 309.298 C 332.800 308.252,333.340 306.948,334.000 306.400 C 334.660 305.852,335.200 304.548,335.200 303.502 C 335.200 302.456,335.560 301.600,336.000 301.600 C 336.440 301.600,336.800 300.741,336.800 299.691 C 336.800 298.642,337.338 296.752,337.995 295.491 C 338.652 294.231,339.192 292.411,339.195 291.447 C 339.198 290.483,339.560 289.472,340.000 289.200 C 340.440 288.928,340.800 287.668,340.800 286.400 C 340.800 285.132,341.160 283.872,341.600 283.600 C 342.040 283.328,342.400 281.661,342.400 279.896 C 342.400 278.109,342.932 276.154,343.600 275.486 C 344.300 274.785,344.800 272.831,344.800 270.790 C 344.800 268.867,345.160 267.072,345.600 266.800 C 346.040 266.528,346.400 264.388,346.400 262.044 C 346.400 259.700,346.938 256.752,347.595 255.491 C 348.539 253.682,348.790 249.837,348.790 237.200 C 348.790 224.563,348.539 220.718,347.595 218.909 C 346.938 217.648,346.400 215.240,346.400 213.556 C 346.400 211.872,346.040 210.272,345.600 210.000 C 345.160 209.728,344.800 208.473,344.800 207.210 C 344.800 205.947,344.260 204.374,343.600 203.714 C 342.940 203.054,342.400 201.944,342.400 201.246 C 342.400 200.549,342.080 199.353,341.689 198.589 C 341.297 197.825,340.316 195.850,339.507 194.200 C 338.698 192.550,337.758 191.200,337.418 191.200 C 337.078 191.200,336.800 190.689,336.800 190.065 C 336.800 188.637,334.205 184.012,333.400 184.005 C 333.070 184.002,332.800 183.614,332.800 183.143 C 332.800 182.035,330.765 180.000,329.657 180.000 C 329.186 180.000,328.800 179.530,328.800 178.956 C 328.800 177.313,317.727 166.400,316.059 166.400 C 315.680 166.400,315.164 165.860,314.911 165.200 C 314.657 164.540,313.899 164.000,313.225 164.000 C 312.551 164.000,312.000 163.640,312.000 163.200 C 312.000 162.760,311.499 162.400,310.886 162.400 C 310.273 162.400,309.564 161.860,309.311 161.200 C 309.057 160.540,308.119 160.000,307.225 160.000 C 306.331 160.000,305.600 159.640,305.600 159.200 C 305.600 158.760,305.104 158.400,304.498 158.400 C 303.892 158.400,302.948 157.860,302.400 157.200 C 301.852 156.540,300.548 156.000,299.502 156.000 C 298.456 156.000,297.600 155.640,297.600 155.200 C 297.600 154.760,296.541 154.400,295.247 154.400 C 293.953 154.400,292.672 154.040,292.400 153.600 C 292.128 153.160,290.711 152.800,289.251 152.800 C 287.791 152.800,286.148 152.260,285.600 151.600 C 284.996 150.872,283.244 150.400,281.149 150.400 C 279.249 150.400,277.472 150.040,277.200 149.600 C 276.928 149.160,274.297 148.789,271.353 148.775 C 267.920 148.758,265.443 148.328,264.447 147.575 C 263.328 146.728,260.714 146.400,255.094 146.400 C 250.757 146.400,247.075 146.045,246.800 145.600 C 246.528 145.160,243.468 144.800,240.000 144.800 C 236.532 144.800,233.472 145.160,233.200 145.600 C 232.630 146.522,227.987 146.702,228.025 145.800 C 228.039 145.470,228.579 144.501,229.225 143.647 C 229.871 142.793,230.400 141.284,230.400 140.294 C 230.400 139.304,230.760 138.272,231.200 138.000 C 231.640 137.728,232.000 135.907,232.000 133.953 C 232.000 131.999,232.360 130.400,232.800 130.400 C 233.240 130.400,233.600 128.644,233.600 126.498 C 233.600 124.005,234.033 122.236,234.800 121.600 C 235.618 120.921,236.000 119.106,236.000 115.902 C 236.000 113.301,236.357 111.200,236.800 111.200 C 237.280 111.200,237.600 108.000,237.600 103.200 C 237.600 98.400,237.920 95.200,238.400 95.200 C 238.840 95.200,239.200 94.141,239.200 92.847 C 239.200 91.553,238.840 90.272,238.400 90.000 C 237.960 89.728,237.600 86.488,237.600 82.800 C 237.600 79.112,237.240 75.872,236.800 75.600 C 236.360 75.328,236.000 73.911,236.000 72.451 C 236.000 70.991,235.460 69.348,234.800 68.800 C 234.140 68.252,233.600 66.789,233.600 65.549 C 233.600 64.309,233.240 63.072,232.800 62.800 C 232.360 62.528,232.000 61.247,232.000 59.953 C 232.000 58.659,231.640 57.600,231.200 57.600 C 230.760 57.600,230.400 56.949,230.400 56.153 C 230.400 55.357,229.871 54.007,229.225 53.153 C 228.579 52.299,228.039 50.790,228.025 49.800 C 228.011 48.810,227.640 48.000,227.200 48.000 C 226.760 48.000,226.400 47.100,226.400 46.000 C 226.400 44.756,225.947 44.000,225.200 44.000 C 224.540 44.000,224.000 43.614,224.000 43.143 C 224.000 41.227,218.061 37.600,214.924 37.600 C 213.808 37.600,212.672 37.240,212.400 36.800 C 212.127 36.359,208.541 36.000,204.400 36.000 C 200.259 36.000,196.673 36.359,196.400 36.800 M211.208 50.888 C 212.351 52.031,210.685 56.658,208.147 59.394 C 206.359 61.321,204.154 62.725,198.659 65.432 C 197.856 65.827,196.395 66.566,195.411 67.075 C 188.055 70.878,182.061 60.561,188.336 54.899 C 193.158 50.547,208.225 47.905,211.208 50.888 M221.727 72.800 C 225.857 88.284,226.036 99.111,222.413 114.400 C 222.048 115.940,221.155 119.900,220.429 123.200 C 218.238 133.152,214.037 148.095,212.729 150.589 C 212.328 151.353,212.000 152.379,212.000 152.868 C 212.000 153.358,211.460 154.983,210.800 156.479 C 210.140 157.976,209.050 160.446,208.378 161.968 C 206.374 166.505,200.074 174.400,198.457 174.400 C 197.986 174.400,197.600 175.000,197.600 175.733 C 197.600 176.467,197.373 176.840,197.095 176.562 C 196.665 176.132,198.346 171.031,200.840 165.200 C 204.911 155.682,206.510 132.429,204.417 113.200 C 202.992 100.117,201.988 96.177,197.157 84.698 C 194.719 78.906,194.849 78.326,198.899 76.911 C 203.299 75.373,210.985 71.029,215.171 67.715 L 218.741 64.887 219.860 67.444 C 220.476 68.850,221.316 71.260,221.727 72.800 M146.686 136.473 C 149.828 137.173,153.025 138.073,153.789 138.473 C 154.553 138.873,155.711 139.200,156.362 139.200 C 157.013 139.200,158.908 139.790,160.573 140.511 C 163.542 141.797,166.013 142.804,169.200 144.029 C 179.368 147.936,192.800 155.492,192.800 157.304 C 192.800 160.252,176.879 192.000,175.401 192.000 C 174.168 192.000,171.347 190.611,169.864 189.274 C 169.331 188.793,167.704 187.539,166.248 186.487 C 164.792 185.435,162.419 183.005,160.975 181.087 C 156.908 175.686,152.000 176.563,152.000 182.690 C 152.000 188.365,161.697 197.045,175.088 203.354 C 190.043 210.400,223.779 201.993,217.003 192.908 C 214.869 190.047,213.637 189.959,207.380 192.217 C 192.007 197.766,189.267 197.466,197.000 191.082 C 202.320 186.690,208.818 180.138,211.734 176.227 C 212.975 174.562,214.203 173.020,214.462 172.800 C 215.201 172.173,219.200 163.402,219.200 162.409 C 219.200 159.265,238.494 157.414,252.800 159.185 C 272.634 161.640,279.273 162.755,281.651 164.027 C 282.445 164.452,283.997 164.800,285.100 164.800 C 286.203 164.800,287.328 165.160,287.600 165.600 C 287.872 166.040,288.703 166.402,289.447 166.405 C 290.191 166.408,291.831 166.948,293.091 167.605 C 294.352 168.262,295.882 168.800,296.491 168.800 C 297.101 168.800,297.600 169.160,297.600 169.600 C 297.600 170.040,298.080 170.400,298.667 170.400 C 299.857 170.400,307.191 175.372,311.215 178.906 C 333.419 198.411,340.377 224.498,333.486 262.400 C 332.701 266.723,330.821 274.460,329.600 278.400 C 329.259 279.500,328.339 282.740,327.555 285.600 C 326.771 288.460,325.830 291.142,325.465 291.560 C 325.099 291.978,324.800 292.973,324.800 293.771 C 324.800 294.569,324.477 295.847,324.082 296.611 C 323.687 297.375,322.748 299.620,321.995 301.600 C 321.241 303.580,319.450 307.720,318.015 310.800 C 316.579 313.880,315.183 316.940,314.913 317.600 C 314.642 318.260,312.975 321.320,311.208 324.400 C 309.441 327.480,307.774 330.630,307.504 331.400 C 307.234 332.170,306.695 332.800,306.307 332.800 C 305.918 332.800,305.600 333.162,305.600 333.605 C 305.600 337.721,280.843 365.682,271.200 372.456 C 268.780 374.156,266.620 375.751,266.400 376.000 C 262.947 379.907,226.025 398.400,221.676 398.400 C 220.930 398.400,219.879 398.841,219.339 399.381 C 218.738 399.982,215.163 400.479,210.083 400.667 C 201.057 401.002,199.548 400.587,191.587 395.582 C 175.847 385.687,165.678 382.924,146.800 383.413 C 134.373 383.735,132.516 384.007,123.200 386.870 C 109.408 391.110,94.867 383.611,81.179 365.200 C 79.871 363.440,77.990 361.104,77.000 360.008 C 76.010 358.913,75.200 357.593,75.200 357.075 C 75.200 356.557,74.885 356.013,74.500 355.867 C 72.255 355.011,58.972 329.235,52.101 312.400 C 49.766 306.680,47.556 301.280,47.190 300.400 C 46.824 299.520,45.918 297.000,45.178 294.800 C 44.437 292.600,43.545 290.080,43.196 289.200 C 41.086 283.879,38.647 275.170,35.645 262.236 C 30.903 241.802,35.780 204.695,45.702 185.717 C 52.605 172.513,70.689 152.800,75.899 152.800 C 76.321 152.800,76.787 152.487,76.933 152.104 C 77.236 151.315,93.855 143.200,95.168 143.200 C 95.637 143.200,96.647 142.883,97.411 142.497 C 99.941 141.215,106.772 139.192,108.553 139.196 C 109.517 139.198,110.496 138.891,110.729 138.514 C 110.962 138.137,113.054 137.588,115.377 137.294 C 117.699 137.000,121.220 136.454,123.200 136.080 C 129.256 134.937,140.644 135.127,146.686 136.473 " stroke="none" fill="#000000" fill-rule="evenodd"></path><path id="path1" d="M198.000 50.322 C 186.138 53.482,182.083 60.280,188.529 66.200 C 190.709 68.202,192.733 68.460,195.411 67.075 C 196.395 66.566,197.856 65.827,198.659 65.432 C 204.154 62.725,206.359 61.321,208.147 59.394 C 210.685 56.658,212.351 52.031,211.208 50.888 C 210.181 49.861,201.180 49.474,198.000 50.322 M209.600 53.593 C 209.600 59.855,192.731 68.835,188.831 64.649 C 185.043 60.583,189.479 52.800,195.585 52.800 C 196.201 52.800,196.928 52.440,197.200 52.000 C 197.472 51.560,200.373 51.200,203.647 51.200 L 209.600 51.200 209.600 53.593 M215.171 67.715 C 210.985 71.029,203.299 75.373,198.899 76.911 C 194.849 78.326,194.719 78.906,197.157 84.698 C 201.988 96.177,202.992 100.117,204.417 113.200 C 206.510 132.429,204.911 155.682,200.840 165.200 C 198.346 171.031,196.665 176.132,197.095 176.562 C 197.373 176.840,197.600 176.467,197.600 175.733 C 197.600 175.000,197.986 174.400,198.457 174.400 C 200.074 174.400,206.374 166.505,208.378 161.968 C 209.050 160.446,210.140 157.976,210.800 156.479 C 211.460 154.983,212.000 153.358,212.000 152.868 C 212.000 152.379,212.328 151.353,212.729 150.589 C 214.037 148.095,218.238 133.152,220.429 123.200 C 221.155 119.900,222.048 115.940,222.413 114.400 C 226.393 97.604,225.447 80.204,219.860 67.444 L 218.741 64.887 215.171 67.715 M123.200 136.080 C 121.220 136.454,117.699 137.000,115.377 137.294 C 113.054 137.588,110.962 138.137,110.729 138.514 C 110.496 138.891,109.337 139.216,108.153 139.236 C 106.969 139.256,104.920 139.797,103.600 140.439 L 101.200 141.607 103.600 141.168 C 104.920 140.926,107.440 140.379,109.200 139.953 C 129.401 135.057,138.596 135.042,155.200 139.877 C 156.740 140.325,158.900 140.919,160.000 141.196 L 162.000 141.700 160.000 140.478 C 158.900 139.807,157.365 139.244,156.589 139.228 C 155.813 139.213,154.553 138.873,153.789 138.473 C 148.532 135.720,131.970 134.424,123.200 136.080 M97.200 142.400 C 96.928 142.840,96.167 143.200,95.510 143.200 C 93.957 143.200,77.283 151.193,76.933 152.104 C 76.787 152.487,76.321 152.800,75.899 152.800 C 74.373 152.800,65.888 159.550,60.919 164.716 C 47.174 179.010,40.270 193.305,35.627 217.086 C 33.903 225.915,33.915 254.780,35.645 262.236 C 38.647 275.170,41.086 283.879,43.196 289.200 C 43.545 290.080,44.437 292.600,45.178 294.800 C 45.918 297.000,46.824 299.520,47.190 300.400 C 47.556 301.280,49.766 306.680,52.101 312.400 C 58.972 329.235,72.255 355.011,74.500 355.867 C 74.885 356.013,75.200 356.557,75.200 357.075 C 75.200 357.593,76.010 358.913,77.000 360.008 C 77.990 361.104,79.871 363.440,81.179 365.200 C 94.867 383.611,109.408 391.110,123.200 386.870 C 132.516 384.007,134.373 383.735,146.800 383.413 C 165.678 382.924,175.847 385.687,191.587 395.582 C 199.548 400.587,201.057 401.002,210.083 400.667 C 215.163 400.479,218.738 399.982,219.339 399.381 C 219.879 398.841,220.930 398.400,221.676 398.400 C 226.025 398.400,262.947 379.907,266.400 376.000 C 266.620 375.751,268.780 374.156,271.200 372.456 C 280.843 365.682,305.600 337.721,305.600 333.605 C 305.600 333.162,305.918 332.800,306.307 332.800 C 306.695 332.800,307.234 332.170,307.504 331.400 C 307.774 330.630,309.441 327.480,311.208 324.400 C 312.975 321.320,314.642 318.260,314.913 317.600 C 315.183 316.940,316.579 313.880,318.015 310.800 C 319.450 307.720,321.241 303.580,321.995 301.600 C 322.748 299.620,323.687 297.375,324.082 296.611 C 324.477 295.847,324.800 294.569,324.800 293.771 C 324.800 292.973,325.099 291.978,325.465 291.560 C 325.830 291.142,326.771 288.460,327.555 285.600 C 328.339 282.740,329.259 279.500,329.600 278.400 C 337.377 253.307,338.154 225.911,331.584 208.400 C 326.130 193.864,317.440 182.802,304.169 173.506 C 301.730 171.798,299.254 170.400,298.667 170.400 C 298.080 170.400,297.600 170.040,297.600 169.600 C 297.600 169.160,297.101 168.800,296.491 168.800 C 295.882 168.800,294.352 168.262,293.091 167.605 C 291.831 166.948,290.191 166.408,289.447 166.405 C 288.703 166.402,287.897 166.080,287.655 165.688 C 287.413 165.297,286.041 164.785,284.607 164.550 C 281.139 163.983,274.591 162.478,271.543 161.549 C 270.192 161.137,267.312 160.848,265.143 160.907 L 261.200 161.014 264.800 161.630 C 275.746 163.504,278.394 164.044,282.400 165.218 C 284.820 165.927,287.520 166.699,288.400 166.932 C 289.280 167.165,291.900 168.221,294.222 169.278 C 296.544 170.335,298.639 171.200,298.879 171.200 C 304.101 171.200,328.000 197.025,328.000 202.668 C 328.000 203.225,328.316 204.022,328.701 204.440 C 336.223 212.590,336.913 246.410,330.097 272.800 C 315.155 330.651,287.684 366.715,241.526 389.076 C 215.841 401.519,204.698 403.015,193.377 395.542 C 186.047 390.704,176.883 386.108,172.000 384.822 C 170.020 384.300,166.960 383.452,165.200 382.937 C 158.551 380.990,136.476 381.724,128.800 384.146 C 110.816 389.820,104.825 388.093,89.565 372.834 C 69.605 352.875,46.654 306.107,38.120 268.000 C 37.479 265.140,36.560 261.085,36.078 258.989 C 34.951 254.094,34.938 227.798,36.059 220.892 C 42.514 181.135,61.037 157.124,95.200 144.227 C 101.125 141.991,101.747 141.600,99.381 141.600 C 98.453 141.600,97.472 141.960,97.200 142.400 M166.400 143.742 C 184.183 152.009,192.047 156.321,191.551 157.534 C 191.266 158.230,190.755 159.725,190.414 160.855 C 190.074 161.985,189.433 163.605,188.991 164.455 C 188.549 165.305,185.513 171.399,182.243 177.999 C 178.710 185.130,175.774 190.099,175.003 190.247 C 173.132 190.607,164.408 184.003,161.558 180.068 C 156.774 173.465,148.801 177.108,151.117 184.838 C 153.376 192.379,169.859 203.828,182.766 206.821 C 195.368 209.744,219.200 202.377,219.200 195.559 C 219.200 189.763,215.059 188.345,206.772 191.304 C 200.179 193.659,196.870 194.361,196.349 193.517 C 196.105 193.123,196.213 192.800,196.589 192.800 C 197.330 192.800,206.892 183.647,210.832 179.166 C 214.065 175.488,218.986 167.350,219.651 164.579 C 220.857 159.553,235.118 157.963,257.200 160.392 C 260.674 160.774,260.937 160.709,259.200 159.896 C 252.962 156.978,219.200 159.098,219.200 162.409 C 219.200 163.402,215.201 172.173,214.462 172.800 C 214.203 173.020,212.975 174.562,211.734 176.227 C 208.818 180.138,202.320 186.690,197.000 191.082 C 189.267 197.466,192.007 197.766,207.380 192.217 C 213.637 189.959,214.869 190.047,217.003 192.908 C 223.779 201.993,190.043 210.400,175.088 203.354 C 161.697 197.045,152.000 188.365,152.000 182.690 C 152.000 176.563,156.908 175.686,160.975 181.087 C 162.419 183.005,164.792 185.435,166.248 186.487 C 167.704 187.539,169.331 188.793,169.864 189.274 C 171.347 190.611,174.168 192.000,175.401 192.000 C 176.879 192.000,192.800 160.252,192.800 157.304 C 192.800 155.459,180.785 148.714,168.800 143.828 C 167.700 143.380,166.175 142.695,165.411 142.307 C 164.647 141.918,163.567 141.622,163.011 141.648 C 162.455 141.675,163.980 142.617,166.400 143.742 " stroke="none" fill="#572722" fill-rule="evenodd"></path><path id="path2" d="M178.800 163.151 C 167.151 163.696,163.339 165.250,159.363 171.077 C 156.551 175.198,156.168 176.800,157.995 176.800 C 158.652 176.800,160.270 178.291,161.590 180.113 C 164.414 184.011,173.142 190.606,175.003 190.247 C 175.774 190.099,178.710 185.130,182.243 177.999 C 185.513 171.399,188.505 165.375,188.894 164.611 C 189.758 162.912,189.786 162.353,189.000 162.551 C 188.670 162.635,184.080 162.905,178.800 163.151 M219.200 165.906 C 219.200 167.169,213.655 175.955,210.832 179.166 C 206.892 183.647,197.330 192.800,196.589 192.800 C 196.213 192.800,196.105 193.123,196.349 193.517 C 196.870 194.361,200.179 193.659,206.772 191.304 C 215.059 188.345,219.200 189.763,219.200 195.559 C 219.200 199.578,208.844 205.600,201.932 205.600 C 200.884 205.600,200.939 206.054,202.296 208.600 C 203.176 210.250,204.110 212.860,204.373 214.400 C 204.636 215.940,205.190 219.180,205.605 221.600 C 206.020 224.020,206.728 227.258,207.179 228.795 C 208.226 232.360,208.232 238.294,207.192 241.281 C 206.748 242.556,206.042 245.940,205.623 248.800 C 204.082 259.319,202.619 266.095,200.010 274.800 C 199.614 276.120,198.942 278.460,198.515 280.000 C 197.516 283.610,195.973 288.024,195.093 289.789 C 194.712 290.553,194.400 291.711,194.400 292.362 C 194.400 293.013,193.810 294.908,193.089 296.573 C 191.462 300.330,190.885 301.801,189.143 306.626 C 188.384 308.730,187.456 310.642,187.081 310.873 C 186.707 311.105,186.394 311.903,186.387 312.647 C 186.379 313.391,185.119 316.520,183.587 319.600 C 182.055 322.680,180.801 325.606,180.801 326.102 C 180.800 326.598,180.260 327.452,179.600 328.000 C 178.940 328.548,178.400 329.642,178.400 330.431 C 178.400 331.221,178.130 331.987,177.800 332.133 C 177.470 332.280,176.125 334.560,174.811 337.200 C 163.409 360.113,144.457 378.155,125.285 384.348 C 124.453 384.618,123.929 384.996,124.123 385.190 C 124.317 385.383,126.978 384.745,130.038 383.771 C 136.484 381.719,159.198 381.180,165.200 382.937 C 166.960 383.452,170.020 384.300,172.000 384.822 C 176.809 386.089,187.465 391.422,192.923 395.294 C 195.487 397.112,196.326 397.204,195.711 395.600 C 195.394 394.776,195.760 394.400,196.878 394.400 C 197.773 394.400,199.292 393.971,200.253 393.446 C 201.214 392.921,203.620 392.235,205.600 391.922 C 213.777 390.628,215.731 390.192,218.400 389.070 C 219.940 388.422,221.920 387.604,222.800 387.251 C 259.259 372.655,295.740 340.593,304.782 315.200 C 306.114 311.460,307.526 307.680,307.920 306.800 C 308.314 305.920,309.231 303.760,309.957 302.000 C 310.683 300.240,311.620 298.175,312.039 297.411 C 312.457 296.647,312.800 295.472,312.800 294.800 C 312.800 294.128,313.136 292.953,313.547 292.189 C 314.370 290.659,315.877 284.785,316.880 279.200 C 317.757 274.316,318.890 269.125,320.024 264.800 C 322.822 254.119,319.088 226.827,312.741 211.582 C 306.236 195.956,285.814 175.861,273.294 172.767 C 271.922 172.428,268.100 171.369,264.800 170.414 C 255.086 167.600,253.630 167.317,244.400 166.438 C 230.809 165.145,219.200 164.899,219.200 165.906 M35.402 232.400 C 35.411 234.160,35.574 234.786,35.766 233.791 C 35.957 232.796,35.950 231.356,35.750 230.591 C 35.549 229.826,35.393 230.640,35.402 232.400 " stroke="none" fill="#9a0000" fill-rule="evenodd"></path><path id="path3" d="M127.877 137.189 C 127.663 137.403,124.813 137.919,121.544 138.334 C 115.064 139.157,108.738 140.409,105.600 141.489 C 104.500 141.867,102.160 142.617,100.400 143.155 C 97.497 144.042,95.850 144.684,89.600 147.367 C 72.051 154.898,53.088 171.767,49.094 183.400 C 48.830 184.170,48.295 184.800,47.907 184.800 C 47.518 184.800,47.200 185.286,47.200 185.881 C 47.200 186.475,46.377 188.545,45.371 190.481 C 43.674 193.747,40.459 203.277,38.516 210.800 C 34.851 224.993,34.787 251.804,38.383 266.400 C 40.077 273.275,41.827 279.729,42.395 281.200 C 42.736 282.080,43.670 284.960,44.471 287.600 C 45.273 290.240,46.215 292.742,46.564 293.160 C 46.914 293.578,47.200 294.573,47.200 295.371 C 47.200 296.169,47.523 297.447,47.918 298.211 C 48.313 298.975,49.262 301.220,50.027 303.200 C 52.396 309.334,55.825 317.240,58.878 323.611 C 59.935 325.818,60.800 328.068,60.800 328.611 C 60.800 329.155,61.160 329.600,61.600 329.600 C 62.040 329.600,62.400 329.994,62.400 330.475 C 62.400 332.084,71.222 348.938,73.281 351.263 C 73.897 351.958,74.400 352.918,74.400 353.396 C 74.400 353.875,74.670 354.387,75.000 354.533 C 75.330 354.680,77.623 357.500,80.095 360.800 C 87.795 371.078,98.492 381.021,105.930 384.812 C 108.734 386.241,121.270 386.418,124.112 385.068 C 125.150 384.575,127.942 383.411,130.316 382.482 C 146.496 376.147,164.596 357.728,174.811 337.200 C 176.125 334.560,177.470 332.280,177.800 332.133 C 178.130 331.987,178.400 331.221,178.400 330.431 C 178.400 329.642,178.940 328.548,179.600 328.000 C 180.260 327.452,180.800 326.598,180.801 326.102 C 180.801 325.606,182.055 322.680,183.587 319.600 C 185.119 316.520,186.379 313.391,186.387 312.647 C 186.394 311.903,186.707 311.105,187.081 310.873 C 187.456 310.642,188.384 308.730,189.143 306.626 C 190.885 301.801,191.462 300.330,193.089 296.573 C 193.810 294.908,194.400 293.013,194.400 292.362 C 194.400 291.711,194.712 290.553,195.093 289.789 C 195.942 288.086,197.492 283.687,198.470 280.200 C 198.872 278.770,199.544 276.430,199.964 275.000 C 202.726 265.607,204.076 259.356,205.623 248.800 C 206.042 245.940,206.748 242.556,207.192 241.281 C 208.232 238.294,208.226 232.360,207.179 228.795 C 206.728 227.258,206.020 224.020,205.605 221.600 C 205.190 219.180,204.633 215.940,204.366 214.400 C 203.455 209.130,201.466 206.224,199.200 206.852 C 185.710 210.585,170.643 205.662,155.498 192.573 C 148.616 186.624,148.084 176.107,154.658 175.962 C 155.873 175.935,157.221 174.625,159.114 171.636 C 163.252 165.098,167.700 163.204,178.950 163.188 C 188.809 163.174,189.486 162.923,190.115 159.048 L 190.573 156.226 179.486 150.833 C 173.389 147.868,167.590 145.117,166.600 144.721 C 165.610 144.324,163.990 143.678,163.000 143.285 C 150.993 138.512,130.168 134.899,127.877 137.189 M228.400 160.751 C 227.520 161.156,225.784 161.513,224.543 161.544 C 222.198 161.602,219.399 163.665,220.360 164.627 C 220.663 164.930,226.376 165.444,233.055 165.769 C 249.874 166.588,257.797 167.819,267.600 171.136 C 270.240 172.030,272.865 172.770,273.433 172.780 C 282.665 172.956,306.425 196.411,312.741 211.582 C 319.088 226.827,322.822 254.119,320.024 264.800 C 318.890 269.125,317.757 274.316,316.880 279.200 C 315.877 284.785,314.370 290.659,313.547 292.189 C 313.136 292.953,312.800 294.128,312.800 294.800 C 312.800 295.472,312.457 296.647,312.039 297.411 C 311.620 298.175,310.683 300.240,309.957 302.000 C 309.231 303.760,308.314 305.920,307.920 306.800 C 307.526 307.680,306.114 311.460,304.782 315.200 C 295.595 341.001,260.790 371.431,222.000 387.576 C 220.240 388.309,218.080 389.215,217.200 389.590 C 215.672 390.242,213.658 390.646,205.600 391.922 C 203.620 392.235,201.214 392.921,200.253 393.446 C 199.292 393.971,197.749 394.400,196.824 394.400 C 193.878 394.400,196.258 397.091,200.246 398.268 C 205.299 399.760,217.002 398.961,222.000 396.782 C 222.880 396.398,226.480 394.916,230.000 393.489 C 268.844 377.734,295.050 353.595,313.255 316.800 C 317.355 308.514,320.000 302.440,320.000 301.311 C 320.000 300.737,320.247 300.020,320.548 299.718 C 321.115 299.152,322.388 295.835,324.432 289.600 C 325.081 287.620,326.027 284.740,326.533 283.200 C 328.103 278.425,328.868 275.284,331.599 262.400 C 334.275 249.778,334.970 224.657,332.816 218.400 C 332.438 217.300,331.490 214.240,330.710 211.600 C 325.695 194.633,310.884 177.135,296.117 170.731 C 294.512 170.036,292.018 168.957,290.573 168.333 C 289.128 167.710,287.259 167.200,286.420 167.200 C 285.581 167.200,284.695 166.878,284.452 166.485 C 284.209 166.091,282.658 165.577,281.005 165.342 C 279.352 165.107,275.300 164.333,272.000 163.620 C 259.939 161.018,231.837 159.168,228.400 160.751 M116.626 179.639 C 131.077 185.659,133.092 205.858,120.000 213.454 C 114.713 216.521,103.903 216.476,97.850 213.360 C 76.891 202.571,94.737 170.520,116.626 179.639 M99.969 228.578 C 105.547 233.262,105.594 234.280,100.526 240.424 C 93.102 249.425,85.600 266.846,85.600 275.085 C 85.600 283.375,84.030 283.449,80.010 275.347 C 76.427 268.126,71.533 248.166,72.250 243.703 C 72.958 239.299,74.468 234.024,75.246 233.240 C 75.661 232.822,76.000 231.869,76.000 231.123 C 76.000 230.376,77.267 228.654,78.815 227.294 C 81.430 224.998,82.594 224.489,86.800 223.800 C 89.504 223.358,96.983 226.071,99.969 228.578 " stroke="none" fill="#e14737" fill-rule="evenodd"></path><path id="path4" d="M100.400 179.727 C 85.822 187.399,84.379 206.426,97.850 213.360 C 115.804 222.602,135.245 206.776,127.039 189.600 C 122.641 180.397,108.844 175.283,100.400 179.727 M86.800 223.800 C 82.594 224.489,81.430 224.998,78.815 227.294 C 77.267 228.654,76.000 230.376,76.000 231.123 C 76.000 231.869,75.661 232.822,75.246 233.240 C 74.468 234.024,72.958 239.299,72.250 243.703 C 71.533 248.166,76.427 268.126,80.010 275.347 C 84.030 283.449,85.600 283.375,85.600 275.085 C 85.600 266.846,93.102 249.425,100.526 240.424 C 104.746 235.308,104.921 234.921,103.889 232.991 C 101.378 228.298,91.566 223.020,86.800 223.800 " stroke="none" fill="#ffb2a2" fill-rule="evenodd"></path><path id="path5" d="M197.200 52.000 C 196.928 52.440,196.201 52.800,195.585 52.800 C 189.479 52.800,185.043 60.583,188.831 64.649 C 192.731 68.835,209.600 59.855,209.600 53.593 L 209.600 51.200 203.647 51.200 C 200.373 51.200,197.472 51.560,197.200 52.000 M125.242 136.695 C 123.946 136.973,127.618 137.200,133.402 137.200 C 139.187 137.200,143.308 136.955,142.560 136.656 C 140.873 135.982,128.441 136.009,125.242 136.695 M118.600 138.151 C 119.370 138.353,120.630 138.353,121.400 138.151 C 122.170 137.950,121.540 137.786,120.000 137.786 C 118.460 137.786,117.830 137.950,118.600 138.151 M162.292 142.831 C 163.772 143.474,165.212 143.987,165.492 143.972 C 166.533 143.914,161.953 141.657,160.800 141.660 C 160.140 141.661,160.811 142.189,162.292 142.831 M88.800 146.800 C 87.700 147.429,87.160 147.943,87.600 147.943 C 88.040 147.943,89.300 147.429,90.400 146.800 C 91.500 146.171,92.040 145.657,91.600 145.657 C 91.160 145.657,89.900 146.171,88.800 146.800 M73.200 155.670 L 70.800 157.732 73.400 156.012 C 74.830 155.065,76.000 154.136,76.000 153.946 C 76.000 153.347,75.661 153.555,73.200 155.670 M188.200 155.007 C 189.410 155.757,190.411 157.097,190.424 157.985 C 190.447 159.509,190.497 159.517,191.298 158.140 C 191.765 157.337,192.024 156.598,191.873 156.498 C 189.411 154.857,187.127 153.604,186.628 153.621 C 186.283 153.633,186.990 154.256,188.200 155.007 M63.315 163.800 L 57.081 170.000 62.740 164.850 C 65.853 162.017,68.927 159.227,69.571 158.650 C 70.216 158.072,70.474 157.600,70.146 157.600 C 69.817 157.600,66.743 160.390,63.315 163.800 M235.000 159.792 C 237.750 159.949,242.250 159.949,245.000 159.792 C 247.750 159.636,245.500 159.508,240.000 159.508 C 234.500 159.508,232.250 159.636,235.000 159.792 M253.200 160.769 C 255.644 161.423,262.140 161.841,261.533 161.306 C 261.350 161.144,258.860 160.813,256.000 160.570 C 252.724 160.291,251.688 160.365,253.200 160.769 M266.800 162.400 C 267.680 162.778,268.940 163.088,269.600 163.088 C 270.356 163.088,270.209 162.833,269.200 162.400 C 268.320 162.022,267.060 161.712,266.400 161.712 C 265.644 161.712,265.791 161.967,266.800 162.400 M276.800 164.441 C 278.780 165.065,280.940 165.557,281.600 165.534 C 282.260 165.512,281.180 164.983,279.200 164.359 C 277.220 163.735,275.060 163.243,274.400 163.266 C 273.740 163.288,274.820 163.817,276.800 164.441 M298.400 171.521 C 298.400 171.698,299.750 172.605,301.400 173.537 L 304.400 175.231 302.000 173.220 C 299.798 171.374,298.400 170.714,298.400 171.521 M304.800 175.491 C 304.800 175.711,305.880 176.660,307.200 177.600 C 308.520 178.540,309.600 179.129,309.600 178.909 C 309.600 178.689,308.520 177.740,307.200 176.800 C 305.880 175.860,304.800 175.271,304.800 175.491 M50.367 179.246 C 49.409 180.591,48.759 181.826,48.922 181.989 C 49.085 182.152,50.028 181.051,51.017 179.543 C 53.246 176.141,52.742 175.911,50.367 179.246 M150.133 179.733 C 149.418 180.448,149.477 183.368,150.230 184.553 C 150.564 185.077,150.836 184.087,150.836 182.353 C 150.836 180.619,150.798 179.200,150.752 179.200 C 150.705 179.200,150.427 179.440,150.133 179.733 M314.883 183.966 C 316.033 185.574,323.286 194.681,323.830 195.200 C 325.896 197.173,320.609 189.841,317.737 186.752 C 315.682 184.541,314.397 183.287,314.883 183.966 M45.730 187.634 C 44.390 190.576,44.645 191.204,46.095 188.529 C 46.771 187.280,47.176 186.109,46.993 185.926 C 46.810 185.743,46.241 186.512,45.730 187.634 M151.200 186.650 C 151.200 187.827,153.796 191.200,154.692 191.188 C 155.314 191.179,155.333 190.990,154.754 190.588 C 154.288 190.264,153.298 189.110,152.554 188.022 C 151.809 186.934,151.200 186.317,151.200 186.650 M155.267 192.200 C 155.450 192.310,156.680 193.300,158.000 194.400 L 160.400 196.400 158.461 194.200 C 157.394 192.990,156.164 192.000,155.727 192.000 C 155.291 192.000,155.083 192.090,155.267 192.200 M175.200 205.200 C 176.300 205.829,177.740 206.342,178.400 206.340 C 179.060 206.339,178.389 205.811,176.908 205.169 C 173.501 203.690,172.587 203.706,175.200 205.200 M181.207 207.212 C 181.475 207.645,182.813 208.000,184.181 208.000 C 187.202 208.000,186.897 207.601,183.360 206.927 C 181.711 206.613,180.903 206.720,181.207 207.212 M192.800 207.200 L 190.000 207.789 192.800 207.882 C 194.340 207.934,196.140 207.627,196.800 207.200 C 198.255 206.260,197.267 206.260,192.800 207.200 M38.057 209.257 C 37.763 210.430,37.702 211.569,37.922 211.789 C 38.142 212.009,38.563 211.230,38.857 210.057 C 39.151 208.885,39.212 207.745,38.992 207.525 C 38.772 207.305,38.351 208.085,38.057 209.257 M36.986 216.000 C 36.986 217.540,37.150 218.170,37.351 217.400 C 37.553 216.630,37.553 215.370,37.351 214.600 C 37.150 213.830,36.986 214.460,36.986 216.000 M35.569 224.369 C 35.260 226.846,35.179 229.046,35.391 229.257 C 35.602 229.469,36.015 227.601,36.308 225.108 C 36.601 222.614,36.681 220.414,36.486 220.220 C 36.291 220.025,35.879 221.892,35.569 224.369 M334.000 236.800 C 334.000 245.392,334.238 250.603,334.530 248.400 C 335.222 243.176,335.228 229.378,334.541 224.800 C 334.243 222.820,334.000 228.220,334.000 236.800 M35.336 254.400 C 35.323 255.500,35.622 257.120,36.000 258.000 L 36.688 259.600 36.664 258.000 C 36.651 257.120,36.352 255.500,36.000 254.400 L 35.359 252.400 35.336 254.400 M332.444 258.844 C 332.143 260.450,332.057 261.923,332.252 262.119 C 332.448 262.315,332.854 261.161,333.156 259.556 C 333.457 257.950,333.543 256.477,333.348 256.281 C 333.152 256.085,332.746 257.239,332.444 258.844 M330.099 269.231 C 329.824 269.946,329.637 271.311,329.682 272.265 C 329.734 273.362,330.005 272.972,330.421 271.205 C 331.119 268.232,330.929 267.066,330.099 269.231 M39.225 273.600 C 39.225 274.260,39.573 275.340,40.000 276.000 C 40.689 277.067,40.775 277.067,40.775 276.000 C 40.775 275.340,40.427 274.260,40.000 273.600 C 39.311 272.533,39.225 272.533,39.225 273.600 M40.835 278.508 C 40.816 279.228,41.326 281.028,41.969 282.508 C 43.479 285.988,43.517 284.546,42.023 280.400 C 41.389 278.640,40.854 277.789,40.835 278.508 M326.099 284.431 C 325.824 285.146,325.631 286.331,325.669 287.065 C 325.707 287.799,326.055 287.338,326.442 286.040 C 327.196 283.515,326.930 282.266,326.099 284.431 M44.831 290.908 C 44.814 291.408,45.326 293.028,45.969 294.508 C 46.611 295.989,47.151 296.791,47.169 296.292 C 47.186 295.792,46.674 294.172,46.031 292.692 C 45.389 291.211,44.849 290.409,44.831 290.908 M321.333 298.533 C 320.609 300.376,320.148 302.015,320.308 302.175 C 320.469 302.335,321.200 300.967,321.933 299.133 C 322.667 297.300,323.128 295.661,322.958 295.492 C 322.788 295.322,322.057 296.691,321.333 298.533 M316.930 309.234 C 315.590 312.176,315.845 312.804,317.295 310.129 C 317.971 308.880,318.376 307.709,318.193 307.526 C 318.010 307.343,317.441 308.112,316.930 309.234 M312.123 319.323 C 311.153 321.140,310.484 322.751,310.637 322.903 C 310.789 323.056,311.707 321.694,312.677 319.877 C 313.647 318.060,314.316 316.449,314.163 316.297 C 314.011 316.144,313.093 317.506,312.123 319.323 M58.457 324.400 C 58.457 324.840,58.971 326.100,59.600 327.200 C 60.229 328.300,60.743 328.840,60.743 328.400 C 60.743 327.960,60.229 326.700,59.600 325.600 C 58.971 324.500,58.457 323.960,58.457 324.400 M308.047 326.901 C 307.105 328.496,306.466 329.932,306.625 330.092 C 306.785 330.251,307.722 328.946,308.709 327.191 C 310.949 323.205,310.376 322.953,308.047 326.901 M299.706 340.200 L 298.267 342.800 299.915 340.800 C 301.378 339.026,302.027 337.600,301.372 337.600 C 301.247 337.600,300.497 338.770,299.706 340.200 M68.091 343.991 C 69.078 345.746,70.015 347.051,70.175 346.892 C 70.519 346.548,67.211 340.800,66.670 340.800 C 66.465 340.800,67.105 342.236,68.091 343.991 M294.974 346.431 C 293.750 348.134,290.886 351.614,288.609 354.164 C 286.333 356.714,285.658 357.720,287.109 356.400 C 290.170 353.616,297.936 344.069,297.497 343.631 C 297.334 343.468,296.198 344.727,294.974 346.431 M274.400 368.108 L 270.800 371.369 274.189 368.826 C 277.136 366.614,279.028 364.748,278.247 364.824 C 278.111 364.837,276.380 366.315,274.400 368.108 M84.800 367.645 C 84.800 368.465,93.201 376.833,96.800 379.598 C 97.900 380.443,96.190 378.690,93.000 375.703 C 89.810 372.715,86.660 369.499,86.000 368.557 C 85.340 367.615,84.800 367.204,84.800 367.645 M252.800 382.436 C 250.820 383.720,249.471 384.777,249.802 384.785 C 250.134 384.793,252.114 383.727,254.202 382.415 C 256.291 381.104,257.640 380.047,257.200 380.067 C 256.760 380.086,254.780 381.153,252.800 382.436 M102.400 383.639 C 102.400 384.226,107.298 386.501,108.017 386.249 C 108.407 386.112,107.303 385.397,105.563 384.659 C 103.823 383.922,102.400 383.463,102.400 383.639 M246.200 386.058 C 243.209 387.680,243.391 388.356,246.400 386.800 C 247.720 386.117,248.800 385.388,248.800 385.179 C 248.800 384.665,248.714 384.694,246.200 386.058 M227.200 394.800 C 224.587 396.294,225.501 396.310,228.908 394.831 C 230.389 394.189,231.060 393.661,230.400 393.660 C 229.740 393.658,228.300 394.171,227.200 394.800 M205.400 399.786 C 207.270 399.954,210.330 399.954,212.200 399.786 C 214.070 399.617,212.540 399.480,208.800 399.480 C 205.060 399.480,203.530 399.617,205.400 399.786 " stroke="none" fill="#81523b" fill-rule="evenodd"></path></g></svg>