<svg id="svg" version="1.1" width="500" height="509" xmlns="http://www.w3.org/2000/svg" xmlns:xlink="http://www.w3.org/1999/xlink" style="display: block;"><g id="svgg"><path id="path0" d="M79.200 12.136 C 76.340 12.542,73.873 13.238,73.718 13.682 C 73.563 14.127,72.573 15.354,71.518 16.409 C 70.463 17.464,69.600 18.862,69.600 19.516 C 69.600 20.170,69.240 20.928,68.800 21.200 C 68.360 21.472,68.000 22.393,68.000 23.247 C 68.000 24.101,67.640 24.800,67.200 24.800 C 66.760 24.800,66.400 25.520,66.400 26.400 C 66.400 27.280,66.040 28.000,65.600 28.000 C 65.160 28.000,64.800 28.545,64.800 29.211 C 64.800 29.877,64.470 31.047,64.067 31.811 C 62.603 34.586,60.800 39.063,60.800 39.921 C 60.800 40.404,60.440 40.800,60.000 40.800 C 59.560 40.800,59.200 41.520,59.200 42.400 C 59.200 43.280,58.840 44.000,58.400 44.000 C 57.960 44.000,57.600 44.545,57.600 45.211 C 57.600 46.326,56.149 49.457,55.195 50.400 C 53.897 51.684,50.400 56.809,50.400 57.428 C 50.400 57.832,49.320 59.293,48.000 60.674 C 46.680 62.055,45.600 63.519,45.600 63.926 C 45.600 64.333,45.325 64.787,44.990 64.933 C 44.072 65.335,38.400 73.484,38.400 74.402 C 38.400 74.841,38.118 75.200,37.772 75.200 C 37.427 75.200,36.515 76.267,35.744 77.571 C 34.974 78.875,33.907 80.405,33.372 80.971 C 31.547 82.903,28.000 87.892,27.985 88.547 C 27.972 89.155,26.150 91.551,21.801 96.679 C 20.812 97.845,20.002 99.250,20.001 99.800 C 20.000 100.350,19.664 100.800,19.254 100.800 C 18.844 100.800,18.305 101.430,18.058 102.200 C 17.810 102.970,16.528 104.860,15.209 106.400 C 11.041 111.266,9.044 115.727,10.204 117.584 C 12.189 120.761,11.575 174.826,9.522 177.710 C 7.710 180.254,7.887 182.972,10.001 185.087 C 11.051 186.137,11.200 196.966,11.200 272.467 L 11.200 358.649 13.219 361.296 C 15.683 364.527,21.449 367.283,28.200 368.457 C 29.850 368.743,31.200 369.298,31.200 369.689 C 31.200 370.080,32.079 370.400,33.153 370.400 C 34.227 370.400,35.328 370.760,35.600 371.200 C 35.872 371.640,36.973 372.000,38.047 372.000 C 39.121 372.000,40.000 372.360,40.000 372.800 C 40.000 373.240,40.725 373.600,41.611 373.600 C 42.497 373.600,43.847 373.918,44.611 374.307 C 47.081 375.563,49.861 376.558,57.200 378.812 C 64.649 381.101,67.411 382.084,69.789 383.293 C 70.553 383.682,71.903 384.000,72.789 384.000 C 73.675 384.000,74.400 384.360,74.400 384.800 C 74.400 385.240,75.103 385.600,75.962 385.600 C 76.822 385.600,78.532 386.005,79.762 386.500 C 80.993 386.994,82.720 387.686,83.600 388.036 C 87.222 389.477,93.180 391.200,94.543 391.200 C 95.344 391.200,96.000 391.560,96.000 392.000 C 96.000 392.440,96.879 392.800,97.953 392.800 C 99.027 392.800,100.128 393.160,100.400 393.600 C 100.672 394.040,101.598 394.400,102.458 394.400 C 103.318 394.400,104.647 394.718,105.411 395.107 C 108.261 396.557,110.980 397.574,117.600 399.666 C 121.340 400.848,125.025 402.127,125.789 402.508 C 127.656 403.438,150.856 403.395,152.611 402.458 C 153.375 402.050,163.360 401.305,174.800 400.801 C 194.569 399.930,202.560 399.449,228.400 397.574 C 234.560 397.127,244.280 396.570,250.000 396.336 C 255.720 396.102,260.742 395.571,261.160 395.155 C 261.578 394.740,266.507 394.400,272.113 394.400 C 278.045 394.400,282.512 394.066,282.800 393.600 C 283.087 393.136,287.459 392.800,293.200 392.800 C 298.941 392.800,303.313 392.464,303.600 392.000 C 303.882 391.544,308.114 391.185,313.447 391.165 C 318.591 391.146,327.660 390.768,333.600 390.325 C 339.540 389.882,349.620 389.198,356.000 388.807 C 370.057 387.944,372.577 387.471,374.970 385.252 L 376.825 383.533 376.417 335.566 C 376.056 292.992,375.552 255.843,373.984 156.200 C 373.713 138.961,373.241 128.000,372.770 128.000 C 372.347 128.000,372.000 127.306,372.000 126.457 C 372.000 125.609,371.550 124.439,371.000 123.857 C 370.450 123.276,369.489 121.810,368.865 120.600 C 368.240 119.390,367.430 118.400,367.065 118.400 C 366.699 118.400,366.400 118.025,366.400 117.567 C 366.400 117.108,365.680 115.960,364.800 115.016 C 363.920 114.071,363.200 112.826,363.200 112.249 C 363.200 111.672,362.840 111.200,362.400 111.200 C 361.960 111.200,361.600 110.832,361.600 110.383 C 361.600 109.658,357.862 103.433,356.806 102.400 C 356.581 102.180,355.887 101.010,355.264 99.800 C 354.640 98.590,353.830 97.600,353.465 97.600 C 353.099 97.600,352.800 97.225,352.800 96.766 C 352.800 96.308,352.438 95.498,351.996 94.966 C 350.207 92.817,344.000 83.226,344.000 82.612 C 344.000 82.250,343.280 81.434,342.400 80.800 C 341.520 80.166,340.800 79.006,340.800 78.223 C 340.800 77.441,340.497 76.800,340.126 76.800 C 339.755 76.800,338.773 75.540,337.944 74.000 C 337.115 72.460,336.158 71.200,335.818 71.200 C 335.478 71.200,335.200 70.815,335.200 70.344 C 335.200 69.523,330.651 62.427,329.594 61.600 C 329.313 61.380,328.836 60.660,328.535 60.000 C 327.038 56.725,324.380 53.005,322.307 51.284 C 320.960 50.165,320.000 48.584,320.000 47.484 C 320.000 46.448,319.640 45.600,319.200 45.600 C 318.760 45.600,318.400 44.880,318.400 44.000 C 318.400 43.120,318.040 42.400,317.600 42.400 C 317.160 42.400,316.800 41.692,316.800 40.827 C 316.800 39.409,315.378 35.521,313.502 31.811 C 313.116 31.047,312.800 29.877,312.800 29.211 C 312.800 28.545,312.440 28.000,312.000 28.000 C 311.560 28.000,311.200 27.280,311.200 26.400 C 311.200 25.520,310.840 24.800,310.400 24.800 C 309.960 24.800,309.600 23.900,309.600 22.800 C 309.600 21.700,309.240 20.800,308.800 20.800 C 308.360 20.800,308.000 20.080,308.000 19.200 C 308.000 18.320,307.640 17.600,307.200 17.600 C 306.760 17.600,306.400 16.945,306.400 16.144 C 306.400 15.344,305.497 13.904,304.394 12.944 L 302.388 11.200 193.394 11.299 C 131.712 11.355,82.143 11.718,79.200 12.136 M301.190 27.800 C 302.829 31.650,304.629 35.880,305.190 37.200 C 307.542 42.734,309.040 46.136,310.087 48.323 C 313.028 54.463,313.264 54.403,286.135 54.385 C 273.741 54.377,244.880 54.751,222.000 55.216 C 94.940 57.798,93.600 57.784,93.600 53.865 C 93.600 53.267,93.261 52.153,92.846 51.389 C 92.431 50.625,90.779 46.400,89.175 42.000 C 85.173 31.027,83.741 27.412,82.251 24.522 C 81.832 23.709,81.724 22.809,82.010 22.522 C 82.757 21.774,135.981 21.193,222.905 20.982 L 298.210 20.800 301.190 27.800 M78.384 33.800 C 78.921 35.230,79.653 37.120,80.008 38.000 C 83.430 46.465,88.000 58.555,88.000 59.142 C 88.000 59.546,89.815 63.744,92.033 68.471 C 96.985 79.022,96.981 79.081,91.200 81.426 C 90.100 81.872,87.858 82.827,86.217 83.548 C 84.577 84.269,80.797 85.774,77.817 86.892 C 74.838 88.011,71.140 89.474,69.600 90.145 C 68.060 90.815,66.080 91.650,65.200 92.000 C 64.320 92.350,62.340 93.177,60.800 93.838 C 59.260 94.498,54.220 96.542,49.600 98.380 C 39.220 102.509,38.894 102.644,34.105 104.769 C 29.264 106.917,26.962 106.435,29.380 103.779 C 30.270 102.801,37.899 92.280,46.333 80.400 C 54.766 68.520,62.174 58.187,62.794 57.437 C 63.844 56.168,67.838 48.023,73.209 36.200 C 75.766 30.574,76.962 30.019,78.384 33.800 M317.248 61.412 C 318.330 62.162,339.200 93.535,339.200 94.411 C 339.200 94.772,339.488 95.187,339.841 95.333 C 341.260 95.924,363.502 130.996,364.109 133.600 C 364.856 136.804,365.051 193.882,364.318 194.616 C 364.052 194.881,363.062 194.827,362.118 194.495 C 360.426 193.902,348.764 194.321,322.000 195.939 C 314.520 196.391,302.280 197.118,294.800 197.555 C 287.320 197.991,271.840 198.910,260.400 199.596 C 235.351 201.097,215.346 202.261,197.600 203.247 C 190.340 203.650,178.280 204.360,170.800 204.823 C 141.981 206.608,133.493 206.841,132.687 205.867 C 132.214 205.295,131.968 191.852,132.051 171.055 L 132.186 137.175 127.615 127.587 C 125.102 122.314,122.220 116.200,121.213 114.000 C 120.205 111.800,117.360 105.765,114.890 100.589 C 112.421 95.413,110.400 91.012,110.400 90.809 C 110.400 90.607,108.278 86.022,105.685 80.621 C 98.956 66.606,98.255 64.791,99.426 64.426 C 100.557 64.074,130.495 63.522,207.098 62.442 C 237.182 62.018,261.992 61.475,262.231 61.235 C 262.897 60.570,316.280 60.742,317.248 61.412 M101.743 89.604 C 103.055 92.191,109.938 106.801,113.802 115.200 C 114.713 117.180,117.020 122.171,118.929 126.291 C 122.407 133.797,123.030 136.000,121.673 136.000 C 121.041 136.000,102.953 131.977,87.200 128.333 C 81.821 127.088,77.788 126.175,71.600 124.800 C 69.620 124.360,66.470 123.656,64.600 123.235 C 62.730 122.814,58.860 121.949,56.000 121.313 C 53.140 120.676,47.560 119.424,43.600 118.531 C 39.640 117.637,35.230 116.673,33.800 116.389 C 30.099 115.654,30.583 114.046,35.000 112.407 C 37.090 111.632,40.060 110.466,41.600 109.817 C 43.140 109.168,45.210 108.314,46.200 107.918 C 47.190 107.523,48.810 106.877,49.800 106.482 C 50.790 106.086,52.860 105.215,54.400 104.546 C 55.940 103.877,60.080 102.202,63.600 100.825 C 67.120 99.448,71.526 97.619,73.391 96.761 C 75.256 95.902,77.254 95.200,77.831 95.200 C 78.408 95.200,79.222 94.886,79.640 94.503 C 80.058 94.120,84.000 92.448,88.400 90.787 C 92.800 89.126,96.753 87.449,97.183 87.060 C 98.585 85.795,100.297 86.750,101.743 89.604 M32.000 123.589 C 35.300 124.298,39.260 125.203,40.800 125.601 C 42.340 125.999,44.680 126.540,46.000 126.805 C 49.031 127.412,53.871 128.490,58.000 129.478 C 59.760 129.898,62.820 130.596,64.800 131.028 C 76.139 133.500,88.257 136.196,92.800 137.256 C 95.660 137.924,99.440 138.789,101.200 139.179 C 102.960 139.569,106.020 140.261,108.000 140.717 C 109.980 141.172,114.205 142.145,117.390 142.878 C 125.399 144.722,124.848 142.185,124.610 176.094 C 124.373 209.870,125.073 206.829,118.000 204.808 C 116.240 204.305,113.540 203.581,112.000 203.200 C 110.460 202.819,107.940 202.152,106.400 201.719 C 104.860 201.286,98.920 199.686,93.200 198.163 C 83.902 195.688,75.500 193.397,67.200 191.073 C 65.660 190.641,63.500 190.098,62.400 189.864 C 61.300 189.631,58.060 188.776,55.200 187.965 C 49.385 186.315,40.026 183.800,31.600 181.623 C 24.007 179.661,21.909 178.758,21.309 177.196 C 20.267 174.480,20.730 122.560,21.800 122.150 C 22.949 121.709,23.806 121.830,32.000 123.589 M325.422 126.045 C 325.177 126.289,318.547 126.843,310.689 127.275 C 296.909 128.033,286.432 128.667,260.000 130.343 C 253.180 130.775,241.660 131.500,234.400 131.953 C 227.140 132.406,212.560 133.333,202.000 134.012 C 191.440 134.691,176.500 135.578,168.800 135.984 C 153.318 136.800,151.457 137.130,150.808 139.174 C 149.386 143.656,151.345 144.163,166.271 143.173 C 178.028 142.394,186.616 141.859,218.000 139.954 C 225.040 139.526,236.200 138.832,242.800 138.412 C 255.800 137.585,273.448 136.469,292.400 135.277 C 299.000 134.861,311.060 134.138,319.200 133.670 C 341.872 132.364,343.259 131.975,341.531 127.400 C 340.874 125.660,326.976 124.491,325.422 126.045 M33.600 189.649 C 36.900 190.593,40.500 191.535,41.600 191.743 C 42.700 191.951,44.320 192.426,45.200 192.800 C 46.080 193.174,47.700 193.662,48.800 193.884 C 49.900 194.107,52.060 194.646,53.600 195.083 C 55.140 195.520,61.440 197.189,67.600 198.793 C 73.760 200.397,79.880 202.024,81.200 202.409 C 84.987 203.515,88.439 204.454,100.000 207.525 C 119.987 212.833,122.320 213.501,123.963 214.380 C 125.781 215.353,126.632 308.068,124.833 309.179 C 124.190 309.577,116.623 307.807,106.000 304.775 C 99.886 303.030,96.990 302.243,94.400 301.624 C 91.689 300.976,88.658 300.158,76.000 296.658 C 72.700 295.745,68.827 294.824,67.393 294.611 C 65.959 294.398,64.587 293.903,64.345 293.512 C 64.103 293.120,63.044 292.800,61.990 292.800 C 60.937 292.800,59.248 292.475,58.238 292.078 C 56.443 291.373,53.151 290.473,36.000 285.999 C 31.380 284.794,26.160 283.348,24.400 282.785 L 21.200 281.762 20.992 235.481 C 20.878 210.026,20.975 188.703,21.207 188.097 C 21.717 186.764,24.913 187.164,33.600 189.649 M365.076 203.000 C 366.071 210.810,366.699 298.121,365.765 298.698 C 365.275 299.001,358.467 299.615,350.637 300.062 C 327.773 301.367,310.143 302.385,296.000 303.214 C 283.636 303.940,277.621 304.301,244.000 306.342 C 227.541 307.341,208.027 308.480,188.800 309.565 C 180.660 310.024,168.661 310.760,162.136 311.200 C 155.611 311.640,146.400 312.000,141.667 312.000 L 133.061 312.000 132.531 276.600 C 132.240 257.130,132.002 235.341,132.001 228.180 L 132.000 215.160 134.119 214.355 C 135.285 213.911,140.235 213.375,145.119 213.163 C 150.004 212.951,159.040 212.433,165.200 212.012 C 177.578 211.167,194.414 210.172,226.400 208.396 C 251.166 207.021,272.019 205.798,281.600 205.157 C 285.340 204.907,294.430 204.365,301.800 203.951 C 316.664 203.118,336.884 201.924,351.736 201.004 C 357.090 200.672,361.740 200.130,362.069 199.800 C 363.548 198.315,364.625 199.462,365.076 203.000 M30.000 291.889 C 31.760 292.332,34.460 293.053,36.000 293.492 C 37.540 293.930,41.500 295.005,44.800 295.880 C 53.737 298.248,68.967 302.378,75.200 304.123 C 76.740 304.554,79.260 305.207,80.800 305.574 C 82.340 305.941,86.480 307.024,90.000 307.981 C 93.520 308.938,100.360 310.766,105.200 312.044 C 114.020 314.371,115.880 314.894,122.200 316.820 L 125.600 317.856 125.600 354.528 C 125.600 386.064,125.437 391.200,124.438 391.200 C 123.382 391.200,121.881 390.688,117.200 388.732 C 116.320 388.364,110.200 386.265,103.600 384.068 C 97.000 381.870,85.840 378.052,78.800 375.583 C 71.760 373.114,63.300 370.203,60.000 369.114 C 56.700 368.024,53.280 366.818,52.400 366.434 C 51.520 366.049,45.760 364.065,39.600 362.023 C 29.030 358.521,26.036 357.425,23.200 356.020 C 22.168 355.509,21.971 350.864,21.791 322.824 L 21.582 290.223 24.191 290.654 C 25.626 290.891,28.240 291.446,30.000 291.889 M366.705 320.253 C 367.988 357.541,367.826 376.837,366.221 377.696 C 365.392 378.139,359.063 378.856,352.157 379.288 C 345.251 379.720,334.740 380.414,328.800 380.828 C 322.860 381.243,312.960 381.920,306.800 382.333 C 300.640 382.746,292.900 383.293,289.600 383.549 C 286.300 383.805,275.140 384.550,264.800 385.205 C 254.460 385.861,243.660 386.607,240.800 386.863 C 237.940 387.119,230.200 387.676,223.600 388.100 C 211.024 388.908,198.078 389.781,178.000 391.174 C 171.400 391.632,160.960 392.346,154.800 392.761 C 148.640 393.175,141.568 393.760,139.083 394.061 C 132.445 394.863,132.751 396.806,132.992 355.437 L 133.200 319.600 143.200 319.056 C 148.700 318.757,160.040 318.105,168.400 317.608 C 176.760 317.111,189.540 316.361,196.800 315.941 C 204.060 315.522,215.940 314.821,223.200 314.384 C 244.086 313.128,260.915 312.127,275.600 311.268 C 283.080 310.830,295.500 310.099,303.200 309.644 C 310.900 309.189,327.100 308.264,339.200 307.589 C 351.300 306.913,361.920 306.264,362.800 306.145 C 366.105 305.698,366.219 306.108,366.705 320.253 " stroke="none" fill="#000000" fill-rule="evenodd"></path><path id="path1" d="M139.400 22.997 C 102.895 23.138,84.000 23.486,84.000 24.016 C 84.000 24.459,84.318 25.447,84.707 26.211 C 85.095 26.975,85.779 28.500,86.225 29.600 C 86.672 30.700,87.561 32.860,88.202 34.400 C 88.842 35.940,90.174 39.540,91.161 42.400 C 93.189 48.274,93.967 50.280,95.400 53.326 L 96.400 55.452 133.600 54.889 C 238.521 53.303,267.847 52.810,287.732 52.302 L 309.464 51.746 308.680 49.685 C 307.802 47.374,306.152 43.565,303.965 38.800 C 303.158 37.040,301.286 32.720,299.807 29.200 L 297.117 22.800 245.958 22.792 C 217.821 22.787,169.870 22.879,139.400 22.997 M360.621 202.046 C 360.376 202.291,353.026 202.861,344.288 203.314 C 328.476 204.133,316.356 204.818,291.200 206.316 C 283.940 206.748,271.520 207.470,263.600 207.920 C 255.680 208.370,240.020 209.306,228.800 209.999 C 208.704 211.241,194.753 212.060,165.600 213.709 C 157.460 214.169,147.020 214.783,142.400 215.073 L 134.000 215.600 134.283 262.800 C 134.439 288.760,134.826 310.279,135.144 310.620 C 135.461 310.961,140.013 310.889,145.260 310.459 C 150.507 310.029,161.820 309.284,170.400 308.804 C 178.980 308.323,191.683 307.565,198.629 307.119 C 205.576 306.674,218.536 305.930,227.429 305.466 C 245.611 304.519,261.376 303.640,280.800 302.490 C 288.060 302.060,300.300 301.351,308.000 300.914 C 315.700 300.477,324.340 299.922,327.200 299.681 C 330.060 299.439,339.746 298.816,348.725 298.295 L 365.050 297.347 364.527 276.474 C 364.239 264.993,364.003 243.450,364.002 228.600 C 364.000 200.556,363.787 198.880,360.621 202.046 M330.537 213.324 C 333.752 216.234,332.333 222.885,326.741 231.114 C 324.505 234.406,324.447 234.714,325.804 236.143 C 326.356 236.724,328.966 240.080,331.604 243.600 C 334.242 247.120,336.590 250.180,336.822 250.400 C 337.228 250.784,344.446 260.229,348.967 266.294 C 353.523 272.403,350.650 279.120,343.457 279.175 C 339.389 279.206,335.862 276.152,329.627 267.200 C 328.555 265.660,327.468 264.220,327.212 264.000 C 326.956 263.780,325.320 261.620,323.576 259.200 C 321.831 256.780,319.968 254.260,319.436 253.600 C 318.903 252.940,317.441 251.087,316.186 249.482 L 313.905 246.564 307.413 252.927 L 300.921 259.290 301.379 269.604 C 302.004 283.655,298.947 288.017,291.172 284.170 L 287.914 282.558 285.994 284.479 C 283.733 286.740,279.267 287.051,275.709 285.195 C 274.124 284.369,270.963 284.000,265.469 284.000 C 254.280 284.000,248.944 280.540,248.695 273.124 C 248.609 270.553,248.484 270.828,247.992 274.679 C 246.957 282.786,241.843 286.635,235.988 283.714 C 232.998 282.222,232.763 282.168,232.895 283.000 C 233.627 287.639,230.367 291.200,225.387 291.200 C 220.307 291.200,218.001 288.719,215.906 281.000 C 215.518 279.570,214.836 277.050,214.391 275.400 C 213.026 270.340,209.477 254.952,209.039 252.200 C 208.533 249.023,207.400 248.826,206.748 251.800 C 206.483 253.010,206.065 254.540,205.819 255.200 C 205.344 256.477,204.331 261.831,203.324 268.400 C 201.048 283.236,188.576 286.839,182.282 274.479 C 178.919 267.875,167.848 249.600,167.210 249.600 C 166.270 249.600,164.486 261.827,163.357 276.000 C 162.456 287.313,158.994 292.326,153.103 290.847 C 147.865 289.533,146.991 287.299,147.506 276.555 C 148.200 262.111,150.514 246.133,152.743 240.400 C 153.085 239.520,153.957 237.044,154.682 234.898 C 156.103 230.688,160.078 225.552,163.038 224.101 C 168.702 221.324,172.137 224.574,181.958 242.000 C 188.264 253.189,189.344 254.636,189.911 252.651 C 190.076 252.073,190.655 249.980,191.197 248.000 C 191.739 246.020,192.550 243.500,192.998 242.400 C 193.447 241.300,194.078 239.680,194.402 238.800 C 196.221 233.846,199.910 227.575,202.000 225.884 C 203.320 224.817,205.241 223.236,206.268 222.371 C 209.021 220.056,213.121 220.323,215.895 223.000 C 218.734 225.739,219.356 227.650,224.421 249.200 C 227.234 261.170,227.915 263.949,229.514 270.000 C 229.979 271.760,230.529 273.920,230.737 274.800 C 231.309 277.226,230.476 260.583,229.616 252.400 C 227.136 228.806,228.106 224.000,235.346 224.000 C 241.510 224.000,246.342 241.014,246.412 262.965 C 246.419 265.074,246.731 267.284,247.106 267.876 C 248.022 269.321,247.378 240.343,246.333 233.082 C 244.832 222.652,249.716 216.737,256.803 220.402 C 261.906 223.040,262.569 227.267,263.923 265.800 C 263.999 267.973,264.066 268.000,269.343 268.000 C 275.032 268.000,278.499 268.838,283.515 271.425 L 286.631 273.032 286.027 270.716 C 285.694 269.442,285.123 264.980,284.758 260.800 C 283.832 250.221,282.302 230.165,282.347 229.200 C 282.774 219.936,283.696 217.412,287.342 215.527 C 292.203 213.013,296.797 218.579,297.967 228.400 C 298.229 230.600,298.638 233.708,298.876 235.307 L 299.309 238.215 303.311 234.212 C 305.512 232.011,309.845 227.001,312.940 223.077 C 321.068 212.774,326.563 209.728,330.537 213.324 " stroke="none" fill="#ffffff" fill-rule="evenodd"></path><path id="path2" d="M115.066 21.582 C 83.294 21.990,80.306 22.226,82.253 24.173 C 82.982 24.902,83.200 24.807,83.200 23.760 C 83.200 22.503,85.789 22.391,117.400 22.287 C 136.210 22.225,172.840 21.935,198.800 21.644 L 246.000 21.113 196.800 21.139 C 169.740 21.153,132.960 21.353,115.066 21.582 M298.907 24.531 C 301.330 29.317,302.163 30.130,300.411 26.000 C 299.665 24.240,298.869 22.350,298.642 21.800 C 298.415 21.250,297.956 20.800,297.623 20.800 C 297.290 20.800,297.868 22.479,298.907 24.531 M73.209 36.200 C 67.838 48.023,63.844 56.168,62.794 57.437 C 62.174 58.187,54.766 68.520,46.333 80.400 C 37.899 92.280,30.270 102.801,29.380 103.779 C 26.962 106.435,29.264 106.917,34.105 104.769 C 38.894 102.644,39.220 102.509,49.600 98.380 C 54.220 96.542,59.260 94.498,60.800 93.838 C 62.340 93.177,64.320 92.350,65.200 92.000 C 66.080 91.650,68.060 90.815,69.600 90.145 C 71.140 89.474,74.838 88.011,77.817 86.892 C 80.797 85.774,84.577 84.269,86.217 83.548 C 87.858 82.827,90.100 81.872,91.200 81.426 C 96.981 79.081,96.985 79.022,92.033 68.471 C 89.815 63.744,88.000 59.546,88.000 59.142 C 88.000 58.555,83.430 46.465,80.008 38.000 C 79.653 37.120,78.921 35.230,78.384 33.800 C 76.962 30.019,75.766 30.574,73.209 36.200 M80.344 42.000 C 83.232 49.761,83.690 50.959,85.386 55.200 C 85.826 56.300,87.015 59.360,88.027 62.000 C 89.040 64.640,91.068 69.290,92.534 72.332 C 95.764 79.035,95.800 78.234,92.200 79.717 C 88.778 81.126,85.632 82.469,81.600 84.241 C 80.060 84.917,75.920 86.591,72.400 87.960 C 68.880 89.328,65.280 90.749,64.400 91.117 C 63.520 91.485,61.900 92.146,60.800 92.586 C 57.876 93.755,55.166 94.880,52.000 96.237 C 30.074 105.637,29.818 105.650,35.830 97.096 C 38.343 93.519,43.260 86.499,46.755 81.496 C 50.251 76.493,53.340 72.220,53.620 72.000 C 55.626 70.425,66.453 53.532,69.003 48.000 C 75.221 34.510,76.193 32.675,76.776 33.332 C 77.101 33.699,78.707 37.600,80.344 42.000 M88.515 39.997 C 88.800 41.095,89.701 43.435,90.518 45.197 C 91.334 46.959,91.770 47.501,91.485 46.403 C 91.200 45.305,90.299 42.965,89.482 41.203 C 88.666 39.441,88.230 38.899,88.515 39.997 M309.847 50.982 L 310.000 53.200 280.000 53.615 L 250.000 54.029 279.335 54.215 C 295.469 54.317,309.239 54.181,309.935 53.914 C 311.304 53.389,311.676 49.988,310.447 49.229 C 310.033 48.973,309.763 49.762,309.847 50.982 M93.632 53.676 C 93.569 56.202,96.372 57.715,100.515 57.391 L 104.400 57.088 100.226 56.944 C 96.565 56.818,95.904 56.529,94.858 54.600 C 94.125 53.250,93.652 52.893,93.632 53.676 M223.360 54.995 C 227.187 55.141,233.667 55.142,237.760 54.997 C 241.852 54.851,238.720 54.731,230.800 54.731 C 222.880 54.730,219.532 54.849,223.360 54.995 M136.800 56.002 C 128.660 56.253,141.620 56.305,165.600 56.118 C 189.580 55.931,209.350 55.648,209.533 55.489 C 210.015 55.071,154.256 55.465,136.800 56.002 M251.600 61.616 C 245.440 61.882,257.664 62.077,278.764 62.049 L 317.128 62.000 320.026 66.139 C 324.330 72.286,325.741 74.139,325.098 72.800 C 324.034 70.585,318.130 62.006,317.260 61.412 C 316.278 60.741,268.449 60.889,251.600 61.616 M154.800 63.241 C 146.880 63.514,157.680 63.574,178.800 63.374 C 199.920 63.175,217.350 62.874,217.533 62.706 C 218.016 62.263,171.740 62.658,154.800 63.241 M98.900 64.638 C 98.683 64.989,98.836 65.799,99.241 66.438 C 99.853 67.406,99.978 67.370,99.988 66.223 C 99.999 64.999,101.227 64.818,111.000 64.598 L 122.000 64.351 110.647 64.175 C 104.403 64.079,99.117 64.287,98.900 64.638 M100.000 68.251 C 100.000 69.292,106.548 82.518,106.893 82.174 C 107.088 81.978,105.808 78.840,104.047 75.199 C 100.951 68.796,100.000 67.164,100.000 68.251 M328.392 78.800 C 332.652 85.682,338.694 94.372,339.004 94.062 C 339.199 93.868,336.933 90.174,333.970 85.854 C 328.675 78.134,325.475 74.088,328.392 78.800 M107.267 83.600 C 107.267 84.040,107.957 85.660,108.800 87.200 C 109.643 88.740,110.333 89.640,110.333 89.200 C 110.333 88.760,109.643 87.140,108.800 85.600 C 107.957 84.060,107.267 83.160,107.267 83.600 M97.183 87.060 C 96.753 87.449,92.800 89.126,88.400 90.787 C 84.000 92.448,80.058 94.120,79.640 94.503 C 79.222 94.886,78.408 95.200,77.831 95.200 C 77.254 95.200,75.256 95.902,73.391 96.761 C 71.526 97.619,67.120 99.448,63.600 100.825 C 60.080 102.202,55.940 103.877,54.400 104.546 C 52.860 105.215,50.790 106.086,49.800 106.482 C 48.810 106.877,47.190 107.523,46.200 107.918 C 45.210 108.314,43.140 109.168,41.600 109.817 C 40.060 110.466,37.090 111.632,35.000 112.407 C 30.583 114.046,30.099 115.654,33.800 116.389 C 35.230 116.673,39.640 117.637,43.600 118.531 C 47.560 119.424,53.140 120.676,56.000 121.313 C 58.860 121.949,62.730 122.814,64.600 123.235 C 66.470 123.656,69.620 124.360,71.600 124.800 C 77.788 126.175,81.821 127.088,87.200 128.333 C 102.953 131.977,121.041 136.000,121.673 136.000 C 123.030 136.000,122.407 133.797,118.929 126.291 C 117.020 122.171,114.713 117.180,113.802 115.200 C 109.938 106.801,103.055 92.191,101.743 89.604 C 100.297 86.750,98.585 85.795,97.183 87.060 M103.993 97.000 C 106.350 101.950,109.672 109.012,111.375 112.693 C 113.078 116.374,115.896 122.396,117.636 126.076 C 120.813 132.795,121.312 134.412,120.200 134.386 C 119.544 134.371,113.385 133.045,101.600 130.383 C 93.216 128.490,88.828 127.532,85.200 126.805 C 83.880 126.540,81.540 125.989,80.000 125.581 C 78.460 125.172,72.160 123.731,66.000 122.379 C 59.840 121.027,52.460 119.383,49.600 118.725 C 42.545 117.103,38.423 116.179,35.800 115.630 C 32.352 114.908,33.135 114.134,39.800 111.673 C 43.210 110.414,47.620 108.677,49.600 107.812 C 53.207 106.238,55.238 105.401,58.600 104.107 C 59.590 103.726,61.300 103.017,62.400 102.531 C 63.500 102.046,67.280 100.528,70.800 99.160 C 74.320 97.791,78.460 96.123,80.000 95.454 C 81.540 94.785,83.520 93.950,84.400 93.600 C 85.280 93.250,87.365 92.362,89.034 91.628 C 93.113 89.833,97.807 88.125,98.854 88.056 C 99.324 88.025,101.636 92.050,103.993 97.000 M110.400 90.588 C 110.400 91.568,116.979 104.888,117.303 104.563 C 117.493 104.374,116.208 101.240,114.447 97.599 C 111.404 91.307,110.400 89.567,110.400 90.588 M339.777 96.200 C 340.202 96.750,344.051 102.510,348.329 109.000 C 352.608 115.490,356.300 120.800,356.533 120.800 C 356.766 120.800,356.292 119.778,355.479 118.528 C 354.665 117.279,350.940 111.534,347.200 105.761 C 343.460 99.988,340.086 95.250,339.702 95.232 C 339.318 95.215,339.352 95.650,339.777 96.200 M122.400 116.344 C 122.400 117.261,127.375 127.292,127.678 126.988 C 128.053 126.614,123.268 116.000,122.725 116.000 C 122.546 116.000,122.400 116.155,122.400 116.344 M21.800 122.150 C 20.730 122.560,20.267 174.480,21.309 177.196 C 21.909 178.758,24.007 179.661,31.600 181.623 C 40.026 183.800,49.385 186.315,55.200 187.965 C 58.060 188.776,61.300 189.631,62.400 189.864 C 63.500 190.098,65.660 190.641,67.200 191.073 C 75.500 193.397,83.902 195.688,93.200 198.163 C 98.920 199.686,104.860 201.286,106.400 201.719 C 107.940 202.152,110.460 202.819,112.000 203.200 C 113.540 203.581,116.240 204.305,118.000 204.808 C 125.073 206.829,124.373 209.870,124.610 176.094 C 124.848 142.185,125.399 144.722,117.390 142.878 C 114.205 142.145,109.980 141.172,108.000 140.717 C 106.020 140.261,102.960 139.569,101.200 139.179 C 99.440 138.789,95.660 137.924,92.800 137.256 C 88.257 136.196,76.139 133.500,64.800 131.028 C 62.820 130.596,59.760 129.898,58.000 129.478 C 53.871 128.490,49.031 127.412,46.000 126.805 C 44.680 126.540,42.340 125.999,40.800 125.601 C 37.703 124.801,26.910 122.453,24.400 122.034 C 23.520 121.886,22.350 121.939,21.800 122.150 M28.938 124.090 C 31.282 124.569,34.640 125.305,36.400 125.724 C 38.160 126.144,41.040 126.807,42.800 127.197 C 44.560 127.588,47.800 128.324,50.000 128.832 C 52.200 129.341,55.260 130.039,56.800 130.383 C 58.340 130.728,63.920 131.994,69.200 133.199 C 74.480 134.403,80.330 135.706,82.200 136.094 C 86.305 136.946,91.028 137.990,96.400 139.232 C 101.296 140.365,103.774 140.922,114.000 143.192 C 124.881 145.608,124.000 142.700,124.000 176.189 L 124.000 204.873 121.000 204.376 C 119.350 204.103,117.100 203.588,116.000 203.232 C 113.412 202.396,109.378 201.278,100.000 198.800 C 95.820 197.696,90.960 196.409,89.200 195.942 C 87.440 195.474,84.920 194.805,83.600 194.454 C 82.280 194.103,79.760 193.415,78.000 192.925 C 70.155 190.739,62.992 188.823,55.200 186.826 C 50.580 185.643,45.973 184.343,44.962 183.937 C 43.952 183.532,42.263 183.200,41.210 183.200 C 40.156 183.200,39.097 182.880,38.855 182.488 C 38.613 182.097,37.241 181.601,35.807 181.387 C 32.834 180.942,24.143 178.583,23.096 177.936 C 22.305 177.447,22.125 123.742,22.912 122.955 C 23.193 122.674,23.705 122.618,24.050 122.831 C 24.394 123.044,26.594 123.610,28.938 124.090 M333.414 125.380 C 334.852 125.558,337.012 125.554,338.214 125.372 C 339.416 125.189,338.240 125.043,335.600 125.048 C 332.960 125.052,331.976 125.202,333.414 125.380 M310.400 126.400 L 303.600 126.902 310.800 126.981 C 314.760 127.024,319.800 126.779,322.000 126.437 L 326.000 125.814 321.600 125.856 C 319.180 125.879,314.140 126.124,310.400 126.400 M341.495 127.323 C 342.445 129.821,341.303 131.969,338.960 132.093 C 337.518 132.169,337.464 132.254,338.660 132.563 C 341.896 133.400,344.525 128.495,341.975 126.379 C 340.906 125.492,340.845 125.613,341.495 127.323 M361.712 129.381 C 363.536 132.332,363.558 132.681,363.874 163.066 L 364.193 193.770 361.897 193.342 C 360.633 193.107,355.100 193.204,349.600 193.558 L 339.600 194.201 350.800 194.195 C 356.960 194.191,362.540 194.325,363.200 194.494 C 364.251 194.762,364.400 190.936,364.400 163.600 L 364.400 132.400 362.535 129.400 C 361.509 127.750,360.490 126.400,360.270 126.400 C 360.050 126.400,360.699 127.742,361.712 129.381 M284.400 128.000 L 276.400 128.490 284.800 128.586 C 289.420 128.638,294.820 128.393,296.800 128.041 L 300.400 127.400 296.400 127.455 C 294.200 127.485,288.800 127.730,284.400 128.000 M258.400 129.623 C 253.340 129.930,241.820 130.623,232.800 131.162 C 223.780 131.702,216.220 132.326,216.000 132.550 C 215.483 133.076,236.463 132.117,246.685 131.148 C 251.021 130.737,257.501 130.368,261.085 130.330 C 264.668 130.291,269.400 129.979,271.600 129.637 L 275.600 129.014 271.600 129.039 C 269.400 129.052,263.460 129.315,258.400 129.623 M129.634 131.313 C 129.615 131.595,130.312 133.395,131.182 135.313 C 132.053 137.231,132.758 138.260,132.749 137.600 C 132.733 136.425,129.700 130.303,129.634 131.313 M195.600 133.600 L 190.800 134.131 195.600 134.176 C 198.240 134.201,203.820 133.959,208.000 133.640 L 215.600 133.059 208.000 133.064 C 203.820 133.067,198.240 133.308,195.600 133.600 M317.200 133.661 C 311.920 133.995,300.979 134.649,292.886 135.115 C 284.793 135.580,277.953 136.190,277.686 136.470 C 277.419 136.750,280.980 136.751,285.600 136.473 C 328.717 133.876,340.394 133.011,332.000 133.037 C 329.140 133.046,322.480 133.327,317.200 133.661 M170.400 135.200 L 165.200 135.724 170.800 135.757 C 173.880 135.776,179.100 135.536,182.400 135.225 L 188.400 134.659 182.000 134.667 C 178.480 134.672,173.260 134.912,170.400 135.200 M151.200 137.600 C 146.310 142.490,150.789 145.256,161.791 144.139 L 170.000 143.305 161.477 143.673 C 154.401 143.978,152.738 143.824,151.677 142.763 C 149.054 140.139,150.469 137.810,155.258 136.870 L 158.800 136.175 155.800 136.088 C 153.780 136.029,152.278 136.522,151.200 137.600 M255.600 137.615 C 253.840 137.939,257.440 138.018,263.600 137.792 C 269.760 137.565,274.950 137.249,275.133 137.090 C 275.740 136.562,258.861 137.016,255.600 137.615 M230.400 139.232 C 228.420 139.557,231.660 139.636,237.600 139.407 C 243.540 139.178,248.550 138.858,248.733 138.695 C 249.321 138.174,234.131 138.619,230.400 139.232 M204.400 140.800 L 200.400 141.349 205.200 141.381 C 207.840 141.399,212.340 141.150,215.200 140.828 L 220.400 140.244 214.400 140.248 C 211.100 140.250,206.600 140.498,204.400 140.800 M178.400 142.400 L 173.200 142.924 179.200 142.975 C 182.500 143.003,187.360 142.758,190.000 142.431 L 194.800 141.835 189.200 141.856 C 186.120 141.867,181.260 142.112,178.400 142.400 M132.190 173.702 C 132.014 203.076,132.103 205.485,133.400 206.502 C 134.638 207.473,134.685 207.453,133.809 206.329 C 133.069 205.380,132.763 197.093,132.600 173.529 L 132.381 142.000 132.190 173.702 M21.207 188.097 C 20.127 190.918,21.194 281.865,22.311 282.237 C 22.923 282.441,23.216 282.274,22.964 281.866 C 21.946 280.219,22.135 188.488,23.157 188.148 C 24.020 187.860,33.440 190.131,39.200 192.016 C 43.025 193.267,45.738 193.671,45.274 192.920 C 45.022 192.511,43.641 192.003,42.207 191.790 C 40.773 191.577,36.900 190.622,33.600 189.668 C 24.960 187.169,21.719 186.758,21.207 188.097 M48.400 194.400 C 50.792 195.428,52.790 195.428,51.200 194.400 C 50.540 193.973,49.280 193.644,48.400 193.668 L 46.800 193.712 48.400 194.400 M320.400 195.227 C 315.120 195.535,303.251 196.213,294.025 196.735 C 284.799 197.256,277.059 197.874,276.825 198.108 C 276.302 198.631,296.567 197.740,308.000 196.738 C 312.620 196.333,319.460 195.965,323.200 195.922 C 326.940 195.878,331.980 195.568,334.400 195.234 L 338.800 194.625 334.400 194.646 C 331.980 194.658,325.680 194.919,320.400 195.227 M54.000 196.000 C 56.392 197.028,58.390 197.028,56.800 196.000 C 56.140 195.573,54.880 195.244,54.000 195.268 L 52.400 195.312 54.000 196.000 M60.000 197.600 C 60.660 198.027,61.920 198.356,62.800 198.332 L 64.400 198.288 62.800 197.600 C 60.408 196.572,58.410 196.572,60.000 197.600 M64.800 198.735 C 64.800 198.920,66.330 199.425,68.200 199.858 C 70.070 200.292,74.434 201.417,77.897 202.359 C 81.360 203.302,84.373 203.894,84.591 203.675 C 84.810 203.457,83.956 203.050,82.694 202.772 C 81.432 202.494,79.860 202.084,79.200 201.861 C 73.209 199.839,64.800 198.013,64.800 198.735 M253.600 199.239 C 250.740 199.549,254.160 199.622,261.200 199.401 C 268.240 199.181,274.150 198.865,274.333 198.700 C 274.869 198.218,259.288 198.623,253.600 199.239 M361.600 200.088 C 360.617 200.795,360.678 200.860,361.936 200.448 C 362.818 200.160,363.750 200.383,364.124 200.973 C 364.603 201.728,364.779 201.630,364.788 200.600 C 364.802 199.023,363.395 198.797,361.600 200.088 M226.800 200.800 L 221.200 201.317 226.800 201.379 C 229.880 201.413,235.460 201.173,239.200 200.844 L 246.000 200.248 239.200 200.265 C 235.460 200.275,229.880 200.515,226.800 200.800 M342.000 201.617 C 340.240 201.941,343.300 202.021,348.800 201.794 C 354.300 201.566,358.950 201.250,359.133 201.090 C 359.733 200.568,345.281 201.012,342.000 201.617 M200.000 202.400 L 194.000 202.912 200.400 202.969 C 203.920 203.001,208.960 202.758,211.600 202.431 L 216.400 201.835 211.200 201.862 C 208.340 201.876,203.300 202.119,200.000 202.400 M315.200 203.213 C 313.660 203.544,316.540 203.627,321.600 203.397 C 326.660 203.167,330.950 202.849,331.133 202.690 C 331.750 202.154,318.029 202.604,315.200 203.213 M172.000 204.000 L 165.200 204.502 172.800 204.605 C 176.980 204.661,181.840 204.410,183.600 204.046 L 186.800 203.384 182.800 203.441 C 180.600 203.472,175.740 203.724,172.000 204.000 M85.667 204.287 C 85.850 204.446,87.080 204.816,88.400 205.112 C 90.153 205.504,90.476 205.430,89.600 204.837 C 88.520 204.106,84.864 203.595,85.667 204.287 M288.000 204.835 C 286.020 205.162,288.720 205.242,294.000 205.012 C 299.280 204.782,303.750 204.461,303.933 204.297 C 304.511 203.783,291.767 204.213,288.000 204.835 M144.400 205.600 L 136.400 206.090 145.200 206.186 C 150.040 206.238,155.620 205.993,157.600 205.641 L 161.200 205.000 156.800 205.055 C 154.380 205.085,148.800 205.330,144.400 205.600 M365.487 251.269 L 365.858 298.139 357.929 299.006 L 350.000 299.872 357.540 299.497 C 361.687 299.290,365.377 298.938,365.740 298.713 C 366.499 298.244,366.437 245.137,365.648 220.800 C 365.356 211.780,365.283 225.491,365.487 251.269 M92.800 206.400 C 95.535 207.276,97.639 207.276,95.600 206.400 C 94.720 206.022,93.280 205.723,92.400 205.736 C 91.114 205.755,91.192 205.885,92.800 206.400 M260.800 206.400 L 255.600 206.924 260.400 206.957 C 263.040 206.976,267.900 206.736,271.200 206.425 L 277.200 205.859 271.600 205.867 C 268.520 205.872,263.660 206.112,260.800 206.400 M98.800 208.000 C 99.680 208.378,101.120 208.688,102.000 208.688 L 103.600 208.688 102.000 208.000 C 101.120 207.622,99.680 207.312,98.800 207.312 L 97.200 207.312 98.800 208.000 M232.800 208.000 L 226.000 208.502 232.400 208.552 C 235.920 208.579,241.320 208.343,244.400 208.027 L 250.000 207.452 244.800 207.475 C 241.940 207.488,236.540 207.724,232.800 208.000 M104.203 209.270 C 104.462 209.528,105.872 210.044,107.337 210.415 C 119.927 213.605,122.648 214.410,123.651 215.242 C 124.787 216.185,125.514 308.800,124.385 308.800 C 123.938 308.800,113.132 305.983,109.200 304.841 C 104.940 303.603,101.990 303.056,102.538 303.605 C 102.833 303.899,104.272 304.437,105.737 304.800 C 107.201 305.163,111.925 306.404,116.233 307.557 C 120.542 308.710,124.412 309.440,124.833 309.179 C 125.308 308.886,125.600 290.896,125.600 261.940 L 125.600 215.174 123.000 214.051 C 118.226 211.987,103.065 208.132,104.203 209.270 M204.800 209.600 L 196.400 210.087 204.000 210.150 C 208.180 210.185,213.940 209.950,216.800 209.628 L 222.000 209.044 217.600 209.079 C 215.180 209.098,209.420 209.332,204.800 209.600 M189.011 210.974 C 190.227 211.158,192.027 211.153,193.011 210.963 C 193.995 210.773,193.000 210.623,190.800 210.629 C 188.600 210.635,187.795 210.790,189.011 210.974 M165.200 211.992 C 163.000 212.290,166.600 212.364,173.200 212.156 C 179.800 211.948,185.350 211.648,185.533 211.489 C 186.093 211.004,169.465 211.416,165.200 211.992 M138.400 213.606 C 136.420 213.918,139.660 213.994,145.600 213.775 C 151.540 213.557,156.550 213.248,156.733 213.089 C 157.312 212.587,142.163 213.015,138.400 213.606 M132.363 215.408 C 132.150 215.963,132.072 227.393,132.189 240.808 L 132.402 265.200 132.801 239.800 C 133.020 225.829,133.099 214.399,132.975 214.400 C 132.851 214.400,132.576 214.854,132.363 215.408 M24.939 282.806 C 25.634 283.501,37.771 286.495,38.191 286.075 C 38.410 285.857,37.556 285.443,36.294 285.156 C 35.032 284.868,32.225 284.131,30.055 283.517 C 25.938 282.352,24.250 282.117,24.939 282.806 M40.400 287.200 C 41.280 287.578,42.720 287.888,43.600 287.888 L 45.200 287.888 43.600 287.200 C 42.720 286.822,41.280 286.512,40.400 286.512 L 38.800 286.512 40.400 287.200 M46.800 288.800 C 47.680 289.178,48.940 289.488,49.600 289.488 C 50.356 289.488,50.209 289.233,49.200 288.800 C 48.320 288.422,47.060 288.112,46.400 288.112 C 45.644 288.112,45.791 288.367,46.800 288.800 M52.400 290.400 C 53.280 290.778,54.720 291.088,55.600 291.088 L 57.200 291.088 55.600 290.400 C 54.720 290.022,53.280 289.712,52.400 289.712 L 50.800 289.712 52.400 290.400 M21.791 322.824 C 21.971 350.864,22.168 355.509,23.200 356.020 C 26.036 357.425,29.030 358.521,39.600 362.023 C 45.760 364.065,51.520 366.049,52.400 366.434 C 53.280 366.818,56.700 368.024,60.000 369.114 C 63.300 370.203,71.760 373.114,78.800 375.583 C 85.840 378.052,97.000 381.870,103.600 384.068 C 110.200 386.265,116.320 388.364,117.200 388.732 C 121.881 390.688,123.382 391.200,124.438 391.200 C 125.437 391.200,125.600 386.064,125.600 354.528 L 125.600 317.856 122.200 316.820 C 115.880 314.894,114.020 314.371,105.200 312.044 C 100.360 310.766,93.520 308.938,90.000 307.981 C 86.480 307.024,82.340 305.941,80.800 305.574 C 79.260 305.207,76.740 304.554,75.200 304.123 C 68.967 302.378,53.737 298.248,44.800 295.880 C 41.500 295.005,37.540 293.930,36.000 293.492 C 31.356 292.168,26.948 291.109,24.191 290.654 L 21.582 290.223 21.791 322.824 M29.600 292.969 C 31.140 293.365,33.480 293.996,34.800 294.370 C 36.120 294.744,41.340 296.136,46.400 297.463 C 51.460 298.791,57.760 300.476,60.400 301.208 C 68.178 303.364,69.553 303.738,79.200 306.316 C 84.260 307.668,91.820 309.716,96.000 310.866 C 100.180 312.016,104.860 313.258,106.400 313.625 C 107.940 313.993,110.640 314.698,112.400 315.192 C 114.160 315.686,116.997 316.443,118.704 316.873 C 125.390 318.557,124.800 314.893,124.800 354.753 L 124.800 390.251 113.799 386.495 C 107.748 384.430,102.438 382.547,101.999 382.312 C 101.559 382.076,99.580 381.419,97.600 380.850 C 95.620 380.282,93.280 379.519,92.400 379.154 C 90.591 378.405,77.818 373.937,68.800 370.900 C 58.179 367.323,37.825 360.231,37.102 359.856 C 36.716 359.656,33.700 358.639,30.400 357.597 C 27.100 356.555,23.950 355.365,23.400 354.953 C 22.314 354.139,21.869 292.797,22.942 291.725 C 23.240 291.426,24.230 291.422,25.142 291.715 C 26.054 292.007,28.060 292.572,29.600 292.969 M58.400 292.000 C 59.060 292.427,60.500 292.745,61.600 292.708 L 63.600 292.641 61.600 292.000 C 58.517 291.013,56.872 291.013,58.400 292.000 M64.380 293.568 C 64.663 294.026,65.833 294.400,66.981 294.400 C 69.488 294.400,69.198 294.017,66.133 293.280 C 64.646 292.923,64.043 293.022,64.380 293.568 M69.674 294.741 C 70.415 295.481,82.548 298.519,82.991 298.075 C 83.210 297.857,82.356 297.448,81.094 297.167 C 79.832 296.886,77.720 296.361,76.400 296.000 C 71.939 294.780,69.201 294.268,69.674 294.741 M85.200 299.200 C 87.592 300.228,89.590 300.228,88.000 299.200 C 87.340 298.773,86.080 298.444,85.200 298.468 L 83.600 298.512 85.200 299.200 M91.200 300.800 C 91.860 301.227,93.120 301.556,94.000 301.532 L 95.600 301.488 94.000 300.800 C 91.608 299.772,89.610 299.772,91.200 300.800 M327.200 300.800 L 322.800 301.339 327.200 301.376 C 329.620 301.396,333.940 301.150,336.800 300.828 L 342.000 300.244 336.800 300.252 C 333.940 300.257,329.620 300.503,327.200 300.800 M97.600 302.363 C 98.260 302.810,99.490 303.181,100.333 303.188 C 102.380 303.204,101.742 302.746,98.800 302.088 C 97.047 301.696,96.724 301.770,97.600 302.363 M299.600 302.400 L 294.000 302.917 299.600 302.989 C 302.680 303.028,307.000 302.779,309.200 302.437 L 313.200 301.814 309.200 301.848 C 307.000 301.867,302.680 302.115,299.600 302.400 M272.400 304.000 L 266.000 304.507 272.400 304.607 C 275.920 304.663,280.240 304.410,282.000 304.046 L 285.200 303.384 282.000 303.439 C 280.240 303.469,275.920 303.721,272.400 304.000 M245.200 305.600 L 238.000 306.098 245.200 306.190 C 249.160 306.240,254.020 305.993,256.000 305.641 L 259.600 305.000 256.000 305.051 C 254.020 305.079,249.160 305.326,245.200 305.600 M358.400 306.456 L 352.400 306.912 359.000 307.056 L 365.600 307.200 365.713 312.600 C 365.774 315.570,366.066 328.620,366.360 341.600 L 366.895 365.200 367.044 346.000 C 367.225 322.794,366.504 306.572,365.279 306.239 C 364.795 306.108,361.700 306.205,358.400 306.456 M217.600 307.200 L 209.200 307.687 217.200 307.764 C 221.600 307.807,227.180 307.568,229.600 307.234 L 234.000 306.625 230.000 306.669 C 227.800 306.693,222.220 306.932,217.600 307.200 M330.800 308.000 L 323.600 308.498 330.800 308.544 C 334.760 308.570,340.700 308.336,344.000 308.025 L 350.000 307.459 344.000 307.481 C 340.700 307.493,334.760 307.726,330.800 308.000 M201.000 308.573 C 202.210 308.756,204.190 308.756,205.400 308.573 C 206.610 308.390,205.620 308.240,203.200 308.240 C 200.780 308.240,199.790 308.390,201.000 308.573 M176.800 309.616 C 173.940 309.914,177.540 309.982,184.800 309.769 C 192.060 309.555,198.150 309.250,198.333 309.090 C 198.868 308.625,182.494 309.025,176.800 309.616 M302.000 309.643 C 296.720 309.959,285.055 310.614,276.078 311.097 C 267.101 311.581,259.541 312.202,259.278 312.477 C 259.015 312.753,262.940 312.752,268.000 312.475 C 311.394 310.102,327.154 309.003,317.200 309.044 C 314.120 309.057,307.280 309.326,302.000 309.643 M150.000 311.237 C 147.360 311.550,150.240 311.624,156.400 311.402 C 162.560 311.179,167.750 310.863,167.933 310.699 C 168.469 310.219,155.247 310.616,150.000 311.237 M236.400 313.606 C 234.640 313.924,238.600 314.003,245.200 313.781 C 251.800 313.559,257.350 313.248,257.533 313.089 C 258.139 312.564,239.664 313.016,236.400 313.606 M209.600 315.233 C 207.620 315.559,211.220 315.638,217.600 315.409 C 223.980 315.180,229.350 314.859,229.533 314.696 C 230.127 314.169,213.312 314.622,209.600 315.233 M182.400 316.800 L 178.000 317.339 182.800 317.390 C 185.440 317.418,190.660 317.173,194.400 316.844 L 201.200 316.248 194.000 316.254 C 190.040 316.258,184.820 316.503,182.400 316.800 M154.800 318.400 L 149.200 318.917 155.200 318.959 C 158.500 318.982,163.720 318.743,166.800 318.427 L 172.400 317.852 166.400 317.867 C 163.100 317.876,157.880 318.115,154.800 318.400 M133.333 319.733 C 132.201 320.866,132.728 391.596,133.881 393.172 C 134.869 394.524,135.466 394.575,140.881 393.777 L 146.800 392.904 140.722 393.274 L 134.644 393.645 134.126 385.822 C 133.841 381.520,133.606 365.137,133.604 349.415 L 133.600 320.830 135.400 320.424 C 136.390 320.201,139.000 319.899,141.200 319.753 C 144.402 319.541,144.069 319.460,139.533 319.344 C 136.417 319.265,133.627 319.440,133.333 319.733 M367.187 372.962 C 366.974 375.472,367.092 377.232,367.448 376.874 C 367.805 376.516,367.979 374.463,367.836 372.312 L 367.574 368.400 367.187 372.962 M352.800 378.400 L 347.600 378.924 353.200 379.003 C 356.280 379.046,360.420 378.793,362.400 378.441 L 366.000 377.800 362.000 377.838 C 359.800 377.859,355.660 378.112,352.800 378.400 M329.600 380.000 L 323.600 380.512 330.000 380.597 C 333.520 380.643,338.020 380.393,340.000 380.041 L 343.600 379.400 339.600 379.444 C 337.400 379.468,332.900 379.719,329.600 380.000 M305.600 381.600 L 298.800 382.102 306.400 382.205 C 310.580 382.261,315.440 382.010,317.200 381.646 L 320.400 380.984 316.400 381.041 C 314.200 381.072,309.340 381.324,305.600 381.600 M280.000 383.295 C 274.500 383.660,269.280 384.108,268.400 384.289 C 265.595 384.866,290.648 383.799,294.400 383.181 L 298.000 382.588 294.000 382.609 C 291.800 382.620,285.500 382.929,280.000 383.295 M248.000 385.600 L 243.600 386.139 247.600 386.190 C 249.800 386.218,254.660 385.973,258.400 385.644 L 265.200 385.048 258.800 385.054 C 255.280 385.058,250.420 385.303,248.000 385.600 M225.200 387.200 L 221.200 387.749 226.000 387.787 C 228.640 387.809,232.960 387.558,235.600 387.231 L 240.400 386.635 234.800 386.643 C 231.720 386.648,227.400 386.898,225.200 387.200 M202.400 388.800 L 198.000 389.339 203.200 389.410 C 206.060 389.449,210.020 389.193,212.000 388.841 L 215.600 388.200 211.200 388.231 C 208.780 388.247,204.820 388.503,202.400 388.800 M178.400 390.400 L 172.400 390.912 178.800 390.997 C 182.320 391.043,186.820 390.793,188.800 390.441 L 192.400 389.800 188.400 389.844 C 186.200 389.868,181.700 390.119,178.400 390.400 M154.800 392.000 L 147.600 392.498 154.800 392.590 C 158.760 392.640,163.620 392.393,165.600 392.041 L 169.200 391.400 165.600 391.451 C 163.620 391.479,158.760 391.726,154.800 392.000 " stroke="none" fill="#2c3e5f" fill-rule="evenodd"></path><path id="path3" d="M254.400 21.368 C 277.593 21.932,297.416 21.947,297.077 21.400 C 296.873 21.070,285.117 20.877,270.953 20.972 C 256.789 21.067,249.340 21.245,254.400 21.368 M176.200 22.199 C 184.010 22.330,196.790 22.330,204.600 22.199 C 212.410 22.068,206.020 21.961,190.400 21.961 C 174.780 21.961,168.390 22.068,176.200 22.199 M74.161 36.932 C 73.048 39.279,70.727 44.260,69.003 48.000 C 66.453 53.532,55.626 70.425,53.620 72.000 C 53.340 72.220,50.251 76.493,46.755 81.496 C 43.260 86.499,38.343 93.519,35.830 97.096 C 29.818 105.650,30.074 105.637,52.000 96.237 C 55.166 94.880,57.876 93.755,60.800 92.586 C 61.900 92.146,63.520 91.485,64.400 91.117 C 65.280 90.749,68.880 89.328,72.400 87.960 C 75.920 86.591,80.060 84.917,81.600 84.241 C 85.632 82.469,88.778 81.126,92.200 79.717 C 95.800 78.234,95.764 79.035,92.534 72.332 C 91.068 69.290,89.040 64.640,88.027 62.000 C 87.015 59.360,85.826 56.300,85.386 55.200 C 83.690 50.959,83.232 49.761,80.344 42.000 C 76.564 31.839,76.572 31.846,74.161 36.932 M299.600 52.800 L 289.200 53.273 299.353 53.437 C 305.441 53.535,309.703 53.280,310.000 52.800 C 310.272 52.360,310.383 52.073,310.247 52.163 C 310.111 52.253,305.320 52.540,299.600 52.800 M231.838 54.196 C 235.489 54.344,241.249 54.344,244.638 54.194 C 248.027 54.044,245.040 53.923,238.000 53.924 C 230.960 53.925,228.187 54.047,231.838 54.196 M199.800 54.994 C 202.990 55.146,208.210 55.146,211.400 54.994 C 214.590 54.842,211.980 54.718,205.600 54.718 C 199.220 54.718,196.610 54.842,199.800 54.994 M136.233 55.794 C 139.222 55.948,143.902 55.947,146.633 55.791 C 149.365 55.636,146.920 55.509,141.200 55.511 C 135.480 55.512,133.245 55.640,136.233 55.794 M104.237 56.595 C 107.667 56.746,113.067 56.745,116.237 56.593 C 119.406 56.442,116.600 56.319,110.000 56.320 C 103.400 56.321,100.806 56.445,104.237 56.595 M244.400 62.400 L 217.200 62.832 246.000 62.919 C 261.840 62.966,281.100 62.753,288.800 62.444 L 302.800 61.883 287.200 61.926 C 278.620 61.949,259.360 62.162,244.400 62.400 M321.584 69.867 C 324.807 74.560,327.591 78.400,327.770 78.400 C 328.511 78.400,317.950 62.711,316.680 61.926 C 316.153 61.600,318.360 65.174,321.584 69.867 M149.200 64.000 L 121.200 64.431 148.000 64.512 C 162.740 64.557,182.900 64.346,192.800 64.043 L 210.800 63.493 194.000 63.531 C 184.760 63.552,164.600 63.763,149.200 64.000 M100.000 66.353 C 100.000 67.207,100.399 68.152,100.886 68.453 C 101.480 68.820,101.596 68.449,101.241 67.328 C 100.728 65.711,101.001 65.646,109.355 65.397 L 118.000 65.140 109.000 64.970 C 100.566 64.811,100.000 64.898,100.000 66.353 M101.667 70.000 C 101.667 70.440,102.357 72.060,103.200 73.600 C 104.043 75.140,104.733 76.040,104.733 75.600 C 104.733 75.160,104.043 73.540,103.200 72.000 C 102.357 70.460,101.667 69.560,101.667 70.000 M107.589 82.800 C 108.255 84.340,109.361 86.899,110.047 88.486 C 110.733 90.074,111.459 91.208,111.661 91.006 C 112.052 90.615,107.281 80.000,106.714 80.000 C 106.529 80.000,106.923 81.260,107.589 82.800 M330.028 82.400 C 331.316 84.734,343.419 102.812,344.221 103.600 C 345.509 104.867,344.268 102.842,337.351 92.400 C 331.634 83.769,328.177 79.049,330.028 82.400 M95.034 89.203 C 93.402 89.802,90.702 90.894,89.034 91.628 C 87.365 92.362,85.280 93.250,84.400 93.600 C 83.520 93.950,81.540 94.785,80.000 95.454 C 78.460 96.123,74.320 97.791,70.800 99.160 C 67.280 100.528,63.500 102.046,62.400 102.531 C 61.300 103.017,59.590 103.726,58.600 104.107 C 55.238 105.401,53.207 106.238,49.600 107.812 C 47.620 108.677,43.210 110.414,39.800 111.673 C 33.135 114.134,32.352 114.908,35.800 115.630 C 38.423 116.179,42.545 117.103,49.600 118.725 C 52.460 119.383,59.840 121.027,66.000 122.379 C 72.160 123.731,78.460 125.172,80.000 125.581 C 81.540 125.989,83.880 126.540,85.200 126.805 C 88.828 127.532,93.216 128.490,101.600 130.383 C 113.385 133.045,119.544 134.371,120.200 134.386 C 121.312 134.412,120.813 132.795,117.636 126.076 C 115.896 122.396,113.078 116.374,111.375 112.693 C 103.147 94.913,99.636 88.005,98.854 88.056 C 98.384 88.087,96.665 88.603,95.034 89.203 M112.067 92.400 C 112.067 92.840,112.757 94.460,113.600 96.000 C 114.443 97.540,115.133 98.440,115.133 98.000 C 115.133 97.560,114.443 95.940,113.600 94.400 C 112.757 92.860,112.067 91.960,112.067 92.400 M117.468 104.017 C 119.250 108.617,123.357 116.910,123.689 116.578 C 123.886 116.380,122.608 113.240,120.847 109.599 C 117.635 102.958,116.033 100.310,117.468 104.017 M345.983 106.800 C 346.795 108.120,350.438 113.632,354.079 119.049 C 357.721 124.467,360.853 129.327,361.040 129.849 C 361.228 130.372,361.581 130.620,361.825 130.399 C 362.266 130.000,347.091 106.722,345.397 105.200 C 344.907 104.760,345.171 105.480,345.983 106.800 M124.067 118.000 C 124.067 118.440,124.757 120.060,125.600 121.600 C 126.443 123.140,127.133 124.040,127.133 123.600 C 127.133 123.160,126.443 121.540,125.600 120.000 C 124.757 118.460,124.067 117.560,124.067 118.000 M22.912 122.955 C 22.125 123.742,22.305 177.447,23.096 177.936 C 24.143 178.583,32.834 180.942,35.807 181.387 C 37.241 181.601,38.613 182.097,38.855 182.488 C 39.097 182.880,40.156 183.200,41.210 183.200 C 42.263 183.200,43.952 183.532,44.962 183.937 C 45.973 184.343,50.580 185.643,55.200 186.826 C 62.992 188.823,70.155 190.739,78.000 192.925 C 79.760 193.415,82.280 194.103,83.600 194.454 C 84.920 194.805,87.440 195.474,89.200 195.942 C 90.960 196.409,95.820 197.696,100.000 198.800 C 109.378 201.278,113.412 202.396,116.000 203.232 C 117.100 203.588,119.350 204.103,121.000 204.376 L 124.000 204.873 124.000 176.189 C 124.000 142.700,124.881 145.608,114.000 143.192 C 103.774 140.922,101.296 140.365,96.400 139.232 C 91.028 137.990,86.305 136.946,82.200 136.094 C 80.330 135.706,74.480 134.403,69.200 133.199 C 63.920 131.994,58.340 130.728,56.800 130.383 C 55.260 130.039,52.200 129.341,50.000 128.832 C 47.800 128.324,44.560 127.588,42.800 127.197 C 41.040 126.807,38.160 126.144,36.400 125.724 C 34.640 125.305,31.282 124.569,28.938 124.090 C 26.594 123.610,24.394 123.044,24.050 122.831 C 23.705 122.618,23.193 122.674,22.912 122.955 M336.909 124.734 C 347.413 126.206,344.994 132.427,333.486 133.537 C 327.048 134.158,326.978 134.186,331.600 134.287 C 341.023 134.492,345.714 131.497,343.232 126.861 C 342.081 124.710,340.146 123.976,336.000 124.118 C 333.524 124.203,333.629 124.274,336.909 124.734 M127.981 126.750 C 128.389 127.823,129.664 130.558,130.814 132.829 L 132.907 136.957 133.053 171.478 L 133.200 206.000 135.012 206.106 C 136.574 206.198,136.598 206.162,135.185 205.847 C 133.561 205.485,133.546 205.141,133.633 171.341 L 133.722 137.200 130.818 131.000 C 128.039 125.069,126.418 122.640,127.981 126.750 M312.000 125.615 C 310.020 125.931,313.440 126.008,319.600 125.785 C 325.760 125.562,330.950 125.249,331.133 125.090 C 331.720 124.580,315.737 125.018,312.000 125.615 M287.200 127.222 C 285.660 127.559,288.720 127.642,294.000 127.409 C 299.280 127.175,303.750 126.852,303.933 126.692 C 304.557 126.146,290.014 126.608,287.200 127.222 M262.000 128.845 C 260.159 129.201,262.538 129.282,267.600 129.037 C 272.440 128.802,276.550 128.473,276.733 128.305 C 277.323 127.765,265.310 128.206,262.000 128.845 M234.800 130.400 L 229.200 130.917 234.800 130.959 C 237.880 130.982,242.920 130.743,246.000 130.427 L 251.600 129.852 246.000 129.867 C 242.920 129.876,237.880 130.115,234.800 130.400 M208.800 132.000 L 202.000 132.502 208.400 132.552 C 211.920 132.579,217.320 132.343,220.400 132.027 L 226.000 131.452 220.800 131.475 C 217.940 131.488,212.540 131.724,208.800 132.000 M362.635 140.800 C 362.622 146.300,362.860 156.380,363.163 163.200 L 363.714 175.600 363.752 159.200 C 363.774 150.180,363.536 140.100,363.225 136.800 C 362.709 131.331,362.657 131.686,362.635 140.800 M183.200 133.600 L 175.600 134.094 182.800 134.153 C 186.760 134.186,192.340 133.950,195.200 133.628 L 200.400 133.044 195.600 133.075 C 192.960 133.092,187.380 133.328,183.200 133.600 M168.614 134.980 C 170.052 135.158,172.212 135.154,173.414 134.972 C 174.616 134.789,173.440 134.643,170.800 134.648 C 168.160 134.652,167.176 134.802,168.614 134.980 M306.400 135.200 L 301.200 135.724 306.400 135.757 C 309.260 135.776,314.300 135.536,317.600 135.225 L 323.600 134.659 317.600 134.667 C 314.300 134.672,309.260 134.912,306.400 135.200 M150.908 136.858 C 147.828 139.281,148.893 144.800,152.441 144.800 C 152.834 144.800,152.356 144.240,151.378 143.555 C 146.476 140.121,150.050 136.519,158.933 135.938 L 166.000 135.476 159.508 135.338 C 154.021 135.221,152.689 135.457,150.908 136.858 M280.400 136.800 L 274.800 137.317 280.800 137.413 C 284.100 137.465,288.240 137.210,290.000 136.846 L 293.200 136.184 289.600 136.233 C 287.620 136.260,283.480 136.515,280.400 136.800 M254.800 138.400 L 248.400 138.907 255.200 139.007 C 258.940 139.063,263.440 138.810,265.200 138.446 L 268.400 137.784 264.800 137.839 C 262.820 137.869,258.320 138.121,254.800 138.400 M228.000 140.000 L 219.600 140.487 227.200 140.557 C 231.380 140.595,236.960 140.358,239.600 140.031 L 244.400 139.435 240.400 139.474 C 238.200 139.496,232.620 139.732,228.000 140.000 M213.000 141.373 C 214.210 141.556,216.190 141.556,217.400 141.373 C 218.610 141.190,217.620 141.040,215.200 141.040 C 212.780 141.040,211.790 141.190,213.000 141.373 M190.400 142.422 C 187.980 142.731,191.220 142.804,197.600 142.584 C 203.980 142.364,209.350 142.052,209.533 141.892 C 210.088 141.406,195.110 141.821,190.400 142.422 M165.200 144.000 L 160.400 144.531 164.800 144.581 C 167.220 144.608,172.440 144.366,176.400 144.042 L 183.600 143.453 176.800 143.461 C 173.060 143.465,167.840 143.708,165.200 144.000 M21.907 189.153 C 21.664 189.788,21.633 190.958,21.840 191.753 C 22.074 192.659,22.249 192.338,22.307 190.898 C 22.397 188.659,22.494 188.608,25.800 189.062 C 28.105 189.379,28.685 189.301,27.600 188.821 C 25.118 187.722,22.395 187.881,21.907 189.153 M36.800 192.000 C 37.460 192.427,38.540 192.775,39.200 192.775 C 40.267 192.775,40.267 192.689,39.200 192.000 C 38.540 191.573,37.460 191.225,36.800 191.225 C 35.733 191.225,35.733 191.311,36.800 192.000 M351.600 192.798 C 348.635 193.204,349.709 193.327,355.753 193.273 C 360.237 193.233,363.297 192.955,362.553 192.656 C 360.931 192.004,357.037 192.055,351.600 192.798 M43.200 193.563 C 43.860 194.010,45.090 194.381,45.933 194.388 C 47.980 194.404,47.342 193.946,44.400 193.288 C 42.647 192.896,42.324 192.970,43.200 193.563 M324.000 194.440 C 322.419 194.796,325.205 194.881,330.400 194.635 C 335.460 194.397,339.750 194.066,339.933 193.901 C 340.554 193.341,326.820 193.806,324.000 194.440 M48.800 195.163 C 49.460 195.610,50.690 195.981,51.533 195.988 C 53.580 196.004,52.942 195.546,50.000 194.888 C 48.247 194.496,47.924 194.570,48.800 195.163 M296.800 196.000 L 293.200 196.560 297.600 196.580 C 300.020 196.592,304.520 196.343,307.600 196.027 L 313.200 195.452 306.800 195.446 C 303.280 195.443,298.780 195.692,296.800 196.000 M56.067 197.087 C 56.250 197.246,57.480 197.616,58.800 197.912 C 60.553 198.304,60.876 198.230,60.000 197.637 C 58.920 196.906,55.264 196.395,56.067 197.087 M269.200 197.600 L 263.600 198.117 269.600 198.165 C 272.900 198.191,277.940 197.950,280.800 197.628 L 286.000 197.044 280.400 197.063 C 277.320 197.074,272.280 197.315,269.200 197.600 M63.600 199.200 C 64.480 199.578,65.740 199.888,66.400 199.888 C 67.156 199.888,67.009 199.633,66.000 199.200 C 65.120 198.822,63.860 198.512,63.200 198.512 C 62.444 198.512,62.591 198.767,63.600 199.200 M240.400 199.200 L 232.400 199.690 240.000 199.746 C 244.180 199.776,250.120 199.543,253.200 199.227 L 258.800 198.652 253.600 198.681 C 250.740 198.697,244.800 198.930,240.400 199.200 M69.200 200.800 C 71.592 201.828,73.590 201.828,72.000 200.800 C 71.340 200.373,70.080 200.044,69.200 200.068 L 67.600 200.112 69.200 200.800 M224.600 200.579 C 226.030 200.756,228.370 200.756,229.800 200.579 C 231.230 200.401,230.060 200.256,227.200 200.256 C 224.340 200.256,223.170 200.401,224.600 200.579 M360.800 200.800 C 359.152 201.328,359.082 201.452,360.400 201.508 C 361.280 201.545,362.540 201.227,363.200 200.800 C 364.602 199.894,363.629 199.894,360.800 200.800 M200.400 201.620 C 197.760 201.924,201.360 201.994,208.400 201.777 C 215.440 201.560,221.350 201.251,221.533 201.091 C 222.081 200.612,205.577 201.026,200.400 201.620 M75.600 202.400 C 76.480 202.778,77.740 203.088,78.400 203.088 C 79.156 203.088,79.009 202.833,78.000 202.400 C 77.120 202.022,75.860 201.712,75.200 201.712 C 74.444 201.712,74.591 201.967,75.600 202.400 M347.809 202.166 C 348.804 202.357,350.244 202.350,351.009 202.150 C 351.774 201.949,350.960 201.793,349.200 201.802 C 347.440 201.811,346.814 201.974,347.809 202.166 M364.316 212.400 C 364.317 218.560,364.442 220.974,364.595 217.765 C 364.747 214.556,364.746 209.516,364.592 206.565 C 364.439 203.614,364.314 206.240,364.316 212.400 M173.600 203.206 C 171.620 203.517,175.400 203.593,182.000 203.375 C 188.600 203.156,194.150 202.848,194.333 202.689 C 194.920 202.180,177.337 202.619,173.600 203.206 M333.382 202.977 C 334.802 203.154,337.322 203.157,338.982 202.984 C 340.642 202.811,339.480 202.666,336.400 202.663 C 333.320 202.659,331.962 202.801,333.382 202.977 M81.600 203.963 C 82.260 204.410,83.490 204.781,84.333 204.788 C 86.380 204.804,85.742 204.346,82.800 203.688 C 81.047 203.296,80.724 203.370,81.600 203.963 M320.609 203.766 C 321.604 203.957,323.044 203.950,323.809 203.750 C 324.574 203.549,323.760 203.393,322.000 203.402 C 320.240 203.411,319.614 203.574,320.609 203.766 M147.200 204.820 C 145.220 205.139,148.460 205.216,154.400 204.991 C 160.340 204.766,165.350 204.451,165.533 204.291 C 166.119 203.780,150.940 204.218,147.200 204.820 M306.182 204.577 C 307.602 204.754,310.122 204.757,311.782 204.584 C 313.442 204.411,312.280 204.266,309.200 204.263 C 306.120 204.259,304.762 204.401,306.182 204.577 M87.200 205.600 C 87.860 206.027,89.120 206.356,90.000 206.332 L 91.600 206.288 90.000 205.600 C 87.608 204.572,85.610 204.572,87.200 205.600 M294.209 205.366 C 295.204 205.557,296.644 205.550,297.409 205.350 C 298.174 205.149,297.360 204.993,295.600 205.002 C 293.840 205.011,293.214 205.174,294.209 205.366 M279.014 206.180 C 280.452 206.358,282.612 206.354,283.814 206.172 C 285.016 205.989,283.840 205.843,281.200 205.848 C 278.560 205.852,277.576 206.002,279.014 206.180 M93.200 207.200 C 94.080 207.578,95.520 207.877,96.400 207.864 C 97.686 207.845,97.608 207.715,96.000 207.200 C 93.265 206.324,91.161 206.324,93.200 207.200 M267.809 206.966 C 268.804 207.157,270.244 207.150,271.009 206.950 C 271.774 206.749,270.960 206.593,269.200 206.602 C 267.440 206.611,266.814 206.774,267.809 206.966 M251.411 207.774 C 252.627 207.958,254.427 207.953,255.411 207.763 C 256.395 207.573,255.400 207.423,253.200 207.429 C 251.000 207.435,250.195 207.590,251.411 207.774 M241.409 208.566 C 242.404 208.757,243.844 208.750,244.609 208.550 C 245.374 208.349,244.560 208.193,242.800 208.202 C 241.040 208.211,240.414 208.374,241.409 208.566 M100.867 209.087 C 101.050 209.246,102.280 209.616,103.600 209.912 C 105.353 210.304,105.676 210.230,104.800 209.637 C 103.720 208.906,100.064 208.395,100.867 209.087 M223.000 209.365 C 223.990 209.555,225.610 209.555,226.600 209.365 C 227.590 209.174,226.780 209.018,224.800 209.018 C 222.820 209.018,222.010 209.174,223.000 209.365 M214.200 210.165 C 215.190 210.355,216.810 210.355,217.800 210.165 C 218.790 209.974,217.980 209.818,216.000 209.818 C 214.020 209.818,213.210 209.974,214.200 210.165 M195.800 210.965 C 196.790 211.155,198.410 211.155,199.400 210.965 C 200.390 210.774,199.580 210.618,197.600 210.618 C 195.620 210.618,194.810 210.774,195.800 210.965 M187.000 211.765 C 187.990 211.955,189.610 211.955,190.600 211.765 C 191.590 211.574,190.780 211.418,188.800 211.418 C 186.820 211.418,186.010 211.574,187.000 211.765 M170.209 212.566 C 171.204 212.757,172.644 212.750,173.409 212.550 C 174.174 212.349,173.360 212.193,171.600 212.202 C 169.840 212.211,169.214 212.374,170.209 212.566 M159.014 213.380 C 160.452 213.558,162.612 213.554,163.814 213.372 C 165.016 213.189,163.840 213.043,161.200 213.048 C 158.560 213.052,157.576 213.202,159.014 213.380 M321.791 215.153 C 320.004 216.448,316.450 220.130,313.892 223.335 C 307.808 230.960,299.471 239.725,298.868 239.129 C 298.606 238.871,297.869 235.451,297.229 231.529 C 295.285 219.621,293.536 216.000,289.727 216.000 C 284.405 216.000,282.866 222.480,284.028 240.000 C 285.156 257.007,286.317 269.619,286.831 270.451 C 287.895 272.172,286.346 274.592,284.928 273.424 C 281.740 270.800,274.459 268.800,268.093 268.800 C 262.765 268.800,262.907 269.257,262.275 250.000 C 261.467 225.399,260.315 221.445,253.811 220.958 C 246.702 220.427,246.544 221.726,248.910 261.200 C 250.140 281.703,251.235 283.183,265.200 283.209 C 270.115 283.218,274.434 283.669,276.400 284.377 C 281.010 286.038,283.010 285.863,285.273 283.600 C 287.680 281.193,287.666 281.194,291.577 283.188 C 298.220 286.575,302.428 281.109,300.965 270.992 C 299.249 259.121,299.121 259.542,306.702 252.142 C 314.574 244.458,313.721 244.711,316.992 249.096 C 339.618 279.433,342.354 281.888,347.839 276.778 C 352.072 272.834,351.279 270.801,339.357 255.040 C 331.352 244.457,331.476 244.616,326.999 239.118 C 323.361 234.650,323.360 234.626,326.600 229.840 C 334.546 218.104,331.320 208.251,321.791 215.153 M120.000 214.400 C 120.660 214.827,121.740 215.175,122.400 215.175 C 123.467 215.175,123.467 215.089,122.400 214.400 C 121.740 213.973,120.660 213.625,120.000 213.625 C 118.933 213.625,118.933 213.711,120.000 214.400 M143.809 214.166 C 144.804 214.357,146.244 214.350,147.009 214.150 C 147.774 213.949,146.960 213.793,145.200 213.802 C 143.440 213.811,142.814 213.974,143.809 214.166 M124.193 261.815 L 124.000 308.030 121.800 307.610 L 119.600 307.190 121.850 308.079 C 125.025 309.332,124.833 312.558,124.600 261.927 L 124.387 215.600 124.193 261.815 M204.421 225.287 C 199.937 228.939,194.400 238.000,194.400 241.685 C 194.400 242.466,194.082 243.302,193.692 243.543 C 193.303 243.784,192.780 244.975,192.530 246.190 C 192.280 247.406,191.783 249.836,191.425 251.591 C 190.597 255.662,188.750 256.092,186.980 252.628 C 185.460 249.654,182.994 245.411,177.906 237.014 C 175.978 233.831,174.389 230.951,174.375 230.614 C 174.330 229.530,170.837 226.034,168.681 224.916 C 163.664 222.314,157.165 228.264,154.390 238.000 C 152.410 244.949,151.916 246.980,151.082 251.600 C 146.323 277.982,147.273 289.600,154.192 289.600 C 160.042 289.600,161.532 286.954,162.525 274.800 C 162.885 270.400,163.538 264.280,163.976 261.200 C 164.413 258.120,164.994 253.890,165.266 251.800 C 166.009 246.095,167.373 246.662,171.887 254.549 C 172.722 256.007,174.752 259.540,176.400 262.400 C 178.048 265.260,180.115 268.858,180.994 270.396 C 189.756 285.721,199.600 284.429,202.458 267.579 C 206.160 245.756,207.740 243.231,210.374 254.928 C 211.350 259.258,212.474 263.627,212.874 264.638 C 213.273 265.648,213.600 267.517,213.600 268.790 C 213.600 270.064,213.960 271.328,214.400 271.600 C 214.840 271.872,215.200 273.312,215.200 274.800 C 215.200 276.288,215.560 277.728,216.000 278.000 C 216.440 278.272,216.800 279.362,216.800 280.423 C 216.800 288.147,225.286 293.187,230.132 288.341 C 232.211 286.261,232.399 279.687,230.449 277.220 C 230.093 276.769,229.598 275.320,229.350 274.000 C 229.102 272.680,228.516 270.070,228.049 268.200 C 225.574 258.292,223.275 248.074,222.646 244.193 C 222.413 242.759,221.903 241.387,221.512 241.145 C 221.120 240.903,220.800 239.488,220.800 238.000 C 220.800 236.512,220.440 235.072,220.000 234.800 C 219.560 234.528,219.200 233.302,219.200 232.076 C 219.200 222.826,211.681 219.372,204.421 225.287 M133.173 267.600 C 133.173 290.920,133.275 300.345,133.400 288.544 C 133.524 276.743,133.524 257.663,133.399 246.144 C 133.274 234.625,133.172 244.280,133.173 267.600 M231.435 226.560 C 229.545 228.938,228.608 233.911,229.144 238.717 C 229.697 243.661,230.498 251.463,231.946 266.000 C 232.384 270.400,232.756 275.150,232.771 276.555 C 232.842 282.893,240.597 285.857,244.682 281.108 C 246.788 278.659,246.811 273.172,244.797 252.800 C 244.384 248.620,243.832 243.040,243.570 240.400 C 243.097 235.619,242.652 234.119,240.128 228.800 C 238.666 225.718,233.220 224.315,231.435 226.560 M365.126 246.400 C 365.126 253.660,365.247 256.630,365.395 253.000 C 365.543 249.370,365.543 243.430,365.395 239.800 C 365.247 236.170,365.126 239.140,365.126 246.400 M22.902 281.556 C 23.713 282.291,29.319 283.453,28.605 282.738 C 28.342 282.475,26.794 281.960,25.166 281.592 C 23.537 281.225,22.518 281.209,22.902 281.556 M31.600 284.000 C 33.992 285.028,35.990 285.028,34.400 284.000 C 33.740 283.573,32.480 283.244,31.600 283.268 L 30.000 283.312 31.600 284.000 M37.600 285.600 C 38.260 286.027,39.340 286.375,40.000 286.375 C 41.067 286.375,41.067 286.289,40.000 285.600 C 39.340 285.173,38.260 284.825,37.600 284.825 C 36.533 284.825,36.533 284.911,37.600 285.600 M46.415 287.936 C 51.425 289.513,56.487 290.620,55.871 290.004 C 55.362 289.495,43.906 286.417,42.800 286.492 C 42.360 286.522,43.987 287.171,46.415 287.936 M56.867 290.687 C 57.050 290.846,58.280 291.216,59.600 291.512 C 61.353 291.904,61.676 291.830,60.800 291.237 C 59.720 290.506,56.064 289.995,56.867 290.687 M22.942 291.725 C 21.869 292.797,22.314 354.139,23.400 354.953 C 23.950 355.365,27.100 356.555,30.400 357.597 C 33.700 358.639,36.716 359.656,37.102 359.856 C 37.825 360.231,58.179 367.323,68.800 370.900 C 77.818 373.937,90.591 378.405,92.400 379.154 C 93.280 379.519,95.620 380.282,97.600 380.850 C 99.580 381.419,101.559 382.076,101.999 382.312 C 102.438 382.547,107.748 384.430,113.799 386.495 L 124.800 390.251 124.800 354.753 C 124.800 314.893,125.390 318.557,118.704 316.873 C 116.997 316.443,114.160 315.686,112.400 315.192 C 110.640 314.698,107.940 313.993,106.400 313.625 C 104.860 313.258,100.180 312.016,96.000 310.866 C 91.820 309.716,84.260 307.668,79.200 306.316 C 69.553 303.738,68.178 303.364,60.400 301.208 C 57.760 300.476,51.460 298.791,46.400 297.463 C 41.340 296.136,36.120 294.744,34.800 294.370 C 33.480 293.996,31.140 293.365,29.600 292.969 C 28.060 292.572,26.054 292.007,25.142 291.715 C 24.230 291.422,23.240 291.426,22.942 291.725 M64.400 292.800 C 65.280 293.178,66.540 293.488,67.200 293.488 C 67.956 293.488,67.809 293.233,66.800 292.800 C 65.920 292.422,64.660 292.112,64.000 292.112 C 63.244 292.112,63.391 292.367,64.400 292.800 M70.000 294.400 C 72.392 295.428,74.390 295.428,72.800 294.400 C 72.140 293.973,70.880 293.644,70.000 293.668 L 68.400 293.712 70.000 294.400 M76.400 296.000 C 77.280 296.378,78.540 296.688,79.200 296.688 C 79.956 296.688,79.809 296.433,78.800 296.000 C 77.920 295.622,76.660 295.312,76.000 295.312 C 75.244 295.312,75.391 295.567,76.400 296.000 M82.400 297.563 C 83.060 298.010,84.290 298.381,85.133 298.388 C 87.180 298.404,86.542 297.946,83.600 297.288 C 81.847 296.896,81.524 296.970,82.400 297.563 M88.000 299.104 C 88.660 299.476,90.460 300.003,92.000 300.276 C 93.685 300.575,94.322 300.503,93.600 300.096 C 92.940 299.724,91.140 299.197,89.600 298.924 C 87.915 298.625,87.278 298.697,88.000 299.104 M353.800 298.951 C 354.570 299.153,355.830 299.153,356.600 298.951 C 357.370 298.750,356.740 298.586,355.200 298.586 C 353.660 298.586,353.030 298.750,353.800 298.951 M345.011 299.774 C 346.227 299.958,348.027 299.953,349.011 299.763 C 349.995 299.573,349.000 299.423,346.800 299.429 C 344.600 299.435,343.795 299.590,345.011 299.774 M327.400 300.551 C 328.170 300.753,329.430 300.753,330.200 300.551 C 330.970 300.350,330.340 300.186,328.800 300.186 C 327.260 300.186,326.630 300.350,327.400 300.551 M95.267 301.087 C 95.450 301.246,96.680 301.616,98.000 301.912 C 99.753 302.304,100.076 302.230,99.200 301.637 C 98.120 300.906,94.464 300.395,95.267 301.087 M317.811 301.374 C 319.027 301.558,320.827 301.553,321.811 301.363 C 322.795 301.173,321.800 301.023,319.600 301.029 C 317.400 301.035,316.595 301.190,317.811 301.374 M301.000 302.151 C 301.770 302.353,303.030 302.353,303.800 302.151 C 304.570 301.950,303.940 301.786,302.400 301.786 C 300.860 301.786,300.230 301.950,301.000 302.151 M102.800 303.200 C 105.192 304.228,107.190 304.228,105.600 303.200 C 104.940 302.773,103.680 302.444,102.800 302.468 L 101.200 302.512 102.800 303.200 M286.182 302.977 C 287.602 303.154,290.122 303.157,291.782 302.984 C 293.442 302.811,292.280 302.666,289.200 302.663 C 286.120 302.659,284.762 302.801,286.182 302.977 M274.600 303.751 C 275.370 303.953,276.630 303.953,277.400 303.751 C 278.170 303.550,277.540 303.386,276.000 303.386 C 274.460 303.386,273.830 303.550,274.600 303.751 M258.182 304.577 C 259.602 304.754,262.122 304.757,263.782 304.584 C 265.442 304.411,264.280 304.266,261.200 304.263 C 258.120 304.259,256.762 304.401,258.182 304.577 M248.200 305.351 C 248.970 305.553,250.230 305.553,251.000 305.351 C 251.770 305.150,251.140 304.986,249.600 304.986 C 248.060 304.986,247.430 305.150,248.200 305.351 M114.800 306.400 C 117.192 307.428,119.190 307.428,117.600 306.400 C 116.940 305.973,115.680 305.644,114.800 305.668 L 113.200 305.712 114.800 306.400 M231.000 306.179 C 232.430 306.356,234.770 306.356,236.200 306.179 C 237.630 306.001,236.460 305.856,233.600 305.856 C 230.740 305.856,229.570 306.001,231.000 306.179 M220.600 306.965 C 221.590 307.155,223.210 307.155,224.200 306.965 C 225.190 306.774,224.380 306.618,222.400 306.618 C 220.420 306.618,219.610 306.774,220.600 306.965 M204.211 307.774 C 205.427 307.958,207.227 307.953,208.211 307.763 C 209.195 307.573,208.200 307.423,206.000 307.429 C 203.800 307.435,202.995 307.590,204.211 307.774 M344.800 308.009 C 341.940 308.299,345.360 308.367,352.400 308.161 C 359.440 307.955,365.350 307.654,365.533 307.493 C 366.052 307.037,350.604 307.421,344.800 308.009 M194.200 308.565 C 195.190 308.755,196.810 308.755,197.800 308.565 C 198.790 308.374,197.980 308.218,196.000 308.218 C 194.020 308.218,193.210 308.374,194.200 308.565 M177.409 309.366 C 178.404 309.557,179.844 309.550,180.609 309.350 C 181.374 309.149,180.560 308.993,178.800 309.002 C 177.040 309.011,176.414 309.174,177.409 309.366 M318.000 309.624 C 315.360 309.925,318.600 309.999,325.200 309.789 C 331.800 309.578,337.350 309.270,337.533 309.103 C 338.059 308.625,323.311 309.018,318.000 309.624 M167.000 310.165 C 167.990 310.355,169.610 310.355,170.600 310.165 C 171.590 309.974,170.780 309.818,168.800 309.818 C 166.820 309.818,166.010 309.974,167.000 310.165 M150.600 310.951 C 151.370 311.153,152.630 311.153,153.400 310.951 C 154.170 310.750,153.540 310.586,152.000 310.586 C 150.460 310.586,149.830 310.750,150.600 310.951 M290.800 311.200 L 285.200 311.717 290.400 311.779 C 293.260 311.813,298.660 311.573,302.400 311.244 L 309.200 310.648 302.800 310.665 C 299.280 310.675,293.880 310.915,290.800 311.200 M140.211 311.774 C 141.427 311.958,143.227 311.953,144.211 311.763 C 145.195 311.573,144.200 311.423,142.000 311.429 C 139.800 311.435,138.995 311.590,140.211 311.774 M262.800 312.800 L 257.200 313.317 263.600 313.399 C 267.120 313.445,271.620 313.193,273.600 312.841 L 277.200 312.200 272.800 312.241 C 270.380 312.264,265.880 312.515,262.800 312.800 M235.600 314.400 L 229.200 314.907 236.400 315.007 C 240.360 315.063,245.040 314.810,246.800 314.446 L 250.000 313.784 246.000 313.839 C 243.800 313.869,239.120 314.121,235.600 314.400 M208.400 316.000 L 200.400 316.490 208.400 316.575 C 212.800 316.622,218.200 316.379,220.400 316.037 L 224.400 315.414 220.400 315.462 C 218.200 315.488,212.800 315.730,208.400 316.000 M191.814 317.380 C 193.252 317.558,195.412 317.554,196.614 317.372 C 197.816 317.189,196.640 317.043,194.000 317.048 C 191.360 317.052,190.376 317.202,191.814 317.380 M167.200 318.425 C 164.340 318.726,167.580 318.796,174.400 318.579 C 181.220 318.362,186.950 318.053,187.133 317.893 C 187.663 317.428,172.922 317.821,167.200 318.425 M141.200 319.753 C 139.000 319.899,136.390 320.201,135.400 320.424 L 133.600 320.830 133.786 352.215 L 133.972 383.600 134.386 352.400 L 134.800 321.200 147.200 320.319 C 157.095 319.617,158.145 319.444,152.400 319.464 C 148.440 319.477,143.400 319.608,141.200 319.753 M365.903 349.800 L 366.035 376.800 362.417 376.879 C 360.428 376.923,356.820 377.252,354.400 377.611 C 351.195 378.087,352.172 378.150,358.000 377.845 C 362.400 377.615,366.233 377.196,366.519 376.913 C 366.804 376.631,366.752 364.340,366.404 349.600 L 365.772 322.800 365.903 349.800 M330.800 379.217 C 329.040 379.541,332.100 379.621,337.600 379.394 C 343.100 379.166,347.750 378.850,347.933 378.690 C 348.533 378.168,334.081 378.612,330.800 379.217 M308.400 380.813 C 306.640 381.135,309.340 381.215,314.400 380.989 C 319.460 380.764,323.750 380.449,323.933 380.290 C 324.525 379.776,311.705 380.208,308.400 380.813 M284.800 382.445 C 282.713 382.796,284.899 382.873,290.000 382.630 C 294.840 382.399,298.950 382.073,299.133 381.905 C 299.699 381.387,288.609 381.805,284.800 382.445 M261.200 384.000 L 256.400 384.531 261.200 384.572 C 263.840 384.595,268.340 384.350,271.200 384.028 L 276.400 383.444 271.200 383.456 C 268.340 383.463,263.840 383.708,261.200 384.000 M237.600 385.600 L 231.600 386.112 237.200 386.169 C 240.280 386.201,244.960 385.958,247.600 385.631 L 252.400 385.035 248.000 385.062 C 245.580 385.076,240.900 385.319,237.600 385.600 M214.400 387.200 L 207.600 387.702 214.000 387.772 C 217.520 387.810,222.380 387.568,224.800 387.234 L 229.200 386.625 225.200 386.662 C 223.000 386.682,218.140 386.924,214.400 387.200 M188.478 388.890 C 182.802 389.252,177.762 389.719,177.278 389.928 C 176.130 390.426,194.894 389.553,201.600 388.797 C 209.007 387.961,202.302 388.009,188.478 388.890 M157.200 391.219 C 155.876 391.567,158.744 391.655,163.600 391.415 C 168.440 391.177,172.550 390.851,172.733 390.691 C 173.379 390.128,159.569 390.597,157.200 391.219 M134.400 392.977 C 134.400 393.624,147.219 392.919,147.994 392.229 C 148.211 392.037,145.241 391.977,141.394 392.098 C 137.547 392.218,134.400 392.614,134.400 392.977 " stroke="none" fill="#5071ac" fill-rule="evenodd"></path><path id="path4" d="M257.463 22.200 L 296.926 22.415 298.995 27.209 C 300.133 29.846,301.188 31.879,301.340 31.727 C 301.786 31.280,298.154 22.855,297.238 22.212 C 296.777 21.889,278.760 21.706,257.200 21.805 L 218.000 21.985 257.463 22.200 M83.733 22.933 C 83.440 23.227,83.206 23.857,83.212 24.333 C 83.220 24.851,83.478 24.800,83.856 24.206 C 84.347 23.432,96.743 23.164,139.644 23.000 L 194.800 22.789 139.533 22.594 C 109.137 22.487,84.027 22.640,83.733 22.933 M302.057 34.400 C 302.344 35.500,302.899 36.742,303.290 37.160 C 304.432 38.382,304.081 36.629,302.738 34.400 L 301.533 32.400 302.057 34.400 M87.544 34.800 C 87.873 35.680,89.057 38.843,90.175 41.830 C 91.293 44.816,92.338 47.129,92.498 46.969 C 92.907 46.560,88.487 34.607,87.641 33.835 C 87.251 33.479,87.208 33.902,87.544 34.800 M309.099 50.600 C 309.514 51.889,308.583 52.008,297.375 52.103 C 290.679 52.160,277.280 52.481,267.600 52.817 C 253.240 53.314,255.440 53.370,279.553 53.120 C 309.084 52.814,311.072 52.633,309.491 50.393 C 308.787 49.396,308.723 49.430,309.099 50.600 M94.892 53.822 C 95.731 56.228,97.451 56.414,114.800 55.975 L 131.600 55.551 114.088 55.375 C 98.486 55.219,96.457 55.047,95.486 53.800 C 94.451 52.471,94.421 52.472,94.892 53.822 M165.600 54.400 L 143.600 54.839 166.800 54.916 C 179.560 54.959,198.100 54.746,208.000 54.443 L 226.000 53.893 206.800 53.927 C 196.240 53.946,177.700 54.159,165.600 54.400 M302.253 62.013 C 302.026 62.240,277.216 62.790,247.120 63.234 C 200.163 63.926,106.602 65.426,102.146 65.557 C 100.246 65.613,100.545 66.511,106.914 79.861 C 109.711 85.725,112.000 90.671,112.000 90.853 C 112.000 91.035,114.700 96.807,118.000 103.679 C 121.300 110.551,124.000 116.296,124.000 116.446 C 124.000 116.596,126.188 121.314,128.861 126.929 L 133.723 137.139 133.633 171.484 L 133.544 205.829 140.572 205.282 C 144.437 204.981,153.360 204.396,160.400 203.982 C 180.512 202.798,198.440 201.736,213.200 200.854 C 220.680 200.408,236.520 199.478,248.400 198.788 C 260.280 198.099,276.300 197.163,284.000 196.708 C 291.700 196.254,303.580 195.572,310.400 195.192 C 317.220 194.812,330.000 194.056,338.800 193.512 C 347.600 192.967,356.924 192.519,359.519 192.516 L 364.239 192.509 363.725 179.254 C 363.443 171.965,362.970 158.091,362.674 148.425 C 362.378 138.758,361.812 130.478,361.417 130.025 C 361.022 129.571,353.740 118.580,345.235 105.600 C 336.730 92.620,326.654 77.410,322.845 71.800 L 315.920 61.600 309.293 61.600 C 305.649 61.600,302.481 61.786,302.253 62.013 M340.501 124.478 C 342.681 125.063,344.323 128.121,343.630 130.306 C 342.517 133.811,342.575 133.803,303.600 136.087 C 281.395 137.389,268.456 138.173,253.600 139.116 C 246.340 139.577,234.820 140.302,228.000 140.727 C 202.176 142.338,188.042 143.248,177.200 143.998 C 152.291 145.721,148.800 145.271,148.800 140.334 C 148.800 136.730,151.852 135.496,162.149 134.933 C 167.347 134.649,177.000 134.060,183.600 133.624 C 201.975 132.411,234.021 130.400,249.600 129.482 C 275.943 127.930,286.010 127.310,299.600 126.399 C 311.324 125.613,328.387 124.570,336.400 124.148 C 337.720 124.079,339.565 124.227,340.501 124.478 M22.594 234.967 L 22.800 281.135 25.600 281.810 C 30.356 282.956,33.882 283.860,36.800 284.682 C 38.340 285.115,43.200 286.424,47.600 287.590 C 52.000 288.756,56.680 290.021,58.000 290.400 C 59.320 290.779,63.100 291.805,66.400 292.680 C 75.337 295.048,90.567 299.178,96.800 300.923 C 98.340 301.354,100.860 302.019,102.400 302.400 C 103.940 302.781,106.640 303.501,108.400 304.000 C 110.160 304.499,112.860 305.197,114.400 305.553 C 115.940 305.909,117.740 306.395,118.400 306.633 C 119.060 306.871,120.590 307.283,121.800 307.548 L 124.000 308.030 124.000 261.709 L 124.000 215.387 122.200 214.949 C 121.210 214.708,119.140 214.157,117.600 213.725 C 111.319 211.961,104.720 210.175,96.000 207.879 C 90.940 206.547,85.720 205.162,84.400 204.800 C 83.080 204.438,77.860 203.036,72.800 201.684 C 64.121 199.365,51.836 196.019,45.600 194.276 C 44.060 193.846,41.540 193.181,40.000 192.800 C 38.460 192.419,35.760 191.702,34.000 191.208 C 27.508 189.386,25.167 188.838,23.794 188.819 C 22.465 188.801,22.398 191.366,22.594 234.967 M346.800 202.400 L 341.200 202.917 346.800 202.980 C 349.880 203.014,354.380 202.768,356.800 202.434 L 361.200 201.825 356.800 201.854 C 354.380 201.870,349.880 202.115,346.800 202.400 M319.600 204.000 L 314.000 204.517 320.800 204.564 C 324.540 204.590,328.680 204.336,330.000 204.000 C 333.076 203.217,328.069 203.217,319.600 204.000 M292.000 205.600 L 285.200 206.102 292.400 206.192 C 296.360 206.241,301.220 205.993,303.200 205.641 L 306.800 205.000 302.800 205.049 C 300.600 205.076,295.740 205.324,292.000 205.600 M264.400 207.200 L 256.400 207.690 264.400 207.775 C 268.800 207.822,274.200 207.579,276.400 207.237 L 280.400 206.614 276.400 206.662 C 274.200 206.688,268.800 206.930,264.400 207.200 M247.814 208.580 C 249.252 208.758,251.412 208.754,252.614 208.572 C 253.816 208.389,252.640 208.243,250.000 208.248 C 247.360 208.252,246.376 208.402,247.814 208.580 M223.600 209.629 C 220.960 209.937,224.200 210.009,230.800 209.788 C 237.400 209.568,242.950 209.256,243.133 209.094 C 243.677 208.615,228.803 209.022,223.600 209.629 M196.400 211.200 L 191.600 211.731 196.400 211.781 C 199.040 211.808,204.440 211.566,208.400 211.242 L 215.600 210.653 208.400 210.661 C 204.440 210.665,199.040 210.908,196.400 211.200 M170.000 212.800 L 165.200 213.331 170.400 213.372 C 173.260 213.395,177.940 213.150,180.800 212.828 L 186.000 212.244 180.400 212.256 C 177.320 212.263,172.640 212.508,170.000 212.800 M321.469 213.972 C 319.873 215.057,316.035 219.154,312.940 223.077 C 309.845 227.001,305.512 232.011,303.311 234.212 L 299.309 238.215 298.876 235.307 C 298.638 233.708,298.229 230.600,297.967 228.400 C 297.208 222.033,294.846 217.071,291.828 215.511 C 289.462 214.288,286.255 215.233,284.240 217.747 C 283.564 218.591,282.554 224.698,282.347 229.200 C 282.326 229.640,282.711 235.220,283.201 241.600 C 283.692 247.980,284.342 256.681,284.647 260.937 C 284.951 265.192,285.479 268.951,285.820 269.290 C 286.473 269.940,286.058 262.567,284.800 251.200 C 282.088 226.679,283.583 216.000,289.727 216.000 C 293.536 216.000,295.285 219.621,297.229 231.529 C 297.869 235.451,298.606 238.871,298.868 239.129 C 299.471 239.725,307.808 230.960,313.892 223.335 C 318.671 217.345,324.043 212.800,326.342 212.800 C 332.585 212.800,332.707 220.821,326.600 229.840 C 323.360 234.626,323.361 234.650,326.999 239.118 C 343.200 259.013,350.810 270.259,350.069 273.211 C 348.784 278.331,342.802 279.981,338.538 276.393 C 336.525 274.700,328.591 264.647,316.992 249.096 C 313.721 244.711,314.574 244.458,306.702 252.142 C 299.350 259.318,298.887 260.661,300.815 269.200 C 301.368 271.649,301.441 270.885,301.126 265.946 L 300.715 259.491 307.310 253.028 L 313.905 246.564 316.186 249.482 C 317.441 251.087,318.903 252.940,319.436 253.600 C 319.968 254.260,321.831 256.780,323.576 259.200 C 325.320 261.620,326.956 263.780,327.212 264.000 C 327.468 264.220,328.555 265.660,329.627 267.200 C 335.862 276.152,339.389 279.206,343.457 279.175 C 350.650 279.120,353.523 272.403,348.967 266.294 C 344.446 260.229,337.228 250.784,336.822 250.400 C 336.590 250.180,334.242 247.120,331.604 243.600 C 328.966 240.080,326.356 236.724,325.804 236.143 C 324.447 234.714,324.505 234.406,326.741 231.114 C 330.888 225.013,332.000 222.344,332.000 218.500 C 332.000 212.002,327.326 209.992,321.469 213.972 M142.000 214.400 L 135.600 214.907 142.000 214.983 C 145.520 215.025,150.200 214.779,152.400 214.437 L 156.400 213.814 152.400 213.854 C 150.200 213.875,145.520 214.121,142.000 214.400 M133.129 216.295 C 132.898 216.898,132.826 219.328,132.968 221.695 L 133.227 226.000 133.613 220.598 C 134.003 215.161,133.903 214.279,133.129 216.295 M249.693 220.505 C 246.406 222.807,245.398 226.582,246.333 233.082 C 247.378 240.343,248.022 269.321,247.106 267.876 C 246.696 267.228,246.420 269.249,246.412 272.955 C 246.402 278.202,246.130 279.424,244.572 281.235 C 240.592 285.863,232.841 282.789,232.771 276.555 C 232.741 273.851,231.767 263.511,230.233 249.600 C 228.139 230.622,229.114 226.000,235.209 226.000 C 238.606 226.000,238.878 226.170,240.329 229.200 C 241.171 230.960,242.162 233.025,242.530 233.789 C 242.899 234.553,243.236 236.893,243.280 238.989 C 243.324 241.085,243.674 243.700,244.058 244.800 C 245.280 248.299,243.956 235.886,242.687 231.943 C 239.661 222.543,231.610 221.084,228.854 229.436 C 227.800 232.631,227.920 236.265,229.616 252.400 C 230.476 260.583,231.309 277.226,230.737 274.800 C 230.529 273.920,230.009 271.850,229.580 270.200 C 229.151 268.550,228.450 265.850,228.022 264.200 C 227.594 262.550,226.643 258.581,225.909 255.380 C 225.174 252.179,224.394 249.740,224.174 249.960 C 223.679 250.454,226.546 263.252,228.854 270.857 C 229.264 272.208,229.600 274.026,229.600 274.897 C 229.600 275.768,229.938 276.822,230.351 277.240 C 232.391 279.305,232.254 286.218,230.132 288.341 C 225.286 293.187,216.800 288.147,216.800 280.423 C 216.800 279.362,216.440 278.272,216.000 278.000 C 215.560 277.728,215.200 276.288,215.200 274.800 C 215.200 273.312,214.840 271.872,214.400 271.600 C 213.960 271.328,213.600 270.162,213.600 269.010 C 213.600 267.857,213.260 265.808,212.845 264.457 C 212.430 263.106,211.718 260.740,211.264 259.200 L 210.437 256.400 210.877 259.600 C 211.260 262.377,213.950 273.811,215.959 281.200 C 218.000 288.706,220.351 291.200,225.387 291.200 C 230.367 291.200,233.627 287.639,232.895 283.000 C 232.763 282.168,232.998 282.222,235.988 283.714 C 241.843 286.635,246.957 282.786,247.992 274.679 C 248.484 270.828,248.609 270.553,248.695 273.124 C 248.944 280.540,254.280 284.000,265.469 284.000 C 270.963 284.000,274.124 284.369,275.709 285.195 C 279.267 287.051,283.733 286.740,285.994 284.479 L 287.914 282.558 291.172 284.170 C 295.416 286.270,304.146 282.279,301.373 279.507 C 301.129 279.263,300.530 279.810,300.041 280.723 C 298.285 284.005,295.019 284.943,291.535 283.167 C 287.670 281.196,287.677 281.196,285.273 283.600 C 283.010 285.863,281.010 286.038,276.400 284.377 C 274.434 283.669,270.115 283.218,265.200 283.209 C 251.235 283.183,250.140 281.703,248.910 261.200 C 246.544 221.726,246.702 220.427,253.811 220.958 C 260.315 221.445,261.467 225.399,262.275 250.000 C 262.907 269.257,262.765 268.800,268.093 268.800 C 274.459 268.800,281.740 270.800,284.928 273.424 C 286.268 274.528,288.117 271.850,286.873 270.606 C 286.613 270.346,286.400 270.756,286.400 271.518 C 286.400 272.803,286.184 272.791,283.400 271.360 C 278.490 268.837,274.990 268.000,269.343 268.000 C 264.066 268.000,263.999 267.973,263.923 265.800 C 263.345 249.373,262.409 231.819,261.992 229.600 C 260.399 221.127,254.759 216.956,249.693 220.505 M206.268 222.371 C 205.241 223.236,203.320 224.817,202.000 225.884 C 199.910 227.575,196.221 233.846,194.402 238.800 C 194.078 239.680,193.447 241.300,192.998 242.400 C 192.550 243.500,191.739 246.020,191.197 248.000 C 190.655 249.980,190.076 252.073,189.911 252.651 C 189.383 254.502,185.602 249.448,182.242 242.400 C 176.354 230.048,169.151 222.336,164.576 223.484 C 161.594 224.233,154.307 232.174,155.504 233.371 C 155.752 233.619,156.291 232.940,156.701 231.861 C 157.577 229.556,162.344 225.179,164.843 224.386 C 167.468 223.553,174.267 227.995,174.375 230.614 C 174.389 230.951,175.978 233.831,177.906 237.014 C 182.994 245.411,185.460 249.654,186.980 252.628 C 188.750 256.092,190.597 255.662,191.425 251.591 C 191.783 249.836,192.280 247.406,192.530 246.190 C 192.780 244.975,193.303 243.784,193.692 243.543 C 194.082 243.302,194.400 242.466,194.400 241.685 C 194.400 235.611,205.816 221.600,210.765 221.600 C 214.578 221.600,219.200 227.340,219.200 232.076 C 219.200 233.302,219.560 234.528,220.000 234.800 C 220.440 235.072,220.800 236.512,220.800 238.000 C 220.800 239.488,221.198 240.952,221.686 241.253 C 222.875 241.988,222.187 238.572,219.015 228.000 C 217.127 221.707,210.524 218.791,206.268 222.371 M364.521 260.563 L 364.858 297.526 359.429 297.806 L 354.000 298.087 359.800 298.243 L 365.600 298.400 365.487 281.000 C 365.425 271.430,365.106 254.600,364.778 243.600 C 364.343 228.974,364.274 233.532,364.521 260.563 M133.788 272.114 C 133.586 313.978,133.418 312.162,137.465 311.920 C 138.218 311.875,137.927 311.598,136.800 311.284 L 134.800 310.728 134.388 271.964 L 133.977 233.200 133.788 272.114 M153.977 236.506 C 153.701 237.768,153.171 239.520,152.798 240.400 C 150.589 245.616,148.212 261.861,147.506 276.555 C 146.991 287.299,147.865 289.533,153.103 290.847 C 158.994 292.326,162.456 287.313,163.357 276.000 C 164.486 261.827,166.270 249.600,167.210 249.600 C 167.848 249.600,178.919 267.875,182.282 274.479 C 188.576 286.839,201.048 283.236,203.324 268.400 C 204.331 261.831,205.344 256.477,205.819 255.200 C 206.065 254.540,206.483 253.010,206.748 251.800 C 207.014 250.590,207.584 249.600,208.015 249.600 C 208.447 249.600,208.806 250.590,208.812 251.800 C 208.819 253.010,209.173 254.540,209.600 255.200 C 210.672 256.859,210.632 255.232,209.490 250.693 C 207.736 243.730,205.656 248.727,202.458 267.579 C 199.600 284.429,189.756 285.721,180.994 270.396 C 180.115 268.858,178.048 265.260,176.400 262.400 C 174.752 259.540,172.722 256.007,171.887 254.549 C 167.373 246.662,166.009 246.095,165.266 251.800 C 164.994 253.890,164.413 258.120,163.976 261.200 C 163.538 264.280,162.885 270.400,162.525 274.800 C 161.532 286.954,160.042 289.600,154.192 289.600 C 147.739 289.600,146.940 284.945,149.528 262.400 C 150.661 252.527,151.820 246.746,154.397 238.125 C 154.903 236.434,155.128 234.861,154.897 234.631 C 154.667 234.400,154.252 235.244,153.977 236.506 M222.492 244.000 C 222.455 245.100,222.773 246.540,223.200 247.200 C 224.187 248.728,224.187 247.083,223.200 244.000 L 222.559 242.000 222.492 244.000 M244.988 252.400 C 244.962 255.040,245.221 259.000,245.563 261.200 L 246.186 265.200 246.206 261.200 C 246.217 259.000,245.958 255.040,245.631 252.400 L 245.035 247.600 244.988 252.400 M331.657 299.287 C 325.089 299.645,319.149 300.100,318.457 300.299 C 316.737 300.793,338.885 299.942,346.800 299.210 C 355.887 298.369,347.755 298.411,331.657 299.287 M295.200 301.606 C 293.220 301.917,297.000 301.993,303.600 301.775 C 310.200 301.556,315.750 301.248,315.933 301.089 C 316.520 300.580,298.937 301.019,295.200 301.606 M268.400 303.234 C 267.034 303.600,269.791 303.687,274.800 303.435 C 279.640 303.192,283.750 302.859,283.933 302.696 C 284.581 302.120,270.766 302.599,268.400 303.234 M241.600 304.800 C 237.631 305.636,243.856 305.654,251.200 304.828 L 256.400 304.244 250.400 304.227 C 247.100 304.218,243.140 304.476,241.600 304.800 M211.200 306.400 L 204.400 306.902 211.200 306.952 C 214.940 306.979,220.520 306.743,223.600 306.427 L 229.200 305.852 223.600 305.875 C 220.520 305.888,214.940 306.124,211.200 306.400 M184.400 308.000 L 176.400 308.490 184.000 308.546 C 188.180 308.576,194.120 308.343,197.200 308.027 L 202.800 307.452 197.600 307.481 C 194.740 307.497,188.800 307.730,184.400 308.000 M348.400 308.486 C 346.863 308.744,317.831 310.466,287.600 312.093 C 279.680 312.519,267.440 313.209,260.400 313.625 C 253.360 314.041,241.840 314.722,234.800 315.139 C 227.760 315.555,215.700 316.258,208.000 316.699 C 182.724 318.148,163.023 319.339,148.800 320.277 L 134.800 321.200 134.591 356.351 C 134.477 375.685,134.657 391.717,134.991 391.978 C 135.777 392.590,149.830 391.813,191.200 388.871 C 219.525 386.856,255.302 384.368,273.600 383.139 C 279.980 382.711,290.600 381.997,297.200 381.554 C 303.800 381.111,313.880 380.413,319.600 380.004 C 325.320 379.595,335.220 378.911,341.600 378.483 C 347.980 378.056,356.218 377.446,359.907 377.126 L 366.613 376.546 366.107 370.552 C 365.828 367.256,365.600 351.833,365.600 336.279 L 365.600 308.000 357.800 308.109 C 353.510 308.169,349.280 308.339,348.400 308.486 M168.600 309.379 C 170.030 309.556,172.370 309.556,173.800 309.379 C 175.230 309.201,174.060 309.056,171.200 309.056 C 168.340 309.056,167.170 309.201,168.600 309.379 M144.400 310.420 C 141.760 310.724,145.360 310.794,152.400 310.577 C 159.440 310.360,165.350 310.051,165.533 309.891 C 166.081 309.412,149.577 309.826,144.400 310.420 " stroke="none" fill="#a0bce7" fill-rule="evenodd"></path></g></svg>