<svg id="svg" version="1.1" width="747" height="500" xmlns="http://www.w3.org/2000/svg" xmlns:xlink="http://www.w3.org/1999/xlink" style="display: block;"><g id="svgg"><path id="path0" d="M180.723 9.689 C 171.910 10.214,160.600 11.160,156.091 11.750 C 145.550 13.129,143.151 13.505,142.169 13.936 C 141.580 14.193,138.809 14.683,136.011 15.023 C 133.213 15.363,130.683 15.822,130.388 16.042 C 130.094 16.262,127.925 16.754,125.569 17.135 C 123.213 17.516,121.044 17.994,120.750 18.196 C 120.455 18.399,118.768 18.872,117.001 19.248 C 115.234 19.624,113.548 20.106,113.253 20.319 C 112.959 20.532,111.336 21.004,109.648 21.367 C 107.959 21.730,106.452 22.231,106.298 22.480 C 106.144 22.729,105.056 23.095,103.879 23.294 C 102.703 23.492,101.740 23.836,101.740 24.058 C 101.740 24.280,100.415 24.779,98.795 25.167 C 97.175 25.556,95.850 26.031,95.850 26.223 C 95.850 26.414,94.645 26.880,93.173 27.257 C 91.700 27.635,90.495 28.162,90.495 28.430 C 90.495 28.697,90.157 28.916,89.744 28.916 C 88.815 28.916,75.592 35.629,74.405 36.703 C 73.931 37.132,73.371 37.483,73.161 37.483 C 72.817 37.483,67.639 41.148,66.011 42.543 C 65.650 42.853,64.708 43.588,63.917 44.177 C 60.625 46.629,54.095 53.645,51.514 57.505 L 48.745 61.645 38.007 61.746 C 30.856 61.814,27.142 62.045,26.888 62.439 C 26.678 62.765,25.542 63.209,24.364 63.425 C 23.186 63.642,21.211 64.279,19.976 64.841 C 18.740 65.403,17.560 65.863,17.354 65.863 C 16.500 65.863,11.373 69.649,9.545 71.630 C 2.514 79.247,1.148 93.904,6.447 104.870 C 7.024 106.065,7.497 107.296,7.497 107.605 C 7.497 107.913,7.721 108.166,7.996 108.166 C 8.271 108.166,8.658 108.678,8.856 109.303 C 11.178 116.619,25.786 129.320,33.735 130.934 C 34.766 131.144,35.850 131.500,36.145 131.726 C 36.439 131.953,38.430 132.446,40.569 132.822 C 45.738 133.733,45.363 132.136,45.621 154.308 C 45.767 166.882,46.052 174.200,46.412 174.656 C 46.722 175.048,47.127 176.895,47.313 178.761 C 47.498 180.626,47.998 182.916,48.423 183.848 C 48.848 184.780,49.490 186.566,49.850 187.818 C 50.210 189.070,50.707 190.094,50.955 190.094 C 51.203 190.094,51.406 190.371,51.406 190.710 C 51.406 191.530,54.173 197.134,55.020 198.030 C 55.388 198.419,55.689 199.065,55.689 199.465 C 55.689 199.864,56.013 200.515,56.408 200.910 C 56.803 201.305,57.438 202.211,57.819 202.922 C 58.200 203.634,58.727 204.472,58.990 204.786 C 59.252 205.099,60.485 206.690,61.728 208.321 C 64.129 211.471,69.500 216.919,73.408 220.170 C 76.128 222.432,79.200 224.925,80.225 225.702 C 80.614 225.997,81.330 226.660,81.817 227.175 C 82.303 227.691,82.914 228.112,83.174 228.112 C 83.434 228.112,84.311 228.655,85.123 229.317 C 85.934 229.980,87.053 230.819,87.610 231.182 C 88.166 231.544,89.535 232.448,90.653 233.190 C 91.770 233.931,92.782 234.538,92.902 234.538 C 93.021 234.538,94.161 235.241,95.434 236.101 C 98.344 238.064,108.116 243.106,109.013 243.106 C 109.382 243.106,109.763 243.291,109.862 243.517 C 109.960 243.743,111.847 244.613,114.056 245.451 C 116.265 246.289,118.916 247.296,119.946 247.689 C 120.977 248.082,122.664 248.564,123.695 248.761 C 124.726 248.958,125.810 249.307,126.104 249.535 C 126.399 249.764,128.086 250.230,129.853 250.572 C 131.620 250.914,133.548 251.398,134.137 251.647 C 135.240 252.114,142.590 253.869,147.791 254.908 C 149.411 255.232,152.423 255.832,154.485 256.241 C 156.546 256.651,158.968 256.995,159.866 257.007 C 160.764 257.019,161.728 257.254,162.008 257.531 C 162.288 257.808,165.649 258.337,169.478 258.707 C 173.307 259.077,176.602 259.618,176.800 259.910 C 177.317 260.670,208.593 260.973,217.403 260.303 C 227.326 259.549,238.362 258.171,239.484 257.546 C 239.995 257.261,241.080 257.019,241.894 257.007 C 243.633 256.982,249.040 255.960,255.422 254.451 C 257.925 253.859,261.178 253.103,262.651 252.770 C 264.123 252.438,265.704 251.961,266.163 251.711 C 266.622 251.461,268.430 250.962,270.179 250.604 C 271.929 250.245,273.601 249.776,273.896 249.562 C 274.190 249.348,275.877 248.865,277.644 248.489 C 279.411 248.113,281.098 247.619,281.392 247.392 C 281.687 247.164,282.669 246.819,283.576 246.626 C 284.482 246.432,286.651 245.668,288.395 244.926 C 290.139 244.185,292.033 243.433,292.602 243.254 C 293.519 242.966,302.135 238.630,305.774 236.624 C 306.520 236.213,308.359 234.973,309.862 233.869 C 311.364 232.764,312.742 231.861,312.923 231.861 C 313.105 231.861,313.718 231.439,314.286 230.924 C 316.158 229.224,316.950 228.648,317.413 228.648 C 317.665 228.648,318.337 228.226,318.908 227.711 C 319.479 227.195,320.971 226.078,322.222 225.228 C 323.474 224.378,324.498 223.491,324.498 223.256 C 324.498 223.022,324.980 222.677,325.569 222.490 C 326.943 222.054,337.273 211.665,339.291 208.690 C 340.136 207.445,341.129 206.233,341.498 205.997 C 341.867 205.762,342.169 205.351,342.169 205.084 C 342.169 204.673,343.815 201.933,345.240 199.973 C 347.456 196.926,352.878 185.484,352.878 183.857 C 352.878 183.282,353.112 182.577,353.399 182.291 C 354.098 181.591,354.996 175.138,355.009 170.714 C 355.015 168.744,355.261 166.983,355.556 166.801 C 355.895 166.591,356.091 159.965,356.091 148.690 L 356.091 130.910 359.438 129.973 C 361.278 129.457,363.568 128.888,364.525 128.708 C 365.482 128.528,366.265 128.196,366.265 127.971 C 366.265 127.746,367.161 127.394,368.257 127.189 C 370.222 126.820,374.932 124.400,375.279 123.581 C 375.377 123.349,375.773 123.159,376.160 123.159 C 376.546 123.159,377.430 122.561,378.123 121.830 C 378.817 121.099,379.575 120.496,379.809 120.491 C 381.377 120.457,391.432 107.671,391.432 105.711 C 391.432 105.294,391.655 104.953,391.926 104.953 C 392.198 104.953,392.715 104.050,393.075 102.945 C 393.435 101.841,393.896 100.817,394.099 100.669 C 394.516 100.367,395.519 96.903,396.347 92.905 C 397.390 87.864,395.957 75.457,394.150 73.896 C 393.980 73.748,393.482 72.933,393.043 72.084 C 392.000 70.064,387.274 65.328,386.302 65.328 C 385.884 65.328,385.542 65.128,385.542 64.883 C 385.542 64.281,379.956 61.828,375.508 60.476 C 373.517 59.871,371.148 59.149,370.243 58.871 C 367.827 58.130,354.641 58.241,352.485 59.020 C 350.975 59.567,350.598 59.545,350.192 58.887 C 347.343 54.266,343.104 49.715,337.349 45.095 C 336.024 44.031,334.693 42.907,334.392 42.598 C 334.091 42.288,333.464 41.794,332.999 41.499 C 332.535 41.205,331.095 40.250,329.799 39.378 C 326.640 37.251,325.701 36.739,317.141 32.472 C 313.088 30.452,309.133 28.464,308.351 28.054 C 307.569 27.644,306.606 27.308,306.209 27.306 C 305.813 27.304,304.806 26.947,303.972 26.511 C 303.137 26.076,301.450 25.465,300.223 25.154 C 298.996 24.842,297.510 24.363,296.921 24.089 C 295.193 23.284,291.200 21.919,288.889 21.344 C 287.711 21.051,286.345 20.597,285.855 20.335 C 285.364 20.074,283.316 19.578,281.303 19.235 C 279.291 18.891,277.403 18.423,277.108 18.195 C 276.814 17.967,274.645 17.480,272.289 17.114 C 269.933 16.747,267.764 16.266,267.470 16.046 C 267.175 15.825,264.645 15.343,261.847 14.975 C 259.050 14.607,256.519 14.128,256.225 13.911 C 255.930 13.693,253.762 13.348,251.406 13.144 C 249.050 12.940,246.278 12.539,245.248 12.253 C 237.834 10.198,198.450 8.632,180.723 9.689 M223.561 15.813 C 229.451 16.264,236.198 16.874,238.554 17.170 C 240.910 17.466,244.886 17.956,247.390 18.258 C 252.522 18.879,262.112 20.554,266.934 21.672 C 268.701 22.082,272.436 22.935,275.234 23.567 C 301.762 29.559,325.554 40.942,338.819 53.987 C 363.874 78.628,350.947 111.855,306.560 136.900 C 300.717 140.197,287.889 146.255,283.534 147.774 C 282.062 148.288,279.170 149.329,277.108 150.088 C 238.297 164.368,186.927 167.674,147.256 158.443 C 136.473 155.934,133.233 155.070,126.927 153.024 C 100.123 144.326,77.714 131.090,64.643 116.235 C 31.335 78.381,53.193 42.336,120.482 24.156 C 148.087 16.697,190.367 13.275,223.561 15.813 M179.116 22.287 C 177.938 22.400,172.878 22.862,167.871 23.312 C 156.345 24.348,138.354 27.132,131.727 28.906 C 130.696 29.182,127.443 30.041,124.498 30.816 C 71.417 44.778,50.525 73.710,72.163 103.292 C 97.877 138.446,169.783 157.668,234.806 146.770 C 278.470 139.451,315.891 120.945,330.193 99.598 C 352.439 66.392,320.526 36.745,250.602 25.660 C 232.636 22.812,193.046 20.944,179.116 22.287 M217.939 26.243 C 317.357 31.758,362.744 73.013,312.450 112.152 C 301.573 120.616,277.610 132.902,273.628 132.056 C 262.311 129.650,254.050 128.021,251.673 127.725 C 250.054 127.523,247.885 127.147,246.854 126.889 C 234.046 123.689,195.183 122.824,172.172 125.226 C 165.701 125.902,160.265 126.542,160.091 126.650 C 159.916 126.758,157.620 127.209,154.987 127.653 C 148.770 128.702,141.602 130.201,133.099 132.234 C 124.598 134.265,125.385 134.297,119.072 131.675 C 90.970 120.008,73.349 104.505,68.564 87.236 C 58.355 50.395,129.516 21.339,217.939 26.243 M372.912 64.760 C 387.599 69.061,393.071 76.829,391.418 91.031 C 389.393 108.417,375.630 121.381,354.485 125.820 C 353.159 126.098,349.915 127.059,347.275 127.955 C 341.206 130.016,337.503 130.127,335.392 128.311 L 333.910 127.036 335.904 123.090 C 339.162 116.638,342.298 113.653,347.110 112.420 C 359.470 109.254,373.330 99.012,376.615 90.618 C 380.193 81.478,374.277 75.108,361.696 74.553 C 355.578 74.283,355.536 74.272,355.249 72.883 C 355.090 72.115,354.375 69.936,353.660 68.041 C 352.945 66.146,352.481 64.475,352.629 64.327 C 354.064 62.892,367.514 63.179,372.912 64.760 M46.902 67.047 C 47.305 67.309,47.102 68.554,46.247 71.063 C 45.565 73.063,45.001 75.207,44.994 75.828 C 44.981 76.887,44.626 76.974,39.224 77.240 C 15.851 78.389,16.661 95.147,40.829 110.469 C 43.406 112.103,51.568 115.188,54.618 115.682 C 58.179 116.258,60.503 118.577,63.451 124.498 C 67.789 133.208,64.559 134.592,50.067 130.232 C 46.238 129.080,41.058 127.582,38.554 126.903 C 25.014 123.231,13.938 112.520,9.584 98.891 C 3.436 79.646,15.854 66.157,39.357 66.550 C 43.186 66.614,46.581 66.838,46.902 67.047 M367.542 80.444 C 375.870 82.931,373.721 90.668,362.296 99.331 C 361.519 99.920,360.579 100.643,360.207 100.937 C 359.321 101.638,357.252 102.811,356.902 102.811 C 356.511 102.811,356.560 90.520,356.974 84.687 L 357.322 79.786 361.330 79.786 C 363.534 79.786,366.329 80.082,367.542 80.444 M43.659 86.487 C 43.867 88.700,44.249 90.642,44.508 90.802 C 44.768 90.963,44.980 94.590,44.980 98.863 L 44.980 106.632 43.775 106.256 C 43.112 106.049,42.450 105.732,42.303 105.550 C 42.155 105.369,40.830 104.382,39.357 103.356 C 29.089 96.202,25.022 89.460,28.675 85.648 C 29.507 84.780,30.578 84.070,31.055 84.070 C 31.533 84.070,32.392 83.716,32.963 83.283 C 33.687 82.736,35.414 82.492,38.642 82.480 L 43.282 82.463 43.659 86.487 M351.703 104.282 C 351.554 106.597,351.373 106.902,349.665 107.708 C 347.392 108.781,346.636 108.465,347.758 106.910 C 348.217 106.276,349.079 104.853,349.675 103.748 C 351.157 101.000,351.901 101.195,351.703 104.282 M54.385 110.430 L 55.169 111.891 53.421 111.559 C 50.230 110.954,49.799 110.496,49.799 107.701 C 49.799 103.587,51.141 104.385,54.385 110.430 M330.388 128.153 C 330.388 132.657,337.917 134.779,345.917 132.530 C 348.536 131.794,350.812 131.191,350.975 131.191 C 352.101 131.191,350.775 171.855,349.447 178.046 C 346.407 192.226,333.828 210.300,319.710 220.773 C 299.021 236.122,289.772 240.356,260.509 247.871 C 235.814 254.212,200.224 257.307,179.920 254.879 C 177.416 254.579,173.199 254.085,170.549 253.780 C 156.473 252.161,132.543 246.744,121.017 242.568 C 83.335 228.914,54.892 200.904,51.418 174.029 C 50.195 164.565,50.016 134.167,51.186 134.620 C 60.586 138.261,69.612 136.057,69.612 130.120 C 69.612 127.461,69.486 127.446,73.505 130.574 C 97.892 149.550,131.689 162.290,168.942 166.549 C 171.593 166.852,175.087 167.317,176.707 167.581 C 180.576 168.212,211.493 168.246,217.671 167.627 C 227.438 166.647,237.006 165.458,239.090 164.964 C 240.268 164.685,243.641 163.941,246.586 163.309 C 279.355 156.286,304.893 145.416,326.050 129.487 C 329.946 126.554,330.388 126.418,330.388 128.153 M220.348 127.953 C 232.368 128.544,241.702 129.790,259.304 133.154 C 263.353 133.928,266.667 134.720,266.667 134.913 C 266.667 135.724,253.163 139.432,242.119 141.653 C 210.439 148.023,177.404 147.538,145.382 140.232 C 142.731 139.627,139.960 138.923,139.224 138.668 C 138.487 138.412,136.861 137.941,135.609 137.622 C 132.664 136.870,132.734 136.356,135.877 135.655 C 150.676 132.355,158.334 130.885,164.659 130.129 C 167.309 129.812,171.429 129.300,173.815 128.990 C 183.290 127.759,206.065 127.252,220.348 127.953 " stroke="none" fill="#000000" fill-rule="evenodd"></path><path id="path1" d="M184.076 21.798 C 184.742 21.926,185.706 21.921,186.218 21.787 C 186.730 21.653,186.185 21.548,185.007 21.554 C 183.829 21.560,183.410 21.670,184.076 21.798 M212.189 21.803 C 213.003 21.926,214.208 21.923,214.867 21.796 C 215.525 21.669,214.859 21.568,213.387 21.572 C 211.914 21.576,211.375 21.680,212.189 21.803 M357.697 64.225 C 356.667 64.460,356.291 64.683,356.862 64.722 C 357.434 64.761,360.091 65.879,362.768 67.208 C 375.486 73.520,380.807 83.695,376.177 92.847 C 372.149 100.808,356.167 111.542,345.826 113.232 C 344.314 113.479,343.172 114.296,340.879 116.774 C 336.425 121.584,336.253 122.089,339.071 122.087 C 348.308 122.082,366.410 119.932,371.878 118.192 C 380.910 115.317,390.230 101.220,390.777 89.608 C 391.070 83.383,390.503 77.203,389.807 79.043 C 388.126 83.489,381.205 83.423,379.333 78.943 C 377.398 74.311,383.019 70.055,386.882 73.226 C 387.510 73.742,387.003 73.178,385.755 71.973 C 380.085 66.500,365.456 62.461,357.697 64.225 M28.380 67.985 C 24.471 69.057,19.683 70.859,17.671 72.017 L 16.332 72.787 18.033 72.806 C 21.296 72.842,22.763 76.043,20.910 79.082 C 18.523 82.997,11.346 83.369,11.201 79.586 C 11.059 75.878,9.447 82.845,9.225 88.129 C 8.555 104.054,13.779 110.281,35.304 119.216 C 38.376 120.491,42.111 121.779,43.604 122.079 C 48.924 123.146,55.467 124.665,58.367 125.506 C 64.514 127.288,64.702 126.923,60.727 120.942 C 58.747 117.964,57.936 117.194,56.325 116.761 C 55.239 116.469,52.905 115.842,51.138 115.367 C 41.112 112.671,26.815 102.247,23.635 95.315 C 18.399 83.902,28.693 69.979,42.972 69.162 C 46.505 68.960,47.818 68.057,45.739 67.259 C 43.845 66.533,31.849 67.034,28.380 67.985 M16.691 86.027 C 17.967 87.181,17.931 88.408,16.579 89.859 C 14.641 91.939,11.780 90.689,11.780 87.762 C 11.780 85.332,14.760 84.279,16.691 86.027 M384.767 88.385 C 385.883 89.617,385.362 91.153,383.719 91.477 C 381.613 91.891,380.365 88.927,382.195 87.861 C 383.492 87.106,383.637 87.135,384.767 88.385 M50.335 107.682 C 50.335 110.011,50.424 110.156,52.209 110.703 C 53.240 111.020,54.083 111.171,54.083 111.040 C 54.083 110.909,53.240 109.549,52.209 108.018 L 50.335 105.235 50.335 107.682 M188.755 128.584 C 169.701 129.577,161.253 130.699,142.436 134.733 C 134.370 136.462,134.325 136.480,136.278 137.301 C 137.162 137.672,138.608 138.127,139.491 138.311 C 140.375 138.495,143.748 139.273,146.988 140.039 C 180.591 147.992,227.089 146.864,258.099 137.345 C 259.424 136.938,261.583 136.328,262.895 135.990 C 266.070 135.171,265.206 134.741,257.517 133.316 C 231.059 128.410,214.253 127.254,188.755 128.584 M326.067 130.159 C 324.468 131.358,321.473 133.436,319.411 134.777 C 317.349 136.118,315.020 137.659,314.234 138.203 C 313.448 138.746,310.496 140.424,307.674 141.932 L 302.544 144.674 302.544 188.298 L 302.544 231.921 304.584 230.686 C 319.799 221.477,330.829 211.546,338.368 200.268 C 343.577 192.475,343.553 192.514,342.778 192.993 C 342.301 193.288,342.185 186.272,342.294 163.694 L 342.436 134.006 340.487 134.268 C 336.712 134.775,329.853 131.195,329.853 128.718 C 329.853 127.564,329.194 127.814,326.067 130.159 M70.296 130.740 C 69.953 135.610,62.009 138.460,54.837 136.284 C 53.392 135.846,51.908 135.484,51.539 135.481 C 50.562 135.473,50.658 158.540,51.682 169.746 C 53.514 189.783,62.136 203.979,82.463 220.429 L 86.479 223.679 86.315 181.853 L 86.151 140.027 82.031 137.372 C 79.765 135.913,76.298 133.443,74.326 131.884 C 70.093 128.538,70.444 128.638,70.296 130.740 M349.766 132.058 C 350.264 132.207,350.785 132.856,350.925 133.500 C 351.138 134.482,351.165 134.456,351.092 133.339 C 351.032 132.434,350.660 131.971,349.933 131.897 C 349.162 131.819,349.116 131.864,349.766 132.058 M91.971 185.436 L 91.834 227.309 93.555 228.485 C 94.502 229.132,95.767 229.923,96.367 230.244 L 97.456 230.828 97.456 188.582 L 97.456 146.337 94.782 144.949 L 92.108 143.562 91.971 185.436 M350.416 152.610 C 350.416 157.175,350.498 159.043,350.599 156.760 C 350.699 154.478,350.699 150.743,350.599 148.461 C 350.498 146.178,350.416 148.046,350.416 152.610 M294.389 148.483 L 291.857 149.665 291.845 193.717 L 291.834 237.769 294.511 236.412 L 297.189 235.056 297.189 191.156 C 297.189 167.011,297.129 147.266,297.055 147.278 C 296.981 147.290,295.782 147.832,294.389 148.483 M102.942 191.831 L 103.079 234.264 105.890 235.684 L 108.701 237.104 108.701 194.428 L 108.701 151.753 106.278 150.575 C 104.944 149.928,103.618 149.398,103.329 149.398 C 102.990 149.398,102.853 164.404,102.942 191.831 M194.511 150.327 C 195.910 150.437,198.199 150.437,199.598 150.327 C 200.997 150.216,199.853 150.126,197.055 150.126 C 194.257 150.126,193.112 150.216,194.511 150.327 M110.710 152.609 C 111.689 153.708,111.689 237.537,110.710 237.932 C 110.310 238.093,110.417 238.219,110.977 238.244 C 112.432 238.310,112.432 153.668,110.977 152.568 C 110.180 151.965,110.140 151.971,110.710 152.609 M131.727 202.604 L 131.727 245.562 134.538 246.208 C 136.084 246.564,139.398 247.346,141.901 247.946 C 147.405 249.265,155.547 250.890,161.714 251.901 C 164.217 252.311,167.890 252.951,169.877 253.323 C 171.863 253.695,173.581 253.898,173.695 253.773 C 173.808 253.649,174.010 234.244,174.143 210.651 L 174.385 167.754 169.522 167.115 C 157.766 165.572,153.651 164.931,149.130 163.940 C 142.174 162.415,135.474 160.810,133.467 160.187 L 131.727 159.646 131.727 202.604 M188.086 163.168 C 188.896 163.291,190.221 163.291,191.031 163.168 C 191.841 163.045,191.178 162.945,189.558 162.945 C 187.938 162.945,187.276 163.045,188.086 163.168 M203.347 163.162 C 204.009 163.290,205.094 163.290,205.756 163.162 C 206.419 163.035,205.877 162.930,204.552 162.930 C 203.226 162.930,202.684 163.035,203.347 163.162 " stroke="none" fill="#f05951" fill-rule="evenodd"></path><path id="path2" d="M176.439 16.100 C 77.121 22.961,26.242 64.354,60.580 110.357 C 79.640 135.893,119.839 155.227,166.265 161.186 C 189.521 164.172,219.300 163.397,240.696 159.252 C 246.932 158.043,257.043 155.839,258.902 155.282 C 259.786 155.017,262.677 154.169,265.328 153.397 C 284.346 147.857,304.522 138.637,317.269 129.659 C 318.742 128.622,320.790 127.203,321.821 126.507 C 342.321 112.650,353.969 91.282,350.232 74.385 C 341.983 37.089,261.812 10.202,176.439 16.100 M224.222 22.242 C 250.519 24.100,273.332 28.545,292.637 35.574 C 308.219 41.246,318.321 47.236,326.924 55.902 C 368.699 97.979,283.981 154.293,185.454 149.941 C 132.636 147.608,87.137 127.869,68.794 99.331 C 54.386 76.913,68.048 51.802,102.276 37.789 C 104.190 37.006,106.238 36.138,106.827 35.862 C 118.262 30.502,151.230 23.796,172.691 22.466 C 177.697 22.156,182.155 21.821,182.597 21.723 C 185.081 21.168,214.154 21.531,224.222 22.242 M380.588 73.352 C 377.889 75.474,378.506 79.960,381.725 81.624 C 386.423 84.054,391.114 80.675,388.960 76.412 C 386.847 72.230,383.547 71.024,380.588 73.352 M13.984 75.094 C 10.464 78.650,10.391 81.163,13.783 82.041 C 18.784 83.337,23.716 77.886,20.845 74.236 C 19.090 72.005,16.754 72.297,13.984 75.094 M12.718 85.719 C 10.725 86.879,12.206 91.031,14.613 91.031 C 15.720 91.031,17.671 88.969,17.671 87.800 C 17.671 85.752,14.760 84.529,12.718 85.719 M382.195 87.861 C 380.365 88.927,381.613 91.891,383.719 91.477 C 385.362 91.153,385.883 89.617,384.767 88.385 C 383.637 87.135,383.492 87.106,382.195 87.861 M349.738 105.115 C 348.279 107.462,348.452 108.083,350.177 106.686 C 350.973 106.042,351.313 105.273,351.190 104.397 C 351.012 103.138,350.947 103.171,349.738 105.115 M345.649 133.266 L 342.436 134.145 342.294 149.000 C 342.216 157.171,342.216 170.542,342.294 178.715 L 342.436 193.574 343.760 191.165 C 349.130 181.392,349.927 176.370,350.450 148.996 C 350.814 129.932,351.356 131.706,345.649 133.266 M86.212 181.800 L 86.212 223.202 88.827 225.122 C 90.265 226.178,91.590 227.041,91.772 227.041 C 91.953 227.041,92.102 208.264,92.102 185.315 L 92.102 143.588 89.157 141.993 L 86.212 140.398 86.212 181.800 M108.832 194.444 L 108.969 237.483 110.177 237.655 L 111.385 237.826 111.248 195.418 L 111.111 153.009 109.903 152.207 L 108.695 151.405 108.832 194.444 " stroke="none" fill="#ffecbe" fill-rule="evenodd"></path><path id="path3" d="M189.960 15.394 C 194.746 15.483,202.577 15.483,207.363 15.394 C 212.149 15.305,208.233 15.233,198.661 15.233 C 189.090 15.233,185.174 15.305,189.960 15.394 M176.583 15.917 C 177.545 16.036,178.991 16.034,179.795 15.911 C 180.600 15.789,179.813 15.692,178.046 15.695 C 176.278 15.698,175.620 15.798,176.583 15.917 M218.340 15.916 C 219.297 16.035,220.863 16.035,221.821 15.916 C 222.778 15.797,221.995 15.700,220.080 15.700 C 218.166 15.700,217.383 15.797,218.340 15.916 M168.547 16.443 C 169.213 16.571,170.177 16.566,170.689 16.432 C 171.201 16.298,170.656 16.193,169.478 16.199 C 168.300 16.205,167.881 16.315,168.547 16.443 M227.449 16.443 C 228.115 16.571,229.079 16.566,229.591 16.432 C 230.103 16.298,229.558 16.193,228.380 16.199 C 227.202 16.205,226.783 16.315,227.449 16.443 M158.768 17.135 C 156.235 17.483,156.206 17.504,158.233 17.528 C 159.411 17.543,161.821 17.375,163.588 17.156 L 166.801 16.757 164.123 16.763 C 162.651 16.766,160.241 16.933,158.768 17.135 M234.003 17.158 C 235.622 17.382,237.912 17.555,239.090 17.542 C 240.941 17.523,240.832 17.465,238.286 17.113 C 236.667 16.889,234.378 16.716,233.199 16.728 C 231.348 16.747,231.457 16.806,234.003 17.158 M143.775 19.277 C 142.342 19.642,142.313 19.686,143.507 19.686 C 144.244 19.686,145.569 19.502,146.452 19.277 C 147.885 18.912,147.914 18.868,146.720 18.868 C 145.984 18.868,144.659 19.052,143.775 19.277 M251.406 19.277 C 252.289 19.502,253.735 19.686,254.618 19.686 L 256.225 19.686 254.618 19.277 C 253.735 19.052,252.289 18.868,251.406 18.868 L 249.799 18.868 251.406 19.277 M132.262 21.419 C 130.463 21.995,132.407 21.995,134.672 21.419 C 136.115 21.052,136.142 21.009,134.940 21.000 C 134.203 20.995,132.999 21.183,132.262 21.419 M263.454 21.419 C 264.190 21.655,265.274 21.855,265.863 21.863 L 266.934 21.879 265.863 21.419 C 265.274 21.166,264.190 20.966,263.454 20.975 L 262.115 20.990 263.454 21.419 M192.935 21.819 C 196.412 21.913,201.954 21.912,205.251 21.818 C 208.548 21.725,205.703 21.648,198.929 21.649 C 192.155 21.649,189.458 21.726,192.935 21.819 M177.644 22.332 C 178.307 22.460,179.391 22.460,180.054 22.332 C 180.716 22.205,180.174 22.100,178.849 22.100 C 177.523 22.100,176.981 22.205,177.644 22.332 M219.686 22.339 C 220.500 22.462,221.705 22.459,222.363 22.331 C 223.022 22.204,222.356 22.104,220.884 22.108 C 219.411 22.112,218.872 22.216,219.686 22.339 M123.695 23.293 C 122.369 23.677,121.767 23.996,122.356 24.003 C 122.945 24.009,124.391 23.696,125.569 23.308 C 128.342 22.394,126.839 22.382,123.695 23.293 M169.887 22.874 C 170.701 22.997,171.906 22.994,172.564 22.867 C 173.223 22.740,172.557 22.639,171.084 22.643 C 169.612 22.647,169.073 22.751,169.887 22.874 M228.916 22.998 C 233.717 23.656,241.289 24.136,238.286 23.592 C 236.961 23.353,233.588 23.022,230.790 22.857 C 226.872 22.627,226.441 22.660,228.916 22.998 M271.218 22.958 C 271.807 23.206,273.253 23.559,274.431 23.744 C 275.790 23.956,276.182 23.914,275.502 23.628 C 274.913 23.381,273.467 23.027,272.289 22.843 C 270.930 22.630,270.539 22.672,271.218 22.958 M160.643 23.573 C 159.564 23.806,160.701 23.859,163.320 23.696 C 165.823 23.541,167.972 23.326,168.095 23.220 C 168.492 22.874,162.573 23.154,160.643 23.573 M115.930 25.455 C 113.819 26.186,113.815 26.192,115.663 25.880 C 117.847 25.512,120.080 24.696,118.876 24.707 C 118.434 24.711,117.108 25.048,115.930 25.455 M148.862 25.167 C 147.440 25.467,147.311 25.571,148.327 25.601 C 149.063 25.623,150.629 25.442,151.807 25.198 C 153.593 24.829,153.682 24.757,152.343 24.764 C 151.459 24.769,149.893 24.950,148.862 25.167 M247.657 25.198 C 248.835 25.442,250.402 25.627,251.138 25.610 C 251.997 25.591,251.709 25.421,250.335 25.137 C 249.157 24.893,247.590 24.707,246.854 24.724 C 245.995 24.744,246.283 24.914,247.657 25.198 M281.374 25.457 C 282.836 25.858,284.124 26.095,284.235 25.984 C 284.503 25.716,280.548 24.625,279.518 24.683 C 279.076 24.707,279.911 25.056,281.374 25.457 M179.652 26.296 C 107.580 30.493,60.063 56.559,68.564 87.236 C 73.349 104.505,90.970 120.008,119.072 131.675 C 125.385 134.297,124.598 134.265,133.099 132.234 C 141.602 130.201,148.770 128.702,154.987 127.653 C 157.620 127.209,159.916 126.758,160.091 126.650 C 160.265 126.542,165.701 125.902,172.172 125.226 C 195.183 122.824,234.046 123.689,246.854 126.889 C 247.885 127.147,250.054 127.523,251.673 127.725 C 254.050 128.021,262.311 129.650,273.628 132.056 C 276.121 132.585,293.189 124.853,302.811 118.835 C 358.428 84.049,335.746 43.989,252.477 29.939 C 231.111 26.334,203.074 24.932,179.652 26.296 M285.408 26.466 C 285.408 26.788,290.948 28.374,291.198 28.124 C 291.311 28.010,290.132 27.540,288.577 27.078 C 285.453 26.150,285.408 26.142,285.408 26.466 M108.969 27.558 C 106.901 28.505,107.863 28.518,110.308 27.577 C 111.339 27.180,111.821 26.848,111.379 26.839 C 110.937 26.830,109.853 27.153,108.969 27.558 M137.082 27.335 C 136.179 27.642,136.615 27.690,138.420 27.481 C 139.893 27.311,141.198 27.082,141.321 26.973 C 141.742 26.597,138.419 26.881,137.082 27.335 M259.973 27.309 C 262.238 27.886,264.183 27.886,262.383 27.309 C 261.647 27.073,260.442 26.885,259.705 26.890 C 258.503 26.899,258.530 26.942,259.973 27.309 M103.447 29.281 C 102.177 29.731,101.233 30.193,101.348 30.309 C 101.593 30.553,106.560 28.922,106.560 28.598 C 106.560 28.262,105.950 28.396,103.447 29.281 M129.349 28.982 C 128.188 29.254,127.104 29.613,126.939 29.779 C 126.508 30.216,130.770 29.400,131.727 28.863 C 132.716 28.309,132.090 28.340,129.349 28.982 M268.005 28.848 C 268.594 29.096,270.040 29.450,271.218 29.634 C 272.578 29.847,272.969 29.805,272.289 29.519 C 271.700 29.271,270.254 28.917,269.076 28.733 C 267.717 28.520,267.326 28.562,268.005 28.848 M292.905 28.825 C 293.347 29.098,294.311 29.483,295.047 29.680 C 295.977 29.929,296.141 29.886,295.582 29.541 C 295.141 29.269,294.177 28.884,293.440 28.687 C 292.510 28.438,292.347 28.480,292.905 28.825 M98.260 31.344 C 96.921 31.989,96.876 32.063,97.992 31.791 C 99.509 31.420,101.215 30.551,100.402 30.563 C 100.107 30.567,99.143 30.919,98.260 31.344 M121.017 31.325 C 119.987 31.722,119.505 32.047,119.946 32.047 C 120.388 32.047,121.593 31.722,122.624 31.325 C 123.655 30.928,124.137 30.604,123.695 30.604 C 123.253 30.604,122.048 30.928,121.017 31.325 M276.841 30.989 C 277.282 31.254,278.487 31.619,279.518 31.802 C 280.782 32.026,281.044 31.985,280.321 31.675 C 278.665 30.966,275.890 30.419,276.841 30.989 M298.795 30.967 C 299.237 31.240,300.201 31.625,300.937 31.822 C 301.867 32.070,302.031 32.028,301.473 31.683 C 301.031 31.410,300.067 31.026,299.331 30.829 C 298.400 30.580,298.237 30.622,298.795 30.967 M93.229 33.245 C 92.523 33.527,92.080 33.892,92.244 34.056 C 92.408 34.220,93.226 33.984,94.062 33.531 C 95.744 32.619,95.232 32.444,93.229 33.245 M114.131 33.278 C 113.142 33.563,112.433 33.896,112.555 34.019 C 112.825 34.289,116.734 33.249,116.734 32.907 C 116.734 32.591,116.309 32.652,114.131 33.278 M284.873 33.467 C 287.318 34.409,288.280 34.395,286.212 33.448 C 285.328 33.043,284.244 32.720,283.802 32.729 C 283.360 32.738,283.842 33.070,284.873 33.467 M305.221 33.467 C 305.957 33.888,306.801 34.232,307.095 34.232 C 307.390 34.232,307.028 33.888,306.292 33.467 C 305.556 33.046,304.712 32.702,304.418 32.702 C 304.123 32.702,304.485 33.046,305.221 33.467 M86.613 36.447 C 84.920 37.321,83.534 38.156,83.534 38.303 C 83.534 38.542,89.906 35.509,90.451 35.010 C 91.152 34.368,89.288 35.066,86.613 36.447 M107.898 35.628 C 106.559 36.273,106.515 36.347,107.631 36.074 C 109.148 35.704,110.853 34.834,110.040 34.846 C 109.746 34.851,108.782 35.202,107.898 35.628 M291.299 35.609 C 293.743 36.551,294.705 36.537,292.637 35.590 C 291.754 35.185,290.669 34.862,290.228 34.871 C 289.786 34.880,290.268 35.212,291.299 35.609 M310.040 35.609 C 310.776 36.030,311.620 36.374,311.914 36.374 C 312.209 36.374,311.847 36.030,311.111 35.609 C 310.375 35.188,309.531 34.844,309.237 34.844 C 308.942 34.844,309.304 35.188,310.040 35.609 M101.879 37.939 C 98.564 39.424,96.527 40.707,99.074 39.705 C 101.905 38.592,106.265 36.473,105.756 36.458 C 105.462 36.449,103.717 37.116,101.879 37.939 M296.597 37.532 C 297.892 38.107,299.047 38.481,299.163 38.365 C 299.395 38.133,295.268 36.389,294.634 36.450 C 294.419 36.471,295.303 36.958,296.597 37.532 M312.718 36.675 C 312.718 37.041,315.996 38.667,316.241 38.422 C 316.357 38.306,315.612 37.810,314.585 37.320 C 313.558 36.830,312.718 36.540,312.718 36.675 M300.937 39.357 C 301.673 39.778,302.517 40.123,302.811 40.123 C 303.106 40.123,302.744 39.778,302.008 39.357 C 301.272 38.937,300.428 38.592,300.134 38.592 C 299.839 38.592,300.201 38.937,300.937 39.357 M317.001 38.794 C 317.001 38.942,317.724 39.436,318.608 39.893 C 319.491 40.350,320.214 40.603,320.214 40.456 C 320.214 40.309,319.491 39.814,318.608 39.357 C 317.724 38.901,317.001 38.647,317.001 38.794 M77.778 41.226 C 76.821 41.809,76.037 42.403,76.037 42.544 C 76.037 42.686,76.881 42.304,77.912 41.696 C 78.942 41.088,79.786 40.494,79.786 40.375 C 79.786 40.033,79.617 40.105,77.778 41.226 M303.614 40.423 C 303.614 40.790,306.893 42.415,307.138 42.170 C 307.254 42.054,306.509 41.558,305.482 41.068 C 304.455 40.579,303.614 40.288,303.614 40.423 M92.496 42.399 C 90.799 43.320,89.491 44.154,89.589 44.252 C 89.687 44.350,91.317 43.596,93.210 42.576 C 95.104 41.555,96.412 40.721,96.118 40.723 C 95.823 40.724,94.194 41.478,92.496 42.399 M321.017 41.072 C 321.312 41.376,322.758 42.299,324.230 43.123 C 325.703 43.947,326.667 44.372,326.372 44.068 C 326.078 43.764,324.632 42.842,323.159 42.018 C 321.687 41.194,320.723 40.768,321.017 41.072 M307.898 42.549 C 307.898 42.696,308.862 43.308,310.040 43.909 C 311.218 44.510,312.182 44.881,312.182 44.734 C 312.182 44.587,311.218 43.974,310.040 43.373 C 308.862 42.772,307.898 42.401,307.898 42.549 M87.208 45.546 C 86.010 46.589,86.006 46.617,87.119 46.078 C 87.765 45.766,88.442 45.270,88.623 44.977 C 89.149 44.125,88.572 44.357,87.208 45.546 M327.175 44.615 C 327.175 44.745,328.561 45.893,330.254 47.166 C 331.948 48.439,334.634 50.697,336.224 52.183 C 337.813 53.670,339.018 54.618,338.901 54.291 C 338.499 53.168,327.175 43.823,327.175 44.615 M81.778 49.252 C 79.841 50.719,78.103 52.167,77.916 52.470 C 77.611 52.964,84.128 48.245,85.382 47.065 C 86.785 45.744,84.908 46.884,81.778 49.252 M65.105 50.625 C 63.951 51.643,63.124 52.593,63.266 52.734 C 63.407 52.876,64.460 52.033,65.605 50.860 C 68.157 48.247,67.922 48.137,65.105 50.625 M318.608 48.870 C 318.608 48.988,319.632 49.898,320.884 50.893 C 322.135 51.888,322.819 52.278,322.404 51.761 C 321.621 50.786,318.608 48.492,318.608 48.870 M326.927 56.184 C 328.705 58.121,330.706 60.428,331.374 61.312 C 332.263 62.487,332.423 62.577,331.969 61.645 C 331.627 60.944,329.626 58.637,327.521 56.517 L 323.695 52.663 326.927 56.184 M74.674 55.288 L 72.557 57.564 74.833 55.447 C 76.084 54.283,77.108 53.259,77.108 53.171 C 77.108 52.766,76.642 53.171,74.674 55.288 M339.491 54.942 C 339.491 55.237,340.394 56.310,341.498 57.325 L 343.505 59.170 341.904 57.296 C 341.023 56.265,340.120 55.193,339.897 54.913 C 339.645 54.597,339.491 54.607,339.491 54.942 M59.377 56.627 C 57.578 58.617,56.572 59.973,56.898 59.973 C 57.046 59.973,58.055 58.889,59.141 57.564 C 61.320 54.904,61.469 54.313,59.377 56.627 M344.888 62.018 C 345.836 63.544,346.712 64.793,346.835 64.793 C 347.219 64.793,344.649 60.476,343.889 59.845 C 343.489 59.514,343.939 60.491,344.888 62.018 M333.333 64.793 C 333.790 65.676,334.285 66.399,334.432 66.399 C 334.579 66.399,334.326 65.676,333.869 64.793 C 333.412 63.909,332.918 63.186,332.770 63.186 C 332.623 63.186,332.876 63.909,333.333 64.793 M355.164 63.655 C 352.144 64.193,352.175 64.104,353.660 68.041 C 354.375 69.936,355.090 72.115,355.249 72.883 C 355.536 74.272,355.578 74.283,361.696 74.553 C 369.156 74.882,372.883 76.385,375.770 80.229 C 378.129 83.370,377.960 82.480,375.370 78.120 C 372.077 72.578,361.602 65.001,356.862 64.734 C 356.291 64.702,356.908 64.449,358.233 64.172 C 360.398 63.720,367.052 63.936,370.549 64.573 L 371.888 64.817 370.549 64.214 C 368.923 63.480,358.306 63.095,355.164 63.655 M53.254 65.378 C 52.783 66.289,52.493 67.129,52.609 67.245 C 52.725 67.361,53.221 66.616,53.711 65.589 C 54.812 63.280,54.430 63.103,53.254 65.378 M372.155 64.997 C 372.155 65.156,373.179 65.555,374.431 65.883 C 380.096 67.366,386.620 71.745,389.164 75.770 C 389.537 76.359,389.495 76.105,389.071 75.206 C 387.160 71.148,372.155 62.092,372.155 64.997 M347.896 67.195 C 348.386 68.223,348.881 68.968,348.998 68.852 C 349.243 68.607,347.617 65.328,347.251 65.328 C 347.116 65.328,347.406 66.168,347.896 67.195 M35.207 66.795 C 37.048 66.900,40.060 66.900,41.901 66.795 C 43.742 66.691,42.236 66.605,38.554 66.605 C 34.873 66.605,33.367 66.691,35.207 66.795 M25.167 68.294 C 17.902 70.663,10.174 76.386,10.174 79.397 C 10.174 79.750,11.035 78.761,12.087 77.199 C 14.901 73.019,19.499 70.420,28.380 67.985 C 30.295 67.460,31.258 67.021,30.522 67.008 C 29.786 66.995,27.376 67.574,25.167 68.294 M45.917 67.289 C 47.820 68.057,46.400 68.967,42.972 69.176 C 33.931 69.727,24.196 77.072,22.780 84.412 C 22.485 85.940,22.486 85.940,23.276 84.241 C 25.182 80.147,30.867 77.651,39.224 77.240 C 44.626 76.974,44.981 76.887,44.994 75.828 C 45.001 75.207,45.562 73.071,46.240 71.081 C 47.522 67.321,47.507 66.906,46.095 66.977 C 45.542 67.004,45.480 67.113,45.917 67.289 M335.292 68.273 C 335.290 68.568,335.614 69.652,336.011 70.683 C 336.408 71.714,336.740 72.195,336.749 71.754 C 336.758 71.312,336.435 70.228,336.030 69.344 C 335.625 68.461,335.293 67.979,335.292 68.273 M349.197 69.612 C 349.186 69.759,349.512 71.084,349.921 72.557 C 350.371 74.178,350.669 74.706,350.676 73.896 C 350.686 72.810,349.265 68.695,349.197 69.612 M63.774 74.420 C 63.126 77.442,63.092 83.439,63.708 85.944 C 63.926 86.827,63.986 85.378,63.841 82.722 C 63.694 80.003,63.849 76.636,64.197 75.013 C 64.537 73.429,64.713 72.031,64.588 71.906 C 64.464 71.782,64.097 72.913,63.774 74.420 M49.598 76.104 C 49.174 78.228,49.258 87.152,49.719 88.787 C 49.910 89.467,50.067 86.515,50.067 82.227 C 50.067 73.640,50.074 73.728,49.598 76.104 M337.515 79.518 C 337.518 81.285,337.618 81.943,337.737 80.981 C 337.857 80.019,337.854 78.573,337.732 77.768 C 337.610 76.964,337.512 77.751,337.515 79.518 M390.237 78.715 C 390.453 79.746,390.629 83.481,390.629 87.015 C 390.629 90.549,390.453 94.284,390.237 95.315 C 389.946 96.704,389.986 96.948,390.393 96.259 C 391.934 93.649,391.936 80.385,390.396 77.776 C 389.984 77.078,389.944 77.316,390.237 78.715 M351.425 81.660 C 351.429 83.133,351.533 83.671,351.656 82.857 C 351.779 82.043,351.776 80.839,351.649 80.180 C 351.522 79.521,351.421 80.187,351.425 81.660 M9.112 82.431 C 8.346 85.273,8.350 94.661,9.118 97.513 C 9.867 100.293,10.280 100.015,9.622 97.174 C 8.985 94.429,8.985 85.491,9.622 82.746 C 10.284 79.892,9.865 79.633,9.112 82.431 M377.656 85.676 C 377.656 87.001,377.760 87.544,377.888 86.881 C 378.016 86.218,378.016 85.134,377.888 84.471 C 377.760 83.809,377.656 84.351,377.656 85.676 M335.850 88.193 C 335.058 90.775,335.441 91.158,336.278 88.621 C 336.632 87.551,336.817 86.571,336.689 86.444 C 336.562 86.317,336.184 87.104,335.850 88.193 M22.090 88.621 C 22.095 89.799,22.205 90.218,22.333 89.552 C 22.461 88.886,22.456 87.922,22.322 87.410 C 22.188 86.898,22.084 87.443,22.090 88.621 M349.963 90.257 C 349.761 91.332,349.703 92.318,349.834 92.449 C 349.965 92.580,350.237 91.808,350.439 90.733 C 350.640 89.659,350.698 88.672,350.567 88.541 C 350.436 88.411,350.164 89.183,349.963 90.257 M376.485 90.859 C 374.359 96.795,363.056 106.474,354.061 110.061 C 352.797 110.565,351.884 111.099,352.033 111.247 C 353.106 112.321,365.435 104.518,371.226 99.101 C 374.466 96.070,377.863 90.751,377.416 89.409 C 377.307 89.082,376.887 89.734,376.485 90.859 M65.363 91.566 C 65.365 92.008,65.729 92.972,66.173 93.708 L 66.979 95.047 66.624 93.708 C 66.109 91.765,65.360 90.492,65.363 91.566 M22.523 92.102 C 22.406 96.236,32.857 107.068,40.386 110.617 C 41.293 111.044,41.588 111.089,41.041 110.717 C 30.571 103.583,25.354 98.603,23.616 94.082 C 23.027 92.551,22.536 91.660,22.523 92.102 M66.934 95.520 C 66.934 96.094,68.528 99.063,68.836 99.063 C 68.983 99.063,68.706 98.280,68.219 97.323 C 67.225 95.368,66.934 94.961,66.934 95.520 M330.705 98.929 C 329.618 100.622,329.289 101.349,329.974 100.544 C 331.325 98.954,333.263 95.850,332.904 95.850 C 332.782 95.850,331.792 97.236,330.705 98.929 M388.742 99.180 C 382.335 115.424,374.724 119.667,348.594 121.562 C 337.673 122.353,336.658 122.309,337.320 121.072 C 338.235 119.363,343.381 113.972,344.549 113.499 C 345.523 113.104,345.537 113.049,344.666 113.019 C 343.112 112.966,338.057 118.765,335.889 123.090 L 333.910 127.036 335.392 128.311 C 337.503 130.127,341.206 130.016,347.275 127.955 C 349.915 127.059,353.159 126.098,354.485 125.820 C 369.992 122.565,378.455 117.300,385.262 106.673 C 387.872 102.599,390.088 98.075,389.675 97.663 C 389.543 97.530,389.123 98.213,388.742 99.180 M70.705 101.958 C 71.711 103.359,72.765 104.649,73.048 104.823 C 73.330 104.998,72.738 103.994,71.732 102.593 C 70.726 101.192,69.671 99.903,69.389 99.728 C 69.106 99.554,69.698 100.557,70.705 101.958 M10.188 100.557 C 10.169 101.519,11.910 104.828,14.730 109.187 C 20.839 118.630,28.180 124.089,38.554 126.903 C 41.058 127.582,46.238 129.080,50.067 130.232 C 64.559 134.592,67.789 133.208,63.451 124.498 C 60.573 118.719,58.110 116.169,55.154 115.910 C 53.829 115.794,53.226 115.827,53.815 115.983 C 57.916 117.073,58.373 117.401,60.743 120.967 C 64.700 126.920,64.509 127.286,58.367 125.506 C 55.467 124.665,48.924 123.146,43.604 122.079 C 37.285 120.811,24.487 114.763,18.108 110.031 C 14.081 107.043,13.239 106.131,11.830 103.223 C 10.934 101.377,10.195 100.177,10.188 100.557 M349.933 103.347 C 348.892 105.361,349.344 105.482,350.430 103.481 L 351.229 102.008 351.250 104.257 C 351.266 105.850,350.998 106.666,350.335 107.052 C 349.819 107.352,349.651 107.605,349.960 107.614 C 351.102 107.647,351.807 106.284,351.807 104.043 C 351.807 101.350,351.101 101.087,349.933 103.347 M54.902 102.811 C 55.880 104.591,60.559 111.379,60.809 111.379 C 61.107 111.379,55.855 103.388,55.002 102.544 C 54.639 102.184,54.606 102.272,54.902 102.811 M322.649 108.351 C 317.264 113.836,317.229 114.107,322.536 109.245 C 324.384 107.551,329.150 102.200,328.698 102.327 C 328.597 102.356,325.875 105.066,322.649 108.351 M344.515 102.945 C 344.298 103.313,343.741 104.208,343.278 104.932 C 342.755 105.752,342.691 106.094,343.110 105.836 C 343.802 105.409,345.606 102.276,345.159 102.276 C 345.022 102.276,344.732 102.577,344.515 102.945 M50.159 104.772 C 48.344 106.587,50.341 111.465,52.843 111.324 C 53.388 111.294,53.051 111.024,52.075 110.711 C 50.445 110.188,50.335 109.997,50.335 107.694 L 50.335 105.235 52.209 108.018 C 53.240 109.549,54.083 111.052,54.083 111.358 C 54.083 111.664,54.330 111.914,54.632 111.914 C 55.256 111.914,54.354 110.082,52.060 106.690 C 51.213 105.437,50.357 104.574,50.159 104.772 M75.363 107.898 C 76.569 109.371,78.715 111.660,80.132 112.985 C 81.807 114.552,81.413 113.990,79.007 111.379 C 73.802 105.732,72.830 104.803,75.363 107.898 M347.844 106.647 C 346.893 108.004,347.183 108.799,348.451 108.312 C 349.009 108.098,349.104 107.890,348.705 107.757 C 348.246 107.604,348.222 107.256,348.617 106.516 C 349.362 105.126,348.849 105.212,347.844 106.647 M340.564 108.779 C 339.583 110.000,336.591 113.342,333.915 116.206 C 329.515 120.915,329.603 120.847,334.837 115.498 C 340.011 110.210,343.166 106.560,342.562 106.560 C 342.444 106.560,341.545 107.559,340.564 108.779 M42.570 111.847 C 43.262 112.539,51.095 115.672,52.030 115.631 C 52.423 115.614,50.937 114.876,48.728 113.991 C 46.519 113.106,44.110 112.141,43.373 111.847 C 42.481 111.490,42.213 111.490,42.570 111.847 M348.059 112.182 C 346.388 112.666,346.059 112.889,346.988 112.909 C 347.724 112.924,349.050 112.606,349.933 112.201 C 351.943 111.281,351.196 111.273,348.059 112.182 M314.056 116.056 L 311.914 117.956 314.056 116.449 C 316.811 114.512,316.680 114.627,316.421 114.374 C 316.299 114.254,315.234 115.011,314.056 116.056 M65.333 117.001 C 68.390 120.457,73.254 124.883,77.644 128.205 C 79.558 129.653,81.426 131.068,81.794 131.348 C 82.162 131.629,82.463 131.733,82.463 131.580 C 82.463 131.427,80.355 129.699,77.778 127.740 C 75.201 125.781,70.813 121.961,68.028 119.251 C 65.243 116.541,64.030 115.529,65.333 117.001 M87.550 119.127 C 89.167 120.544,91.031 121.758,91.031 121.395 C 91.031 121.287,89.886 120.416,88.487 119.459 C 86.562 118.142,86.334 118.061,87.550 119.127 M307.539 120.387 C 304.057 122.659,301.591 124.559,303.614 123.411 C 306.013 122.050,311.647 118.309,311.647 118.076 C 311.647 117.696,311.783 117.619,307.539 120.387 M92.763 122.745 C 94.353 124.096,97.456 126.034,97.456 125.675 C 97.456 125.553,96.071 124.563,94.378 123.476 C 92.684 122.389,91.957 122.060,92.763 122.745 M325.568 123.789 C 324.243 124.970,323.882 125.436,324.766 124.824 C 327.457 122.960,328.447 122.110,328.207 121.870 C 328.081 121.744,326.893 122.608,325.568 123.789 M97.992 126.077 C 97.992 126.224,98.715 126.718,99.598 127.175 C 100.482 127.632,101.205 127.886,101.205 127.738 C 101.205 127.591,100.482 127.097,99.598 126.640 C 98.715 126.183,97.992 125.930,97.992 126.077 M295.047 127.697 C 293.133 128.691,288.625 130.778,285.030 132.335 C 281.436 133.892,278.584 135.255,278.694 135.365 C 279.140 135.812,298.795 126.751,298.795 126.098 C 298.795 125.737,298.927 125.681,295.047 127.697 M325.585 129.840 C 323.429 131.454,320.134 133.771,318.262 134.990 C 315.005 137.113,313.705 138.273,315.901 137.097 C 317.331 136.332,323.719 131.950,326.583 129.770 C 329.152 127.814,329.853 127.589,329.853 128.718 C 329.853 131.042,336.046 134.475,339.988 134.337 C 341.630 134.280,341.519 134.215,339.203 133.874 C 334.565 133.193,330.388 130.482,330.388 128.153 C 330.388 126.401,330.000 126.538,325.585 129.840 M202.008 127.841 C 204.290 127.942,208.025 127.942,210.308 127.841 C 212.590 127.741,210.723 127.659,206.158 127.659 C 201.593 127.659,199.726 127.741,202.008 127.841 M317.921 129.275 C 314.761 131.462,314.009 132.229,316.340 130.887 C 318.139 129.851,321.227 127.474,320.750 127.492 C 320.602 127.498,319.330 128.300,317.921 129.275 M69.612 130.120 C 69.612 136.029,60.580 138.261,51.272 134.653 C 50.393 134.312,50.342 135.101,50.458 147.332 L 50.582 160.375 50.736 147.925 C 50.852 138.501,51.050 135.477,51.549 135.481 C 51.912 135.484,53.392 135.846,54.837 136.284 C 62.009 138.460,69.953 135.610,70.296 130.740 C 70.444 128.639,70.093 128.540,74.326 131.873 C 79.852 136.225,93.229 144.627,96.519 145.813 C 97.401 146.131,97.456 148.653,97.456 188.489 C 97.456 229.986,97.436 230.817,96.434 230.281 C 93.837 228.890,88.171 224.918,83.534 221.237 C 69.615 210.186,63.748 203.419,57.617 191.341 C 55.998 188.152,54.662 185.783,54.647 186.078 C 54.511 188.817,63.752 203.322,69.581 209.518 C 85.096 226.013,106.337 238.558,130.522 245.509 L 131.727 245.855 131.727 202.764 C 131.727 159.936,131.733 159.674,132.798 159.952 C 133.387 160.106,133.869 160.116,133.869 159.974 C 133.869 159.832,132.242 159.320,130.254 158.836 C 127.354 158.129,117.855 154.815,111.647 152.344 C 110.765 151.993,110.694 152.045,111.245 152.639 C 111.769 153.203,111.914 162.594,111.914 195.823 C 111.914 229.455,111.775 238.279,111.245 238.253 C 110.877 238.234,108.889 237.322,106.827 236.224 L 103.079 234.230 102.942 191.814 C 102.847 162.566,102.979 149.398,103.365 149.398 C 103.673 149.398,104.897 149.894,106.085 150.500 C 107.274 151.106,108.482 151.524,108.770 151.428 C 109.057 151.332,107.413 150.455,105.115 149.479 C 96.216 145.700,82.078 137.244,73.505 130.574 C 69.486 127.446,69.612 127.461,69.612 130.120 M178.122 128.564 C 171.064 129.145,170.243 129.635,176.975 129.247 C 179.920 129.077,185.703 128.759,189.826 128.540 L 197.323 128.142 190.361 128.135 C 186.533 128.131,181.025 128.324,178.122 128.564 M221.381 128.496 C 224.895 128.741,229.594 129.072,231.823 129.231 C 234.982 129.456,235.404 129.412,233.735 129.032 C 232.557 128.763,227.858 128.433,223.293 128.297 C 215.172 128.056,215.130 128.060,221.381 128.496 M162.249 130.403 C 159.746 130.785,157.356 131.119,156.939 131.145 C 156.522 131.170,156.300 131.311,156.445 131.457 C 156.737 131.748,169.318 130.191,169.692 129.817 C 170.078 129.431,167.062 129.669,162.249 130.403 M240.379 130.372 C 242.267 130.757,245.279 131.200,247.073 131.356 L 250.335 131.641 246.903 130.940 C 245.016 130.555,242.004 130.112,240.210 129.955 L 236.948 129.671 240.379 130.372 M83.232 132.206 C 83.431 132.528,84.091 133.058,84.700 133.384 C 85.492 133.808,85.703 133.810,85.443 133.390 C 85.244 133.067,84.583 132.537,83.975 132.212 C 83.183 131.788,82.972 131.786,83.232 132.206 M145.964 133.365 C 139.109 134.810,136.805 135.481,138.733 135.471 C 139.150 135.469,141.419 135.013,143.775 134.456 C 146.131 133.900,149.806 133.157,151.941 132.805 C 155.756 132.177,156.992 131.694,154.618 131.761 C 153.956 131.779,150.061 132.501,145.964 133.365 M250.653 131.956 C 251.016 132.319,260.875 133.949,261.135 133.689 C 261.263 133.560,259.247 133.066,256.655 132.590 C 251.881 131.714,250.237 131.540,250.653 131.956 M112.450 133.557 C 113.775 134.242,115.462 134.960,116.198 135.154 C 116.934 135.347,115.998 134.776,114.117 133.884 C 110.104 131.981,108.967 131.758,112.450 133.557 M344.043 133.086 C 341.931 133.816,341.927 133.822,343.775 133.511 C 345.959 133.142,348.193 132.327,346.988 132.337 C 346.546 132.341,345.221 132.678,344.043 133.086 M87.015 134.674 C 88.658 136.026,95.368 139.884,95.626 139.626 C 95.752 139.500,94.710 138.762,93.309 137.986 C 91.909 137.210,89.679 135.949,88.353 135.184 C 87.028 134.418,86.426 134.189,87.015 134.674 M263.419 134.448 C 264.863 134.898,265.093 135.136,264.490 135.551 C 263.937 135.933,264.096 135.977,265.060 135.712 C 267.617 135.006,267.308 134.568,263.969 134.164 C 261.632 133.881,261.620 133.888,263.419 134.448 M350.966 146.452 C 350.966 153.226,351.043 155.923,351.136 152.446 C 351.230 148.969,351.230 143.427,351.136 140.130 C 351.042 136.834,350.966 139.679,350.966 146.452 M274.799 136.377 C 273.529 136.826,272.585 137.288,272.700 137.404 C 272.945 137.648,277.912 136.017,277.912 135.693 C 277.912 135.357,277.302 135.491,274.799 136.377 M306.693 136.317 C 304.692 137.403,304.813 137.855,306.827 136.814 C 307.711 136.357,308.434 135.869,308.434 135.729 C 308.434 135.385,308.376 135.404,306.693 136.317 M119.411 136.456 C 119.853 136.729,120.817 137.113,121.553 137.310 C 122.483 137.559,122.647 137.517,122.088 137.172 C 121.647 136.899,120.683 136.515,119.946 136.318 C 119.016 136.069,118.853 136.111,119.411 136.456 M133.333 136.521 C 133.333 137.052,137.117 138.296,137.516 137.896 C 137.641 137.771,137.114 137.511,136.345 137.318 C 135.576 137.125,135.080 136.752,135.243 136.489 C 135.405 136.226,135.042 136.011,134.436 136.011 C 133.829 136.011,133.333 136.240,133.333 136.521 M259.170 137.095 C 257.208 137.773,256.844 138.008,258.080 137.798 C 260.306 137.418,264.056 136.088,262.918 136.081 C 262.477 136.078,260.790 136.535,259.170 137.095 M311.111 139.385 C 305.775 142.583,297.808 146.720,296.987 146.720 C 296.544 146.720,296.007 147.002,295.794 147.347 C 295.533 147.768,295.699 147.861,296.298 147.631 C 297.124 147.314,297.189 150.462,297.189 191.172 L 297.189 235.056 294.511 236.412 L 291.834 237.769 291.834 193.583 C 291.834 157.532,291.963 149.398,292.535 149.398 C 292.920 149.398,293.703 149.035,294.275 148.591 C 295.577 147.581,293.992 148.110,290.405 149.883 C 287.267 151.435,276.154 155.415,267.966 157.921 C 261.021 160.047,256.539 161.176,246.586 163.309 C 243.641 163.941,240.268 164.685,239.090 164.964 C 236.779 165.511,226.695 166.743,216.986 167.664 C 209.600 168.365,176.182 168.008,173.494 167.200 C 172.463 166.890,169.813 166.514,167.604 166.364 C 162.756 166.034,165.349 166.787,171.028 167.357 L 174.732 167.729 174.382 180.116 C 174.190 186.929,174.031 206.299,174.031 223.159 L 174.029 253.815 172.825 253.902 C 168.606 254.205,182.299 254.961,196.519 255.211 C 226.704 255.740,252.221 251.602,284.337 240.971 C 293.791 237.841,313.416 226.712,318.072 221.841 C 319.282 220.575,318.158 221.280,311.914 225.702 C 308.969 227.788,305.656 230.047,304.552 230.722 L 302.544 231.948 302.544 188.311 L 302.544 144.674 307.764 141.902 C 312.254 139.518,315.162 137.614,314.305 137.619 C 314.168 137.619,312.731 138.414,311.111 139.385 M138.813 138.456 C 139.201 138.844,145.121 140.266,146.185 140.227 C 146.627 140.211,145.301 139.743,143.240 139.187 C 139.279 138.120,138.318 137.961,138.813 138.456 M252.209 138.838 C 250.884 139.151,250.161 139.491,250.602 139.593 C 251.044 139.694,252.490 139.436,253.815 139.018 C 256.642 138.127,255.671 138.018,252.209 138.838 M267.813 138.767 C 266.823 139.052,266.114 139.385,266.236 139.507 C 266.507 139.778,270.415 138.738,270.415 138.395 C 270.415 138.080,269.990 138.140,267.813 138.767 M96.386 139.999 C 96.386 140.147,97.108 140.641,97.992 141.098 C 98.876 141.555,99.598 141.808,99.598 141.661 C 99.598 141.513,98.876 141.019,97.992 140.562 C 97.108 140.105,96.386 139.852,96.386 139.999 M131.727 140.830 C 132.169 141.115,132.892 141.349,133.333 141.349 C 134.047 141.349,134.047 141.291,133.333 140.830 C 132.892 140.544,132.169 140.311,131.727 140.311 C 131.013 140.311,131.013 140.369,131.727 140.830 M148.059 140.760 C 148.648 141.018,150.214 141.381,151.539 141.567 C 153.108 141.787,153.575 141.741,152.878 141.436 C 152.289 141.178,150.723 140.814,149.398 140.628 C 147.830 140.408,147.362 140.454,148.059 140.760 M242.303 141.112 L 239.625 141.826 242.292 141.516 C 243.759 141.346,245.566 141.022,246.308 140.797 L 247.657 140.387 246.319 140.392 C 245.582 140.395,243.775 140.719,242.303 141.112 M260.852 140.909 C 259.862 141.194,259.156 141.530,259.283 141.657 C 259.410 141.784,260.581 141.554,261.886 141.144 C 264.549 140.309,263.649 140.104,260.852 140.909 M100.178 142.101 C 100.730 142.594,103.882 144.042,103.882 143.803 C 103.882 143.494,100.914 141.901,100.339 141.901 C 100.128 141.901,100.056 141.991,100.178 142.101 M154.822 142.149 C 155.083 142.410,164.654 144.037,165.953 144.041 C 167.982 144.046,165.666 143.459,160.752 142.721 C 154.735 141.817,154.464 141.791,154.822 142.149 M232.565 142.709 C 230.155 143.086,227.865 143.531,227.478 143.698 C 226.333 144.191,233.078 143.441,236.485 142.697 C 240.518 141.816,238.231 141.823,232.565 142.709 M138.956 142.972 C 139.545 143.225,140.509 143.432,141.098 143.432 L 142.169 143.432 141.098 142.972 C 140.509 142.719,139.545 142.512,138.956 142.512 L 137.885 142.512 138.956 142.972 M252.477 143.225 C 249.601 144.172,250.733 144.209,254.083 143.277 C 255.556 142.867,256.278 142.529,255.689 142.525 C 255.100 142.522,253.655 142.836,252.477 143.225 M105.489 144.846 C 106.225 145.267,107.068 145.611,107.363 145.611 C 107.657 145.611,107.296 145.267,106.560 144.846 C 105.823 144.425,104.980 144.081,104.685 144.081 C 104.391 144.081,104.752 144.425,105.489 144.846 M170.549 144.561 C 178.639 146.394,212.514 146.395,223.025 144.563 L 225.703 144.096 222.470 144.317 C 199.661 145.875,190.589 145.874,171.268 144.308 C 168.567 144.089,168.527 144.103,170.549 144.561 M287.282 145.732 C 283.358 147.468,282.148 148.186,284.226 147.547 C 286.060 146.983,292.184 144.093,291.566 144.084 C 291.272 144.079,289.344 144.821,287.282 145.732 M148.059 145.114 C 150.324 145.690,152.268 145.690,150.469 145.114 C 149.732 144.878,148.527 144.690,147.791 144.695 C 146.589 144.704,146.616 144.747,148.059 145.114 M243.641 145.114 C 241.841 145.690,243.786 145.690,246.051 145.114 C 247.494 144.747,247.521 144.704,246.319 144.695 C 245.582 144.690,244.378 144.878,243.641 145.114 M155.849 146.665 C 156.600 146.907,158.648 147.248,160.401 147.422 C 162.696 147.650,163.063 147.613,161.714 147.288 C 158.981 146.631,154.159 146.118,155.849 146.665 M233.467 147.027 L 229.987 147.738 233.011 147.465 C 234.674 147.315,236.723 146.986,237.563 146.735 C 239.900 146.034,237.480 146.207,233.467 147.027 M115.127 148.772 C 115.569 149.045,116.533 149.429,117.269 149.626 C 118.199 149.875,118.363 149.833,117.805 149.488 C 117.363 149.215,116.399 148.831,115.663 148.634 C 114.732 148.385,114.569 148.427,115.127 148.772 M171.084 148.862 C 173.849 149.318,179.199 149.551,178.804 149.198 C 178.681 149.088,176.292 148.868,173.494 148.709 C 169.866 148.502,169.175 148.546,171.084 148.862 M217.671 148.862 L 214.458 149.218 217.135 149.261 C 218.608 149.284,221.017 149.116,222.490 148.887 C 226.034 148.335,222.596 148.317,217.671 148.862 M278.715 149.149 C 277.376 149.794,277.331 149.868,278.447 149.595 C 279.964 149.224,281.670 148.355,280.857 148.367 C 280.562 148.371,279.598 148.723,278.715 149.149 M180.589 149.781 C 181.399 149.904,182.724 149.904,183.534 149.781 C 184.344 149.658,183.681 149.558,182.062 149.558 C 180.442 149.558,179.779 149.658,180.589 149.781 M210.040 149.781 C 210.850 149.904,212.175 149.904,212.985 149.781 C 213.795 149.658,213.133 149.558,211.513 149.558 C 209.893 149.558,209.230 149.658,210.040 149.781 M119.411 150.378 C 119.853 150.651,120.817 151.036,121.553 151.233 C 122.483 151.481,122.647 151.439,122.088 151.094 C 121.647 150.821,120.683 150.437,119.946 150.240 C 119.016 149.991,118.853 150.033,119.411 150.378 M132.262 154.684 C 132.704 154.948,133.909 155.314,134.940 155.497 C 136.204 155.721,136.465 155.679,135.743 155.370 C 134.087 154.661,131.312 154.114,132.262 154.684 M259.973 155.040 C 257.862 155.771,257.858 155.777,259.705 155.465 C 261.890 155.097,264.123 154.281,262.918 154.292 C 262.477 154.296,261.151 154.633,259.973 155.040 M140.562 156.894 C 141.151 157.147,142.115 157.347,142.704 157.339 C 143.565 157.326,143.513 157.239,142.436 156.894 C 140.606 156.308,139.198 156.308,140.562 156.894 M252.209 156.894 C 251.149 157.234,251.093 157.323,251.941 157.323 C 252.530 157.323,253.614 157.130,254.351 156.894 C 255.411 156.555,255.466 156.466,254.618 156.466 C 254.029 156.466,252.945 156.658,252.209 156.894 M151.272 159.335 C 153.039 159.734,154.846 160.042,155.288 160.020 C 156.544 159.957,150.900 158.603,149.398 158.607 C 148.661 158.609,149.505 158.937,151.272 159.335 M242.303 159.036 C 240.860 159.403,240.832 159.446,242.035 159.455 C 242.771 159.460,243.976 159.272,244.712 159.036 C 246.512 158.460,244.568 158.460,242.303 159.036 M134.940 160.571 C 135.382 160.839,136.827 161.206,138.153 161.388 C 139.698 161.599,140.178 161.552,139.491 161.256 C 137.905 160.573,133.962 159.979,134.940 160.571 M161.981 161.209 C 163.159 161.452,164.967 161.636,165.997 161.616 C 167.745 161.582,167.709 161.550,165.462 161.151 C 162.048 160.543,159.009 160.594,161.981 161.209 M228.648 161.178 C 226.457 161.519,226.408 161.556,228.112 161.593 C 229.143 161.616,231.071 161.441,232.396 161.205 C 235.606 160.634,232.300 160.610,228.648 161.178 M350.305 164.391 C 350.243 166.600,350.085 170.094,349.952 172.155 L 349.711 175.904 350.240 172.155 C 350.531 170.094,350.689 166.600,350.593 164.391 L 350.416 160.375 350.305 164.391 M222.892 162.083 C 223.407 162.217,224.250 162.217,224.766 162.083 C 225.281 161.948,224.859 161.838,223.829 161.838 C 222.798 161.838,222.376 161.948,222.892 162.083 M143.838 162.775 C 144.462 163.027,146.149 163.363,147.587 163.521 L 150.201 163.809 147.523 163.080 C 144.334 162.213,141.959 162.016,143.838 162.775 M176.439 162.831 C 178.559 163.254,187.266 163.501,186.836 163.125 C 186.714 163.018,183.842 162.812,180.455 162.667 C 176.687 162.505,175.128 162.569,176.439 162.831 M215.209 162.602 C 214.738 162.728,208.232 163.044,200.751 163.304 L 187.149 163.777 201.071 163.518 C 208.728 163.376,216.078 163.063,217.403 162.821 C 219.606 162.421,219.652 162.383,217.938 162.378 C 216.908 162.375,215.679 162.476,215.209 162.602 M51.179 169.210 C 51.323 172.597,51.648 176.212,51.903 177.242 C 52.562 179.907,52.496 177.996,51.654 170.013 L 50.919 163.052 51.179 169.210 M152.698 164.593 C 155.312 165.362,162.249 166.263,162.249 165.834 C 162.249 165.622,158.887 165.057,151.807 164.080 C 150.924 163.958,151.324 164.189,152.698 164.593 M52.516 179.690 C 52.461 180.499,54.159 185.376,54.409 185.127 C 54.522 185.013,54.152 183.615,53.585 182.019 C 53.018 180.422,52.537 179.375,52.516 179.690 M348.166 181.365 C 347.374 183.947,347.757 184.331,348.594 181.794 C 348.948 180.724,349.132 179.744,349.005 179.617 C 348.878 179.489,348.500 180.276,348.166 181.365 M345.952 187.056 C 345.661 187.823,344.926 189.423,344.320 190.611 C 343.714 191.799,343.340 192.771,343.489 192.771 C 343.944 192.771,347.078 186.257,346.770 185.949 C 346.612 185.791,346.244 186.289,345.952 187.056 M338.123 200.631 C 334.121 206.667,327.894 213.558,321.553 218.971 L 318.876 221.256 321.285 219.578 C 327.747 215.079,335.930 205.726,341.577 196.386 C 344.168 192.102,342.070 194.680,338.123 200.631 M134.137 246.601 C 135.315 246.990,136.760 247.301,137.349 247.292 C 137.938 247.284,137.456 246.960,136.278 246.571 C 135.100 246.183,133.655 245.872,133.066 245.880 C 132.477 245.889,132.959 246.213,134.137 246.601 M138.688 247.563 C 138.688 247.975,146.720 249.710,147.059 249.371 C 147.214 249.216,145.936 248.807,144.219 248.463 C 142.502 248.118,140.556 247.709,139.893 247.554 C 139.230 247.400,138.688 247.404,138.688 247.563 M150.290 250.326 C 153.927 251.216,158.318 251.860,157.909 251.444 C 157.572 251.102,148.998 249.489,148.059 249.591 C 147.764 249.624,148.768 249.954,150.290 250.326 M160.369 252.215 C 161.249 252.493,163.418 252.840,165.188 252.988 C 167.686 253.195,168.001 253.150,166.592 252.784 C 163.855 252.074,158.320 251.568,160.369 252.215 " stroke="none" fill="#9a1a46" fill-rule="evenodd"></path></g></svg>