<svg id="svg" version="1.1" width="500" height="702" xmlns="http://www.w3.org/2000/svg" xmlns:xlink="http://www.w3.org/1999/xlink" style="display: block;"><g id="svgg"><path id="path0" d="M203.643 24.730 C 203.316 25.259,200.067 25.602,195.353 25.605 C 190.040 25.608,186.879 25.986,185.309 26.805 C 183.952 27.513,180.852 28.002,177.709 28.005 C 174.565 28.008,171.466 28.497,170.109 29.205 C 168.848 29.862,165.968 30.402,163.709 30.405 C 161.449 30.408,158.682 30.889,157.560 31.475 C 156.438 32.060,153.610 32.765,151.275 33.042 C 148.941 33.318,146.582 33.917,146.035 34.371 C 145.487 34.826,143.333 35.432,141.249 35.717 C 139.164 36.003,137.272 36.724,137.044 37.318 C 136.784 37.994,135.343 38.400,133.200 38.400 C 130.890 38.400,129.621 38.792,129.311 39.600 C 129.047 40.288,127.852 40.800,126.511 40.800 C 125.169 40.800,123.975 41.312,123.711 42.000 C 123.457 42.660,122.365 43.200,121.282 43.200 C 120.200 43.200,118.774 43.740,118.114 44.400 C 117.454 45.060,116.349 45.600,115.657 45.600 C 114.966 45.600,114.400 46.140,114.400 46.800 C 114.400 47.551,113.642 48.000,112.375 48.000 C 111.261 48.000,110.143 48.540,109.889 49.200 C 109.636 49.860,108.927 50.400,108.314 50.400 C 107.701 50.400,107.200 50.940,107.200 51.600 C 107.200 52.260,106.803 52.800,106.317 52.800 C 105.166 52.800,94.400 63.566,94.400 64.717 C 94.400 65.203,94.031 65.600,93.580 65.600 C 93.129 65.600,92.410 66.410,91.982 67.400 C 90.819 70.091,89.323 72.321,88.200 73.040 C 87.650 73.392,87.200 74.562,87.200 75.640 C 87.200 76.849,86.740 77.600,86.000 77.600 C 85.200 77.600,84.800 78.400,84.800 80.000 C 84.800 81.600,84.400 82.400,83.600 82.400 C 82.849 82.400,82.400 83.158,82.400 84.425 C 82.400 85.539,81.860 86.657,81.200 86.911 C 80.516 87.173,80.000 88.366,80.000 89.686 C 80.000 91.210,79.590 92.000,78.800 92.000 C 78.010 92.000,77.600 92.790,77.600 94.314 C 77.600 95.634,77.084 96.827,76.400 97.089 C 75.699 97.358,75.200 98.557,75.200 99.975 C 75.200 101.597,74.803 102.400,74.000 102.400 C 73.249 102.400,72.800 103.158,72.800 104.425 C 72.800 105.539,72.282 106.649,71.649 106.892 C 71.016 107.135,70.267 108.384,69.985 109.667 C 69.703 110.950,69.170 112.000,68.800 112.000 C 68.430 112.000,67.890 113.080,67.600 114.400 C 67.310 115.720,66.741 116.800,66.336 116.800 C 65.931 116.800,65.600 117.182,65.600 117.650 C 65.600 118.905,61.621 127.092,60.749 127.631 C 60.337 127.886,60.000 128.819,60.000 129.704 C 60.000 130.590,59.460 131.854,58.800 132.514 C 58.140 133.174,57.600 134.730,57.600 135.972 C 57.600 137.240,57.074 138.431,56.400 138.689 C 55.712 138.953,55.200 140.148,55.200 141.489 C 55.200 142.831,54.688 144.025,54.000 144.289 C 53.307 144.555,52.800 145.751,52.800 147.118 C 52.800 148.420,52.260 150.026,51.600 150.686 C 50.940 151.346,50.400 153.183,50.400 154.768 C 50.400 156.592,49.959 157.819,49.200 158.111 C 48.385 158.423,48.000 159.700,48.000 162.086 C 48.000 164.676,47.685 165.600,46.800 165.600 C 45.897 165.600,45.600 166.568,45.600 169.514 C 45.600 172.256,45.240 173.567,44.400 173.889 C 43.537 174.220,43.200 175.570,43.200 178.689 C 43.200 181.809,42.863 183.158,42.000 183.489 C 41.082 183.841,40.800 185.348,40.800 189.889 C 40.800 194.431,40.518 195.937,39.600 196.289 C 38.610 196.669,38.400 198.770,38.400 208.289 C 38.400 217.323,38.162 219.920,37.304 220.249 C 36.534 220.545,36.099 222.735,35.844 227.601 C 35.644 231.414,35.100 234.773,34.637 235.066 C 34.173 235.360,33.527 237.580,33.200 240.000 C 32.873 242.420,32.280 244.607,31.882 244.860 C 31.484 245.113,30.937 247.181,30.668 249.454 C 30.399 251.728,29.688 253.995,29.089 254.492 C 28.490 254.989,28.000 256.762,28.000 258.431 C 28.000 260.101,27.594 261.602,27.099 261.767 C 26.603 261.932,26.018 263.936,25.798 266.219 C 25.579 268.503,24.904 270.781,24.300 271.283 C 23.613 271.853,23.200 273.833,23.200 276.555 C 23.200 279.363,22.773 281.341,22.000 282.114 C 21.096 283.018,20.800 285.256,20.800 291.190 C 20.800 296.780,20.510 299.163,19.800 299.400 C 19.021 299.659,18.751 308.729,18.578 340.362 C 18.392 374.596,18.171 381.256,17.178 382.674 C 16.385 383.807,15.992 386.452,15.975 390.778 C 15.957 395.153,15.575 397.695,14.775 398.753 C 13.037 401.050,13.059 426.555,14.800 428.000 C 15.482 428.566,16.000 430.310,16.000 432.041 C 16.000 433.716,16.540 435.626,17.200 436.286 C 17.860 436.946,18.400 438.013,18.400 438.657 C 18.400 439.302,18.940 440.036,19.600 440.289 C 20.260 440.543,20.800 441.661,20.800 442.775 C 20.800 444.042,21.249 444.800,22.000 444.800 C 22.660 444.800,23.200 445.267,23.200 445.837 C 23.200 447.669,33.569 459.200,35.217 459.200 C 35.648 459.200,36.000 459.740,36.000 460.400 C 36.000 461.060,36.305 461.600,36.678 461.600 C 37.050 461.600,38.185 462.320,39.200 463.200 C 40.215 464.080,41.530 464.800,42.122 464.800 C 42.715 464.800,43.204 465.250,43.209 465.800 C 43.214 466.350,44.744 467.514,46.609 468.387 C 48.474 469.261,50.288 470.431,50.640 470.987 C 50.992 471.544,52.123 472.000,53.154 472.000 C 54.185 472.000,55.236 472.540,55.489 473.200 C 55.743 473.860,56.823 474.400,57.889 474.400 C 58.956 474.400,60.036 474.940,60.289 475.600 C 60.543 476.260,61.492 476.800,62.400 476.800 C 63.308 476.800,64.257 477.340,64.511 478.000 C 64.764 478.660,65.789 479.200,66.788 479.200 C 67.787 479.200,69.052 479.740,69.600 480.400 C 70.148 481.060,71.632 481.600,72.898 481.600 C 74.411 481.600,75.200 482.011,75.200 482.800 C 75.200 483.460,75.740 484.000,76.400 484.000 C 77.060 484.000,77.600 484.334,77.600 484.742 C 77.600 485.150,79.670 486.458,82.200 487.649 C 84.730 488.841,86.980 490.044,87.200 490.324 C 87.420 490.604,88.590 491.268,89.800 491.799 C 91.010 492.331,92.000 493.133,92.000 493.583 C 92.000 494.032,92.360 494.400,92.800 494.400 C 93.793 494.400,96.800 497.343,96.800 498.314 C 96.800 498.707,97.250 499.208,97.800 499.427 C 98.350 499.645,99.513 501.214,100.384 502.912 C 102.110 506.279,104.625 510.137,106.200 511.836 C 106.750 512.429,107.200 513.440,107.200 514.082 C 107.200 514.725,107.740 515.457,108.400 515.711 C 109.060 515.964,109.600 516.673,109.600 517.286 C 109.600 517.899,110.140 518.400,110.800 518.400 C 111.460 518.400,112.000 518.940,112.000 519.600 C 112.000 520.260,112.540 520.800,113.200 520.800 C 113.860 520.800,114.400 521.340,114.400 522.000 C 114.400 522.660,114.940 523.200,115.600 523.200 C 116.260 523.200,116.800 523.740,116.800 524.400 C 116.800 525.060,117.340 525.600,118.000 525.600 C 118.660 525.600,119.200 526.140,119.200 526.800 C 119.200 527.460,119.684 528.000,120.276 528.000 C 120.868 528.000,122.004 528.720,122.800 529.600 C 123.596 530.480,124.732 531.200,125.324 531.200 C 125.916 531.200,126.400 531.540,126.400 531.956 C 126.400 532.703,129.478 534.676,132.200 535.673 C 132.970 535.956,133.600 536.479,133.600 536.837 C 133.600 537.195,135.310 538.323,137.400 539.343 C 139.490 540.364,141.488 541.649,141.840 542.199 C 142.192 542.750,143.323 543.200,144.354 543.200 C 145.385 543.200,146.436 543.740,146.689 544.400 C 146.943 545.060,148.023 545.600,149.089 545.600 C 150.156 545.600,151.236 546.140,151.489 546.800 C 151.743 547.460,152.817 548.000,153.877 548.000 C 154.937 548.000,156.252 548.540,156.800 549.200 C 157.348 549.860,158.968 550.400,160.400 550.400 C 161.832 550.400,163.452 550.940,164.000 551.600 C 164.562 552.277,166.306 552.800,168.000 552.800 C 169.694 552.800,171.438 553.323,172.000 554.000 C 173.487 555.792,208.623 555.792,209.311 554.000 C 209.646 553.127,211.016 552.800,214.333 552.800 C 217.105 552.800,219.503 552.339,220.447 551.625 C 221.301 550.979,223.486 550.439,225.302 550.425 C 227.234 550.411,229.017 549.902,229.600 549.200 C 230.166 548.518,231.910 548.000,233.641 548.000 C 235.316 548.000,237.226 547.460,237.886 546.800 C 238.562 546.123,240.517 545.600,242.368 545.600 C 244.548 545.600,245.805 545.197,246.111 544.400 C 246.364 543.740,247.544 543.200,248.733 543.200 C 249.922 543.200,251.593 542.671,252.447 542.025 C 253.301 541.379,254.921 540.839,256.047 540.825 C 257.173 540.811,258.793 540.271,259.647 539.625 C 260.501 538.979,262.146 538.439,263.302 538.425 C 264.458 538.411,265.852 537.860,266.400 537.200 C 266.948 536.540,268.183 536.000,269.145 536.000 C 270.107 536.000,271.593 535.471,272.447 534.825 C 273.301 534.179,274.766 533.639,275.702 533.625 C 276.638 533.611,277.852 533.060,278.400 532.400 C 278.948 531.740,279.870 531.200,280.449 531.200 C 281.029 531.200,283.955 529.942,286.951 528.404 C 289.948 526.866,292.861 525.606,293.425 525.604 C 293.989 525.602,294.657 525.060,294.911 524.400 C 295.164 523.740,296.244 523.200,297.311 523.200 C 298.377 523.200,299.457 522.660,299.711 522.000 C 299.964 521.340,301.044 520.800,302.111 520.800 C 303.177 520.800,304.257 520.260,304.511 519.600 C 304.764 518.940,305.614 518.400,306.400 518.400 C 307.186 518.400,308.036 517.860,308.289 517.200 C 308.543 516.540,309.661 516.000,310.775 516.000 C 312.042 516.000,312.800 515.551,312.800 514.800 C 312.800 514.049,313.558 513.600,314.825 513.600 C 315.939 513.600,317.057 513.060,317.311 512.400 C 317.564 511.740,318.234 511.200,318.800 511.200 C 319.366 511.200,320.036 510.660,320.289 510.000 C 320.543 509.340,321.492 508.800,322.400 508.800 C 323.308 508.800,324.257 508.260,324.511 507.600 C 324.764 506.940,325.434 506.400,326.000 506.400 C 326.566 506.400,327.236 505.860,327.489 505.200 C 327.743 504.540,328.421 504.000,328.997 504.000 C 329.572 504.000,331.226 502.920,332.671 501.600 C 334.116 500.280,335.441 499.200,335.616 499.200 C 336.405 499.200,342.400 492.948,342.400 492.124 C 342.400 491.616,342.940 491.200,343.600 491.200 C 344.260 491.200,344.800 490.699,344.800 490.086 C 344.800 489.473,345.340 488.764,346.000 488.511 C 346.660 488.257,347.200 487.308,347.200 486.400 C 347.200 485.492,347.740 484.543,348.400 484.289 C 349.060 484.036,349.600 483.327,349.600 482.714 C 349.600 482.101,350.140 481.600,350.800 481.600 C 351.460 481.600,352.000 481.099,352.000 480.486 C 352.000 479.873,352.540 479.164,353.200 478.911 C 353.860 478.657,354.400 477.577,354.400 476.511 C 354.400 475.444,354.940 474.364,355.600 474.111 C 356.260 473.857,356.800 472.739,356.800 471.625 C 356.800 470.358,357.249 469.600,358.000 469.600 C 358.800 469.600,359.200 468.800,359.200 467.200 C 359.200 465.600,359.600 464.800,360.400 464.800 C 361.203 464.800,361.600 463.997,361.600 462.375 C 361.600 460.977,362.099 459.758,362.778 459.498 C 363.426 459.249,364.197 457.764,364.491 456.197 C 364.785 454.631,365.512 452.415,366.108 451.274 C 366.703 450.133,367.204 448.300,367.221 447.200 C 367.237 446.100,367.779 444.501,368.425 443.647 C 369.071 442.793,369.611 440.813,369.625 439.247 C 369.639 437.681,370.179 435.701,370.825 434.847 C 371.510 433.942,372.000 431.551,372.000 429.114 C 372.000 426.532,372.374 424.809,372.977 424.608 C 373.599 424.400,374.071 421.976,374.274 417.941 C 374.454 414.351,375.072 410.915,375.696 410.022 C 376.443 408.954,376.800 406.027,376.800 400.965 C 376.800 395.383,377.104 393.181,378.000 392.286 C 378.888 391.398,379.207 389.177,379.225 383.743 C 379.243 378.558,379.596 375.944,380.425 374.847 C 381.206 373.815,381.600 371.360,381.600 367.533 C 381.600 363.149,381.887 361.661,382.800 361.311 C 383.680 360.973,384.000 359.586,384.000 356.111 C 384.000 352.636,384.320 351.248,385.200 350.911 C 386.107 350.563,386.400 349.097,386.400 344.911 C 386.400 340.725,386.693 339.259,387.600 338.911 C 388.507 338.563,388.800 337.097,388.800 332.911 C 388.800 328.725,389.093 327.259,390.000 326.911 C 391.778 326.228,391.754 270.800,389.975 268.447 C 389.212 267.439,388.800 265.005,388.800 261.504 C 388.800 257.780,388.429 255.743,387.600 254.914 C 386.781 254.096,386.400 252.074,386.400 248.555 C 386.400 244.945,386.040 243.097,385.200 242.400 C 384.385 241.724,384.000 239.912,384.000 236.759 C 384.000 233.697,383.591 231.705,382.800 230.914 C 382.053 230.168,381.600 228.203,381.600 225.714 C 381.600 223.225,381.147 221.261,380.400 220.514 C 379.689 219.803,379.200 217.848,379.200 215.714 C 379.200 213.581,378.711 211.625,378.000 210.914 C 377.289 210.203,376.800 208.248,376.800 206.114 C 376.800 203.981,376.311 202.025,375.600 201.314 C 374.939 200.653,374.400 198.697,374.400 196.955 C 374.400 195.123,373.896 193.378,373.200 192.800 C 372.473 192.197,372.000 190.445,372.000 188.359 C 372.000 186.464,371.519 184.433,370.931 183.845 C 370.342 183.257,369.646 181.169,369.382 179.205 C 369.119 177.241,368.520 175.507,368.052 175.351 C 367.583 175.194,367.198 174.107,367.195 172.933 C 367.192 171.760,366.703 169.867,366.108 168.726 C 365.512 167.585,364.778 165.335,364.476 163.726 C 364.143 161.950,363.470 160.800,362.764 160.800 C 361.975 160.800,361.600 159.929,361.600 158.098 C 361.600 156.612,361.060 154.948,360.400 154.400 C 359.740 153.852,359.200 152.537,359.200 151.477 C 359.200 150.417,358.660 149.343,358.000 149.089 C 357.340 148.836,356.800 148.171,356.800 147.612 C 356.800 147.053,356.260 146.148,355.600 145.600 C 354.940 145.052,354.400 143.967,354.400 143.188 C 354.400 142.409,353.860 141.564,353.200 141.311 C 352.540 141.057,352.000 140.299,352.000 139.625 C 352.000 138.951,351.460 138.400,350.800 138.400 C 350.140 138.400,349.600 138.040,349.600 137.600 C 349.600 137.160,348.970 136.139,348.200 135.332 C 347.430 134.525,346.260 133.025,345.600 131.999 C 343.833 129.254,336.204 121.600,335.235 121.600 C 334.776 121.600,334.400 121.060,334.400 120.400 C 334.400 119.740,333.860 119.200,333.200 119.200 C 332.540 119.200,332.000 118.660,332.000 118.000 C 332.000 117.340,331.460 116.800,330.800 116.800 C 330.140 116.800,329.600 116.440,329.600 116.000 C 329.600 114.962,326.638 112.000,325.600 112.000 C 325.160 112.000,324.800 111.499,324.800 110.886 C 324.800 110.273,324.260 109.564,323.600 109.311 C 322.940 109.057,322.400 108.299,322.400 107.625 C 322.400 106.951,322.031 106.400,321.580 106.400 C 321.129 106.400,320.418 105.500,320.000 104.400 C 319.582 103.300,318.871 102.400,318.420 102.400 C 317.969 102.400,317.600 101.849,317.600 101.175 C 317.600 100.501,317.060 99.743,316.400 99.489 C 315.740 99.236,315.200 98.527,315.200 97.914 C 315.200 97.301,314.660 96.800,314.000 96.800 C 313.340 96.800,312.800 96.299,312.800 95.686 C 312.800 95.073,312.260 94.364,311.600 94.111 C 310.940 93.857,310.400 93.179,310.400 92.603 C 310.400 92.028,309.320 90.374,308.000 88.929 C 306.680 87.484,305.600 85.963,305.600 85.551 C 305.600 85.138,305.060 84.800,304.400 84.800 C 303.740 84.800,303.200 84.260,303.200 83.600 C 303.200 82.940,302.849 82.400,302.421 82.400 C 301.992 82.400,301.120 81.410,300.483 80.200 C 299.846 78.990,297.819 76.398,295.977 74.441 C 294.135 72.483,292.086 70.053,291.422 69.041 C 290.759 68.028,289.759 67.200,289.201 67.200 C 288.643 67.200,287.975 66.570,287.717 65.800 C 286.701 62.777,270.788 45.600,269.002 45.600 C 268.545 45.600,267.964 45.060,267.711 44.400 C 267.457 43.740,266.519 43.200,265.625 43.200 C 264.714 43.200,264.000 42.673,264.000 42.000 C 264.000 41.340,263.319 40.800,262.486 40.800 C 261.653 40.800,260.764 40.260,260.511 39.600 C 260.257 38.940,259.139 38.400,258.025 38.400 C 256.758 38.400,256.000 37.951,256.000 37.200 C 256.000 36.540,255.365 36.000,254.588 36.000 C 253.812 36.000,251.833 35.280,250.191 34.400 C 248.549 33.520,246.334 32.800,245.270 32.800 C 244.205 32.800,243.211 32.432,243.060 31.981 C 242.910 31.531,241.350 30.956,239.594 30.705 C 237.837 30.453,235.266 29.742,233.879 29.124 C 232.493 28.506,229.775 28.000,227.839 28.000 C 225.904 28.000,223.882 27.562,223.348 27.028 C 222.813 26.493,219.051 25.819,214.988 25.531 C 210.924 25.242,206.831 24.748,205.890 24.433 C 204.903 24.103,203.953 24.228,203.643 24.730 M217.790 42.186 C 218.346 42.624,220.921 43.191,223.514 43.446 C 226.107 43.700,228.609 44.289,229.074 44.754 C 229.539 45.219,231.018 45.612,232.360 45.627 C 233.702 45.642,236.240 46.350,238.000 47.200 C 239.760 48.050,241.655 48.758,242.211 48.773 C 242.767 48.788,243.847 49.137,244.611 49.550 C 245.375 49.962,247.710 51.106,249.800 52.092 C 251.890 53.077,253.600 54.156,253.600 54.488 C 253.600 54.820,254.356 55.332,255.279 55.625 C 257.154 56.220,270.652 69.464,275.600 75.564 C 277.360 77.733,279.700 80.475,280.800 81.656 C 281.900 82.836,283.880 85.165,285.200 86.830 C 288.212 90.630,293.173 96.579,295.515 99.200 C 296.498 100.300,298.179 102.439,299.251 103.953 C 301.554 107.206,303.691 109.866,306.297 112.721 C 307.341 113.865,308.781 115.685,309.497 116.767 C 310.969 118.989,315.128 123.676,321.600 130.408 C 335.225 144.578,339.200 149.095,339.200 150.409 C 339.200 150.844,339.568 151.200,340.017 151.200 C 340.467 151.200,341.269 152.190,341.801 153.400 C 342.332 154.610,342.955 155.780,343.184 156.000 C 343.414 156.220,344.436 158.200,345.456 160.400 C 346.475 162.600,347.825 165.356,348.455 166.523 C 349.085 167.691,349.600 169.329,349.600 170.163 C 349.600 170.998,349.939 172.022,350.354 172.440 C 350.769 172.858,351.472 174.640,351.917 176.400 C 354.111 185.078,354.679 186.960,355.698 188.923 C 356.304 190.091,356.813 192.071,356.828 193.323 C 356.844 194.576,357.371 196.500,358.000 197.600 C 358.629 198.700,359.156 200.729,359.172 202.109 C 359.187 203.488,359.738 205.648,360.395 206.909 C 361.052 208.169,361.604 210.460,361.621 212.000 C 361.637 213.540,362.179 215.499,362.825 216.353 C 363.471 217.207,364.000 219.053,364.000 220.455 C 364.000 221.857,364.540 224.297,365.200 225.877 C 365.860 227.456,366.400 229.864,366.400 231.227 C 366.400 232.590,366.835 234.492,367.366 235.453 C 367.897 236.414,368.586 239.180,368.896 241.600 C 369.207 244.020,369.831 247.440,370.285 249.200 C 371.710 254.735,372.861 260.989,373.608 267.255 C 374.004 270.585,374.705 274.298,375.165 275.507 C 376.257 278.379,376.281 317.355,375.192 320.481 C 374.748 321.756,374.066 325.140,373.677 328.000 C 372.735 334.923,371.271 342.249,370.241 345.200 C 369.781 346.520,369.117 349.400,368.766 351.600 C 368.416 353.800,367.762 357.040,367.314 358.800 C 365.682 365.208,364.584 371.747,364.014 378.435 C 363.694 382.195,363.020 386.041,362.516 386.983 C 362.012 387.924,361.584 390.968,361.565 393.747 C 361.546 396.526,361.159 400.420,360.705 402.400 C 360.251 404.380,359.579 408.830,359.212 412.288 C 358.844 415.747,358.151 418.969,357.672 419.448 C 357.192 419.928,356.798 421.958,356.795 423.960 C 356.792 425.962,356.301 428.537,355.704 429.682 C 355.106 430.828,354.367 433.429,354.062 435.464 C 353.757 437.498,353.168 439.372,352.754 439.629 C 352.339 439.885,351.998 440.883,351.995 441.847 C 351.992 442.811,351.452 444.631,350.795 445.891 C 350.138 447.152,349.593 448.772,349.585 449.491 C 349.505 456.521,332.464 481.406,322.800 488.606 C 311.629 496.929,304.650 501.600,303.384 501.600 C 302.916 501.600,302.413 501.870,302.267 502.200 C 301.979 502.848,299.540 504.232,290.775 508.720 C 285.780 511.277,281.743 513.148,272.000 517.416 C 270.460 518.091,268.244 519.128,267.077 519.721 C 265.909 520.315,264.243 520.800,263.375 520.800 C 262.506 520.800,261.348 521.340,260.800 522.000 C 260.252 522.660,258.922 523.200,257.845 523.200 C 256.767 523.200,255.346 523.740,254.686 524.400 C 254.026 525.060,252.521 525.611,251.343 525.625 C 250.164 525.639,248.501 526.179,247.647 526.825 C 246.793 527.471,245.332 528.000,244.400 528.000 C 243.468 528.000,242.007 528.529,241.153 529.175 C 240.299 529.821,238.520 530.372,237.200 530.400 C 235.880 530.428,234.101 530.979,233.247 531.625 C 232.393 532.271,230.953 532.798,230.047 532.796 C 229.141 532.794,226.780 533.295,224.800 533.909 C 222.820 534.524,219.352 535.606,217.093 536.313 C 214.834 537.021,211.876 537.600,210.521 537.600 C 209.165 537.600,206.513 538.102,204.628 538.715 C 195.698 541.621,177.642 540.400,168.000 536.238 C 166.900 535.763,164.380 534.728,162.400 533.937 C 160.420 533.147,158.232 532.027,157.537 531.450 C 156.842 530.872,155.802 530.400,155.225 530.400 C 154.649 530.400,152.422 529.320,150.276 528.000 C 148.131 526.680,146.010 525.600,145.563 525.600 C 145.116 525.600,144.555 525.092,144.317 524.472 C 144.079 523.852,143.010 523.125,141.942 522.857 C 140.874 522.589,140.000 522.016,140.000 521.585 C 140.000 521.153,139.618 520.800,139.152 520.800 C 138.102 520.800,132.073 516.371,126.957 511.840 C 123.295 508.597,118.943 502.791,115.738 496.874 C 114.926 495.374,113.753 493.638,113.131 493.016 C 112.509 492.395,112.000 491.592,112.000 491.234 C 112.000 489.876,100.709 479.200,99.274 479.200 C 98.837 479.200,98.192 478.750,97.840 478.200 C 97.193 477.190,96.126 476.569,86.000 471.309 C 82.920 469.709,80.220 468.220,80.000 467.999 C 79.780 467.779,75.460 465.494,70.400 462.922 C 65.340 460.350,60.120 457.564,58.800 456.731 C 57.480 455.899,55.860 454.974,55.200 454.676 C 51.148 452.847,36.000 438.287,36.000 436.221 C 36.000 435.659,35.647 435.200,35.215 435.200 C 34.784 435.200,34.208 434.315,33.937 433.233 C 33.665 432.151,32.938 430.847,32.322 430.335 C 31.705 429.823,31.200 428.423,31.200 427.225 C 31.200 426.026,30.612 423.867,29.893 422.426 C 28.414 419.462,28.684 408.007,30.304 404.980 C 30.797 404.059,31.200 400.983,31.200 398.144 C 31.200 395.306,31.728 391.232,32.374 389.092 C 33.277 386.101,33.742 376.314,34.384 346.800 C 35.294 304.933,36.036 290.063,37.336 287.600 C 37.801 286.720,38.415 283.918,38.701 281.373 C 38.986 278.828,39.533 276.128,39.916 275.373 C 40.576 274.071,41.502 270.802,43.251 263.600 C 43.679 261.840,44.376 259.680,44.800 258.800 C 45.224 257.920,45.969 255.580,46.454 253.600 C 46.940 251.620,47.881 247.840,48.545 245.200 C 49.210 242.560,50.098 238.060,50.520 235.200 C 50.941 232.340,51.682 228.742,52.166 227.204 C 52.650 225.666,53.317 219.906,53.650 214.404 C 54.251 204.440,55.315 196.447,56.950 189.600 C 57.423 187.620,58.068 184.452,58.384 182.561 C 58.700 180.669,59.373 178.707,59.879 178.201 C 60.386 177.694,60.800 176.284,60.800 175.067 C 60.800 173.850,61.293 171.672,61.896 170.227 C 63.471 166.448,64.838 162.416,65.628 159.214 C 66.006 157.682,66.694 156.302,67.158 156.147 C 67.621 155.993,68.000 154.962,68.000 153.857 C 68.000 152.751,68.485 150.891,69.079 149.723 C 69.672 148.556,70.700 146.340,71.365 144.800 C 72.029 143.260,73.344 140.341,74.286 138.312 C 75.229 136.284,76.000 134.214,76.000 133.712 C 76.000 133.211,76.360 132.800,76.800 132.800 C 77.240 132.800,77.600 132.307,77.600 131.705 C 77.600 131.103,79.886 126.107,82.681 120.605 C 85.475 115.102,87.984 109.925,88.257 109.100 C 88.530 108.275,89.086 107.060,89.491 106.400 C 91.423 103.258,95.200 95.046,95.200 93.988 C 95.200 93.335,95.525 92.800,95.922 92.800 C 96.319 92.800,97.033 91.810,97.510 90.600 C 98.464 88.178,98.743 87.703,103.955 79.611 C 110.161 69.976,120.613 60.590,128.800 57.300 C 130.780 56.504,133.480 55.358,134.800 54.754 C 136.120 54.150,138.280 53.413,139.600 53.117 C 140.920 52.821,142.360 52.310,142.800 51.980 C 143.240 51.651,145.220 51.119,147.200 50.800 C 149.180 50.481,151.160 49.940,151.600 49.599 C 152.040 49.258,154.380 48.719,156.800 48.400 C 159.220 48.081,161.597 47.501,162.082 47.111 C 162.567 46.720,165.267 46.191,168.082 45.934 C 170.897 45.678,174.166 45.104,175.346 44.660 C 176.526 44.215,180.306 43.531,183.746 43.140 C 187.186 42.749,191.980 42.090,194.400 41.676 C 199.853 40.742,216.420 41.103,217.790 42.186 M271.190 113.394 C 265.972 120.028,276.900 145.545,286.999 150.308 C 289.090 151.294,291.361 152.398,292.048 152.762 C 296.877 155.322,304.608 155.433,307.400 152.981 C 310.581 150.188,306.487 143.238,301.622 143.173 C 300.510 143.158,298.160 142.450,296.400 141.600 C 294.640 140.750,292.872 140.042,292.471 140.027 C 291.240 139.981,287.171 134.964,286.636 132.831 C 286.358 131.723,285.651 130.337,285.065 129.751 C 284.479 129.165,284.000 128.004,284.000 127.170 C 284.000 126.336,283.482 124.472,282.849 123.027 C 282.216 121.582,281.496 119.438,281.249 118.262 C 279.976 112.195,274.296 109.446,271.190 113.394 M147.189 139.425 C 145.069 141.131,143.200 144.670,143.200 146.977 C 143.200 148.206,142.813 150.468,142.340 152.005 C 141.867 153.542,140.998 156.780,140.409 159.200 C 138.143 168.507,137.495 170.764,136.856 171.569 C 136.493 172.026,135.925 173.280,135.595 174.355 C 134.627 177.503,131.809 179.423,121.820 183.739 C 116.548 186.018,116.159 191.702,121.094 194.344 C 122.827 195.271,123.504 195.238,125.877 194.112 C 127.398 193.390,129.196 192.800,129.874 192.800 C 130.551 192.800,131.303 192.480,131.545 192.089 C 131.787 191.697,132.919 191.143,134.061 190.856 C 135.203 190.570,136.660 189.900,137.299 189.368 C 141.257 186.071,144.000 183.302,144.000 182.603 C 144.000 182.159,144.540 181.348,145.200 180.800 C 145.860 180.252,146.402 179.218,146.405 178.502 C 146.408 177.786,146.948 176.169,147.605 174.909 C 148.262 173.648,148.802 172.028,148.805 171.309 C 148.808 170.589,149.348 168.969,150.005 167.709 C 150.662 166.448,151.200 164.566,151.200 163.525 C 151.200 162.484,151.694 160.275,152.299 158.616 C 156.888 146.017,153.731 134.161,147.189 139.425 M238.522 247.094 C 236.400 248.935,236.208 254.112,238.036 260.250 C 240.559 268.723,241.039 270.089,242.877 274.032 C 245.505 279.668,255.088 288.800,258.375 288.800 C 258.799 288.800,260.412 289.404,261.960 290.142 C 266.621 292.365,271.296 288.477,270.029 283.432 C 269.576 281.624,264.187 277.601,262.216 277.599 C 260.482 277.597,254.789 271.763,253.239 268.400 C 252.428 266.640,251.450 264.562,251.065 263.783 C 250.680 263.003,250.134 260.681,249.852 258.622 C 249.569 256.563,248.860 253.961,248.274 252.839 C 247.689 251.718,247.208 250.226,247.205 249.524 C 247.191 245.998,241.593 244.431,238.522 247.094 M89.255 359.911 C 89.013 360.303,87.844 360.866,86.657 361.164 C 79.621 362.930,82.433 372.947,89.588 371.603 C 91.134 371.312,94.992 370.895,98.159 370.675 L 103.919 370.276 107.559 373.917 C 109.562 375.920,111.200 377.953,111.200 378.436 C 111.200 378.919,111.740 379.854,112.400 380.514 C 113.060 381.174,113.600 382.409,113.600 383.257 C 113.600 384.106,113.932 384.800,114.338 384.800 C 114.744 384.800,115.490 386.054,115.996 387.587 C 117.648 392.594,122.377 394.649,126.333 392.077 C 131.567 388.675,119.882 366.397,110.158 361.238 C 106.169 359.123,90.362 358.119,89.255 359.911 M318.400 390.357 C 314.712 391.500,307.615 395.615,296.941 402.800 C 291.904 406.191,287.472 412.073,284.583 419.200 C 278.891 433.243,279.243 440.795,285.599 440.975 C 289.809 441.095,291.053 439.158,293.677 428.400 C 294.983 423.050,297.557 418.316,300.916 415.088 C 304.454 411.689,315.791 404.000,317.265 404.000 C 317.782 404.000,318.652 403.460,319.200 402.800 C 319.748 402.140,320.709 401.600,321.336 401.600 C 323.245 401.600,326.400 397.540,326.400 395.083 C 326.400 390.859,323.091 388.904,318.400 390.357 " stroke="none" fill="#000000" fill-rule="evenodd"></path><path id="path1" d="M194.400 41.676 C 191.980 42.090,187.186 42.749,183.746 43.140 C 180.306 43.531,176.526 44.215,175.346 44.660 C 174.166 45.104,170.897 45.678,168.082 45.934 C 165.267 46.191,162.567 46.720,162.082 47.111 C 161.597 47.501,159.220 48.081,156.800 48.400 C 154.380 48.719,152.040 49.258,151.600 49.599 C 151.160 49.940,149.180 50.481,147.200 50.800 C 145.220 51.119,143.240 51.651,142.800 51.980 C 142.360 52.310,140.920 52.821,139.600 53.117 C 138.280 53.413,136.120 54.150,134.800 54.754 C 133.480 55.358,130.780 56.504,128.800 57.300 C 120.613 60.590,110.161 69.976,103.955 79.611 C 98.743 87.703,98.464 88.178,97.510 90.600 C 97.033 91.810,96.319 92.800,95.922 92.800 C 95.525 92.800,95.200 93.335,95.200 93.988 C 95.200 95.046,91.423 103.258,89.491 106.400 C 89.086 107.060,88.530 108.275,88.257 109.100 C 87.984 109.925,85.475 115.102,82.681 120.605 C 79.886 126.107,77.600 131.103,77.600 131.705 C 77.600 132.307,77.240 132.800,76.800 132.800 C 76.360 132.800,76.000 133.211,76.000 133.712 C 76.000 134.214,75.229 136.284,74.286 138.312 C 73.344 140.341,72.029 143.260,71.365 144.800 C 70.700 146.340,69.672 148.556,69.079 149.723 C 68.485 150.891,68.000 152.751,68.000 153.857 C 68.000 154.962,67.621 155.993,67.158 156.147 C 66.694 156.302,66.006 157.682,65.628 159.214 C 64.838 162.416,63.471 166.448,61.896 170.227 C 61.293 171.672,60.800 173.850,60.800 175.067 C 60.800 176.284,60.386 177.694,59.879 178.201 C 59.373 178.707,58.700 180.669,58.384 182.561 C 58.068 184.452,57.423 187.620,56.950 189.600 C 55.315 196.447,54.251 204.440,53.650 214.404 C 53.317 219.906,52.650 225.666,52.166 227.204 C 51.682 228.742,50.941 232.340,50.520 235.200 C 50.098 238.060,49.210 242.560,48.545 245.200 C 47.881 247.840,46.940 251.620,46.454 253.600 C 45.969 255.580,45.224 257.920,44.800 258.800 C 44.376 259.680,43.679 261.840,43.251 263.600 C 41.502 270.802,40.576 274.071,39.916 275.373 C 39.533 276.128,38.986 278.828,38.701 281.373 C 38.415 283.918,37.801 286.720,37.336 287.600 C 36.036 290.063,35.294 304.933,34.384 346.800 C 33.742 376.314,33.277 386.101,32.374 389.092 C 31.728 391.232,31.200 395.306,31.200 398.144 C 31.200 400.983,30.797 404.059,30.304 404.980 C 28.684 408.007,28.414 419.462,29.893 422.426 C 30.612 423.867,31.200 426.026,31.200 427.225 C 31.200 428.423,31.705 429.823,32.322 430.335 C 32.938 430.847,33.665 432.151,33.937 433.233 C 34.208 434.315,34.784 435.200,35.215 435.200 C 35.647 435.200,36.000 435.659,36.000 436.221 C 36.000 438.287,51.148 452.847,55.200 454.676 C 55.860 454.974,57.480 455.899,58.800 456.731 C 60.120 457.564,65.340 460.350,70.400 462.922 C 75.460 465.494,79.780 467.779,80.000 467.999 C 80.220 468.220,82.920 469.709,86.000 471.309 C 96.126 476.569,97.193 477.190,97.840 478.200 C 98.192 478.750,98.837 479.200,99.274 479.200 C 100.709 479.200,112.000 489.876,112.000 491.234 C 112.000 491.592,112.509 492.395,113.131 493.016 C 113.753 493.638,114.926 495.374,115.738 496.874 C 118.943 502.791,123.295 508.597,126.957 511.840 C 132.073 516.371,138.102 520.800,139.152 520.800 C 139.618 520.800,140.000 521.153,140.000 521.585 C 140.000 522.016,140.874 522.589,141.942 522.857 C 143.010 523.125,144.079 523.852,144.317 524.472 C 144.555 525.092,145.116 525.600,145.563 525.600 C 146.010 525.600,148.131 526.680,150.276 528.000 C 152.422 529.320,154.649 530.400,155.225 530.400 C 155.802 530.400,156.842 530.872,157.537 531.450 C 158.232 532.027,160.420 533.147,162.400 533.937 C 164.380 534.728,166.900 535.763,168.000 536.238 C 177.642 540.400,195.698 541.621,204.628 538.715 C 206.513 538.102,209.165 537.600,210.521 537.600 C 211.876 537.600,214.834 537.021,217.093 536.313 C 219.352 535.606,222.820 534.524,224.800 533.909 C 226.780 533.295,229.141 532.794,230.047 532.796 C 230.953 532.798,232.393 532.271,233.247 531.625 C 234.101 530.979,235.880 530.428,237.200 530.400 C 238.520 530.372,240.299 529.821,241.153 529.175 C 242.007 528.529,243.468 528.000,244.400 528.000 C 245.332 528.000,246.793 527.471,247.647 526.825 C 248.501 526.179,250.164 525.639,251.343 525.625 C 252.521 525.611,254.026 525.060,254.686 524.400 C 255.346 523.740,256.767 523.200,257.845 523.200 C 258.922 523.200,260.252 522.660,260.800 522.000 C 261.348 521.340,262.506 520.800,263.375 520.800 C 264.243 520.800,265.909 520.315,267.077 519.721 C 268.244 519.128,270.460 518.091,272.000 517.416 C 281.743 513.148,285.780 511.277,290.775 508.720 C 299.540 504.232,301.979 502.848,302.267 502.200 C 302.413 501.870,302.916 501.600,303.384 501.600 C 304.650 501.600,311.629 496.929,322.800 488.606 C 332.464 481.406,349.505 456.521,349.585 449.491 C 349.593 448.772,350.138 447.152,350.795 445.891 C 351.452 444.631,351.992 442.811,351.995 441.847 C 351.998 440.883,352.339 439.885,352.754 439.629 C 353.168 439.372,353.757 437.498,354.062 435.464 C 354.367 433.429,355.106 430.828,355.704 429.682 C 356.301 428.537,356.792 425.962,356.795 423.960 C 356.798 421.958,357.192 419.928,357.672 419.448 C 358.151 418.969,358.844 415.747,359.212 412.288 C 359.579 408.830,360.251 404.380,360.705 402.400 C 361.159 400.420,361.546 396.526,361.565 393.747 C 361.584 390.968,362.012 387.924,362.516 386.983 C 363.020 386.041,363.694 382.195,364.014 378.435 C 364.584 371.747,365.682 365.208,367.314 358.800 C 367.762 357.040,368.416 353.800,368.766 351.600 C 369.117 349.400,369.781 346.520,370.241 345.200 C 371.271 342.249,372.735 334.923,373.677 328.000 C 374.066 325.140,374.748 321.756,375.192 320.481 C 376.281 317.355,376.257 278.379,375.165 275.507 C 374.705 274.298,374.004 270.585,373.608 267.255 C 372.861 260.989,371.710 254.735,370.285 249.200 C 369.831 247.440,369.207 244.020,368.896 241.600 C 368.586 239.180,367.897 236.414,367.366 235.453 C 366.835 234.492,366.400 232.590,366.400 231.227 C 366.400 229.864,365.860 227.456,365.200 225.877 C 364.540 224.297,364.000 221.857,364.000 220.455 C 364.000 219.053,363.471 217.207,362.825 216.353 C 362.179 215.499,361.637 213.540,361.621 212.000 C 361.604 210.460,361.052 208.169,360.395 206.909 C 359.738 205.648,359.187 203.488,359.172 202.109 C 359.156 200.729,358.629 198.700,358.000 197.600 C 357.371 196.500,356.844 194.576,356.828 193.323 C 356.813 192.071,356.304 190.091,355.698 188.923 C 354.679 186.960,354.111 185.078,351.917 176.400 C 351.472 174.640,350.769 172.858,350.354 172.440 C 349.939 172.022,349.600 170.998,349.600 170.163 C 349.600 169.329,349.085 167.691,348.455 166.523 C 347.825 165.356,346.475 162.600,345.456 160.400 C 344.436 158.200,343.414 156.220,343.184 156.000 C 342.955 155.780,342.332 154.610,341.801 153.400 C 341.269 152.190,340.467 151.200,340.017 151.200 C 339.568 151.200,339.200 150.844,339.200 150.409 C 339.200 149.095,335.225 144.578,321.600 130.408 C 315.128 123.676,310.969 118.989,309.497 116.767 C 308.781 115.685,307.341 113.865,306.297 112.721 C 303.691 109.866,301.554 107.206,299.251 103.953 C 298.179 102.439,296.498 100.300,295.515 99.200 C 293.173 96.579,288.212 90.630,285.200 86.830 C 283.880 85.165,281.900 82.836,280.800 81.656 C 279.700 80.475,277.360 77.733,275.600 75.564 C 270.652 69.464,257.154 56.220,255.279 55.625 C 254.356 55.332,253.600 54.820,253.600 54.488 C 253.600 54.156,251.890 53.077,249.800 52.092 C 247.710 51.106,245.375 49.962,244.611 49.550 C 243.847 49.137,242.767 48.788,242.211 48.773 C 241.655 48.758,239.760 48.050,238.000 47.200 C 236.240 46.350,233.702 45.642,232.360 45.627 C 231.018 45.612,229.539 45.219,229.074 44.754 C 228.609 44.289,226.107 43.700,223.514 43.446 C 220.921 43.191,218.346 42.624,217.790 42.186 C 216.420 41.103,199.853 40.742,194.400 41.676 M212.984 42.861 C 224.345 45.027,234.766 47.406,235.600 48.023 C 236.040 48.349,237.561 48.864,238.981 49.167 C 250.295 51.586,266.401 65.345,284.049 87.668 C 286.714 91.040,301.708 109.619,303.363 111.600 C 304.098 112.480,306.927 115.900,309.649 119.200 C 312.372 122.500,317.525 128.219,321.100 131.908 C 324.675 135.597,328.334 139.377,329.231 140.308 C 339.386 150.842,345.872 161.878,349.973 175.600 C 350.762 178.240,351.771 181.300,352.215 182.400 C 352.660 183.500,353.311 185.660,353.662 187.200 C 354.013 188.740,355.046 192.520,355.958 195.600 C 356.869 198.680,357.952 202.640,358.364 204.400 C 359.418 208.899,360.744 214.127,362.017 218.800 C 362.617 221.000,363.700 225.500,364.425 228.800 C 365.150 232.100,366.247 236.780,366.864 239.200 C 367.480 241.620,368.379 245.760,368.860 248.400 C 369.342 251.040,370.258 255.900,370.896 259.200 C 375.149 281.200,376.250 301.960,373.990 317.516 C 372.349 328.807,369.166 344.990,366.814 354.000 C 366.240 356.200,365.163 361.600,364.421 366.000 C 363.680 370.400,362.561 376.880,361.936 380.400 C 361.310 383.920,360.799 388.240,360.800 390.000 C 360.801 391.760,360.280 396.080,359.642 399.600 C 358.496 405.925,357.349 412.813,355.937 421.843 C 355.537 424.396,354.848 427.162,354.405 427.990 C 353.962 428.818,353.600 430.411,353.600 431.531 C 353.600 432.651,353.095 434.925,352.477 436.584 C 351.860 438.243,350.748 441.580,350.007 444.000 C 348.561 448.721,347.603 451.076,343.823 459.200 C 335.988 476.036,323.946 488.046,301.599 501.312 C 293.157 506.324,269.831 517.600,267.906 517.600 C 267.433 517.600,266.091 518.101,264.923 518.714 C 263.756 519.326,261.180 520.447,259.200 521.204 C 255.820 522.496,254.008 523.173,246.600 525.908 C 238.899 528.751,221.339 533.760,211.600 535.892 C 194.455 539.645,189.695 539.957,180.000 537.967 C 158.425 533.538,128.946 515.834,120.776 502.399 C 109.485 483.830,104.712 479.377,85.200 469.213 C 54.361 453.149,52.948 452.258,43.999 443.248 C 32.053 431.220,29.562 423.697,31.560 405.692 C 32.203 399.901,32.939 394.822,33.196 394.407 C 34.374 392.501,35.289 374.122,35.991 338.261 C 36.567 308.863,37.053 297.885,37.976 293.461 C 38.648 290.237,39.199 286.651,39.199 285.492 C 39.200 284.332,39.726 281.632,40.370 279.492 C 49.362 249.570,52.864 234.696,54.379 220.000 C 56.677 197.705,57.712 191.303,61.102 178.400 C 62.327 173.736,66.464 160.956,67.834 157.600 C 68.283 156.500,69.424 153.620,70.368 151.200 C 71.313 148.780,72.407 146.080,72.799 145.200 C 73.192 144.320,74.295 141.800,75.251 139.600 C 77.339 134.793,89.321 110.040,96.548 95.600 C 107.115 74.488,116.829 63.738,130.419 58.119 C 132.388 57.305,135.202 56.125,136.672 55.498 C 141.532 53.423,155.450 49.935,169.600 47.245 C 172.020 46.785,175.800 46.051,178.000 45.614 C 180.200 45.176,185.420 44.406,189.600 43.901 C 193.780 43.397,198.820 42.721,200.800 42.399 C 202.780 42.077,204.843 41.766,205.384 41.707 C 205.925 41.648,209.345 42.168,212.984 42.861 M269.658 112.508 C 267.303 115.501,268.320 127.840,271.154 130.674 C 271.619 131.139,272.000 132.129,272.000 132.872 C 272.000 140.684,283.840 152.943,293.600 155.237 C 295.140 155.599,297.952 156.285,299.848 156.762 C 306.342 158.396,311.094 154.338,310.086 148.019 C 309.576 144.826,307.188 142.666,303.339 141.917 C 299.847 141.237,294.407 139.106,292.321 137.600 C 290.051 135.961,284.800 125.795,284.800 123.039 C 284.800 122.424,284.501 121.578,284.135 121.160 C 283.769 120.742,283.040 118.889,282.516 117.043 C 280.687 110.610,273.222 107.977,269.658 112.508 M278.729 113.662 C 279.868 115.016,281.002 117.086,281.249 118.262 C 281.496 119.438,282.216 121.582,282.849 123.027 C 283.482 124.472,284.000 126.336,284.000 127.170 C 284.000 128.004,284.479 129.165,285.065 129.751 C 285.651 130.337,286.358 131.723,286.636 132.831 C 287.171 134.964,291.240 139.981,292.471 140.027 C 292.872 140.042,294.640 140.750,296.400 141.600 C 298.160 142.450,300.510 143.158,301.622 143.173 C 306.487 143.238,310.581 150.188,307.400 152.981 C 304.608 155.433,296.877 155.322,292.048 152.762 C 291.361 152.398,289.090 151.294,286.999 150.308 C 279.403 146.726,271.606 132.735,269.988 119.781 C 269.042 112.208,274.368 108.479,278.729 113.662 M144.489 139.730 C 143.367 140.941,142.157 143.617,141.687 145.930 C 139.509 156.645,138.983 158.894,138.370 160.102 C 138.007 160.817,137.458 162.797,137.150 164.502 C 136.843 166.206,136.320 167.960,135.988 168.400 C 135.656 168.840,135.146 170.319,134.854 171.688 C 134.025 175.567,129.241 179.284,122.641 181.177 C 113.168 183.894,114.242 196.788,123.860 195.813 C 139.520 194.227,147.834 183.986,153.584 159.200 C 154.554 155.020,155.674 150.773,156.074 149.762 C 159.506 141.078,150.484 133.265,144.489 139.730 M152.484 139.818 C 155.475 142.273,155.398 150.110,152.299 158.616 C 151.694 160.275,151.200 162.484,151.200 163.525 C 151.200 164.566,150.662 166.448,150.005 167.709 C 149.348 168.969,148.808 170.589,148.805 171.309 C 148.802 172.028,148.262 173.648,147.605 174.909 C 146.948 176.169,146.408 177.786,146.405 178.502 C 146.402 179.218,145.860 180.252,145.200 180.800 C 144.540 181.348,144.000 182.159,144.000 182.603 C 144.000 183.302,141.257 186.071,137.299 189.368 C 136.660 189.900,135.203 190.570,134.061 190.856 C 132.919 191.143,131.787 191.697,131.545 192.089 C 131.303 192.480,130.551 192.800,129.874 192.800 C 129.196 192.800,127.398 193.390,125.877 194.112 C 123.504 195.238,122.827 195.271,121.094 194.344 C 116.159 191.702,116.548 186.018,121.820 183.739 C 131.809 179.423,134.627 177.503,135.595 174.355 C 135.925 173.280,136.493 172.026,136.856 171.569 C 137.495 170.764,138.143 168.507,140.409 159.200 C 140.998 156.780,141.867 153.542,142.340 152.005 C 142.813 150.468,143.200 148.206,143.200 146.977 C 143.200 141.109,148.798 136.792,152.484 139.818 M239.600 244.439 C 229.599 249.564,238.651 278.293,253.200 287.604 C 262.251 293.397,266.163 293.997,269.981 290.179 C 274.872 285.288,272.714 280.412,263.733 276.064 C 259.699 274.112,256.576 271.543,255.369 269.185 C 254.189 266.882,251.466 258.503,250.823 255.200 C 249.626 249.048,247.886 245.728,245.189 244.448 C 242.018 242.944,242.518 242.945,239.600 244.439 M245.737 246.924 C 246.542 247.652,247.202 248.822,247.205 249.524 C 247.208 250.226,247.689 251.718,248.274 252.839 C 248.860 253.961,249.569 256.563,249.852 258.622 C 250.134 260.681,250.680 263.003,251.065 263.783 C 251.450 264.562,252.428 266.640,253.239 268.400 C 254.789 271.763,260.482 277.597,262.216 277.599 C 264.187 277.601,269.576 281.624,270.029 283.432 C 271.296 288.477,266.621 292.365,261.960 290.142 C 260.412 289.404,258.799 288.800,258.375 288.800 C 255.088 288.800,245.505 279.668,242.877 274.032 C 241.039 270.089,240.559 268.723,238.036 260.250 C 234.841 249.521,239.569 241.342,245.737 246.924 M90.633 358.282 C 81.994 359.435,78.316 365.726,82.845 371.600 C 83.983 373.075,84.859 373.180,94.095 372.947 L 104.111 372.694 106.703 375.442 C 108.128 376.953,110.664 381.027,112.337 384.495 C 116.483 393.084,118.570 395.200,122.895 395.200 C 128.917 395.200,131.654 389.233,128.400 383.200 C 127.332 381.220,125.936 378.515,125.297 377.189 C 117.465 360.923,108.297 355.923,90.633 358.282 M110.158 361.238 C 119.882 366.397,131.567 388.675,126.333 392.077 C 122.377 394.649,117.648 392.594,115.996 387.587 C 115.490 386.054,114.744 384.800,114.338 384.800 C 113.932 384.800,113.600 384.106,113.600 383.257 C 113.600 382.409,113.060 381.174,112.400 380.514 C 111.740 379.854,111.200 378.919,111.200 378.436 C 111.200 377.953,109.562 375.920,107.559 373.917 L 103.919 370.276 98.159 370.675 C 94.992 370.895,91.134 371.312,89.588 371.603 C 82.433 372.947,79.621 362.930,86.657 361.164 C 87.844 360.866,89.013 360.303,89.255 359.911 C 90.362 358.119,106.169 359.123,110.158 361.238 M317.109 388.645 C 315.299 389.390,313.319 390.371,312.709 390.824 C 312.099 391.278,309.980 392.514,308.000 393.572 C 293.773 401.174,281.600 414.446,281.600 422.355 C 281.600 423.208,281.265 424.112,280.856 424.365 C 278.802 425.635,278.511 438.713,280.489 440.898 C 286.011 447.001,293.221 442.017,294.911 430.929 C 295.190 429.098,295.682 427.240,296.005 426.800 C 296.328 426.360,297.019 424.672,297.542 423.048 C 299.228 417.811,306.465 411.782,319.517 404.742 C 330.035 399.069,331.884 393.430,324.822 388.563 C 322.405 386.898,321.324 386.909,317.109 388.645 M324.800 391.200 C 327.756 394.156,325.277 401.600,321.336 401.600 C 320.709 401.600,319.748 402.140,319.200 402.800 C 318.652 403.460,317.782 404.000,317.265 404.000 C 315.791 404.000,304.454 411.689,300.916 415.088 C 297.557 418.316,294.983 423.050,293.677 428.400 C 291.053 439.158,289.809 441.095,285.599 440.975 C 279.243 440.795,278.891 433.243,284.583 419.200 C 287.472 412.073,291.904 406.191,296.941 402.800 C 315.524 390.290,321.431 387.831,324.800 391.200 " stroke="none" fill="#362e21" fill-rule="evenodd"></path><path id="path2" d="M200.800 42.399 C 198.820 42.721,193.780 43.397,189.600 43.901 C 185.420 44.406,180.200 45.176,178.000 45.614 C 175.800 46.051,172.020 46.785,169.600 47.245 C 155.450 49.935,141.532 53.423,136.672 55.498 C 135.202 56.125,132.388 57.305,130.419 58.119 C 116.829 63.738,107.115 74.488,96.548 95.600 C 89.321 110.040,77.339 134.793,75.251 139.600 C 74.295 141.800,73.192 144.320,72.799 145.200 C 72.407 146.080,71.313 148.780,70.368 151.200 C 69.424 153.620,68.283 156.500,67.834 157.600 C 66.464 160.956,62.327 173.736,61.102 178.400 C 57.712 191.303,56.677 197.705,54.379 220.000 C 52.864 234.696,49.362 249.570,40.370 279.492 C 39.726 281.632,39.200 284.332,39.199 285.492 C 39.199 286.651,38.648 290.237,37.976 293.461 C 37.053 297.885,36.567 308.863,35.991 338.261 C 35.289 374.122,34.374 392.501,33.196 394.407 C 32.939 394.822,32.203 399.901,31.560 405.692 C 29.562 423.697,32.053 431.220,43.999 443.248 C 52.948 452.258,54.361 453.149,85.200 469.213 C 104.712 479.377,109.485 483.830,120.776 502.399 C 128.946 515.834,158.425 533.538,180.000 537.967 C 189.695 539.957,194.455 539.645,211.600 535.892 C 221.339 533.760,238.899 528.751,246.600 525.908 C 254.008 523.173,255.820 522.496,259.200 521.204 C 261.180 520.447,263.756 519.326,264.923 518.714 C 266.091 518.101,267.433 517.600,267.906 517.600 C 269.831 517.600,293.157 506.324,301.599 501.312 C 323.946 488.046,335.988 476.036,343.823 459.200 C 347.603 451.076,348.561 448.721,350.007 444.000 C 350.748 441.580,351.860 438.243,352.477 436.584 C 353.095 434.925,353.600 432.651,353.600 431.531 C 353.600 430.411,353.962 428.818,354.405 427.990 C 354.848 427.162,355.537 424.396,355.937 421.843 C 357.349 412.813,358.496 405.925,359.642 399.600 C 360.280 396.080,360.801 391.760,360.800 390.000 C 360.799 388.240,361.310 383.920,361.936 380.400 C 362.561 376.880,363.680 370.400,364.421 366.000 C 365.163 361.600,366.240 356.200,366.814 354.000 C 369.166 344.990,372.349 328.807,373.990 317.516 C 376.250 301.960,375.149 281.200,370.896 259.200 C 370.258 255.900,369.342 251.040,368.860 248.400 C 368.379 245.760,367.480 241.620,366.864 239.200 C 366.247 236.780,365.150 232.100,364.425 228.800 C 363.700 225.500,362.617 221.000,362.017 218.800 C 360.744 214.127,359.418 208.899,358.364 204.400 C 357.952 202.640,356.869 198.680,355.958 195.600 C 355.046 192.520,354.013 188.740,353.662 187.200 C 353.311 185.660,352.660 183.500,352.215 182.400 C 351.771 181.300,350.762 178.240,349.973 175.600 C 345.872 161.878,339.386 150.842,329.231 140.308 C 328.334 139.377,324.675 135.597,321.100 131.908 C 317.525 128.219,312.372 122.500,309.649 119.200 C 306.927 115.900,304.098 112.480,303.363 111.600 C 301.708 109.619,286.714 91.040,284.049 87.668 C 266.401 65.345,250.295 51.586,238.981 49.167 C 237.561 48.864,236.040 48.349,235.600 48.023 C 234.304 47.063,207.552 41.471,205.384 41.707 C 204.843 41.766,202.780 42.077,200.800 42.399 M215.600 44.728 C 218.680 45.143,222.213 45.869,223.452 46.341 C 224.691 46.813,226.671 47.202,227.852 47.205 C 229.033 47.208,231.031 47.748,232.291 48.405 C 233.552 49.062,235.216 49.600,235.990 49.600 C 237.251 49.600,241.593 51.237,247.200 53.827 C 252.887 56.454,266.619 68.673,274.000 77.673 C 274.880 78.747,277.218 81.599,279.196 84.012 C 281.174 86.426,283.154 88.800,283.596 89.289 C 286.152 92.114,288.894 95.432,292.781 100.400 C 295.190 103.480,297.359 106.180,297.600 106.400 C 297.841 106.620,300.001 109.320,302.400 112.400 C 304.799 115.480,307.042 118.202,307.384 118.449 C 307.727 118.697,308.889 120.094,309.966 121.554 C 311.044 123.014,316.400 128.932,321.869 134.705 C 330.614 143.934,334.236 147.883,336.634 150.802 C 340.308 155.273,346.422 167.905,348.007 174.298 C 348.375 175.782,349.064 177.384,349.538 177.858 C 350.012 178.332,350.400 179.699,350.400 180.895 C 350.400 182.092,350.906 184.090,351.523 185.335 C 352.651 187.608,353.827 191.720,355.250 198.367 C 355.670 200.329,356.371 202.291,356.807 202.727 C 357.243 203.163,357.600 204.744,357.600 206.239 C 357.600 207.735,358.110 210.093,358.732 211.479 C 359.355 212.866,360.096 215.702,360.379 217.781 C 360.661 219.861,361.232 221.772,361.646 222.029 C 362.061 222.285,362.398 223.643,362.396 225.047 C 362.394 226.451,362.906 229.220,363.534 231.200 C 364.162 233.180,365.070 236.780,365.553 239.200 C 366.035 241.620,366.989 246.300,367.672 249.600 C 374.750 283.784,375.605 305.870,370.766 329.600 C 367.615 345.053,366.992 347.838,365.930 351.200 C 365.304 353.180,364.794 355.994,364.796 357.453 C 364.798 358.912,364.407 360.839,363.927 361.736 C 363.447 362.633,362.747 365.939,362.371 369.083 C 361.994 372.227,361.329 376.600,360.891 378.800 C 360.453 381.000,360.074 385.074,360.048 387.853 C 360.021 390.632,359.588 393.676,359.084 394.617 C 358.580 395.559,357.884 399.405,357.538 403.165 C 356.929 409.771,356.060 414.848,354.243 422.400 C 353.767 424.380,353.137 427.620,352.843 429.600 C 352.549 431.580,351.879 433.986,351.354 434.947 C 350.829 435.908,350.400 437.730,350.400 438.995 C 350.400 440.259,349.871 441.993,349.225 442.847 C 348.579 443.701,348.039 445.001,348.025 445.735 C 348.011 446.470,347.494 448.090,346.876 449.335 C 346.258 450.581,344.973 453.400,344.021 455.600 C 341.755 460.837,340.249 463.654,337.478 467.840 C 336.225 469.732,335.200 471.439,335.200 471.634 C 335.200 472.754,324.768 483.541,319.949 487.403 C 316.659 490.040,305.723 497.600,305.198 497.600 C 304.995 497.600,302.572 498.973,299.814 500.651 C 295.478 503.289,280.333 510.974,276.800 512.330 C 276.140 512.583,275.060 513.115,274.400 513.513 C 273.740 513.911,271.580 514.847,269.600 515.592 C 265.138 517.272,261.096 518.991,258.135 520.469 C 256.890 521.091,255.248 521.600,254.488 521.600 C 253.728 521.600,252.407 522.129,251.553 522.775 C 250.699 523.421,249.334 523.961,248.521 523.975 C 247.707 523.989,245.907 524.489,244.521 525.087 C 242.298 526.046,234.708 528.453,227.600 530.453 C 226.280 530.824,223.225 531.720,220.811 532.442 C 218.397 533.165,214.797 534.062,212.811 534.435 C 210.825 534.808,207.400 535.540,205.200 536.062 C 194.561 538.583,173.990 536.803,166.400 532.704 C 164.383 531.615,157.721 528.800,157.160 528.800 C 156.870 528.800,155.140 527.810,153.316 526.600 C 151.492 525.390,148.570 523.680,146.822 522.800 C 145.074 521.920,143.274 520.924,142.822 520.586 C 142.370 520.249,139.480 518.129,136.400 515.875 C 129.673 510.953,123.200 504.850,123.200 503.430 C 123.200 502.864,122.831 502.400,122.380 502.400 C 121.929 502.400,121.238 501.552,120.844 500.515 C 117.210 490.957,104.694 478.216,92.400 471.560 C 90.640 470.607,87.040 468.643,84.400 467.194 C 81.760 465.746,76.000 462.705,71.600 460.437 C 56.585 452.697,51.823 449.478,44.600 442.186 C 40.750 438.299,37.600 434.641,37.600 434.058 C 37.600 433.474,37.060 432.548,36.400 432.000 C 35.740 431.452,35.200 430.354,35.200 429.559 C 35.200 428.764,34.580 427.494,33.821 426.736 C 32.097 425.011,31.981 402.224,33.681 399.049 C 34.225 398.032,34.962 393.420,35.319 388.800 C 35.676 384.180,36.316 377.880,36.743 374.800 C 37.169 371.720,37.536 354.260,37.559 336.000 C 37.591 309.837,37.851 301.612,38.786 297.200 C 39.438 294.120,39.978 290.114,39.986 288.298 C 39.994 286.481,40.540 283.703,41.200 282.123 C 41.860 280.544,42.400 278.352,42.400 277.253 C 42.400 276.154,42.899 274.072,43.508 272.627 C 44.117 271.182,45.026 268.380,45.528 266.400 C 46.029 264.420,46.983 261.000,47.647 258.800 C 52.611 242.355,54.634 231.416,57.191 207.200 C 58.379 195.941,60.037 185.772,60.908 184.400 C 61.187 183.960,61.674 182.041,61.989 180.135 C 62.305 178.229,63.064 175.709,63.676 174.535 C 64.289 173.361,64.792 171.631,64.795 170.691 C 64.798 169.752,65.338 167.952,65.995 166.691 C 66.652 165.431,67.192 163.799,67.195 163.065 C 67.200 161.793,67.665 160.657,70.685 154.535 C 71.408 153.070,72.000 151.000,72.000 149.935 C 72.000 148.871,72.336 148.000,72.746 148.000 C 73.156 148.000,73.721 147.190,74.001 146.200 C 74.281 145.210,75.002 143.320,75.604 142.000 C 76.206 140.680,76.899 139.060,77.144 138.400 C 77.389 137.740,77.910 136.660,78.301 136.000 C 80.213 132.776,89.600 112.947,89.600 112.132 C 89.600 111.620,89.960 111.200,90.400 111.200 C 90.840 111.200,91.200 110.805,91.200 110.323 C 91.200 109.841,93.000 105.770,95.200 101.276 C 97.400 96.783,99.200 92.677,99.200 92.153 C 99.200 91.629,99.553 91.200,99.985 91.200 C 100.416 91.200,101.012 90.210,101.308 89.000 C 101.604 87.790,102.061 86.620,102.323 86.400 C 103.024 85.812,106.400 80.926,106.400 80.500 C 106.400 80.085,108.626 77.360,113.042 72.368 C 116.271 68.718,122.818 63.474,126.800 61.348 C 130.767 59.229,136.641 56.800,137.796 56.800 C 138.392 56.800,139.222 56.461,139.640 56.046 C 140.384 55.307,143.082 54.533,152.073 52.475 C 154.533 51.912,156.949 51.203,157.440 50.899 C 157.932 50.595,160.599 50.015,163.367 49.609 C 166.135 49.204,170.200 48.510,172.400 48.066 C 181.596 46.209,191.031 44.787,194.400 44.749 C 196.380 44.726,199.440 44.396,201.200 44.014 C 204.433 43.314,205.488 43.366,215.600 44.728 M271.512 109.283 C 268.285 110.619,266.057 115.121,266.762 118.880 C 267.078 120.565,266.837 122.595,266.129 124.202 C 262.027 133.519,261.782 137.381,262.718 178.000 C 263.451 209.826,261.922 242.222,259.572 244.682 C 259.424 244.838,257.242 243.990,254.723 242.798 C 251.133 241.100,249.524 240.753,247.272 241.194 C 245.692 241.503,243.140 241.991,241.599 242.278 C 233.750 243.741,230.986 257.015,236.410 267.198 C 236.996 268.299,238.258 270.820,239.213 272.800 C 240.168 274.780,241.374 277.159,241.892 278.086 C 243.009 280.085,247.768 285.600,248.376 285.600 C 248.609 285.600,249.522 286.322,250.404 287.204 C 252.047 288.847,252.049 288.832,249.676 293.294 C 249.414 293.786,247.661 296.126,245.780 298.494 C 243.899 300.862,241.679 303.700,240.847 304.800 C 239.049 307.178,221.089 325.415,215.981 330.049 C 206.211 338.913,186.713 352.323,176.800 356.996 C 168.464 360.926,163.074 363.200,162.096 363.200 C 161.491 363.200,160.548 363.740,160.000 364.400 C 159.452 365.060,158.501 365.600,157.885 365.600 C 157.270 365.600,154.524 366.651,151.783 367.936 C 130.713 377.812,129.128 378.476,127.817 377.973 C 127.228 377.747,125.858 375.866,124.773 373.795 C 123.688 371.723,122.350 369.546,121.800 368.957 C 121.250 368.368,120.798 367.641,120.796 367.343 C 120.794 367.044,119.624 365.532,118.196 363.983 C 106.618 351.421,77.172 354.632,79.761 368.174 C 80.260 370.785,78.165 372.799,74.943 372.805 C 73.544 372.808,71.369 373.348,70.109 374.005 C 68.848 374.662,67.408 375.207,66.909 375.215 C 64.774 375.251,58.262 380.251,56.298 383.362 C 51.700 390.646,51.461 398.983,55.623 406.962 C 56.265 408.193,56.792 409.833,56.795 410.606 C 56.803 413.000,60.942 419.827,65.043 424.214 C 67.195 426.516,71.032 431.100,73.570 434.400 C 79.680 442.347,89.707 451.822,95.625 455.241 C 98.251 456.759,101.120 458.436,102.000 458.968 C 102.880 459.501,104.500 460.401,105.600 460.968 C 108.290 462.356,110.543 464.314,115.894 469.917 C 120.031 474.247,121.659 475.811,128.060 481.600 C 129.276 482.700,131.587 485.580,133.195 488.000 C 136.963 493.670,141.626 498.578,147.059 502.591 C 149.443 504.352,152.011 506.380,152.766 507.097 C 153.521 507.813,156.628 510.760,159.670 513.645 C 172.211 525.540,188.681 528.181,208.400 521.461 C 209.720 521.011,212.060 520.354,213.600 520.000 C 217.153 519.184,221.397 517.687,224.123 516.289 C 225.291 515.690,226.957 515.200,227.825 515.200 C 228.694 515.200,229.852 514.660,230.400 514.000 C 230.948 513.340,232.107 512.800,232.977 512.800 C 234.533 512.800,238.211 511.415,242.665 509.151 C 243.910 508.518,245.720 508.000,246.687 508.000 C 247.653 508.000,249.154 507.510,250.022 506.910 C 250.890 506.311,253.400 505.557,255.600 505.235 C 257.800 504.914,259.960 504.366,260.400 504.018 C 260.840 503.669,262.460 503.122,264.000 502.802 C 265.540 502.481,268.780 501.319,271.200 500.220 C 273.620 499.121,277.130 497.541,279.000 496.711 C 284.732 494.164,289.087 491.968,291.600 490.356 C 292.920 489.510,294.540 488.566,295.200 488.259 C 296.822 487.504,308.833 479.313,310.669 477.709 C 312.593 476.030,316.793 469.788,316.825 468.560 C 316.839 468.032,317.379 466.901,318.025 466.047 C 318.671 465.193,319.200 464.045,319.200 463.496 C 319.200 462.948,320.280 461.316,321.600 459.871 C 322.920 458.426,324.000 456.925,324.000 456.537 C 324.000 456.148,325.080 454.467,326.400 452.800 C 327.720 451.133,328.800 449.513,328.800 449.200 C 328.800 448.887,329.873 447.276,331.184 445.620 C 337.558 437.573,345.199 420.162,346.465 410.800 C 347.205 405.329,348.501 398.677,349.738 394.000 C 350.203 392.240,350.740 380.900,350.931 368.800 C 351.193 352.168,351.561 346.064,352.439 343.784 C 353.077 342.125,353.600 339.559,353.600 338.082 C 353.600 336.604,354.140 334.103,354.800 332.523 C 355.460 330.944,356.004 328.470,356.009 327.026 C 356.013 325.582,356.553 322.633,357.209 320.473 C 357.864 318.313,358.400 314.059,358.400 311.020 C 358.400 307.981,358.821 304.708,359.336 303.747 C 359.850 302.786,360.555 299.300,360.900 296.000 C 361.246 292.700,361.892 287.170,362.336 283.712 C 362.883 279.441,362.876 274.949,362.313 269.712 C 361.857 265.470,361.228 259.300,360.915 256.000 C 360.602 252.700,359.908 249.214,359.373 248.253 C 358.838 247.292,358.387 245.312,358.372 243.853 C 358.356 242.394,357.829 240.300,357.200 239.200 C 356.571 238.100,356.044 236.279,356.028 235.153 C 356.013 234.027,355.471 232.407,354.825 231.553 C 354.179 230.699,353.639 229.079,353.625 227.953 C 353.611 226.827,353.071 225.207,352.425 224.353 C 351.779 223.499,351.239 222.136,351.225 221.323 C 351.211 220.511,350.699 218.891,350.086 217.723 C 349.474 216.556,348.331 213.980,347.546 212.000 C 346.762 210.020,345.283 206.510,344.260 204.200 C 343.237 201.890,341.487 197.930,340.371 195.400 C 339.255 192.870,337.992 190.260,337.566 189.600 C 337.139 188.940,336.569 187.860,336.299 187.200 C 335.570 185.421,332.826 179.778,332.018 178.400 C 331.632 177.740,331.102 176.660,330.841 176.000 C 330.580 175.340,329.130 172.640,327.618 170.000 C 326.107 167.360,324.536 164.480,324.128 163.600 C 323.721 162.720,320.984 159.321,318.046 156.048 L 312.705 150.095 313.246 145.046 C 314.367 134.583,304.207 122.252,287.840 114.209 C 276.087 108.434,274.626 107.993,271.512 109.283 M279.473 112.043 C 280.622 112.947,281.991 115.197,282.516 117.043 C 283.040 118.889,283.769 120.742,284.135 121.160 C 284.501 121.578,284.800 122.424,284.800 123.039 C 284.800 125.795,290.051 135.961,292.321 137.600 C 294.407 139.106,299.847 141.237,303.339 141.917 C 307.188 142.666,309.576 144.826,310.086 148.019 C 311.094 154.338,306.342 158.396,299.848 156.762 C 297.952 156.285,295.140 155.599,293.600 155.237 C 283.840 152.943,272.000 140.684,272.000 132.872 C 272.000 132.129,271.619 131.139,271.154 130.674 C 270.051 129.571,268.065 121.205,268.028 117.508 C 267.966 111.196,274.457 108.097,279.473 112.043 M142.076 136.750 C 135.149 137.500,126.635 146.761,120.422 160.304 C 119.994 161.237,119.415 162.180,119.136 162.400 C 116.700 164.316,112.689 175.596,113.080 179.434 C 114.160 190.052,114.872 192.836,117.066 195.027 C 124.683 202.635,150.400 187.275,150.400 175.118 C 150.400 174.355,150.906 172.710,151.523 171.465 C 152.803 168.886,154.144 163.964,155.277 157.696 C 155.705 155.329,156.402 152.743,156.827 151.949 C 157.252 151.155,157.600 148.204,157.600 145.392 C 157.600 137.134,154.492 135.404,142.076 136.750 M153.246 138.212 C 156.360 140.375,157.670 145.724,156.074 149.762 C 155.674 150.773,154.554 155.020,153.584 159.200 C 147.834 183.986,139.520 194.227,123.860 195.813 C 114.242 196.788,113.168 183.894,122.641 181.177 C 129.241 179.284,134.025 175.567,134.854 171.688 C 135.146 170.319,135.656 168.840,135.988 168.400 C 136.320 167.960,136.843 166.206,137.150 164.502 C 137.458 162.797,138.007 160.817,138.370 160.102 C 138.983 158.894,139.509 156.645,141.687 145.930 C 143.043 139.257,149.012 135.272,153.246 138.212 M245.189 244.448 C 247.886 245.728,249.626 249.048,250.823 255.200 C 251.466 258.503,254.189 266.882,255.369 269.185 C 256.576 271.543,259.699 274.112,263.733 276.064 C 272.714 280.412,274.872 285.288,269.981 290.179 C 266.163 293.997,262.251 293.397,253.200 287.604 C 238.651 278.293,229.599 249.564,239.600 244.439 C 242.518 242.945,242.018 242.944,245.189 244.448 M110.839 359.828 C 115.385 362.165,121.734 369.789,125.297 377.189 C 125.936 378.515,127.332 381.220,128.400 383.200 C 131.654 389.233,128.917 395.200,122.895 395.200 C 118.570 395.200,116.483 393.084,112.337 384.495 C 110.664 381.027,108.128 376.953,106.703 375.442 L 104.111 372.694 94.095 372.947 C 82.300 373.245,78.885 370.905,81.285 364.169 C 83.480 358.012,102.011 355.290,110.839 359.828 M324.822 388.563 C 331.884 393.430,330.035 399.069,319.517 404.742 C 306.465 411.782,299.228 417.811,297.542 423.048 C 297.019 424.672,296.328 426.360,296.005 426.800 C 295.682 427.240,295.190 429.098,294.911 430.929 C 293.221 442.017,286.011 447.001,280.489 440.898 C 278.511 438.713,278.802 425.635,280.856 424.365 C 281.265 424.112,281.600 423.208,281.600 422.355 C 281.600 414.446,293.773 401.174,308.000 393.572 C 309.980 392.514,312.099 391.278,312.709 390.824 C 316.954 387.668,322.124 386.704,324.822 388.563 " stroke="none" fill="#916e34" fill-rule="evenodd"></path><path id="path3" d="M201.200 44.014 C 199.440 44.396,196.380 44.726,194.400 44.749 C 191.031 44.787,181.596 46.209,172.400 48.066 C 170.200 48.510,166.135 49.204,163.367 49.609 C 160.599 50.015,157.932 50.595,157.440 50.899 C 156.949 51.203,154.533 51.912,152.073 52.475 C 143.082 54.533,140.384 55.307,139.640 56.046 C 139.222 56.461,138.392 56.800,137.796 56.800 C 136.641 56.800,130.767 59.229,126.800 61.348 C 122.818 63.474,116.271 68.718,113.042 72.368 C 108.626 77.360,106.400 80.085,106.400 80.500 C 106.400 80.926,103.024 85.812,102.323 86.400 C 102.061 86.620,101.604 87.790,101.308 89.000 C 101.012 90.210,100.416 91.200,99.985 91.200 C 99.553 91.200,99.200 91.629,99.200 92.153 C 99.200 92.677,97.400 96.783,95.200 101.276 C 93.000 105.770,91.200 109.841,91.200 110.323 C 91.200 110.805,90.840 111.200,90.400 111.200 C 89.960 111.200,89.600 111.620,89.600 112.132 C 89.600 112.947,80.213 132.776,78.301 136.000 C 77.910 136.660,77.389 137.740,77.144 138.400 C 76.899 139.060,76.206 140.680,75.604 142.000 C 75.002 143.320,74.281 145.210,74.001 146.200 C 73.721 147.190,73.156 148.000,72.746 148.000 C 72.336 148.000,72.000 148.871,72.000 149.935 C 72.000 151.000,71.408 153.070,70.685 154.535 C 67.665 160.657,67.200 161.793,67.195 163.065 C 67.192 163.799,66.652 165.431,65.995 166.691 C 65.338 167.952,64.798 169.752,64.795 170.691 C 64.792 171.631,64.289 173.361,63.676 174.535 C 63.064 175.709,62.305 178.229,61.989 180.135 C 61.674 182.041,61.187 183.960,60.908 184.400 C 60.037 185.772,58.379 195.941,57.191 207.200 C 54.634 231.416,52.611 242.355,47.647 258.800 C 46.983 261.000,46.029 264.420,45.528 266.400 C 45.026 268.380,44.117 271.182,43.508 272.627 C 42.899 274.072,42.400 276.154,42.400 277.253 C 42.400 278.352,41.860 280.544,41.200 282.123 C 40.540 283.703,39.994 286.481,39.986 288.298 C 39.978 290.114,39.438 294.120,38.786 297.200 C 37.851 301.612,37.591 309.837,37.559 336.000 C 37.536 354.260,37.169 371.720,36.743 374.800 C 36.316 377.880,35.676 384.180,35.319 388.800 C 34.962 393.420,34.225 398.032,33.681 399.049 C 31.981 402.224,32.097 425.011,33.821 426.736 C 34.580 427.494,35.200 428.764,35.200 429.559 C 35.200 430.354,35.740 431.452,36.400 432.000 C 37.060 432.548,37.600 433.474,37.600 434.058 C 37.600 434.641,40.750 438.299,44.600 442.186 C 51.823 449.478,56.585 452.697,71.600 460.437 C 76.000 462.705,81.760 465.746,84.400 467.194 C 87.040 468.643,90.640 470.607,92.400 471.560 C 104.694 478.216,117.210 490.957,120.844 500.515 C 121.238 501.552,121.929 502.400,122.380 502.400 C 122.831 502.400,123.200 502.864,123.200 503.430 C 123.200 504.850,129.673 510.953,136.400 515.875 C 139.480 518.129,142.370 520.249,142.822 520.586 C 143.274 520.924,145.074 521.920,146.822 522.800 C 148.570 523.680,151.492 525.390,153.316 526.600 C 155.140 527.810,156.870 528.800,157.160 528.800 C 157.721 528.800,164.383 531.615,166.400 532.704 C 173.990 536.803,194.561 538.583,205.200 536.062 C 207.400 535.540,210.825 534.808,212.811 534.435 C 214.797 534.062,218.397 533.165,220.811 532.442 C 223.225 531.720,226.280 530.824,227.600 530.453 C 234.708 528.453,242.298 526.046,244.521 525.087 C 245.907 524.489,247.707 523.989,248.521 523.975 C 249.334 523.961,250.699 523.421,251.553 522.775 C 252.407 522.129,253.728 521.600,254.488 521.600 C 255.248 521.600,256.890 521.091,258.135 520.469 C 261.096 518.991,265.138 517.272,269.600 515.592 C 271.580 514.847,273.740 513.911,274.400 513.513 C 275.060 513.115,276.140 512.583,276.800 512.330 C 280.333 510.974,295.478 503.289,299.814 500.651 C 302.572 498.973,304.995 497.600,305.198 497.600 C 305.723 497.600,316.659 490.040,319.949 487.403 C 324.768 483.541,335.200 472.754,335.200 471.634 C 335.200 471.439,336.225 469.732,337.478 467.840 C 340.249 463.654,341.755 460.837,344.021 455.600 C 344.973 453.400,346.258 450.581,346.876 449.335 C 347.494 448.090,348.011 446.470,348.025 445.735 C 348.039 445.001,348.579 443.701,349.225 442.847 C 349.871 441.993,350.400 440.259,350.400 438.995 C 350.400 437.730,350.829 435.908,351.354 434.947 C 351.879 433.986,352.549 431.580,352.843 429.600 C 353.137 427.620,353.767 424.380,354.243 422.400 C 356.060 414.848,356.929 409.771,357.538 403.165 C 357.884 399.405,358.580 395.559,359.084 394.617 C 359.588 393.676,360.021 390.632,360.048 387.853 C 360.074 385.074,360.453 381.000,360.891 378.800 C 361.329 376.600,361.994 372.227,362.371 369.083 C 362.747 365.939,363.447 362.633,363.927 361.736 C 364.407 360.839,364.798 358.912,364.796 357.453 C 364.794 355.994,365.304 353.180,365.930 351.200 C 366.992 347.838,367.615 345.053,370.766 329.600 C 375.605 305.870,374.750 283.784,367.672 249.600 C 366.989 246.300,366.035 241.620,365.553 239.200 C 365.070 236.780,364.162 233.180,363.534 231.200 C 362.906 229.220,362.394 226.451,362.396 225.047 C 362.398 223.643,362.061 222.285,361.646 222.029 C 361.232 221.772,360.661 219.861,360.379 217.781 C 360.096 215.702,359.355 212.866,358.732 211.479 C 358.110 210.093,357.600 207.735,357.600 206.239 C 357.600 204.744,357.243 203.163,356.807 202.727 C 356.371 202.291,355.670 200.329,355.250 198.367 C 353.827 191.720,352.651 187.608,351.523 185.335 C 350.906 184.090,350.400 182.092,350.400 180.895 C 350.400 179.699,350.012 178.332,349.538 177.858 C 349.064 177.384,348.375 175.782,348.007 174.298 C 346.422 167.905,340.308 155.273,336.634 150.802 C 334.236 147.883,330.614 143.934,321.869 134.705 C 316.400 128.932,311.044 123.014,309.966 121.554 C 308.889 120.094,307.727 118.697,307.384 118.449 C 307.042 118.202,304.799 115.480,302.400 112.400 C 300.001 109.320,297.841 106.620,297.600 106.400 C 297.359 106.180,295.190 103.480,292.781 100.400 C 288.894 95.432,286.152 92.114,283.596 89.289 C 283.154 88.800,281.174 86.426,279.196 84.012 C 277.218 81.599,274.880 78.747,274.000 77.673 C 266.619 68.673,252.887 56.454,247.200 53.827 C 241.593 51.237,237.251 49.600,235.990 49.600 C 235.216 49.600,233.552 49.062,232.291 48.405 C 231.031 47.748,229.033 47.208,227.852 47.205 C 226.671 47.202,224.691 46.813,223.452 46.341 C 221.459 45.581,215.939 44.666,207.200 43.647 C 205.660 43.468,202.960 43.633,201.200 44.014 M166.543 68.491 C 174.410 73.456,176.800 78.159,176.800 88.672 C 176.800 94.311,176.472 96.928,175.625 98.047 C 174.979 98.901,174.439 100.185,174.425 100.899 C 174.388 102.808,167.128 109.530,163.211 111.284 C 151.566 116.498,133.001 107.991,129.114 95.661 C 123.306 77.237,149.862 57.960,166.543 68.491 M287.840 114.209 C 304.207 122.252,314.367 134.583,313.246 145.046 L 312.705 150.095 318.046 156.048 C 320.984 159.321,323.721 162.720,324.128 163.600 C 324.536 164.480,326.107 167.360,327.618 170.000 C 329.130 172.640,330.580 175.340,330.841 176.000 C 331.102 176.660,331.632 177.740,332.018 178.400 C 332.826 179.778,335.570 185.421,336.299 187.200 C 336.569 187.860,337.139 188.940,337.566 189.600 C 337.992 190.260,339.255 192.870,340.371 195.400 C 341.487 197.930,343.237 201.890,344.260 204.200 C 345.283 206.510,346.762 210.020,347.546 212.000 C 348.331 213.980,349.474 216.556,350.086 217.723 C 350.699 218.891,351.211 220.511,351.225 221.323 C 351.239 222.136,351.779 223.499,352.425 224.353 C 353.071 225.207,353.611 226.827,353.625 227.953 C 353.639 229.079,354.179 230.699,354.825 231.553 C 355.471 232.407,356.013 234.027,356.028 235.153 C 356.044 236.279,356.571 238.100,357.200 239.200 C 357.829 240.300,358.356 242.394,358.372 243.853 C 358.387 245.312,358.838 247.292,359.373 248.253 C 359.908 249.214,360.602 252.700,360.915 256.000 C 361.228 259.300,361.857 265.470,362.313 269.712 C 362.876 274.949,362.883 279.441,362.336 283.712 C 361.892 287.170,361.246 292.700,360.900 296.000 C 360.555 299.300,359.850 302.786,359.336 303.747 C 358.821 304.708,358.400 307.981,358.400 311.020 C 358.400 314.059,357.864 318.313,357.209 320.473 C 356.553 322.633,356.013 325.582,356.009 327.026 C 356.004 328.470,355.460 330.944,354.800 332.523 C 354.140 334.103,353.600 336.604,353.600 338.082 C 353.600 339.559,353.077 342.125,352.439 343.784 C 351.561 346.064,351.193 352.168,350.931 368.800 C 350.740 380.900,350.203 392.240,349.738 394.000 C 348.501 398.677,347.205 405.329,346.465 410.800 C 345.199 420.162,337.558 437.573,331.184 445.620 C 329.873 447.276,328.800 448.887,328.800 449.200 C 328.800 449.513,327.720 451.133,326.400 452.800 C 325.080 454.467,324.000 456.148,324.000 456.537 C 324.000 456.925,322.920 458.426,321.600 459.871 C 320.280 461.316,319.200 462.948,319.200 463.496 C 319.200 464.045,318.671 465.193,318.025 466.047 C 317.379 466.901,316.839 468.032,316.825 468.560 C 316.793 469.788,312.593 476.030,310.669 477.709 C 308.833 479.313,296.822 487.504,295.200 488.259 C 294.540 488.566,292.920 489.510,291.600 490.356 C 289.087 491.968,284.732 494.164,279.000 496.711 C 277.130 497.541,273.620 499.121,271.200 500.220 C 268.780 501.319,265.540 502.481,264.000 502.802 C 262.460 503.122,260.840 503.669,260.400 504.018 C 259.960 504.366,257.800 504.914,255.600 505.235 C 253.400 505.557,250.890 506.311,250.022 506.910 C 249.154 507.510,247.653 508.000,246.687 508.000 C 245.720 508.000,243.910 508.518,242.665 509.151 C 238.211 511.415,234.533 512.800,232.977 512.800 C 232.107 512.800,230.948 513.340,230.400 514.000 C 229.852 514.660,228.694 515.200,227.825 515.200 C 226.957 515.200,225.291 515.690,224.123 516.289 C 221.397 517.687,217.153 519.184,213.600 520.000 C 212.060 520.354,209.720 521.011,208.400 521.461 C 188.681 528.181,172.211 525.540,159.670 513.645 C 156.628 510.760,153.521 507.813,152.766 507.097 C 152.011 506.380,149.443 504.352,147.059 502.591 C 141.626 498.578,136.963 493.670,133.195 488.000 C 131.587 485.580,129.276 482.700,128.060 481.600 C 121.659 475.811,120.031 474.247,115.894 469.917 C 110.543 464.314,108.290 462.356,105.600 460.968 C 104.500 460.401,102.880 459.501,102.000 458.968 C 101.120 458.436,98.251 456.759,95.625 455.241 C 89.707 451.822,79.680 442.347,73.570 434.400 C 71.032 431.100,67.195 426.516,65.043 424.214 C 60.942 419.827,56.803 413.000,56.795 410.606 C 56.792 409.833,56.265 408.193,55.623 406.962 C 51.461 398.983,51.700 390.646,56.298 383.362 C 58.262 380.251,64.774 375.251,66.909 375.215 C 67.408 375.207,68.848 374.662,70.109 374.005 C 71.369 373.348,73.544 372.808,74.943 372.805 C 78.165 372.799,80.260 370.785,79.761 368.174 C 77.172 354.632,106.618 351.421,118.196 363.983 C 119.624 365.532,120.794 367.044,120.796 367.343 C 120.798 367.641,121.250 368.368,121.800 368.957 C 122.350 369.546,123.688 371.723,124.773 373.795 C 125.858 375.866,127.228 377.747,127.817 377.973 C 129.128 378.476,130.713 377.812,151.783 367.936 C 154.524 366.651,157.270 365.600,157.885 365.600 C 158.501 365.600,159.452 365.060,160.000 364.400 C 160.548 363.740,161.491 363.200,162.096 363.200 C 163.074 363.200,168.464 360.926,176.800 356.996 C 186.713 352.323,206.211 338.913,215.981 330.049 C 221.089 325.415,239.049 307.178,240.847 304.800 C 241.679 303.700,243.899 300.862,245.780 298.494 C 247.661 296.126,249.414 293.786,249.676 293.294 C 252.049 288.832,252.047 288.847,250.404 287.204 C 249.522 286.322,248.609 285.600,248.376 285.600 C 247.768 285.600,243.009 280.085,241.892 278.086 C 241.374 277.159,240.168 274.780,239.213 272.800 C 238.258 270.820,236.996 268.299,236.410 267.198 C 230.986 257.015,233.750 243.741,241.599 242.278 C 243.140 241.991,245.692 241.503,247.272 241.194 C 249.524 240.753,251.133 241.100,254.723 242.798 C 257.242 243.990,259.424 244.838,259.572 244.682 C 261.922 242.222,263.451 209.826,262.718 178.000 C 261.782 137.381,262.027 133.519,266.129 124.202 C 266.837 122.595,267.078 120.565,266.762 118.880 C 266.057 115.121,268.285 110.619,271.512 109.283 C 274.626 107.993,276.087 108.434,287.840 114.209 M129.178 112.312 C 135.628 116.538,135.372 122.674,128.370 131.746 C 123.869 137.577,115.200 151.353,115.200 152.674 C 115.200 153.112,114.691 154.490,114.069 155.735 C 111.772 160.337,109.368 166.621,108.000 171.600 C 107.372 173.887,106.703 175.962,104.714 181.800 C 104.227 183.230,103.556 185.840,103.224 187.600 C 102.891 189.360,102.210 191.813,101.710 193.052 C 101.209 194.291,100.800 196.552,100.800 198.078 C 100.800 199.603,100.260 202.144,99.600 203.723 C 98.940 205.303,98.400 208.164,98.400 210.082 C 98.400 211.999,97.891 214.925,97.268 216.584 C 96.646 218.243,95.911 220.620,95.636 221.866 C 91.668 239.850,63.998 235.013,67.593 216.964 C 67.917 215.334,68.442 211.840,68.759 209.200 C 69.077 206.560,69.755 203.387,70.268 202.148 C 70.781 200.909,71.200 198.705,71.200 197.249 C 71.200 195.792,71.740 193.071,72.400 191.200 C 73.060 189.329,73.613 186.674,73.628 185.299 C 73.644 183.925,74.171 181.900,74.800 180.800 C 75.429 179.700,75.956 177.822,75.972 176.627 C 75.987 175.432,76.491 173.272,77.090 171.827 C 77.690 170.382,78.807 167.220,79.572 164.800 C 82.259 156.301,89.862 140.549,94.824 133.200 C 107.220 114.838,120.609 106.698,129.178 112.312 M155.679 138.474 C 157.764 140.433,158.482 148.858,156.827 151.949 C 156.402 152.743,155.705 155.329,155.277 157.696 C 154.144 163.964,152.803 168.886,151.523 171.465 C 150.906 172.710,150.400 174.355,150.400 175.118 C 150.400 187.275,124.683 202.635,117.066 195.027 C 114.872 192.836,114.160 190.052,113.080 179.434 C 112.689 175.596,116.700 164.316,119.136 162.400 C 119.415 162.180,119.994 161.237,120.422 160.304 C 122.271 156.274,130.270 144.218,133.276 140.931 C 137.985 135.782,151.263 134.326,155.679 138.474 " stroke="none" fill="#c3a779" fill-rule="evenodd"></path><path id="path4" d="M149.200 66.304 C 136.145 68.584,125.488 84.159,129.114 95.661 C 133.001 107.991,151.566 116.498,163.211 111.284 C 167.128 109.530,174.388 102.808,174.425 100.899 C 174.439 100.185,174.979 98.901,175.625 98.047 C 177.562 95.487,177.243 81.699,175.155 77.692 C 170.287 68.353,160.943 64.253,149.200 66.304 M117.200 111.723 C 103.980 117.207,87.087 141.036,79.572 164.800 C 78.807 167.220,77.690 170.382,77.090 171.827 C 76.491 173.272,75.987 175.432,75.972 176.627 C 75.956 177.822,75.429 179.700,74.800 180.800 C 74.171 181.900,73.644 183.925,73.628 185.299 C 73.613 186.674,73.060 189.329,72.400 191.200 C 71.740 193.071,71.200 195.792,71.200 197.249 C 71.200 198.705,70.781 200.909,70.268 202.148 C 69.755 203.387,69.077 206.560,68.759 209.200 C 68.442 211.840,67.917 215.334,67.593 216.964 C 63.998 235.013,91.668 239.850,95.636 221.866 C 95.911 220.620,96.646 218.243,97.268 216.584 C 97.891 214.925,98.400 211.999,98.400 210.082 C 98.400 208.164,98.940 205.303,99.600 203.723 C 100.260 202.144,100.800 199.603,100.800 198.078 C 100.800 196.552,101.209 194.291,101.710 193.052 C 102.210 191.813,102.891 189.360,103.224 187.600 C 103.556 185.840,104.227 183.230,104.714 181.800 C 106.703 175.962,107.372 173.887,108.000 171.600 C 109.368 166.621,111.772 160.337,114.069 155.735 C 114.691 154.490,115.200 153.112,115.200 152.674 C 115.200 151.353,123.869 137.577,128.370 131.746 C 134.178 124.222,135.078 121.265,132.874 116.945 C 129.892 111.099,123.687 109.033,117.200 111.723 " stroke="none" fill="#fee2b3" fill-rule="evenodd"></path></g></svg>